<svg id="Capa_1" data-name="Capa 1" xmlns="http://www.w3.org/2000/svg" viewBox="0 0 631.75 317"><defs><style>.cls-1{fill:#4363ac;}.cls-2{fill:#fff;}</style></defs><path class="cls-1" d="M206.13,213.65a7.45,7.45,0,0,1-2.22-5.41,7.53,7.53,0,0,1,2.22-5.53,8.39,8.39,0,0,1,11.46,0,7.53,7.53,0,0,1,2.27,5.49,7.42,7.42,0,0,1-2.27,5.39,7.72,7.72,0,0,1-5.73,2.28A7.64,7.64,0,0,1,206.13,213.65Z"/><path class="cls-2" d="M233.84,172.46l2.69,9.64q2.61,9.36,3.84,15.26.18-.65,6.31-21.52l.73-2.51h13.84q.83,2.88,2.81,10.28t3.73,14.62q1.41-6.16,4.25-15.86l2.88-9.91h13.84l-14.85,42.22H261.16q-4.56-15.36-6.94-25.18-.47,2.06-2.47,9.41t-4.62,15.77H233.84l-14.12-42.22Z"/><path class="cls-2" d="M327.42,211.82a25.86,25.86,0,0,1-25.68,1.28,19.66,19.66,0,0,1-7.86-7.9,26.35,26.35,0,0,1,0-23.6,19.2,19.2,0,0,1,7.86-7.86A23.6,23.6,0,0,1,313.16,171a23.21,23.21,0,0,1,11.13,2.6,18.78,18.78,0,0,1,7.54,7.24,20.77,20.77,0,0,1,2.67,10.54,25.89,25.89,0,0,1-.55,5.71H304a8.07,8.07,0,0,0,2.76,6,9.8,9.8,0,0,0,6.69,2.24,11.51,11.51,0,0,0,5.35-1.16,6.39,6.39,0,0,0,3.06-3h12.75A16.73,16.73,0,0,1,327.42,211.82Zm-6.31-23.23a6.41,6.41,0,0,0-2.44-5.07,10.48,10.48,0,0,0-12,0,6.68,6.68,0,0,0-2.53,5.07Z"/><path class="cls-2" d="M378.71,173.78a19.3,19.3,0,0,1,7.4,7.95,25.34,25.34,0,0,1,2.67,11.79,24.74,24.74,0,0,1-2.67,11.7,19.54,19.54,0,0,1-7.4,7.88,22.17,22.17,0,0,1-19.17,1.17,13.87,13.87,0,0,1-5.94-4.66l-.78,5.07H342v-64.2h13.07v25.09a14.52,14.52,0,0,1,5.44-3.36,21.23,21.23,0,0,1,7.4-1.21A21,21,0,0,1,378.71,173.78Zm-6.08,27.4a12.26,12.26,0,0,0,0-15.45,9.44,9.44,0,0,0-7.28-2.95,9.88,9.88,0,0,0-7.41,2.91,10.5,10.5,0,0,0-2.83,7.65,10.91,10.91,0,0,0,2.81,7.81,9.75,9.75,0,0,0,7.43,3A9.48,9.48,0,0,0,372.63,201.18Z"/><path class="cls-2" d="M397.17,163.87a8.22,8.22,0,0,1-.05-11.84,8.69,8.69,0,0,1,6.24-2.37,8.61,8.61,0,0,1,6.21,2.37,8.22,8.22,0,0,1,0,11.79,8.47,8.47,0,0,1-6.17,2.47A8.64,8.64,0,0,1,397.17,163.87Zm-.35,8.59h13.07v42.22H396.82Z"/><path class="cls-2" d="M456.47,175.75q4.23,4.75,4.23,12.75v26.18H447.59V191.56q0-8.69-7.13-8.68a7.14,7.14,0,0,0-5.67,2.19,9,9,0,0,0-1.92,6.12v23.49h-13V172.46h10.83l.86,4.61a13.67,13.67,0,0,1,5.46-4.43,17.6,17.6,0,0,1,7.61-1.64Q452.25,171,456.47,175.75Z"/><path class="cls-2" d="M515,172.46v42.22H502.46v-4.85a14.61,14.61,0,0,1-6,4.44,21,21,0,0,1-8.32,1.64,19.71,19.71,0,0,1-10.44-2.76,18.4,18.4,0,0,1-7-7.72,25.56,25.56,0,0,1-2.47-11.54,25.93,25.93,0,0,1,2.65-12,19.49,19.49,0,0,1,7.47-8,21.18,21.18,0,0,1,11-2.85q9.09,0,13.84,5.57l.87-4.11Zm-16,28.72a10.82,10.82,0,0,0,2.86-7.84,10.44,10.44,0,0,0-2.86-7.65,9.94,9.94,0,0,0-7.43-2.91,9.54,9.54,0,0,0-7.31,2.95,12.17,12.17,0,0,0,0,15.42,9.47,9.47,0,0,0,7.28,3A9.89,9.89,0,0,0,499.06,201.18Z"/><path class="cls-2" d="M551.77,172.46v11.33a15.66,15.66,0,0,0-2-.09c-3.75,0-6.63,1-8.66,3s-3,4.73-3,8.29v19.74H525V172.46h12l.82,5.71a8.15,8.15,0,0,1,3.7-4.55,12.42,12.42,0,0,1,6.31-1.53A20.8,20.8,0,0,1,551.77,172.46Z"/><path class="cls-2" d="M140,187.41c0,8.25-6.36,15.47-14.6,15.68a15,15,0,0,1-15.39-15V95.33A15.06,15.06,0,0,0,94.91,80.27H80V192.79A45.05,45.05,0,0,0,125,237.84h2.39a42.51,42.51,0,0,0,42.51-42.51v-23.1a.07.07,0,0,0-.07-.07H140a.07.07,0,0,0-.07.07Z"/><path class="cls-2" d="M169.94,119.49H140v30.25h30a15.12,15.12,0,0,0,0-30.23Z"/></svg>