<?xml version="1.0" standalone="no"?>
<!DOCTYPE svg PUBLIC "-//W3C//DTD SVG 20010904//EN"
 "http://www.w3.org/TR/2001/REC-SVG-20010904/DTD/svg10.dtd">
<svg version="1.0" xmlns="http://www.w3.org/2000/svg"
 width="260.000000pt" height="260.000000pt" viewBox="0 0 260.000000 260.000000"
 preserveAspectRatio="xMidYMid meet">
<metadata>
Created by potrace 1.11, written by Peter Selinger 2001-2013
</metadata>
<g transform="translate(0.000000,260.000000) scale(0.100000,-0.100000)"
fill="#000000" stroke="none">
<path d="M0 1300 l0 -1300 1300 0 1300 0 0 1300 0 1300 -1300 0 -1300 0 0
-1300z m841 1178 c54 -32 94 -86 108 -148 7 -29 11 -316 11 -788 0 -803 -2
-773 55 -840 41 -49 99 -75 171 -76 78 -1 144 37 189 108 29 48 30 53 35 205
l5 156 228 3 229 2 -4 -247 c-3 -239 -4 -251 -30 -321 -37 -104 -83 -175 -159
-251 -76 -77 -148 -122 -251 -159 -66 -24 -87 -26 -218 -27 -124 0 -156 3
-220 23 -212 66 -382 231 -456 443 l-29 84 -3 933 -3 934 148 -4 c139 -3 151
-5 194 -30z m1145 -603 c180 -112 136 -381 -69 -425 -32 -7 -137 -10 -277 -8
l-225 3 -3 220 c-1 121 0 226 3 233 4 11 54 13 263 10 l259 -3 49 -30z"/>
</g>
</svg>
