<svg width="152" height="67" viewBox="0 0 152 67" fill="none" xmlns="http://www.w3.org/2000/svg">
<g clip-path="url(#clip0)">
<path d="M88.07 59.26H93.06V41.05H88.07V59.26ZM108.21 59.26H113.21V41.05H108.21V59.26ZM127.77 41.05L123.93 53.49H123.86L120.03 41.05H114.78L121 59.26H126.57L132.73 41.05H127.77ZM30.44 50.17C30.44 47.25 31.46 44.33 34.84 44.33C38.26 44.33 39.28 47.25 39.28 50.17C39.28 53.06 38.25 55.99 34.84 55.99C31.46 55.99 30.44 53.06 30.44 50.17ZM25.44 50.17C25.44 55.96 29.14 59.76 34.85 59.76C40.59 59.76 44.28 55.96 44.28 50.17C44.28 44.36 40.59 40.55 34.85 40.55C29.13 40.55 25.44 44.36 25.44 50.17ZM51.3 49.5C51.3 46.79 52.53 44.33 55.35 44.33C58.59 44.33 59.6 46.97 59.6 49.93C59.6 52.53 58.19 54.97 55.35 54.97C52.28 54.96 51.3 52.12 51.3 49.5ZM46.29 49.57C46.29 54.58 48.62 58.73 54.08 58.73C56.27 58.73 58.45 57.82 59.54 55.92H59.6V58.31C59.64 60.92 58.37 62.82 55.59 62.82C53.83 62.82 52.32 62.18 51.86 60.31H46.9C47.14 64.47 51.34 66.16 54.93 66.16C63.32 66.16 64.37 61.08 64.37 58.09V41.05H59.6V43.48H59.54C58.34 41.36 56.51 40.55 54.11 40.55C49 40.55 46.29 44.86 46.29 49.57ZM72.57 43.58H72.47V41.05H67.71V59.26H72.7V49.71C72.7 46.02 73.87 44.51 76.58 44.51C78.91 44.51 79.78 45.99 79.78 48.98V59.26H84.78V48.06C84.78 43.55 83.44 40.55 78.12 40.55C76.02 40.55 73.82 41.54 72.57 43.58ZM138.37 54.08C138.37 52.25 139.78 51.72 141.33 51.41C142.88 51.12 144.64 51.09 145.48 50.35V52.21C145.48 53.3 145.34 56.41 141.43 56.41C139.82 56.41 138.37 55.95 138.37 54.08ZM133.93 46.65H138.93C139.1 44.68 140.34 43.9 142.24 43.9C144 43.9 145.47 44.22 145.47 46.37C145.47 48.41 142.62 48.31 139.55 48.77C136.45 49.19 133.35 50.17 133.35 54.29C133.35 58.03 136.1 59.76 139.55 59.76C141.77 59.76 144.1 59.16 145.69 57.51C145.73 58.11 145.86 58.7 146.05 59.27H151.12C150.66 58.52 150.48 56.87 150.48 55.21V45.74C150.48 41.37 146.11 40.56 142.47 40.56C138.4 40.55 134.22 41.97 133.93 46.65ZM97.69 35.59V41.06H94.65V44.4H97.69V55.14C97.69 58.77 100.37 59.47 103.42 59.47C104.41 59.47 105.5 59.44 106.35 59.29V55.39C105.82 55.49 105.33 55.53 104.8 55.53C103.11 55.53 102.68 55.1 102.68 53.42V44.4H106.35V41.06H102.68V35.59H97.69ZM88.21 37C88.21 38.3 89.27 39.35 90.57 39.35C91.87 39.35 92.92 38.3 92.92 37C92.92 35.7 91.87 34.64 90.57 34.64C89.27 34.64 88.21 35.7 88.21 37ZM0 46.79C0 54.05 4.59 59.86 12.36 59.86C18.52 59.86 22.86 55.85 23.42 49.57H18.06C17.65 52.89 15.74 55.21 12.36 55.21C7.4 55.21 5.53 50.98 5.53 46.8C5.53 42.4 7.4 38.17 12.36 38.17C15.11 38.17 17.51 40.06 17.86 42.57H23.22C22.55 36.76 17.89 33.52 12.36 33.52C4.59 33.51 0 39.32 0 46.79ZM108.31 32.19C108.01 32.58 108.08 33.14 108.47 33.46C108.87 33.76 109.43 33.7 109.73 33.3C109.78 33.25 109.81 33.19 109.84 33.13H109.88H109.94C109.98 33.13 110.01 33.14 110.05 33.15C110.11 33.18 110.17 33.22 110.23 33.27C110.29 33.32 110.32 33.39 110.34 33.45C110.36 33.49 110.36 33.53 110.36 33.53V34.67C109.23 34.84 108.37 35.82 108.37 36.99C108.37 38.29 109.43 39.34 110.72 39.34C112.02 39.34 113.08 38.29 113.08 36.99C113.08 35.76 112.14 34.76 110.93 34.64V33.65V33.53C110.93 33.44 110.91 33.36 110.89 33.29C110.85 33.12 110.76 32.97 110.64 32.86C110.52 32.74 110.38 32.65 110.21 32.59C110.12 32.56 110.05 32.55 109.97 32.55H109.9C109.86 32.35 109.76 32.17 109.58 32.03C109.41 31.9 109.22 31.84 109.02 31.84C108.75 31.85 108.49 31.96 108.31 32.19ZM116.01 29.93C115.97 29.99 115.95 30.05 115.91 30.09H113.9H113.84H113.81C113.75 30.09 113.68 30.09 113.6 30.12C113.48 30.14 113.37 30.18 113.27 30.25C113.07 30.4 112.92 30.62 112.9 30.85C112.89 30.92 112.89 30.98 112.89 31.02V31.07C112.74 31.13 112.61 31.22 112.52 31.35C112.21 31.74 112.29 32.31 112.67 32.62C113.06 32.93 113.63 32.85 113.94 32.46C114.24 32.07 114.17 31.5 113.78 31.2C113.69 31.14 113.61 31.09 113.52 31.06V31.02C113.52 31 113.52 30.97 113.53 30.96C113.54 30.88 113.58 30.82 113.64 30.78C113.66 30.76 113.7 30.75 113.74 30.73C113.76 30.72 113.8 30.72 113.84 30.72H115.87C115.92 30.9 116.03 31.07 116.19 31.19C116.58 31.49 117.15 31.43 117.44 31.03C117.75 30.64 117.67 30.07 117.28 29.77C117.12 29.64 116.92 29.58 116.73 29.58C116.45 29.58 116.18 29.7 116.01 29.93ZM100.81 28.91C100.81 29.42 101.21 29.81 101.7 29.81C102.19 29.81 102.59 29.43 102.6 28.93H105.01C105.06 28.93 105.11 28.95 105.14 28.99C105.18 29.02 105.21 29.06 105.22 29.12V29.17V29.52V29.61C105.22 29.7 105.25 29.78 105.29 29.86C105.36 30.01 105.51 30.14 105.66 30.2C105.75 30.23 105.82 30.25 105.91 30.25L110.68 30.26C110.73 30.47 110.84 30.67 111.02 30.82C111.42 31.12 111.97 31.06 112.28 30.66C112.59 30.27 112.51 29.7 112.12 29.4C111.74 29.09 111.17 29.16 110.87 29.56C110.82 29.63 110.78 29.69 110.76 29.76H105.93C105.9 29.76 105.87 29.76 105.85 29.74C105.8 29.73 105.76 29.69 105.74 29.64C105.73 29.62 105.73 29.59 105.73 29.59C105.72 29.54 105.72 29.54 105.72 29.54V29.19V29.06C105.7 28.89 105.61 28.71 105.48 28.61C105.36 28.5 105.18 28.43 105.01 28.43H102.47C102.31 28.18 102.03 28.01 101.71 28.01C101.21 28.02 100.81 28.43 100.81 28.91ZM111.44 26.01C111.13 26.4 111.21 26.96 111.6 27.27C111.68 27.33 111.77 27.37 111.85 27.4V27.48C111.85 27.49 111.85 27.51 111.84 27.53C111.83 27.58 111.79 27.64 111.74 27.68C111.71 27.7 111.69 27.7 111.65 27.72C111.65 27.72 111.62 27.73 111.6 27.73H111.56H107.6C107.56 27.52 107.45 27.32 107.27 27.18C106.88 26.88 106.32 26.95 106 27.34C105.69 27.73 105.76 28.3 106.15 28.6C106.54 28.9 107.12 28.83 107.42 28.44C107.44 28.41 107.46 28.38 107.48 28.35H111.57C111.61 28.35 111.63 28.35 111.66 28.34C111.71 28.34 111.76 28.34 111.81 28.32C111.91 28.29 112 28.26 112.08 28.19C112.26 28.07 112.38 27.9 112.43 27.7C112.44 27.66 112.46 27.6 112.46 27.6C112.47 27.52 112.47 27.48 112.47 27.48V27.4C112.62 27.34 112.75 27.25 112.86 27.12C113.16 26.73 113.09 26.17 112.71 25.87C112.55 25.74 112.35 25.68 112.16 25.68C111.89 25.66 111.62 25.78 111.44 26.01ZM113.78 25.2C113.47 25.59 113.55 26.15 113.94 26.46C114.03 26.52 114.13 26.58 114.23 26.61V27.83C114.09 27.88 113.96 27.98 113.86 28.1C113.57 28.49 113.63 29.06 114.02 29.37C114.41 29.67 114.98 29.6 115.28 29.21C115.59 28.82 115.51 28.26 115.12 27.95C115.07 27.91 115.02 27.89 114.98 27.86V26.52C115.05 26.47 115.13 26.4 115.19 26.32C115.5 25.93 115.43 25.37 115.04 25.06C114.88 24.93 114.68 24.87 114.49 24.87C114.23 24.86 113.96 24.98 113.78 25.2ZM108.51 24.73C108.5 24.75 108.49 24.77 108.48 24.79H103.81C103.74 24.79 103.66 24.8 103.58 24.83C103.42 24.88 103.28 24.99 103.19 25.14C103.14 25.22 103.11 25.3 103.1 25.38C103.09 25.42 103.08 25.47 103.08 25.51V26.77C103.08 26.77 103.08 26.82 103.08 26.85C103.08 26.89 103.04 26.94 103.01 26.97C102.97 26.99 102.93 27.01 102.87 27.01H101.05C100.97 26.61 100.6 26.3 100.18 26.3C99.68 26.3 99.27 26.69 99.27 27.19C99.27 27.68 99.68 28.09 100.18 28.09C100.55 28.09 100.87 27.86 101.01 27.53H102.88C103.04 27.53 103.21 27.46 103.34 27.37C103.47 27.26 103.56 27.1 103.58 26.95C103.6 26.88 103.6 26.82 103.6 26.82V25.5L103.61 25.48C103.62 25.44 103.62 25.43 103.64 25.4C103.66 25.37 103.71 25.34 103.75 25.32C103.77 25.31 103.8 25.31 103.82 25.31H108.32C108.32 25.56 108.44 25.83 108.66 26C109.05 26.3 109.62 26.23 109.92 25.84C110.23 25.45 110.15 24.88 109.76 24.58C109.6 24.45 109.41 24.39 109.21 24.39C108.96 24.38 108.69 24.5 108.51 24.73ZM94.65 23.85C94.65 24.24 94.89 24.57 95.24 24.7V25.51C95.24 25.51 95.23 25.53 95.22 25.55C95.21 25.58 95.19 25.6 95.16 25.62C95.13 25.64 95.11 25.66 95.07 25.64H91.25H91.21C91.19 25.64 91.18 25.63 91.16 25.63C91.13 25.61 91.12 25.59 91.1 25.56C91.09 25.55 91.09 25.53 91.09 25.53V25.37C91.51 25.29 91.83 24.92 91.83 24.48C91.83 23.99 91.43 23.58 90.93 23.58C90.43 23.58 90.03 23.98 90.03 24.48C90.03 24.9 90.31 25.24 90.7 25.35V25.48V25.55C90.71 25.6 90.73 25.65 90.75 25.71C90.79 25.81 90.87 25.9 90.95 25.95C91.01 25.98 91.05 26 91.11 26.02C91.13 26.03 91.16 26.03 91.18 26.03C91.2 26.03 91.22 26.03 91.24 26.03H95.06C95.17 26.03 95.27 25.99 95.35 25.94C95.44 25.88 95.52 25.79 95.56 25.69C95.57 25.64 95.59 25.59 95.59 25.52V24.75C96.06 24.71 96.43 24.33 96.43 23.86C96.43 23.37 96.02 22.97 95.53 22.97C95.05 22.96 94.65 23.36 94.65 23.85ZM119.83 21.98C119.53 22.36 119.59 22.93 119.99 23.24C120.04 23.29 120.1 23.31 120.15 23.34V23.46C120.15 23.52 120.12 23.59 120.08 23.64C120.03 23.69 119.97 23.73 119.91 23.73H119.86H118.02C117.77 23.73 117.52 23.83 117.33 23.99C117.14 24.16 117.01 24.4 116.97 24.65C116.97 24.72 116.97 24.78 116.97 24.83V27.23C116.82 27.29 116.68 27.39 116.58 27.51C116.27 27.91 116.34 28.47 116.74 28.77C117.13 29.08 117.7 29.01 118 28.62C118.3 28.22 118.23 27.66 117.84 27.36C117.82 27.34 117.79 27.33 117.76 27.31V24.82C117.76 24.82 117.76 24.78 117.77 24.75C117.77 24.7 117.81 24.64 117.86 24.59C117.91 24.55 117.97 24.53 118.03 24.53H119.88H119.99C120.24 24.5 120.49 24.38 120.65 24.2C120.83 24.01 120.94 23.75 120.94 23.49V23.34C121.05 23.28 121.17 23.19 121.25 23.08C121.55 22.7 121.48 22.13 121.09 21.82C120.93 21.69 120.73 21.63 120.54 21.63C120.28 21.63 120.01 21.75 119.83 21.98ZM106.27 21.27C106.27 21.73 106.63 22.1 107.08 22.16V22.19C107.08 22.23 107.07 22.26 107.06 22.29C107.04 22.32 107.02 22.34 106.99 22.36C106.96 22.38 106.92 22.39 106.9 22.39H99.13H99.08C99.05 22.39 99.02 22.4 98.98 22.4C98.92 22.41 98.86 22.42 98.8 22.45C98.69 22.5 98.59 22.58 98.52 22.68C98.45 22.78 98.4 22.89 98.37 23.01V23.14V24.07C98.01 24.19 97.75 24.52 97.75 24.92C97.75 25.42 98.16 25.83 98.65 25.83C99.15 25.83 99.54 25.42 99.54 24.92C99.54 24.51 99.26 24.17 98.88 24.05V23.14C98.88 23.14 98.87 23.1 98.88 23.08C98.88 23.04 98.89 23.02 98.92 22.98C98.94 22.96 98.97 22.94 99 22.92C99.02 22.92 99.03 22.91 99.05 22.9H106.74H106.9C107.02 22.9 107.15 22.86 107.25 22.79C107.36 22.74 107.45 22.64 107.5 22.54C107.57 22.43 107.6 22.31 107.6 22.18V22.05C107.88 21.89 108.07 21.6 108.07 21.26C108.07 20.76 107.67 20.36 107.17 20.36C106.68 20.37 106.27 20.77 106.27 21.27ZM116.3 20.02C116.27 20.07 116.24 20.13 116.21 20.18H114.78H114.74C114.69 20.18 114.65 20.19 114.6 20.2C114.51 20.22 114.42 20.26 114.35 20.33C114.19 20.43 114.08 20.61 114.05 20.79C114.04 20.84 114.04 20.88 114.04 20.94V21C113.91 21.06 113.8 21.14 113.7 21.26C113.4 21.66 113.47 22.21 113.86 22.52C114.25 22.83 114.82 22.76 115.11 22.36C115.42 21.97 115.35 21.41 114.96 21.1C114.84 21.02 114.72 20.97 114.59 20.94V20.93V20.88C114.59 20.84 114.62 20.8 114.67 20.77C114.68 20.75 114.71 20.74 114.72 20.74C114.73 20.73 114.75 20.73 114.76 20.73H116.14C116.17 20.94 116.28 21.14 116.46 21.28C116.85 21.59 117.41 21.51 117.72 21.12C118.02 20.73 117.96 20.16 117.57 19.87C117.4 19.74 117.21 19.68 117.01 19.68C116.74 19.68 116.48 19.79 116.3 20.02ZM83.47 20.11C83.47 20.6 83.87 21.01 84.36 21.01C84.73 21.01 85.05 20.78 85.19 20.45H85.35C85.35 20.45 85.37 20.45 85.4 20.46C85.42 20.46 85.45 20.47 85.47 20.48C85.52 20.49 85.57 20.52 85.6 20.57C85.63 20.6 85.65 20.65 85.66 20.71C85.67 20.73 85.67 20.77 85.67 20.79V22.06C85.66 22.26 85.71 22.43 85.8 22.58C85.89 22.74 86.03 22.88 86.18 22.98C86.34 23.06 86.51 23.11 86.68 23.11H87.51C87.66 23.41 87.96 23.61 88.32 23.61C88.81 23.61 89.22 23.21 89.22 22.71C89.22 22.21 88.81 21.81 88.32 21.81C87.95 21.81 87.62 22.03 87.49 22.36H86.68C86.63 22.36 86.58 22.34 86.54 22.32C86.5 22.3 86.46 22.26 86.43 22.21C86.4 22.16 86.39 22.12 86.39 22.06V20.78C86.39 20.72 86.39 20.65 86.38 20.6C86.36 20.41 86.28 20.23 86.16 20.09C86.05 19.94 85.89 19.84 85.71 19.78C85.62 19.75 85.54 19.73 85.45 19.72H85.35H85.16C85.01 19.43 84.7 19.22 84.35 19.22C83.87 19.21 83.47 19.61 83.47 20.11ZM98.05 19.99C98.05 20.38 98.29 20.7 98.62 20.84C98.62 20.84 98.62 20.85 98.61 20.85C98.59 20.89 98.54 20.92 98.51 20.94C98.49 20.94 98.48 20.94 98.46 20.94H98.43H90.21C90.21 20.94 90.18 20.94 90.16 20.94V20.93C90.38 20.77 90.54 20.5 90.54 20.2C90.54 19.7 90.13 19.29 89.64 19.29C89.14 19.29 88.74 19.7 88.74 20.2C88.74 20.67 89.11 21.06 89.58 21.09C89.64 21.2 89.71 21.28 89.81 21.34C89.89 21.39 89.97 21.43 90.06 21.45C90.1 21.45 90.15 21.47 90.19 21.47H98.42H98.49C98.53 21.47 98.57 21.45 98.61 21.44C98.79 21.4 98.94 21.28 99.04 21.13C99.09 21.04 99.12 20.97 99.14 20.88V20.87C99.53 20.77 99.82 20.42 99.82 19.99C99.82 19.49 99.42 19.1 98.93 19.1C98.45 19.1 98.05 19.5 98.05 19.99ZM101.74 17.81C101.69 17.81 101.63 17.82 101.58 17.82C101.47 17.85 101.37 17.89 101.28 17.97C101.19 18.05 101.12 18.13 101.08 18.23C101.03 18.33 101.01 18.44 101.01 18.55V19.37C100.68 19.5 100.44 19.82 100.44 20.21C100.44 20.71 100.84 21.11 101.33 21.11C101.83 21.11 102.23 20.71 102.23 20.21C102.23 19.78 101.94 19.43 101.54 19.34V18.55C101.54 18.52 101.54 18.48 101.55 18.46C101.57 18.42 101.58 18.4 101.6 18.38C101.63 18.36 101.66 18.35 101.69 18.34C101.7 18.34 101.71 18.34 101.74 18.34H103.79C103.83 18.34 103.86 18.34 103.88 18.37C103.91 18.38 103.94 18.41 103.96 18.43C103.98 18.45 103.99 18.49 103.99 18.49V19.04C103.99 19.08 103.99 19.12 103.99 19.16C104 19.27 104.04 19.38 104.11 19.47C104.16 19.57 104.25 19.64 104.35 19.7C104.45 19.75 104.56 19.79 104.68 19.79H110.39C110.36 19.82 110.33 19.85 110.3 19.89C110 20.28 110.06 20.85 110.46 21.14C110.85 21.44 111.42 21.38 111.72 20.99C112.03 20.6 111.96 20.02 111.56 19.73C111.43 19.63 111.3 19.58 111.14 19.55C111.13 19.53 111.12 19.53 111.11 19.5C111.04 19.42 110.94 19.35 110.83 19.31C110.78 19.3 110.72 19.28 110.67 19.28C110.63 19.27 110.59 19.27 110.54 19.27H104.69C104.65 19.27 104.63 19.27 104.6 19.25C104.56 19.23 104.54 19.22 104.53 19.19C104.51 19.16 104.49 19.13 104.49 19.1V18.57V18.54C104.49 18.54 104.49 18.47 104.48 18.45C104.47 18.33 104.42 18.23 104.36 18.14C104.29 18.05 104.2 17.97 104.11 17.92C104.01 17.86 103.89 17.84 103.77 17.84H101.74V17.81ZM118.53 17.97C118.23 18.37 118.3 18.92 118.69 19.24C119.08 19.54 119.65 19.47 119.96 19.07C120.03 18.97 120.09 18.85 120.12 18.73H120.45C120.49 18.73 120.52 18.74 120.56 18.76C120.59 18.79 120.61 18.81 120.62 18.84C120.62 18.87 120.63 18.88 120.63 18.88V18.95V19.53C120.49 19.59 120.35 19.67 120.25 19.81C119.94 20.2 120 20.77 120.4 21.07C120.8 21.38 121.37 21.3 121.67 20.91C121.97 20.52 121.9 19.95 121.51 19.65C121.41 19.58 121.3 19.53 121.2 19.49V18.87C121.19 18.8 121.17 18.72 121.14 18.66C121.1 18.52 121 18.4 120.88 18.31C120.75 18.22 120.6 18.17 120.46 18.17H120.08C120.03 18.04 119.93 17.91 119.81 17.82C119.64 17.69 119.45 17.63 119.25 17.63C118.97 17.63 118.7 17.74 118.53 17.97ZM95.22 16.78H89.79H89.68C89.59 16.79 89.51 16.82 89.42 16.87C89.26 16.95 89.12 17.09 89.06 17.26C89.03 17.35 89.01 17.44 89.01 17.54V18.35C89 18.4 88.98 18.43 88.94 18.46C88.93 18.46 88.91 18.48 88.89 18.49C88.87 18.49 88.87 18.5 88.81 18.5H87.29C87.18 18.12 86.85 17.84 86.43 17.84C85.93 17.84 85.52 18.24 85.52 18.74C85.52 19.24 85.92 19.63 86.43 19.63C86.8 19.63 87.12 19.4 87.26 19.07H88.84C88.92 19.07 89 19.06 89.08 19.03C89.17 19 89.25 18.95 89.32 18.89C89.46 18.77 89.56 18.6 89.58 18.43C89.6 18.37 89.6 18.33 89.6 18.29V17.53V17.49C89.62 17.43 89.66 17.39 89.7 17.36C89.71 17.36 89.73 17.35 89.75 17.35H89.8H95.26C95.39 17.68 95.71 17.91 96.1 17.91C96.59 17.91 96.99 17.52 96.99 17.02C96.99 16.53 96.59 16.13 96.1 16.13C95.68 16.14 95.34 16.41 95.22 16.78ZM113.36 14.35C113.05 14.75 113.12 15.31 113.51 15.61C113.9 15.92 114.47 15.85 114.77 15.45C114.84 15.37 114.89 15.28 114.92 15.18H117.11C117.14 15.18 117.17 15.2 117.2 15.22C117.23 15.23 117.26 15.27 117.27 15.3C117.28 15.31 117.28 15.33 117.28 15.33V16.5C117.28 16.53 117.28 16.55 117.29 16.58C117.31 16.73 117.36 16.87 117.45 16.99C117.54 17.1 117.68 17.2 117.82 17.24C117.88 17.26 117.96 17.27 118.04 17.27H119.97C120.04 17.27 120.12 17.27 120.17 17.25C120.31 17.22 120.45 17.14 120.54 17.02C120.63 16.91 120.7 16.77 120.73 16.63V16.52V16.47C120.9 16.42 121.06 16.32 121.19 16.16C121.49 15.77 121.42 15.2 121.03 14.9C120.64 14.6 120.07 14.67 119.77 15.06C119.47 15.46 119.54 16.01 119.93 16.32C120 16.37 120.08 16.42 120.16 16.45V16.55C120.15 16.58 120.14 16.61 120.12 16.65C120.1 16.67 120.06 16.69 120.03 16.7C120 16.7 120 16.71 119.97 16.7H118.04C118.02 16.7 118.01 16.7 117.99 16.7C117.96 16.69 117.93 16.67 117.9 16.64C117.88 16.61 117.87 16.58 117.87 16.51V15.39V15.3C117.86 15.22 117.85 15.15 117.81 15.07C117.75 14.93 117.66 14.81 117.54 14.73C117.42 14.65 117.28 14.6 117.11 14.6H114.92C114.86 14.44 114.77 14.29 114.63 14.18C114.47 14.05 114.27 13.99 114.08 13.99C113.8 14 113.53 14.12 113.36 14.35ZM103.1 13.88C103.1 14.3 103.38 14.64 103.77 14.74V15.95V16C103.76 16.04 103.76 16.08 103.73 16.1C103.71 16.14 103.69 16.17 103.66 16.18C103.63 16.2 103.59 16.23 103.56 16.23C103.55 16.24 103.53 16.24 103.53 16.24H97.97C97.93 16.24 97.89 16.23 97.86 16.21C97.79 16.17 97.74 16.12 97.72 16.05C97.72 16.05 97.7 16.03 97.7 16C97.7 16 97.7 15.96 97.7 15.94V14.61C97.7 14.58 97.7 14.57 97.7 14.55C97.7 14.51 97.72 14.47 97.74 14.44C97.78 14.38 97.85 14.33 97.91 14.32H97.99H100.11C100.25 14.62 100.56 14.83 100.92 14.83C101.41 14.83 101.82 14.43 101.82 13.93C101.82 13.43 101.41 13.03 100.92 13.03C100.51 13.03 100.16 13.32 100.06 13.7H98.09H98C97.94 13.7 97.87 13.7 97.8 13.72C97.57 13.77 97.35 13.92 97.22 14.13C97.15 14.23 97.11 14.35 97.1 14.47C97.09 14.52 97.09 14.58 97.09 14.62V15.95C97.09 16 97.09 16.04 97.1 16.08C97.1 16.14 97.12 16.19 97.14 16.25C97.21 16.48 97.39 16.68 97.62 16.78C97.73 16.83 97.85 16.86 97.97 16.86H103.41H103.53C103.59 16.86 103.66 16.86 103.71 16.84C103.84 16.8 103.95 16.76 104.04 16.68C104.14 16.61 104.23 16.51 104.28 16.41C104.33 16.3 104.37 16.18 104.39 16.07C104.4 16.02 104.4 15.98 104.4 15.94V14.67C104.7 14.53 104.91 14.22 104.91 13.87C104.91 13.37 104.52 12.97 104.02 12.97C103.5 12.97 103.1 13.37 103.1 13.88ZM77.11 13.13C77.11 13.62 77.51 14.03 78.01 14.03C78.06 14.03 78.1 14.03 78.14 14.02V16.03V16.11C78.15 16.17 78.15 16.22 78.16 16.26C78.18 16.37 78.22 16.48 78.27 16.58C78.38 16.78 78.55 16.94 78.76 17.03C78.81 17.06 78.87 17.07 78.93 17.09C79.08 17.37 79.38 17.57 79.72 17.57C80.22 17.57 80.62 17.17 80.62 16.68C80.62 16.18 80.21 15.78 79.72 15.78C79.42 15.78 79.15 15.94 78.98 16.17C78.97 16.15 78.96 16.13 78.96 16.11C78.95 16.11 78.95 16.09 78.95 16.09L78.94 16.03L78.95 14C78.95 13.96 78.94 13.93 78.94 13.93C78.93 13.76 78.89 13.61 78.82 13.49C78.88 13.38 78.9 13.26 78.9 13.13C78.9 12.64 78.5 12.24 78 12.24C77.51 12.24 77.11 12.64 77.11 13.13ZM83.1 13.05C83.1 13.55 83.51 13.95 84.01 13.95C84.4 13.95 84.72 13.71 84.85 13.37H86.89C86.91 13.37 86.94 13.39 86.97 13.41C86.99 13.43 87.01 13.45 87.02 13.49C87.02 13.5 87.02 13.51 87.02 13.51V16.08C87.02 16.08 87.02 16.11 87.02 16.12C87.01 16.16 86.99 16.17 86.97 16.19C86.95 16.21 86.92 16.23 86.89 16.23C86.88 16.23 86.86 16.23 86.83 16.23H86.32C86.19 15.89 85.86 15.63 85.48 15.63C84.98 15.63 84.58 16.04 84.58 16.53C84.58 17.03 84.98 17.44 85.48 17.44C85.91 17.44 86.26 17.14 86.35 16.74H86.85C86.88 16.74 86.92 16.74 86.96 16.72C87.08 16.71 87.2 16.65 87.3 16.57C87.4 16.49 87.47 16.38 87.5 16.26C87.52 16.19 87.53 16.13 87.53 16.07V13.5C87.53 13.43 87.52 13.38 87.5 13.32C87.46 13.2 87.39 13.09 87.29 13.01C87.19 12.93 87.08 12.88 86.94 12.86C86.92 12.86 86.89 12.86 86.85 12.86H84.88C84.79 12.46 84.43 12.16 84.01 12.16C83.51 12.16 83.1 12.56 83.1 13.05ZM89.73 10.83C89.73 11.33 90.13 11.73 90.63 11.73C91.02 11.73 91.35 11.48 91.48 11.13H92.94C92.96 11.13 92.98 11.14 92.99 11.14C93.03 11.15 93.05 11.17 93.09 11.2C93.11 11.23 93.14 11.26 93.15 11.29C93.15 11.3 93.15 11.32 93.15 11.32V13.32C92.81 13.45 92.59 13.78 92.59 14.15C92.59 14.65 92.99 15.05 93.48 15.05C93.99 15.05 94.38 14.65 94.38 14.15C94.38 13.81 94.18 13.5 93.9 13.35V11.35C93.9 11.26 93.89 11.19 93.87 11.1C93.82 10.94 93.74 10.8 93.63 10.68C93.51 10.56 93.36 10.46 93.21 10.42C93.15 10.4 93.06 10.38 92.96 10.38H91.41C91.25 10.11 90.96 9.92 90.63 9.92C90.13 9.93 89.73 10.33 89.73 10.83ZM111.59 10.23C111.53 10.3 111.5 10.37 111.46 10.45H109.83C109.7 10.46 109.57 10.51 109.47 10.59C109.36 10.66 109.27 10.75 109.22 10.88C109.2 10.93 109.18 11 109.16 11.07C109.16 11.09 109.15 11.12 109.15 11.15V14.99C109.15 15.13 109.18 15.25 109.25 15.36C109.3 15.48 109.4 15.57 109.52 15.63C109.63 15.7 109.76 15.73 109.89 15.73H110.13C110.2 15.85 110.28 15.96 110.39 16.05C110.78 16.36 111.35 16.29 111.65 15.9C111.95 15.5 111.88 14.93 111.49 14.64C111.1 14.33 110.53 14.4 110.23 14.79C110.12 14.92 110.08 15.05 110.05 15.2H109.86C109.83 15.2 109.79 15.19 109.76 15.17C109.73 15.15 109.71 15.13 109.68 15.1C109.67 15.07 109.66 15.04 109.66 15V11.15C109.66 11.13 109.67 11.11 109.67 11.09C109.69 11.07 109.71 11.03 109.75 11.01C109.78 10.99 109.81 10.98 109.83 10.98L111.4 10.97C111.45 11.17 111.55 11.36 111.72 11.49C112.11 11.79 112.68 11.72 112.99 11.33C113.29 10.94 113.22 10.37 112.83 10.07C112.66 9.94 112.47 9.88 112.28 9.88C112.03 9.89 111.77 10.01 111.59 10.23ZM115.26 6.74C114.95 7.13 115.02 7.69 115.42 8C115.78 8.28 116.28 8.24 116.6 7.92V10.73C116.6 10.77 116.6 10.82 116.61 10.85C116.63 11 116.71 11.12 116.81 11.23C116.91 11.33 117.05 11.4 117.19 11.43C117.22 11.44 117.26 11.44 117.31 11.44H119.06H119.13C119.16 11.45 119.2 11.47 119.23 11.49C119.25 11.51 119.28 11.55 119.28 11.58V11.62V12.32C119.08 12.36 118.89 12.47 118.75 12.65C118.45 13.04 118.52 13.6 118.92 13.91C119.31 14.21 119.88 14.14 120.18 13.74C120.49 13.36 120.41 12.79 120.02 12.48C119.96 12.43 119.9 12.41 119.84 12.38V11.66V11.59C119.83 11.55 119.83 11.51 119.82 11.48C119.79 11.34 119.72 11.2 119.61 11.1C119.51 11 119.37 10.93 119.23 10.92C119.18 10.91 119.14 10.91 119.08 10.91H117.38H117.32C117.29 10.91 117.25 10.88 117.22 10.86C117.2 10.84 117.17 10.8 117.17 10.74V7.91C117.17 7.83 117.16 7.77 117.13 7.69C117.09 7.56 117 7.45 116.89 7.36C116.91 7.06 116.79 6.77 116.54 6.58C116.38 6.45 116.18 6.39 115.99 6.39C115.71 6.39 115.44 6.51 115.26 6.74ZM87.26 6.72C87.26 7.12 87.52 7.45 87.88 7.57V10.96C87.88 10.99 87.88 11 87.87 11.01C87.86 11.05 87.84 11.07 87.82 11.09C87.8 11.11 87.76 11.12 87.72 11.13H87.68H83.24C83.22 11.13 83.21 11.13 83.19 11.12C83.17 11.11 83.15 11.09 83.12 11.07C83.1 11.04 83.09 11.01 83.08 10.99V10.95V7.95C83.08 7.95 83.09 7.92 83.09 7.9C83.1 7.87 83.12 7.85 83.14 7.83C83.17 7.81 83.19 7.8 83.22 7.79H83.28H84.03C84.14 8.15 84.48 8.42 84.88 8.42C85.38 8.42 85.78 8.01 85.78 7.52C85.78 7.03 85.38 6.63 84.88 6.63C84.49 6.63 84.16 6.88 84.04 7.23H83.25C83.21 7.23 83.17 7.24 83.13 7.24C83 7.26 82.87 7.32 82.77 7.4C82.67 7.48 82.58 7.6 82.54 7.72C82.52 7.78 82.51 7.85 82.5 7.92V10.96C82.5 11.01 82.5 11.03 82.51 11.07C82.53 11.21 82.58 11.33 82.66 11.45C82.75 11.55 82.86 11.64 82.98 11.68C83.04 11.71 83.11 11.73 83.18 11.73C83.21 11.74 83.24 11.74 83.27 11.74H87.68H87.75C87.78 11.73 87.82 11.73 87.85 11.72C87.98 11.7 88.11 11.64 88.2 11.55C88.31 11.46 88.38 11.34 88.42 11.21C88.44 11.14 88.44 11.07 88.44 11V7.6C88.8 7.47 89.05 7.14 89.05 6.75C89.05 6.25 88.65 5.85 88.15 5.85C87.66 5.83 87.26 6.22 87.26 6.72ZM78.82 6.33H78.57C78.53 6.33 78.48 6.34 78.45 6.35C78.37 6.36 78.3 6.4 78.22 6.43C78.08 6.52 77.97 6.65 77.9 6.79C77.87 6.87 77.85 6.95 77.85 7.03V7.13V9.3C77.85 9.35 77.84 9.38 77.82 9.41C77.79 9.44 77.76 9.46 77.72 9.48H77.66H77.54C77.43 9.11 77.09 8.83 76.68 8.83C76.18 8.83 75.79 9.23 75.79 9.73C75.79 10.23 76.19 10.63 76.68 10.63C77.06 10.63 77.38 10.39 77.51 10.06H77.67C77.75 10.06 77.82 10.05 77.88 10.03C78.04 9.98 78.18 9.88 78.27 9.75C78.37 9.62 78.42 9.46 78.42 9.3V7.06C78.42 7.04 78.42 7.02 78.44 7.01C78.45 6.98 78.48 6.94 78.51 6.93C78.53 6.92 78.55 6.91 78.6 6.91H78.95C79.11 7.17 79.39 7.35 79.72 7.35C80.22 7.35 80.62 6.95 80.62 6.46C80.62 5.97 80.21 5.57 79.72 5.57C79.26 5.56 78.89 5.9 78.82 6.33ZM96.29 6.43C96.29 6.84 96.57 7.18 96.93 7.29V8.76C96.93 8.76 96.94 8.83 96.94 8.87C96.95 8.94 96.98 9.01 97.02 9.08C97.09 9.21 97.2 9.32 97.34 9.38C97.4 9.42 97.47 9.44 97.55 9.45C97.59 9.46 97.63 9.46 97.7 9.46H101.36C101.44 9.46 101.51 9.45 101.58 9.43C101.72 9.38 101.85 9.3 101.94 9.17C102.03 9.05 102.07 8.9 102.07 8.76V7.91C102.49 7.83 102.81 7.47 102.81 7.03C102.81 6.53 102.41 6.13 101.92 6.13C101.42 6.13 101.01 6.53 101.01 7.03C101.01 7.4 101.25 7.73 101.57 7.86V8.76C101.57 8.76 101.55 8.84 101.53 8.88C101.5 8.92 101.47 8.95 101.42 8.96C101.4 8.97 101.37 8.97 101.35 8.97H97.74H97.67H97.63C97.61 8.97 97.59 8.96 97.57 8.95C97.53 8.94 97.5 8.89 97.48 8.86C97.46 8.84 97.45 8.83 97.45 8.78V7.29C97.82 7.18 98.11 6.84 98.11 6.43C98.11 5.93 97.71 5.53 97.21 5.53C96.69 5.53 96.29 5.93 96.29 6.43ZM103.44 6.19C103.44 6.55 103.65 6.85 103.96 7V11.27V11.35C103.98 11.46 104.01 11.57 104.07 11.67C104.13 11.76 104.22 11.84 104.31 11.91C104.41 11.96 104.52 11.99 104.64 12H107.8C107.84 12 107.88 12.01 107.9 12.02C107.94 12.05 107.96 12.07 107.97 12.1C108 12.13 108.01 12.16 108.01 12.16V15.42C108.01 15.42 108.01 15.48 108 15.51C108 15.55 107.98 15.59 107.95 15.61C107.93 15.63 107.9 15.65 107.86 15.67C107.84 15.67 107.82 15.69 107.8 15.69H107.13C107.11 15.45 107 15.22 106.79 15.06C106.39 14.76 105.83 14.82 105.53 15.22C105.22 15.62 105.3 16.18 105.68 16.48C106.07 16.79 106.64 16.72 106.95 16.32C106.98 16.27 107.01 16.22 107.04 16.16H107.75C107.78 16.16 107.81 16.16 107.83 16.16C107.88 16.16 107.94 16.15 108 16.12C108.11 16.08 108.2 16.01 108.28 15.93C108.35 15.85 108.41 15.74 108.44 15.63C108.46 15.55 108.46 15.47 108.46 15.4V12.25V12.17C108.45 12.06 108.42 11.94 108.35 11.84C108.28 11.74 108.2 11.67 108.1 11.61C108 11.55 107.89 11.52 107.77 11.52H104.6C104.57 11.52 104.54 11.51 104.51 11.49C104.47 11.48 104.45 11.45 104.44 11.42C104.41 11.39 104.4 11.36 104.4 11.36L104.39 7.08C104.84 7.03 105.2 6.65 105.2 6.2C105.2 5.7 104.79 5.3 104.3 5.3C103.84 5.3 103.44 5.69 103.44 6.19ZM81.13 4.9C81.13 5.17 81.25 5.41 81.43 5.58V8.2V8.25C81.42 8.31 81.39 8.33 81.36 8.36C81.33 8.38 81.3 8.39 81.24 8.39H79.86C79.79 8.39 79.71 8.41 79.63 8.43C79.48 8.48 79.33 8.59 79.24 8.72C79.2 8.79 79.16 8.87 79.14 8.95C79.11 9.01 79.1 9.1 79.11 9.17V12.12V12.24C79.13 12.4 79.21 12.55 79.32 12.67C79.44 12.79 79.59 12.86 79.76 12.89C79.79 12.89 79.84 12.9 79.87 12.9H81.1C81.12 12.9 81.14 12.91 81.16 12.92C81.19 12.94 81.21 12.97 81.22 13.01C81.23 13.02 81.24 13.04 81.24 13.04V18.06C81.24 18.22 81.29 18.39 81.39 18.52C81.49 18.65 81.63 18.75 81.78 18.79C81.85 18.82 81.92 18.83 82 18.83H82.32C82.46 19.13 82.77 19.35 83.13 19.35C83.63 19.35 84.03 18.95 84.03 18.46C84.03 17.97 83.63 17.56 83.13 17.56C82.71 17.56 82.36 17.85 82.26 18.26H81.99C81.96 18.26 81.94 18.25 81.93 18.24C81.89 18.23 81.86 18.21 81.83 18.17C81.81 18.14 81.8 18.11 81.8 18.06V13.15V13.04C81.8 12.97 81.78 12.88 81.74 12.8C81.69 12.65 81.58 12.52 81.43 12.43C81.35 12.39 81.28 12.35 81.2 12.34C81.17 12.33 81.12 12.33 81.07 12.32H80.99H79.84H79.81C79.77 12.32 79.74 12.29 79.71 12.27C79.68 12.24 79.67 12.2 79.67 12.16V12.13V9.16V9.1C79.67 9.08 79.68 9.06 79.69 9.05C79.71 9.03 79.74 9 79.79 8.98C79.8 8.98 79.82 8.97 79.84 8.97H81.22C81.38 8.97 81.54 8.92 81.66 8.83C81.8 8.74 81.89 8.6 81.94 8.44C81.97 8.37 81.98 8.28 81.97 8.2V5.8H81.98C82.47 5.8 82.88 5.4 82.88 4.9C82.88 4.4 82.47 4.01 81.98 4.01C81.54 4.01 81.13 4.41 81.13 4.9ZM110.84 3.07H110.05H109.95C109.92 3.07 109.87 3.08 109.84 3.08C109.68 3.12 109.53 3.23 109.43 3.35C109.33 3.48 109.27 3.65 109.28 3.81V3.97C108.98 4.12 108.77 4.42 108.77 4.77C108.77 5.27 109.18 5.67 109.67 5.67C110.17 5.67 110.57 5.27 110.57 4.77C110.57 4.34 110.27 3.97 109.86 3.9V3.82C109.86 3.78 109.87 3.74 109.89 3.71C109.91 3.67 109.95 3.65 109.97 3.65C109.99 3.64 110 3.64 110 3.64H110.05H110.85C110.88 3.64 110.89 3.65 110.91 3.65C110.92 3.65 110.95 3.66 110.96 3.67C110.99 3.69 111.02 3.72 111.03 3.77C111.03 3.77 111.04 3.8 111.03 3.84V7.99C111.03 8.07 111.04 8.16 111.07 8.23C111.09 8.31 111.12 8.38 111.18 8.45C111.28 8.59 111.41 8.69 111.57 8.73C111.64 8.75 111.71 8.76 111.81 8.76H112.6C112.65 8.87 112.73 8.97 112.84 9.05C113.23 9.35 113.79 9.28 114.09 8.89C114.4 8.5 114.33 7.94 113.94 7.64C113.55 7.33 112.98 7.4 112.67 7.79C112.58 7.91 112.53 8.05 112.5 8.19H111.78C111.76 8.19 111.74 8.19 111.73 8.19C111.69 8.18 111.65 8.16 111.63 8.12C111.62 8.1 111.61 8.09 111.61 8.07C111.6 8.06 111.59 8.03 111.59 8V3.84C111.6 3.76 111.59 3.68 111.56 3.6C111.51 3.44 111.41 3.3 111.27 3.2C111.21 3.15 111.14 3.12 111.06 3.1C111.01 3.08 110.94 3.07 110.88 3.07C110.87 3.07 110.86 3.07 110.84 3.07ZM84.63 3.56C84.63 4.06 85.03 4.46 85.52 4.46C85.85 4.46 86.13 4.28 86.29 4.01H90.16H90.26C90.29 4.02 90.3 4.03 90.32 4.05C90.33 4.07 90.34 4.09 90.35 4.11V4.15V5.43C89.96 5.53 89.66 5.88 89.66 6.3C89.66 6.8 90.07 7.2 90.56 7.2C91.06 7.2 91.45 6.8 91.45 6.3C91.45 5.93 91.22 5.6 90.89 5.47V4.16C90.89 4.12 90.88 4.09 90.88 4.05V4.04C90.87 3.92 90.82 3.8 90.74 3.7C90.65 3.6 90.55 3.53 90.42 3.49C90.37 3.46 90.3 3.45 90.23 3.45H86.39C86.34 3.01 85.96 2.65 85.5 2.65C85.03 2.66 84.63 3.06 84.63 3.56ZM95.86 2.27C95.86 2.76 96.26 3.17 96.76 3.17C97.14 3.17 97.46 2.93 97.59 2.6H98.98H99.01H99.02C99.03 2.6 99.04 2.6 99.06 2.61C99.07 2.62 99.08 2.62 99.09 2.63C98.78 2.76 98.55 3.08 98.55 3.45C98.55 3.95 98.96 4.35 99.44 4.35C99.94 4.35 100.34 3.95 100.34 3.45C100.34 3.03 100.05 2.68 99.66 2.58L99.65 2.57C99.62 2.47 99.56 2.37 99.48 2.31C99.41 2.23 99.3 2.16 99.2 2.13C99.14 2.12 99.1 2.11 99.05 2.11C99.03 2.11 99 2.1 98.97 2.1H97.64C97.56 1.69 97.19 1.37 96.75 1.37C96.27 1.36 95.86 1.76 95.86 2.27ZM91.02 1.39C91.02 1.52 91.05 1.62 91.09 1.73H88.9C88.83 1.31 88.47 1 88.01 1C87.52 1 87.12 1.4 87.12 1.89C87.12 2.39 87.52 2.79 88.01 2.79C88.37 2.79 88.66 2.59 88.81 2.3H91.42C91.52 2.3 91.61 2.28 91.69 2.25C91.76 2.26 91.84 2.28 91.91 2.28C92.41 2.28 92.82 1.88 92.82 1.38C92.82 0.89 92.42 0.49 91.91 0.49C91.43 0.49 91.02 0.89 91.02 1.39ZM100.51 1.14C100.51 1.64 100.91 2.04 101.4 2.04C101.84 2.04 102.2 1.74 102.29 1.34H103.55H103.59C103.64 1.35 103.68 1.38 103.7 1.42C103.72 1.44 103.73 1.47 103.73 1.49V1.54V1.72C103.73 1.77 103.73 1.83 103.74 1.88C103.76 1.98 103.8 2.08 103.86 2.16C103.91 2.25 103.99 2.33 104.08 2.38C104.17 2.44 104.27 2.48 104.36 2.49C104.41 2.5 104.45 2.5 104.5 2.5H105.92C106.04 2.88 106.37 3.15 106.78 3.15C107.28 3.15 107.68 2.75 107.68 2.25C107.68 1.76 107.28 1.35 106.78 1.35C106.4 1.35 106.08 1.59 105.95 1.93H104.48C104.47 1.93 104.45 1.93 104.44 1.92C104.41 1.92 104.4 1.91 104.37 1.9C104.35 1.89 104.34 1.88 104.33 1.85C104.31 1.83 104.31 1.81 104.3 1.78V1.73V1.54C104.3 1.5 104.3 1.45 104.29 1.4C104.28 1.3 104.25 1.19 104.19 1.11C104.09 0.93 103.89 0.8 103.69 0.76C103.65 0.75 103.59 0.75 103.55 0.75H103.54H102.22C102.07 0.45 101.77 0.24 101.4 0.24C100.91 0.25 100.51 0.66 100.51 1.14ZM93.4 0.9C93.4 1.3 93.67 1.63 94.02 1.75V2.77V2.81C94.02 2.81 94 2.89 93.98 2.91C93.94 2.94 93.91 2.96 93.85 2.97L93.8 2.96L93.37 2.97L93.34 2.96C93.29 2.96 93.24 2.97 93.18 2.98C93 3.01 92.85 3.11 92.74 3.24C92.63 3.39 92.57 3.56 92.57 3.74L92.58 5.05C92.58 5.23 92.66 5.41 92.78 5.53C92.9 5.66 93.07 5.74 93.24 5.77C93.27 5.77 93.32 5.77 93.36 5.77H94.6H94.67C94.69 5.78 94.7 5.78 94.72 5.8C94.75 5.82 94.78 5.86 94.79 5.93V7.7C94.49 7.84 94.29 8.15 94.29 8.5C94.29 9 94.69 9.39 95.18 9.39C95.68 9.39 96.08 8.99 96.08 8.5C96.08 8.06 95.77 7.71 95.36 7.62V5.96V5.87C95.36 5.82 95.35 5.79 95.34 5.74C95.3 5.58 95.19 5.42 95.05 5.32C94.97 5.27 94.9 5.23 94.8 5.21C94.76 5.21 94.72 5.2 94.67 5.18H94.59H93.34H93.3C93.27 5.17 93.22 5.16 93.19 5.13C93.17 5.09 93.15 5.06 93.15 5.03V4.82V3.72C93.15 3.69 93.17 3.65 93.19 3.61C93.21 3.58 93.25 3.55 93.3 3.55C93.3 3.54 93.34 3.54 93.36 3.54H93.83H93.91C94.09 3.53 94.25 3.45 94.38 3.33C94.5 3.2 94.58 3.03 94.6 2.86C94.6 2.83 94.6 2.8 94.6 2.8V1.75C94.95 1.62 95.2 1.3 95.2 0.9C95.2 0.41 94.8 0 94.31 0C93.81 0 93.4 0.4 93.4 0.9Z" fill="white"/>
</g>
<defs>
<clipPath id="clip0">
<rect width="151.13" height="66.17" fill="white"/>
</clipPath>
</defs>
</svg>
