<svg width="101" height="45" viewBox="0 0 101 45" fill="none" xmlns="http://www.w3.org/2000/svg">
<path d="M58.375 25.3684C58.375 26.2267 59.075 26.9109 59.9375 26.9109C60.8 26.9109 61.5 26.2143 61.5 25.3684C61.5 24.5101 60.8 23.8135 59.9375 23.8135C59.075 23.8135 58.375 24.5101 58.375 25.3684ZM8.175 37.3476C4.8875 37.3476 3.65 34.5612 3.65 31.812C3.65 28.9136 4.8875 26.1272 8.175 26.1272C10 26.1272 11.5875 27.3712 11.8125 29.0256H15.3625C14.925 25.2067 11.8375 23.0671 8.175 23.0671C3.0375 23.0671 0 26.8985 0 31.812C0 36.5888 3.0375 40.4201 8.175 40.4201C12.25 40.4201 15.125 37.783 15.5 33.6406H11.95C11.6875 35.83 10.425 37.3476 8.175 37.3476ZM29.3 34.0387C29.3 37.8452 26.8625 40.3455 23.0625 40.3455C19.2875 40.3455 16.8375 37.8452 16.8375 34.0387C16.8375 30.2198 19.2875 27.707 23.0625 27.707C26.85 27.707 29.3 30.2073 29.3 34.0387ZM26 34.0387C26 32.123 25.325 30.1949 23.0625 30.1949C20.825 30.1949 20.15 32.123 20.15 34.0387C20.15 35.9419 20.825 37.8701 23.0625 37.8701C25.3125 37.8701 26 35.9419 26 34.0387ZM39.4375 28.0304H42.5875V39.2508C42.5875 41.2163 41.8875 44.5625 36.3375 44.5625C33.9625 44.5625 31.1875 43.4429 31.025 40.7063H34.3125C34.6125 41.9378 35.6125 42.3607 36.7875 42.3607C38.625 42.3607 39.475 41.1043 39.4375 39.3877V37.8203H39.4C38.675 39.0642 37.2375 39.6738 35.7875 39.6738C32.175 39.6738 30.6375 36.9371 30.6375 33.6406C30.6375 30.5432 32.4375 27.707 35.8125 27.707C37.4 27.707 38.6125 28.2419 39.4125 29.6351H39.45V28.0304H39.4375ZM39.4375 33.877C39.4375 31.924 38.7625 30.1949 36.625 30.1949C34.7625 30.1949 33.95 31.812 33.95 33.6033C33.95 35.32 34.6 37.1983 36.625 37.1983C38.5 37.1983 39.4375 35.5936 39.4375 33.877ZM56.1 40.0221V32.6455C56.1 29.6725 55.2125 27.6946 51.7 27.6946C50.3 27.6946 48.85 28.3414 48.0125 29.6849H47.95V28.018H44.8V40.0096H48.1V33.7153C48.1 31.2896 48.875 30.2944 50.6625 30.2944C52.2 30.2944 52.775 31.2647 52.775 33.2426V40.0096H56.1V40.0221ZM61.575 28.0304H58.275V40.0221H61.575V28.0304ZM70.375 37.472C70.025 37.5342 69.7 37.5591 69.35 37.5591C68.2375 37.5591 67.95 37.273 67.95 36.1659V30.2322H70.375V28.0304H67.95V24.4354H64.65V28.0304H62.625V30.2322H64.6375V37.3103C64.6375 39.6987 66.4125 40.1589 68.425 40.1589C69.075 40.1589 69.8 40.134 70.3625 40.047V37.472H70.375ZM74.9125 28.0304H71.6V40.0221H74.9125V28.0304ZM75.9375 28.0304L80.0625 40.0221H83.75L87.825 28.0304H84.5375L82 36.228H81.95L79.4125 28.0429H75.9375V28.0304ZM96.2625 31.5384C96.2625 30.1203 95.2875 29.9088 94.125 29.9088C92.875 29.9088 92.05 30.4188 91.9375 31.7125H88.625C88.8125 28.6275 91.575 27.6946 94.2875 27.6946C96.7 27.6946 99.5875 28.2295 99.5875 31.103V37.3476C99.5875 38.4423 99.7 39.5245 100.012 40.0221H96.6625C96.5375 39.6489 96.45 39.2508 96.425 38.8652C95.375 39.9474 93.8375 40.3455 92.3625 40.3455C90.0875 40.3455 88.2625 39.2135 88.2625 36.7505C88.2625 34.0387 90.3125 33.3918 92.3625 33.1182C94.375 32.8072 96.2625 32.8818 96.2625 31.5384ZM96.2625 34.1631C95.7125 34.6482 94.5375 34.6731 93.5125 34.8597C92.4875 35.0712 91.55 35.4195 91.55 36.6261C91.55 37.8576 92.5125 38.1562 93.575 38.1562C96.1625 38.1562 96.25 36.1161 96.25 35.3946V34.1631H96.2625ZM80.1875 13.4265C80.175 13.3768 80.1625 13.327 80.15 13.2897C80.125 13.2026 80.0625 13.1155 79.975 13.0658C79.8875 13.0036 79.8 12.9787 79.7 12.9787H79.45C79.4125 12.8916 79.35 12.8045 79.275 12.7423C79.0125 12.5433 78.6375 12.5931 78.4375 12.8419C78.2375 13.1031 78.2875 13.4638 78.5375 13.6753C78.8 13.8743 79.175 13.8246 79.375 13.5634C79.425 13.5012 79.4625 13.4141 79.475 13.3394H79.6875C79.7125 13.3394 79.7375 13.3519 79.75 13.3643C79.775 13.3768 79.7875 13.4016 79.7875 13.4141C79.7875 13.4265 79.7875 13.439 79.7875 13.439V13.4887V13.8743C79.7 13.9117 79.6 13.9614 79.5375 14.0609C79.3375 14.3222 79.375 14.6953 79.6375 14.8944C79.9 15.0934 80.275 15.0436 80.475 14.7949C80.675 14.5336 80.625 14.1604 80.3625 13.9614C80.3 13.9117 80.225 13.8743 80.15 13.8619V13.4265H80.1875ZM80.125 15.3671C79.8625 15.168 79.5 15.2178 79.2875 15.479C79.0875 15.7278 79.1375 16.101 79.3875 16.3125C79.425 16.3374 79.4625 16.3622 79.5 16.3747V16.4617C79.5 16.4991 79.475 16.5488 79.45 16.5737C79.4125 16.611 79.375 16.6235 79.3375 16.6359H79.3H78.0875C77.925 16.6359 77.75 16.6981 77.625 16.8101C77.5 16.922 77.4125 17.0837 77.3875 17.2454C77.3875 17.2952 77.3875 17.3325 77.3875 17.3574V18.9372C77.2875 18.9745 77.2 19.0367 77.125 19.1238C76.925 19.385 76.975 19.7582 77.225 19.9572C77.475 20.1563 77.8625 20.1189 78.0625 19.8577C78.2625 19.5965 78.2125 19.2233 77.95 19.0243C77.9375 19.0118 77.9125 18.9994 77.9 18.987V17.3449C77.9 17.3449 77.9 17.3201 77.9 17.2952C77.9 17.2579 77.925 17.2206 77.9625 17.1957C77.9875 17.1708 78.0375 17.1584 78.075 17.1584H79.3H79.375C79.5375 17.1335 79.7125 17.0588 79.8125 16.9344C79.9375 16.8101 80 16.6359 80 16.4617V16.3622C80.075 16.3249 80.15 16.2627 80.2 16.1881C80.425 15.9393 80.3875 15.5661 80.125 15.3671ZM73.4625 21.2883C73.725 21.4873 74.0875 21.45 74.3 21.1763C74.5 20.9151 74.45 20.5419 74.1875 20.3429C73.9375 20.1438 73.5625 20.1936 73.3625 20.4424C73.325 20.4921 73.3125 20.5294 73.2875 20.5792H70.0875C70.075 20.5792 70.05 20.5792 70.0375 20.5668C70.0125 20.5543 69.975 20.5294 69.9625 20.5046C69.95 20.4921 69.95 20.4797 69.95 20.4797C69.95 20.4548 69.95 20.4424 69.95 20.4424V20.2185V20.1314C69.9375 20.0194 69.875 19.9075 69.7875 19.8328C69.7 19.7582 69.5875 19.7084 69.475 19.7084H67.7875C67.675 19.5467 67.5 19.4348 67.2875 19.4348C66.9625 19.4348 66.7 19.7084 66.7 20.0194C66.7 20.3553 66.9625 20.6165 67.2875 20.6165C67.6125 20.6165 67.875 20.3677 67.8875 20.0443H69.4875C69.525 20.0443 69.55 20.0567 69.575 20.0816C69.6 20.1065 69.625 20.1314 69.625 20.1687V20.206V20.4424V20.5046C69.625 20.5668 69.6375 20.6165 69.675 20.6663C69.725 20.7658 69.8125 20.8529 69.925 20.8902C69.9875 20.9151 70.0375 20.9151 70.0875 20.9151H73.2375C73.275 21.0643 73.35 21.1887 73.4625 21.2883ZM70.9875 18.8874C70.725 18.6884 70.35 18.7382 70.15 18.9994C69.95 19.2606 69.9875 19.6338 70.25 19.8328C70.5125 20.0319 70.8875 19.9821 71.0875 19.7333C71.1 19.7084 71.1125 19.696 71.125 19.6711H73.825C73.85 19.6711 73.8625 19.6711 73.8875 19.6587C73.925 19.6587 73.95 19.6587 73.9875 19.6462C74.05 19.6338 74.1125 19.6089 74.1625 19.5592C74.275 19.4845 74.3625 19.3726 74.4 19.2357C74.4 19.2109 74.4125 19.1735 74.4125 19.1735C74.4125 19.1238 74.4125 19.0989 74.4125 19.0989V19.0367C74.5125 18.9994 74.6 18.9372 74.6625 18.8501C74.8625 18.5889 74.8125 18.2281 74.5625 18.0291C74.3 17.8176 73.925 17.8798 73.725 18.1286C73.525 18.3899 73.575 18.763 73.825 18.9621C73.875 18.9994 73.9375 19.0367 73.9875 19.0492V19.0989C73.9875 19.1114 73.9875 19.1114 73.975 19.1362C73.9625 19.1735 73.9375 19.2109 73.9125 19.2357C73.9 19.2482 73.875 19.2482 73.85 19.2606C73.85 19.2606 73.825 19.2606 73.825 19.2731H73.8H71.175C71.175 19.1114 71.1 18.987 70.9875 18.8874ZM77.6 20.6041C77.3375 20.4051 76.9625 20.4424 76.7625 20.7036C76.7375 20.7409 76.725 20.7782 76.7 20.8156H75.3625H75.325H75.3C75.2625 20.8156 75.2125 20.8156 75.1625 20.828C75.0875 20.8404 75.0125 20.8653 74.9375 20.9151C74.8 21.0146 74.7125 21.1514 74.6875 21.3131C74.675 21.3629 74.675 21.4002 74.675 21.4251V21.45C74.575 21.4873 74.4875 21.5495 74.425 21.6366C74.225 21.8978 74.275 22.271 74.525 22.47C74.7875 22.669 75.1625 22.6193 75.3625 22.3705C75.5625 22.1093 75.5125 21.7361 75.2625 21.537C75.2 21.4997 75.15 21.4624 75.0875 21.45V21.4251C75.0875 21.4127 75.0875 21.4002 75.0875 21.3753C75.1 21.3256 75.125 21.2758 75.1625 21.2509C75.175 21.2385 75.2 21.2261 75.225 21.2261C75.2375 21.2261 75.2625 21.2261 75.2875 21.2261H76.6375C76.675 21.3505 76.75 21.45 76.85 21.537C77.1125 21.7361 77.4875 21.6988 77.675 21.4375C77.9 21.1763 77.85 20.8031 77.6 20.6041ZM61.25 3.46251V4.32084C61.25 4.44523 61.3 4.55718 61.375 4.64426C61.45 4.73134 61.5625 4.7811 61.675 4.79353C61.7 4.79353 61.725 4.79353 61.75 4.79353H62.575H62.625C62.6375 4.80597 62.65 4.80597 62.6625 4.80597C62.6875 4.81841 62.7 4.84329 62.7125 4.89305V6.0748C62.5125 6.17431 62.375 6.37335 62.375 6.6097C62.375 6.93312 62.6375 7.19435 62.9625 7.19435C63.2875 7.19435 63.5625 6.93312 63.5625 6.6097C63.5625 6.32359 63.3625 6.08724 63.0875 6.03748V4.93037V4.86817C63.0875 4.84329 63.0875 4.81841 63.075 4.7811C63.05 4.66914 62.975 4.56962 62.8875 4.50743C62.8375 4.47011 62.7875 4.44523 62.725 4.43279C62.7 4.43279 62.675 4.42035 62.6375 4.42035H62.5875H61.7625H61.7375C61.7125 4.42035 61.6875 4.40791 61.6625 4.38303C61.65 4.35815 61.6375 4.33327 61.6375 4.32084V4.184V3.46251C61.6375 3.43763 61.65 3.41276 61.6625 3.38788C61.675 3.37544 61.7 3.35056 61.7375 3.35056C61.7375 3.33812 61.7625 3.33812 61.775 3.33812H62.0875H62.1375C62.25 3.32568 62.3625 3.27592 62.45 3.20128C62.5375 3.11421 62.5875 3.00225 62.6 2.8903C62.6 2.86542 62.6 2.85298 62.6 2.85298V2.14393C62.825 2.05685 63 1.84538 63 1.58415C63 1.26073 62.7375 0.987061 62.4125 0.987061C62.0875 0.987061 61.8125 1.24829 61.8125 1.58415C61.8125 1.84538 61.9875 2.06929 62.225 2.14393V2.81566V2.84054C62.225 2.84054 62.2125 2.8903 62.2 2.90274C62.175 2.92762 62.15 2.94006 62.1125 2.94006H62.0875H61.8H61.775C61.7375 2.94006 61.7125 2.94006 61.6625 2.95249C61.55 2.96493 61.45 3.03957 61.375 3.12665C61.2875 3.22616 61.25 3.33812 61.25 3.46251ZM54.625 6.0748C54.6125 6.11212 54.6 6.16188 54.6 6.21163V8.21439C54.6 8.23926 54.6 8.26414 54.6 8.28902C54.6125 8.3761 54.65 8.46317 54.7 8.53781C54.7625 8.60001 54.8375 8.66221 54.9125 8.68708C54.95 8.69952 55 8.71196 55.05 8.7244C55.075 8.73684 55.0875 8.73684 55.1125 8.73684H58.0375H58.0875C58.1125 8.7244 58.1375 8.7244 58.15 8.7244C58.2375 8.71196 58.3125 8.67465 58.375 8.61245C58.45 8.55025 58.4875 8.47561 58.525 8.38854C58.5375 8.33878 58.5375 8.30146 58.5375 8.2517V6.0126C58.775 5.92553 58.9375 5.71405 58.9375 5.45283C58.9375 5.1294 58.675 4.86817 58.3375 4.86817C58.0125 4.86817 57.75 5.1294 57.75 5.45283C57.75 5.71405 57.925 5.93796 58.1625 6.0126V8.2517C58.1625 8.26414 58.1625 8.27658 58.1625 8.28902C58.15 8.3139 58.1375 8.32634 58.125 8.33878C58.1125 8.35122 58.0875 8.35122 58.0625 8.36366H58.0375H55.1C55.0875 8.36366 55.0875 8.36366 55.0625 8.35122C55.05 8.35122 55.0375 8.33878 55.0125 8.3139C55 8.30146 54.9875 8.27658 54.9875 8.26414V8.21439V6.23651C54.9875 6.23651 55 6.21163 55 6.19919C55 6.18675 55.0125 6.16188 55.0375 6.14944C55.0625 6.137 55.075 6.12456 55.0875 6.12456H55.125H55.625C55.7 6.36091 55.925 6.53506 56.1875 6.53506C56.5125 6.53506 56.775 6.27383 56.775 5.93796C56.775 5.61454 56.5125 5.35331 56.1875 5.35331C55.925 5.35331 55.7125 5.51502 55.6375 5.75137H55.1125C55.0875 5.75137 55.0625 5.75137 55.0375 5.75137C54.95 5.76381 54.8625 5.80113 54.8 5.86333C54.7125 5.91309 54.65 5.98772 54.625 6.0748ZM62.1125 8.3139C62.0875 8.21439 62.025 8.11487 61.95 8.04023C61.875 7.9656 61.775 7.9034 61.675 7.86608C61.6375 7.85364 61.575 7.8412 61.5125 7.8412H60.4875C60.375 7.66705 60.1875 7.54265 59.975 7.54265C59.65 7.54265 59.3875 7.80388 59.3875 8.13975C59.3875 8.46317 59.65 8.73684 59.975 8.73684C60.2375 8.73684 60.45 8.57513 60.5375 8.33878H61.5C61.5125 8.33878 61.525 8.35122 61.5375 8.35122C61.5625 8.36366 61.575 8.3761 61.6 8.38854C61.6125 8.40098 61.625 8.42586 61.6375 8.45074V8.46317V9.78176C61.4125 9.86883 61.2625 10.0803 61.2625 10.3291C61.2625 10.6525 61.525 10.9137 61.85 10.9137C62.1875 10.9137 62.45 10.6525 62.45 10.3291C62.45 10.1052 62.3125 9.90615 62.1375 9.80664V8.47561C62.1375 8.41342 62.125 8.36366 62.1125 8.3139ZM57.575 11.6104C57.575 11.6352 57.55 11.6477 57.5375 11.6601C57.525 11.6726 57.5 11.685 57.4875 11.685C57.475 11.685 57.4625 11.685 57.45 11.685H57.1125C57.025 11.4611 56.8125 11.2869 56.55 11.2869C56.225 11.2869 55.95 11.5606 55.95 11.8716C55.95 12.195 56.2125 12.4687 56.55 12.4687C56.8375 12.4687 57.0625 12.2696 57.125 12.0084H57.45C57.475 12.0084 57.5 12.0084 57.525 11.996C57.6 11.9835 57.6875 11.9462 57.75 11.8965C57.8125 11.8467 57.8625 11.7721 57.8875 11.6974C57.9 11.6477 57.9125 11.6104 57.9125 11.573V9.89371C57.9125 9.84395 57.9125 9.81908 57.8875 9.76932C57.8625 9.69468 57.8125 9.62004 57.75 9.57029C57.6875 9.52053 57.6125 9.48321 57.525 9.47077C57.5125 9.47077 57.4875 9.47077 57.4625 9.47077H56.1625C56.1 9.20954 55.8625 9.01051 55.5875 9.01051C55.2625 9.01051 54.9875 9.27174 54.9875 9.59517C54.9875 9.93103 55.2625 10.1798 55.5875 10.1798C55.8375 10.1798 56.05 10.0181 56.1375 9.7942H57.4875C57.5 9.7942 57.525 9.80664 57.5375 9.81908C57.55 9.83152 57.5625 9.84396 57.575 9.86883V9.88127V11.573C57.575 11.5855 57.575 11.5979 57.575 11.6104ZM57.2 13.9241C57.45 13.9241 57.6625 13.7748 57.75 13.5509H58.7875C58.8375 13.5509 58.9 13.5385 58.95 13.526C59.0125 13.5012 59.0625 13.4763 59.1125 13.439C59.2 13.3643 59.275 13.2524 59.275 13.1404C59.2875 13.1031 59.2875 13.0782 59.2875 13.0533V12.5558V12.5309C59.3 12.4936 59.325 12.4687 59.35 12.4438C59.35 12.4438 59.375 12.4438 59.3875 12.4438H59.4125H63.025C63.1125 12.6677 63.325 12.817 63.575 12.817C63.9 12.817 64.1625 12.5558 64.1625 12.2323C64.1625 11.9089 63.9 11.6477 63.575 11.6477C63.3 11.6477 63.075 11.8218 63 12.0706H59.4H59.325C59.2625 12.0831 59.2125 12.0955 59.15 12.1328C59.0375 12.1826 58.95 12.2821 58.9125 12.394C58.8875 12.4562 58.8875 12.506 58.8875 12.5806V13.1155C58.8875 13.1529 58.8625 13.1653 58.8375 13.1902C58.825 13.1902 58.8125 13.2026 58.8 13.215C58.7875 13.215 58.7875 13.215 58.75 13.215H57.7375C57.6625 12.9663 57.45 12.7797 57.175 12.7797C56.8375 12.7797 56.575 13.0409 56.575 13.3768C56.6 13.6629 56.8625 13.9241 57.2 13.9241ZM69.1875 8.56269C69.1625 8.55025 69.15 8.53781 69.1375 8.51293C69.125 8.48805 69.1125 8.47561 69.1125 8.47561V5.6643C69.4125 5.62698 69.65 5.37819 69.65 5.07964C69.65 4.74378 69.375 4.49499 69.05 4.49499C68.725 4.49499 68.4625 4.75622 68.4625 5.07964C68.4625 5.31599 68.6 5.51502 68.8 5.61454V8.42586V8.47561C68.8125 8.55025 68.825 8.62489 68.875 8.68708C68.9125 8.74928 68.975 8.79904 69.0375 8.8488C69.1 8.88612 69.175 8.89856 69.2625 8.89856H71.35C71.375 8.89856 71.4 8.911 71.4125 8.911C71.4375 8.92343 71.45 8.93587 71.4625 8.96075C71.475 8.97319 71.4875 8.99807 71.4875 8.99807V11.1377C71.4875 11.1377 71.4875 11.175 71.4875 11.1999C71.4875 11.2247 71.475 11.2496 71.4625 11.2621C71.45 11.2745 71.425 11.2869 71.4 11.2994C71.3875 11.2994 71.375 11.3118 71.3625 11.3118H70.925C70.9125 11.1501 70.8375 11.0008 70.7 10.9013C70.4375 10.7023 70.0625 10.7396 69.8625 11.0008C69.6625 11.2621 69.7125 11.6352 69.9625 11.8343C70.225 12.0333 70.6 11.9835 70.8 11.7348C70.825 11.7099 70.8375 11.6726 70.8625 11.6352H71.3375C71.35 11.6352 71.375 11.6352 71.3875 11.6352C71.425 11.6352 71.4625 11.6228 71.5 11.6104C71.575 11.5855 71.6375 11.5357 71.6875 11.486C71.7375 11.4362 71.775 11.3616 71.7875 11.2869C71.8 11.2372 71.8 11.175 71.8 11.1377V9.06027V9.01051C71.7875 8.93587 71.775 8.86124 71.725 8.79904C71.675 8.73684 71.625 8.68708 71.5625 8.64977C71.5 8.61245 71.425 8.58757 71.35 8.58757H69.25C69.225 8.57513 69.2 8.57513 69.1875 8.56269ZM64.2625 11.6974C64.3125 11.8467 64.425 11.9835 64.575 12.0457C64.65 12.0831 64.725 12.0955 64.8 12.0955H68.4H68.4875C68.525 12.0955 68.575 12.0955 68.6125 12.0831C68.7 12.0582 68.775 12.0333 68.825 11.9835C68.8875 11.9338 68.95 11.8716 68.9875 11.8094C69.025 11.7348 69.05 11.6601 69.0625 11.5855C69.0625 11.5482 69.0625 11.5233 69.0625 11.4984V10.665C69.2625 10.5654 69.4 10.3664 69.4 10.1301C69.4 9.7942 69.1375 9.53297 68.8125 9.53297C68.4875 9.53297 68.2125 9.7942 68.2125 10.1301C68.2125 10.4037 68.4 10.6276 68.65 10.7023V11.4984V11.5233C68.6375 11.5482 68.6375 11.573 68.625 11.5855C68.6125 11.6104 68.6 11.6352 68.575 11.6352C68.55 11.6477 68.525 11.6601 68.5125 11.6726H68.4875H64.8125C64.7875 11.6726 64.7625 11.6726 64.7375 11.6601C64.6875 11.6352 64.6625 11.5979 64.65 11.5606C64.65 11.5606 64.6375 11.5482 64.6375 11.5233C64.6375 11.5233 64.6375 11.4984 64.6375 11.486V10.6152C64.6375 10.6028 64.6375 10.5903 64.6375 10.5779C64.6375 10.553 64.65 10.5281 64.6625 10.5032C64.6875 10.4659 64.7375 10.4286 64.775 10.4286H64.825H66.225C66.3125 10.6276 66.525 10.7645 66.7625 10.7645C67.0875 10.7645 67.3625 10.5032 67.3625 10.1674C67.3625 9.84395 67.0875 9.57029 66.7625 9.57029C66.4875 9.57029 66.2625 9.75688 66.1875 10.0057H64.8875H64.825C64.7875 10.0057 64.7375 10.0057 64.6875 10.0181C64.5375 10.043 64.3875 10.1425 64.3 10.2918C64.25 10.354 64.225 10.441 64.225 10.5157C64.2125 10.553 64.2125 10.5903 64.2125 10.6152V11.4984C64.2125 11.5233 64.2125 11.5606 64.2125 11.5855C64.25 11.6228 64.25 11.6601 64.2625 11.6974ZM58.4375 15.3546C58.1875 15.3546 57.975 15.5039 57.8875 15.7154H57.35C57.3125 15.7154 57.2875 15.7029 57.2625 15.6905C57.2375 15.6781 57.2125 15.6532 57.1875 15.6159C57.175 15.591 57.1625 15.5537 57.1625 15.5163V14.6829C57.1625 14.6456 57.1625 14.5958 57.15 14.5585C57.1375 14.4341 57.075 14.3222 57 14.2226C56.925 14.1231 56.825 14.0609 56.7 14.0112C56.6375 13.9987 56.5875 13.9739 56.525 13.9739H56.4625H56.3375C56.2375 13.7873 56.0375 13.638 55.8 13.638C55.475 13.638 55.2125 13.9117 55.2125 14.2351C55.2125 14.5585 55.475 14.8197 55.8 14.8197C56.05 14.8197 56.2625 14.6705 56.35 14.4466H56.4625C56.475 14.4466 56.475 14.4466 56.5 14.459C56.5125 14.459 56.525 14.459 56.55 14.4714C56.5875 14.4839 56.6125 14.4963 56.6375 14.5336C56.6625 14.5585 56.675 14.5834 56.675 14.6207C56.675 14.6331 56.675 14.658 56.675 14.6705V15.5039C56.675 15.6283 56.7 15.7527 56.7625 15.8522C56.825 15.9642 56.9125 16.0512 57.0125 16.1134C57.1125 16.1632 57.225 16.2005 57.3375 16.2005H57.8875C57.9875 16.3995 58.1875 16.5364 58.425 16.5364C58.75 16.5364 59.025 16.2752 59.025 15.9517C59.0375 15.6159 58.7625 15.3546 58.4375 15.3546ZM63.225 16.1134C62.8875 16.1134 62.625 16.3747 62.625 16.6981C62.625 16.9593 62.7875 17.1708 63.0125 17.2579V17.7928C63.0125 17.7928 63 17.8052 63 17.8176C62.9875 17.8425 62.975 17.855 62.9625 17.8674C62.95 17.8798 62.925 17.8923 62.9 17.8798H60.375H60.35C60.3375 17.8798 60.325 17.8798 60.3125 17.8674C60.3 17.855 60.2875 17.8425 60.275 17.8176C60.275 17.8052 60.2625 17.8052 60.2625 17.8052V17.7057C60.55 17.6559 60.75 17.4071 60.75 17.121C60.75 16.7976 60.4875 16.5364 60.15 16.5364C59.825 16.5364 59.55 16.7976 59.55 17.121C59.55 17.3947 59.7375 17.6186 60 17.6933V17.7803V17.8301C60 17.8674 60.0125 17.9047 60.0375 17.9296C60.0625 17.9918 60.1125 18.054 60.175 18.0913C60.2125 18.1162 60.2375 18.1286 60.2875 18.1411C60.3 18.1411 60.3125 18.1535 60.3375 18.1535C60.35 18.1535 60.3625 18.1535 60.375 18.1535H62.9C62.975 18.1535 63.0375 18.1286 63.1 18.0913C63.1625 18.054 63.2125 17.9918 63.2375 17.9296C63.25 17.8923 63.2625 17.8674 63.2625 17.8176V17.2952C63.575 17.2703 63.8125 17.0215 63.8125 16.7105C63.8125 16.3747 63.55 16.1134 63.225 16.1134ZM73.1 14.9193C73.3625 15.1183 73.7375 15.081 73.9375 14.8197C74.1375 14.5585 74.1 14.1853 73.8375 13.9863C73.75 13.9241 73.6625 13.8868 73.5625 13.8743C73.55 13.8619 73.55 13.8619 73.55 13.837C73.5 13.7873 73.4375 13.7375 73.3625 13.7126C73.325 13.7002 73.2875 13.6877 73.2625 13.6877C73.2375 13.6753 73.2125 13.6753 73.175 13.6753H69.3C69.275 13.6753 69.2625 13.6753 69.2375 13.6629C69.2125 13.6504 69.2 13.638 69.1875 13.6255C69.175 13.6131 69.1625 13.5882 69.1625 13.5634V13.215V13.1902C69.1625 13.1902 69.1625 13.1404 69.1625 13.128C69.15 13.0533 69.125 12.9787 69.075 12.9289C69.025 12.8667 68.975 12.817 68.9125 12.7797C68.85 12.7423 68.7625 12.7299 68.6875 12.7299H67.325C67.2875 12.7299 67.25 12.7299 67.2125 12.7423C67.1375 12.7548 67.075 12.7921 67.0125 12.8419C66.95 12.8916 66.9125 12.9538 66.875 13.016C66.85 13.0782 66.825 13.1529 66.825 13.2275V13.7624C66.6 13.8495 66.45 14.0609 66.45 14.3097C66.45 14.6456 66.7125 14.9068 67.0375 14.9068C67.3625 14.9068 67.625 14.6456 67.625 14.3097C67.625 14.0236 67.4375 13.7997 67.175 13.7375V13.215C67.175 13.1902 67.175 13.1653 67.175 13.1529C67.1875 13.128 67.2 13.1155 67.2125 13.1031C67.2375 13.0907 67.25 13.0782 67.275 13.0782C67.2875 13.0782 67.2875 13.0782 67.3125 13.0782H68.675C68.7 13.0782 68.725 13.0782 68.7375 13.0907C68.7625 13.1031 68.775 13.1155 68.7875 13.128C68.8 13.1404 68.8125 13.1653 68.8125 13.1653V13.526C68.8125 13.5509 68.8125 13.5758 68.8125 13.6007C68.825 13.6753 68.85 13.7499 68.8875 13.8121C68.925 13.8743 68.9875 13.9241 69.05 13.9614C69.1125 13.9987 69.1875 14.0236 69.275 14.0236H73.05C73.0375 14.0485 73.0125 14.0609 72.9875 14.0858C72.7875 14.347 72.8375 14.7202 73.1 14.9193ZM59.6875 15.1307H65.1375H65.1875C65.2125 15.1307 65.2375 15.1183 65.275 15.1058C65.3875 15.081 65.4875 15.0063 65.55 14.9068C65.5875 14.8446 65.6 14.7949 65.6125 14.7451C65.875 14.6829 66.0625 14.4466 66.0625 14.1729C66.0625 13.8495 65.8 13.5882 65.475 13.5882C65.1375 13.5882 64.875 13.8495 64.875 14.1729C64.875 14.4217 65.0375 14.6456 65.25 14.7327C65.2375 14.7575 65.2 14.7824 65.1875 14.7949C65.175 14.7949 65.175 14.7949 65.15 14.7949H65.125H59.6875C59.675 14.7949 59.675 14.7949 59.65 14.7949C59.8 14.6953 59.9 14.5088 59.9 14.3097C59.9 13.9739 59.625 13.7126 59.3125 13.7126C58.975 13.7126 58.7125 13.9863 58.7125 14.3097C58.7125 14.6207 58.9625 14.8819 59.275 14.8944C59.3125 14.969 59.3625 15.0188 59.425 15.0685C59.475 15.1058 59.5375 15.1307 59.5875 15.1432C59.625 15.1307 59.6625 15.1307 59.6875 15.1307ZM55.6125 13.1529C55.6125 12.8294 55.35 12.5682 55.0125 12.5682C54.7375 12.5682 54.5 12.7672 54.4375 13.0285H54.2625C54.25 13.0285 54.2375 13.016 54.225 13.016C54.2 13.016 54.175 13.0036 54.1625 12.9787C54.15 12.9663 54.1375 12.9414 54.1375 12.9041V9.6698V9.58273C54.1375 9.53297 54.125 9.47077 54.1 9.42101C54.0625 9.3215 53.9875 9.23442 53.9 9.18466C53.85 9.15978 53.8 9.13491 53.75 9.12247C53.725 9.12247 53.7 9.11003 53.6625 9.11003H53.6125H52.85H52.825C52.8 9.11003 52.775 9.09759 52.7625 9.07271C52.75 9.04783 52.7375 9.02295 52.7375 8.99807V8.97319V7.03264V6.99532C52.7375 6.98288 52.7375 6.97044 52.75 6.958C52.7625 6.94556 52.7875 6.92068 52.8125 6.90824C52.825 6.90824 52.8375 6.8958 52.85 6.8958H53.7625C53.875 6.8958 53.975 6.85848 54.05 6.79629C54.1375 6.73409 54.2 6.64701 54.2375 6.53506C54.25 6.4853 54.2625 6.43554 54.2625 6.37335V4.81841H54.275C54.6 4.81841 54.875 4.55718 54.875 4.22132C54.875 3.89789 54.6 3.63667 54.275 3.63667C53.95 3.63667 53.6875 3.89789 53.6875 4.22132C53.6875 4.39547 53.7625 4.55719 53.8875 4.66914V6.39822V6.4231C53.875 6.46042 53.8625 6.47286 53.8375 6.49774C53.8125 6.51018 53.8 6.52262 53.7625 6.52262H52.85C52.8 6.52262 52.75 6.53506 52.7 6.5475C52.6 6.58482 52.5 6.64701 52.4375 6.73409C52.4125 6.78385 52.3875 6.83361 52.375 6.88336C52.35 6.92068 52.35 6.98288 52.35 7.03264V8.97319V9.04783C52.3625 9.14734 52.4125 9.2593 52.4875 9.33394C52.5625 9.40857 52.6625 9.45833 52.775 9.48321C52.8 9.48321 52.825 9.48321 52.85 9.48321H53.6625C53.675 9.48321 53.6875 9.49565 53.7 9.49565C53.725 9.50809 53.7375 9.52053 53.7375 9.55785C53.75 9.57029 53.75 9.57029 53.75 9.57029V12.8667C53.75 12.9787 53.775 13.0907 53.85 13.1653C53.9125 13.2524 54.0125 13.3146 54.1125 13.3394C54.1625 13.3519 54.2 13.3643 54.25 13.3643H54.4625C54.55 13.5634 54.7625 13.7126 55 13.7126C55.35 13.7375 55.6125 13.4763 55.6125 13.1529ZM58.2375 2.84054C58.475 2.84054 58.675 2.70371 58.7625 2.51711H60.5C60.5625 2.51711 60.625 2.50467 60.675 2.49224C60.725 2.50467 60.775 2.50467 60.825 2.50467C61.1625 2.50467 61.425 2.24345 61.425 1.90758C61.425 1.58415 61.1625 1.32293 60.825 1.32293C60.5 1.32293 60.225 1.58415 60.225 1.90758C60.225 1.99466 60.25 2.05685 60.275 2.13149H58.825C58.775 1.85782 58.5375 1.65879 58.2375 1.65879C57.9125 1.65879 57.65 1.92002 57.65 2.24345C57.65 2.57931 57.9125 2.84054 58.2375 2.84054ZM64.025 3.07689C64.275 3.07689 64.4875 2.91518 64.575 2.70371H65.4875H65.5125H65.525C65.5375 2.70371 65.5375 2.70371 65.55 2.71615L65.5625 2.72858C65.35 2.81566 65.2125 3.02713 65.2125 3.27592C65.2125 3.59935 65.4875 3.86058 65.8 3.86058C66.1375 3.86058 66.4 3.59935 66.4 3.27592C66.4 3.00225 66.2125 2.7659 65.95 2.70371V2.69127C65.925 2.62907 65.8875 2.55443 65.8375 2.51711C65.7875 2.46736 65.725 2.4176 65.65 2.40516C65.6125 2.39272 65.575 2.39272 65.55 2.39272C65.5375 2.39272 65.5125 2.38028 65.5 2.38028H64.625C64.575 2.10661 64.325 1.89514 64.0375 1.89514C63.7125 1.89514 63.4375 2.15637 63.4375 2.49224C63.4375 2.81566 63.7 3.07689 64.025 3.07689ZM64.4125 7.18191C64.45 7.20679 64.5 7.21923 64.55 7.23167C64.575 7.23167 64.6 7.23167 64.65 7.23167H67.075C67.125 7.23167 67.175 7.21923 67.225 7.20679C67.3125 7.16947 67.4 7.11971 67.4625 7.03264C67.525 6.958 67.55 6.85848 67.55 6.75897V6.21163C67.825 6.16188 68.0375 5.91309 68.0375 5.62698C68.0375 5.30355 67.775 5.04232 67.45 5.04232C67.1125 5.04232 66.85 5.30355 66.85 5.62698C66.85 5.87577 67.0125 6.08724 67.225 6.17431V6.75897C67.225 6.75897 67.2125 6.80873 67.2 6.83361C67.175 6.85848 67.1625 6.88336 67.125 6.88336C67.1125 6.88336 67.1 6.88336 67.075 6.88336H64.6875H64.625H64.6C64.5875 6.88336 64.575 6.88336 64.55 6.87092C64.525 6.85848 64.5 6.83361 64.4875 6.80873C64.475 6.79629 64.475 6.78385 64.4625 6.74653V5.77625C64.7125 5.70162 64.9 5.47771 64.9 5.21648C64.9 4.89305 64.6375 4.61938 64.3 4.61938C63.975 4.61938 63.7125 4.88061 63.7125 5.21648C63.7125 5.49014 63.9 5.71405 64.1375 5.77625V6.74653C64.1375 6.74653 64.15 6.79629 64.15 6.82117C64.1625 6.87092 64.175 6.92068 64.2 6.958C64.25 7.05752 64.3125 7.13215 64.4125 7.18191ZM67.1 2.34296C67.3875 2.34296 67.625 2.14393 67.6875 1.8827H68.525H68.55C68.575 1.8827 68.6125 1.90758 68.625 1.93246C68.6375 1.9449 68.6375 1.96978 68.6375 1.98222V2.01954V2.14393C68.6375 2.18125 68.6375 2.21857 68.65 2.24345C68.6625 2.30564 68.6875 2.38028 68.725 2.43004C68.7625 2.49224 68.8125 2.54199 68.875 2.56687C68.9375 2.60419 69 2.62907 69.0625 2.64151C69.0875 2.64151 69.125 2.64151 69.1625 2.64151H70.1C70.175 2.8903 70.4 3.06445 70.6625 3.06445C70.9875 3.06445 71.25 2.80322 71.25 2.46736C71.25 2.14393 70.9875 1.8827 70.6625 1.8827C70.4125 1.8827 70.2 2.04441 70.1125 2.25589H69.1375C69.125 2.25589 69.1125 2.25589 69.1125 2.25589C69.1 2.25589 69.0875 2.24345 69.0625 2.24345C69.05 2.23101 69.0375 2.23101 69.0375 2.20613C69.025 2.19369 69.025 2.18125 69.0125 2.15637V2.14393V2.01954C69.0125 1.99466 69.0125 1.95734 69 1.93246C69 1.87026 68.975 1.79563 68.9375 1.74587C68.875 1.62147 68.75 1.5344 68.6125 1.50952C68.5875 1.50952 68.55 1.49708 68.525 1.49708H67.65C67.55 1.29805 67.35 1.16121 67.1125 1.16121C66.7875 1.16121 66.525 1.43488 66.525 1.74587C66.5125 2.08173 66.775 2.34296 67.1 2.34296ZM72.5625 4.74378C72.8875 4.74378 73.15 4.48255 73.15 4.14668C73.15 3.86058 72.95 3.62423 72.675 3.57447V3.51227C72.675 3.48739 72.6875 3.46251 72.7 3.43763C72.7125 3.41276 72.7375 3.40032 72.7625 3.40032C72.775 3.40032 72.775 3.38788 72.7875 3.38788H72.8125H73.35C73.3625 3.38788 73.375 3.40032 73.3875 3.40032C73.4 3.40032 73.4125 3.41275 73.425 3.41275C73.45 3.42519 73.4625 3.45007 73.475 3.47495C73.475 3.47495 73.4875 3.49983 73.475 3.52471V6.26139C73.475 6.31115 73.4875 6.37335 73.5 6.4231C73.5125 6.47286 73.5375 6.52262 73.575 6.57238C73.6375 6.65945 73.725 6.72165 73.8375 6.75897C73.8875 6.77141 73.925 6.78385 74 6.78385H74.525C74.5625 6.85848 74.6125 6.92068 74.6875 6.98288C74.95 7.18191 75.3125 7.13215 75.5125 6.87092C75.7125 6.6097 75.675 6.24895 75.4125 6.04992C75.15 5.85089 74.775 5.88821 74.575 6.14944C74.5125 6.22407 74.4875 6.32359 74.4625 6.41066H73.9875C73.975 6.41066 73.9625 6.41066 73.95 6.41066C73.925 6.39822 73.9 6.38579 73.8875 6.36091C73.875 6.34847 73.875 6.34847 73.875 6.32359C73.875 6.31115 73.8625 6.29871 73.8625 6.27383V3.53715C73.8625 3.48739 73.8625 3.42519 73.85 3.37544C73.825 3.26348 73.75 3.17641 73.65 3.11421C73.6125 3.07689 73.5625 3.06445 73.5125 3.05201C73.4625 3.03957 73.4125 3.02713 73.3625 3.03957H72.8375H72.775C72.75 3.03957 72.725 3.03957 72.7 3.05201C72.5875 3.07689 72.5 3.15153 72.425 3.2386C72.3625 3.32568 72.325 3.43763 72.325 3.53715V3.6491C72.125 3.74862 71.9875 3.94765 71.9875 4.17156C71.975 4.48255 72.2375 4.74378 72.5625 4.74378ZM56.5875 3.93521C56.8 3.93521 57 3.82326 57.1 3.63667H59.6625H59.725C59.7375 3.6491 59.75 3.6491 59.7625 3.66154C59.775 3.67398 59.775 3.68642 59.7875 3.69886V3.73618V4.58206C59.525 4.64426 59.3375 4.88061 59.3375 5.15428C59.3375 5.49014 59.6 5.75137 59.925 5.75137C60.2625 5.75137 60.5125 5.49014 60.5125 5.15428C60.5125 4.90549 60.3625 4.69402 60.1375 4.60694V3.73618C60.1375 3.7113 60.1375 3.68642 60.125 3.66154C60.125 3.58691 60.0875 3.49983 60.0375 3.43763C59.975 3.37544 59.9125 3.32568 59.825 3.3008C59.7875 3.28836 59.75 3.27592 59.7 3.27592H57.1625C57.125 2.98981 56.875 2.75346 56.575 2.75346C56.25 2.75346 55.9875 3.01469 55.9875 3.33812C56 3.67398 56.2625 3.93521 56.5875 3.93521ZM65.875 17.4071C65.875 17.1459 65.6875 16.9096 65.4375 16.8349V16.2378C65.4375 16.2378 65.4375 16.213 65.4375 16.2005C65.4375 16.1756 65.45 16.1632 65.4625 16.1383C65.475 16.1259 65.5 16.1134 65.5125 16.101C65.525 16.101 65.5375 16.101 65.5375 16.0886H70.625H70.725C70.8125 16.0886 70.8875 16.0637 70.9625 16.0139C71.0375 15.9766 71.1 15.9144 71.125 15.8522C71.175 15.7776 71.1875 15.7029 71.1875 15.6159V15.5288C71.375 15.4293 71.5 15.2302 71.5 15.0063C71.5 14.6829 71.2375 14.4092 70.9 14.4092C70.575 14.4092 70.3 14.6705 70.3 15.0063C70.3 15.3173 70.5375 15.5537 70.8375 15.591V15.6159C70.8375 15.6407 70.825 15.6656 70.825 15.6781C70.8125 15.7029 70.8 15.7154 70.775 15.7278C70.7625 15.7403 70.725 15.7527 70.7125 15.7527H65.575H65.55C65.525 15.7527 65.5125 15.7527 65.4875 15.7527C65.45 15.7651 65.4125 15.7651 65.375 15.79C65.3 15.8273 65.2375 15.8771 65.1875 15.9393C65.1375 16.0015 65.1125 16.0761 65.0875 16.1508V16.2378V16.8474C64.85 16.922 64.675 17.1459 64.675 17.4071C64.675 17.743 64.95 18.0042 65.275 18.0042C65.6125 18.0042 65.875 17.743 65.875 17.4071ZM66.85 19.1238H68.0875C68.2 19.1238 68.3 19.074 68.3875 19.0118C68.475 18.9372 68.5375 18.8377 68.55 18.7382C68.5625 18.6884 68.5625 18.6511 68.5625 18.6511V17.7803V17.7679C68.5625 17.743 68.575 17.7306 68.575 17.7181C68.5875 17.6933 68.625 17.6808 68.65 17.6684C68.6625 17.6559 68.6875 17.6559 68.7 17.6559H71.675C71.675 17.8176 71.75 17.9918 71.9 18.1038C72.1625 18.3028 72.5375 18.253 72.7375 18.0042C72.9375 17.743 72.8875 17.3698 72.625 17.1708C72.375 16.9718 72 17.0215 71.7875 17.2703C71.775 17.2828 71.775 17.2952 71.775 17.3076H68.6875C68.6375 17.3076 68.5875 17.3076 68.5375 17.3325C68.425 17.3698 68.3375 17.432 68.275 17.5315C68.25 17.5813 68.225 17.6311 68.225 17.6933C68.2125 17.7181 68.2125 17.7554 68.2125 17.7803V18.6138C68.2125 18.6138 68.2125 18.6511 68.2125 18.6635C68.2125 18.6884 68.1875 18.7133 68.1625 18.7382C68.1375 18.7506 68.1125 18.763 68.075 18.763H66.875C66.825 18.5018 66.575 18.3028 66.3 18.3028C65.9625 18.3028 65.7 18.564 65.7 18.8874C65.7 19.2109 65.9625 19.4845 66.3 19.4845C66.55 19.497 66.75 19.3353 66.85 19.1238ZM75.35 19.5094C75.15 19.7706 75.2 20.1438 75.4625 20.3429C75.725 20.5419 76.1 20.4921 76.3 20.2309C76.5 19.9697 76.45 19.6089 76.1875 19.3975C76.15 19.3726 76.125 19.3601 76.1 19.3353V18.4521C76.15 18.4147 76.2 18.3774 76.2375 18.3152C76.4375 18.054 76.4 17.6933 76.1375 17.4818C75.875 17.2828 75.5 17.3325 75.3 17.5813C75.1 17.8425 75.15 18.2157 75.4125 18.4147C75.4625 18.4521 75.5375 18.4894 75.6 18.5143V19.3228C75.5 19.3601 75.4125 19.4223 75.35 19.5094ZM76.375 6.26139C76.6125 6.44798 76.9375 6.4231 77.15 6.21163V8.06511C77.15 8.08999 77.15 8.12731 77.1625 8.13975C77.175 8.23926 77.225 8.3139 77.3 8.38854C77.3625 8.45074 77.4625 8.50049 77.55 8.52537C77.575 8.52537 77.6 8.53781 77.625 8.53781H78.7875H78.8375C78.85 8.53781 78.8875 8.55025 78.9 8.57513C78.9125 8.58757 78.9375 8.61245 78.9375 8.63733V8.66221V9.12247C78.8 9.14735 78.675 9.22198 78.5875 9.33394C78.3875 9.59517 78.4375 9.95591 78.7 10.1674C78.9625 10.3664 79.3375 10.3167 79.5375 10.0554C79.7375 9.80664 79.6875 9.43345 79.425 9.22198C79.3875 9.18466 79.35 9.17222 79.3 9.14734V8.67465V8.62489C79.3 8.60001 79.3 8.57513 79.2875 8.55025C79.275 8.46317 79.225 8.36366 79.15 8.30146C79.075 8.23926 78.9875 8.18951 78.9 8.17707C78.8625 8.16463 78.8375 8.16463 78.8 8.16463H77.675H77.6375C77.6125 8.16463 77.5875 8.13975 77.575 8.12731C77.5625 8.11487 77.55 8.08999 77.5375 8.04023V6.21163C77.5375 6.16188 77.525 6.12456 77.5125 6.06236C77.4875 5.97528 77.425 5.90065 77.35 5.85089C77.3625 5.65186 77.2875 5.46527 77.125 5.32843C76.8625 5.11696 76.5 5.17916 76.2875 5.42795C76.0625 5.70161 76.1125 6.06236 76.375 6.26139ZM74.675 7.64217C74.4125 7.44314 74.0375 7.4929 73.8375 7.74169C73.8 7.79144 73.775 7.8412 73.75 7.89096H72.675C72.5875 7.9034 72.5 7.92828 72.4375 7.97804C72.3625 8.02779 72.3 8.08999 72.275 8.16463C72.2625 8.20195 72.25 8.23926 72.2375 8.28902C72.2375 8.30146 72.225 8.32634 72.225 8.33878V10.864C72.225 10.9511 72.25 11.0381 72.2875 11.1128C72.325 11.1874 72.3875 11.2496 72.4625 11.2869C72.5375 11.3367 72.625 11.3491 72.7125 11.3491H72.875C72.925 11.4238 72.975 11.4984 73.05 11.5606C73.3125 11.7596 73.6875 11.7099 73.8875 11.4611C74.0875 11.1999 74.0375 10.8267 73.7875 10.6276C73.525 10.4286 73.15 10.4659 72.95 10.7272C72.875 10.8142 72.85 10.9013 72.8375 11.0008H72.7125C72.6875 11.0008 72.6625 10.9884 72.65 10.9884C72.625 10.9759 72.6125 10.9635 72.6 10.9386C72.5875 10.9137 72.5875 10.9013 72.5875 10.8764V8.33878C72.5875 8.32634 72.6 8.3139 72.6 8.30146C72.6125 8.28902 72.625 8.26414 72.65 8.2517C72.6625 8.23926 72.6875 8.22682 72.7 8.22682H73.7375C73.7625 8.36366 73.8375 8.47561 73.95 8.57513C74.2125 8.77416 74.5875 8.7244 74.7875 8.46317C74.975 8.20195 74.9375 7.8412 74.675 7.64217ZM75.0125 10.4535C74.8125 10.7147 74.85 11.0879 75.1125 11.2869C75.375 11.486 75.75 11.4362 75.95 11.175C76 11.1252 76.025 11.063 76.05 11.0008H77.5C77.525 11.0008 77.5375 11.0133 77.5625 11.0257C77.5875 11.0381 77.6 11.0506 77.6125 11.0755V11.0879V11.8591C77.6125 11.8716 77.6125 11.8965 77.6125 11.9089C77.625 12.0084 77.6625 12.0955 77.725 12.1826C77.7875 12.2572 77.875 12.3194 77.975 12.3443C78.0125 12.3567 78.0625 12.3567 78.1125 12.3567H79.375C79.425 12.3567 79.475 12.3567 79.5125 12.3443C79.6125 12.3194 79.7 12.2696 79.7625 12.195C79.825 12.1204 79.875 12.0333 79.8875 11.9338V11.8591V11.8218C80 11.7845 80.1125 11.7223 80.1875 11.6228C80.3875 11.3616 80.3375 10.9884 80.0875 10.7894C79.825 10.5903 79.45 10.6401 79.25 10.9013C79.05 11.1625 79.1 11.5233 79.35 11.7348C79.4 11.7721 79.45 11.7969 79.5 11.8218V11.884C79.5 11.9089 79.4875 11.9213 79.475 11.9462C79.4625 11.9587 79.4375 11.9711 79.4125 11.9835C79.4 11.9835 79.3875 11.9835 79.375 11.9835H78.1C78.0875 11.9835 78.075 11.9835 78.0625 11.9835C78.0375 11.9711 78.025 11.9587 78 11.9462C77.9875 11.9213 77.975 11.9089 77.975 11.8591V11.1252V11.0755C77.9625 11.0257 77.9625 10.9759 77.9375 10.9262C77.9 10.8391 77.8375 10.752 77.7625 10.7023C77.6875 10.6525 77.5875 10.6152 77.475 10.6152H76.025C75.9875 10.5157 75.925 10.4162 75.825 10.3415C75.5875 10.1425 75.2 10.1923 75.0125 10.4535ZM73.4 23.8135V23.1666V23.092C73.4 23.0298 73.3875 22.98 73.375 22.9303C73.35 22.8183 73.2875 22.7188 73.2125 22.6442C73.1375 22.5571 73.0375 22.5073 72.9375 22.47C72.875 22.4576 72.825 22.4451 72.775 22.4451H72.725C72.7 22.3207 72.625 22.1963 72.5125 22.1093C72.25 21.9102 71.875 21.9475 71.675 22.2088C71.475 22.47 71.525 22.8432 71.7875 23.0422C72.05 23.2413 72.425 23.2039 72.625 22.9427C72.65 22.9054 72.675 22.8681 72.7 22.8307H72.725H72.7625C72.7875 22.8307 72.8125 22.8432 72.8375 22.8432C72.875 22.8556 72.925 22.8929 72.9625 22.9303C73 22.9676 73.025 23.0049 73.0375 23.0547C73.05 23.0795 73.05 23.1044 73.05 23.1044V23.8508C72.3 23.9627 71.7375 24.6096 71.7375 25.3808C71.7375 26.2392 72.4375 26.9233 73.2875 26.9233C74.15 26.9233 74.85 26.2267 74.85 25.3808C74.825 24.5474 74.2 23.8881 73.4 23.8135ZM77.0625 15.0063C77.325 15.2054 77.6875 15.1556 77.9 14.9068C78.1 14.6456 78.0625 14.2724 77.8 14.0858C77.5375 13.8868 77.1625 13.9241 76.9625 14.1853C76.9375 14.2226 76.925 14.26 76.9 14.2848H75.95H75.925C75.9 14.2848 75.8625 14.2848 75.825 14.2973C75.775 14.3097 75.7125 14.3346 75.6625 14.3844C75.5625 14.459 75.4875 14.5709 75.4625 14.6953C75.45 14.7327 75.45 14.7575 75.45 14.7949V14.8446C75.3625 14.8819 75.2875 14.9317 75.225 15.0188C75.025 15.28 75.075 15.6407 75.3375 15.8522C75.6 16.0512 75.975 16.0015 76.1625 15.7527C76.3625 15.4915 76.325 15.1307 76.0625 14.9193C75.9875 14.8695 75.9 14.8322 75.825 14.8073V14.77C75.825 14.7451 75.85 14.7202 75.875 14.6953C75.8875 14.6829 75.9 14.6829 75.9125 14.6705C75.925 14.6705 75.925 14.6705 75.9375 14.6705H76.85C76.875 14.7824 76.95 14.9193 77.0625 15.0063ZM51.2875 7.61729H51.4C51.45 7.61729 51.5 7.61729 51.5375 7.60485C51.65 7.56753 51.7375 7.50534 51.8 7.41826C51.8625 7.33118 51.9 7.21923 51.9 7.11971V5.65186C51.9 5.63942 51.9 5.62698 51.9125 5.61454C51.9125 5.58966 51.9375 5.56478 51.9625 5.56478C51.975 5.56478 51.9875 5.55234 52.0125 5.55234H52.2375C52.3375 5.72649 52.525 5.83845 52.75 5.83845C53.075 5.83845 53.35 5.57722 53.35 5.25379C53.35 4.93037 53.075 4.66914 52.75 4.66914C52.45 4.66914 52.2 4.89305 52.1625 5.17916H52C51.975 5.17916 51.95 5.17916 51.925 5.1916C51.875 5.20404 51.825 5.21648 51.775 5.24135C51.6875 5.30355 51.6125 5.39063 51.5625 5.4777C51.5375 5.52746 51.525 5.57722 51.525 5.63942V5.70161V7.13215C51.525 7.15703 51.5125 7.18191 51.5 7.20679C51.4875 7.23167 51.4625 7.24411 51.4375 7.25655H51.4H51.325C51.25 7.00776 51.025 6.83361 50.75 6.83361C50.425 6.83361 50.1625 7.09483 50.1625 7.4307C50.1625 7.75413 50.425 8.02779 50.75 8.02779C50.9875 7.99048 51.2 7.82876 51.2875 7.61729ZM52.75 11.3989C52.55 11.3989 52.375 11.4984 52.2625 11.6601C52.25 11.6477 52.25 11.6352 52.25 11.6228V11.6104V11.573V10.242C52.25 10.2171 52.25 10.1923 52.25 10.1923C52.25 10.0803 52.225 9.98079 52.175 9.90615C52.2125 9.83152 52.225 9.75688 52.225 9.6698C52.225 9.34638 51.9625 9.08515 51.625 9.08515C51.3 9.08515 51.0375 9.34638 51.0375 9.6698C51.0375 9.99323 51.3 10.2545 51.625 10.2545C51.65 10.2545 51.6875 10.2545 51.7125 10.242V11.5606V11.6104C51.7125 11.6477 51.725 11.685 51.725 11.7099C51.7375 11.7845 51.7625 11.8591 51.8 11.9213C51.875 12.0457 51.9875 12.1577 52.125 12.2199C52.1625 12.2448 52.2 12.2448 52.2375 12.2696C52.3375 12.4562 52.5375 12.5806 52.7625 12.5806C53.0875 12.5806 53.3625 12.3194 53.3625 11.996C53.35 11.6601 53.075 11.3989 52.75 11.3989Z" fill="#1B75BB"/>
</svg>
