<svg width="100" height="44" viewBox="0 0 100 44" fill="none" xmlns="http://www.w3.org/2000/svg">
<path d="M58.2743 39.2113H61.5761V27.162H58.2743V39.2113ZM71.6006 39.2113H74.909V27.162H71.6006V39.2113ZM84.5431 27.162L82.0023 35.3934H81.9559L79.4217 27.162H75.9479L80.0635 39.2113H83.7491L87.8251 27.162H84.5431ZM20.1416 33.1966C20.1416 31.2645 20.8165 29.3324 23.053 29.3324C25.316 29.3324 25.9909 31.2645 25.9909 33.1966C25.9909 35.1088 25.3093 37.0476 23.053 37.0476C20.8165 37.0476 20.1416 35.1088 20.1416 33.1966ZM16.8332 33.1966C16.8332 37.0277 19.2814 39.5421 23.0596 39.5421C26.8577 39.5421 29.2993 37.0277 29.2993 33.1966C29.2993 29.3522 26.8577 26.8312 23.0596 26.8312C19.2748 26.8312 16.8332 29.3522 16.8332 33.1966ZM33.9443 32.7533C33.9443 30.9601 34.7582 29.3324 36.6241 29.3324C38.7679 29.3324 39.4362 31.0792 39.4362 33.0378C39.4362 34.7582 38.5033 36.3727 36.6241 36.3727C34.5927 36.366 33.9443 34.4869 33.9443 32.7533ZM30.6293 32.7996C30.6293 36.1146 32.171 38.8606 35.7838 38.8606C37.2328 38.8606 38.6753 38.2584 39.3965 37.0013H39.4362V38.5827C39.4627 40.3097 38.6224 41.5669 36.7829 41.5669C35.6183 41.5669 34.6192 41.1434 34.3148 39.906H31.0329C31.1917 42.6586 33.9708 43.7769 36.3462 43.7769C41.8977 43.7769 42.5925 40.4155 42.5925 38.4371V27.162H39.4362V28.7699H39.3965C38.6025 27.3672 37.3917 26.8312 35.8036 26.8312C32.4224 26.8312 30.6293 29.6831 30.6293 32.7996ZM48.0183 28.8361H47.9521V27.162H44.8025V39.2113H48.1043V32.8922C48.1043 30.4506 48.8784 29.4515 50.6716 29.4515C52.2133 29.4515 52.789 30.4308 52.789 32.4092V39.2113H56.0974V31.8004C56.0974 28.8162 55.2108 26.8312 51.6906 26.8312C50.3011 26.8312 48.8454 27.4863 48.0183 28.8361ZM91.5569 35.7838C91.5569 34.5729 92.4899 34.2222 93.5155 34.0171C94.5411 33.8252 95.7057 33.8053 96.2615 33.3157V34.5464C96.2615 35.2676 96.1689 37.3255 93.5817 37.3255C92.5164 37.3255 91.5569 37.0211 91.5569 35.7838ZM88.6191 30.8675H91.9275C92.04 29.564 92.8605 29.0478 94.1177 29.0478C95.2822 29.0478 96.2549 29.2596 96.2549 30.6822C96.2549 32.032 94.3691 31.9659 92.3377 32.2702C90.2865 32.5481 88.2353 33.1966 88.2353 35.9227C88.2353 38.3974 90.0549 39.5421 92.3377 39.5421C93.8067 39.5421 95.3484 39.1451 96.4005 38.0533C96.4269 38.4503 96.5129 38.8407 96.6387 39.2179H99.9934C99.689 38.7216 99.5699 37.6299 99.5699 36.5315V30.2653C99.5699 27.3738 96.6784 26.8378 94.2698 26.8378C91.5768 26.8312 88.811 27.7708 88.6191 30.8675ZM64.6397 23.5493V27.1687H62.6282V29.3787H64.6397V36.4851C64.6397 38.887 66.413 39.3502 68.4312 39.3502C69.0862 39.3502 69.8074 39.3304 70.3699 39.2311V36.6506C70.0192 36.7167 69.695 36.7432 69.3443 36.7432C68.226 36.7432 67.9415 36.4587 67.9415 35.347V29.3787H70.3699V27.1687H67.9415V23.5493H64.6397ZM58.367 24.4822C58.367 25.3424 59.0684 26.0372 59.9285 26.0372C60.7887 26.0372 61.4835 25.3424 61.4835 24.4822C61.4835 23.622 60.7887 22.9207 59.9285 22.9207C59.0684 22.9207 58.367 23.622 58.367 24.4822ZM0 30.9601C0 35.7639 3.03712 39.6083 8.17839 39.6083C12.2544 39.6083 15.1261 36.9549 15.4966 32.7996H11.95C11.6787 34.9964 10.4149 36.5315 8.17839 36.5315C4.89645 36.5315 3.6591 33.7325 3.6591 30.9667C3.6591 28.0553 4.89645 25.2564 8.17839 25.2564C9.99802 25.2564 11.5861 26.507 11.8176 28.1678H15.3643C14.9209 24.3234 11.8375 22.1796 8.17839 22.1796C3.03712 22.173 0 26.0173 0 30.9601ZM71.6668 21.2995C71.4683 21.5576 71.5146 21.9281 71.7727 22.1399C72.0373 22.3384 72.4079 22.2987 72.6064 22.034C72.6395 22.0009 72.6593 21.9612 72.6791 21.9215H72.7056H72.7453C72.7718 21.9215 72.7916 21.9281 72.8181 21.9348C72.8578 21.9546 72.8975 21.9811 72.9372 22.0142C72.9769 22.0472 72.9967 22.0936 73.01 22.1333C73.0232 22.1597 73.0232 22.1862 73.0232 22.1862V22.9405C72.2755 23.053 71.7065 23.7014 71.7065 24.4756C71.7065 25.3358 72.4079 26.0306 73.2614 26.0306C74.1216 26.0306 74.823 25.3358 74.823 24.4756C74.823 23.6617 74.201 23.0001 73.4004 22.9207V22.2656V22.1862C73.4004 22.1266 73.3872 22.0737 73.3739 22.0274C73.3475 21.9149 73.2879 21.8157 73.2085 21.7429C73.1291 21.6635 73.0365 21.6039 72.924 21.5642C72.8644 21.5444 72.8181 21.5377 72.7652 21.5377H72.7189C72.6924 21.4054 72.6262 21.2863 72.5071 21.1937C72.3946 21.1077 72.2689 21.068 72.1366 21.068C71.9579 21.0746 71.7859 21.1474 71.6668 21.2995ZM76.7617 19.8041C76.7353 19.8438 76.722 19.8835 76.6956 19.91H75.3656H75.3259H75.306C75.2663 19.91 75.22 19.91 75.1671 19.9299C75.0877 19.9431 75.0149 19.9696 74.9487 20.0159C74.8164 20.1151 74.7171 20.2607 74.7039 20.4129C74.6973 20.4592 74.6973 20.4989 74.6973 20.5254V20.5585C74.598 20.5982 74.512 20.6577 74.4525 20.7437C74.2473 21.0018 74.3003 21.3789 74.5517 21.5841C74.8098 21.7892 75.1869 21.7363 75.3921 21.4782C75.5906 21.2201 75.5442 20.843 75.2862 20.6445C75.2266 20.6048 75.1737 20.5717 75.1141 20.5518V20.5254C75.1141 20.5121 75.1141 20.4923 75.1208 20.4857C75.1274 20.4327 75.1538 20.393 75.1935 20.3666C75.2068 20.3533 75.2332 20.3467 75.2597 20.3335C75.2729 20.3269 75.2994 20.3269 75.3259 20.3269H76.6691C76.7022 20.446 76.775 20.5585 76.8808 20.6379C77.1389 20.8364 77.5161 20.7967 77.7079 20.532C77.9131 20.2739 77.8601 19.8968 77.6021 19.6983C77.4962 19.6123 77.3639 19.5726 77.2381 19.5726C77.0529 19.5726 76.8742 19.652 76.7617 19.8041ZM66.7042 19.1292C66.7042 19.4667 66.9688 19.7247 67.2931 19.7247C67.6173 19.7247 67.882 19.4733 67.8886 19.1425H69.4832C69.5163 19.1425 69.5494 19.1557 69.5692 19.1822C69.5957 19.202 69.6156 19.2285 69.6222 19.2682V19.3013V19.5329V19.5924C69.6222 19.652 69.642 19.7049 69.6685 19.7578C69.7148 19.8571 69.8141 19.9431 69.9133 19.9828C69.9729 20.0026 70.0192 20.0159 70.0787 20.0159L73.235 20.0225C73.268 20.1614 73.3408 20.2938 73.4599 20.393C73.7246 20.5915 74.0885 20.5518 74.2937 20.2872C74.4988 20.0291 74.4458 19.652 74.1878 19.4534C73.9363 19.2483 73.5592 19.2946 73.3607 19.5593C73.3276 19.6056 73.3011 19.6453 73.2879 19.6917H70.092C70.0721 19.6917 70.0523 19.6917 70.039 19.6784C70.006 19.6718 69.9795 19.6453 69.9663 19.6123C69.9596 19.599 69.9596 19.5792 69.9596 19.5792C69.953 19.5461 69.953 19.5461 69.953 19.5461V19.3145V19.2285C69.9398 19.116 69.8802 18.9969 69.7942 18.9307C69.7148 18.8579 69.5957 18.8116 69.4832 18.8116H67.8026C67.6967 18.6462 67.5114 18.5337 67.2997 18.5337C66.9688 18.5403 66.7042 18.8116 66.7042 19.1292ZM73.7378 17.2103C73.5327 17.4684 73.5857 17.8389 73.8437 18.0441C73.8966 18.0838 73.9562 18.1102 74.0091 18.1301V18.183C74.0091 18.1896 74.0091 18.2029 74.0025 18.2161C73.9959 18.2492 73.9694 18.2889 73.9363 18.3154C73.9165 18.3286 73.9033 18.3286 73.8768 18.3418C73.8768 18.3418 73.8569 18.3484 73.8437 18.3484H73.8172H71.197C71.1705 18.2095 71.0977 18.0772 70.9786 17.9845C70.7206 17.786 70.35 17.8323 70.1383 18.0904C69.9332 18.3484 69.9795 18.7256 70.2375 18.9241C70.4956 19.1226 70.8794 19.0763 71.0779 18.8182C71.0911 18.7984 71.1043 18.7785 71.1176 18.7587H73.8239C73.8503 18.7587 73.8636 18.7587 73.8834 18.7521C73.9165 18.7521 73.9496 18.7521 73.9827 18.7388C74.0488 18.719 74.1084 18.6991 74.1613 18.6528C74.2804 18.5734 74.3598 18.4609 74.3929 18.3286C74.3995 18.3021 74.4128 18.2624 74.4128 18.2624C74.4194 18.2095 74.4194 18.183 74.4194 18.183V18.1301C74.5186 18.0904 74.6046 18.0308 74.6774 17.9448C74.8759 17.6868 74.8296 17.3162 74.5782 17.1177C74.4723 17.0317 74.34 16.992 74.2143 16.992C74.0356 16.9788 73.8569 17.0582 73.7378 17.2103ZM75.2862 16.6744C75.0811 16.9324 75.134 17.303 75.3921 17.5081C75.4516 17.5478 75.5178 17.5875 75.5839 17.6074V18.4146C75.4913 18.4477 75.4053 18.5139 75.3391 18.5933C75.1472 18.8513 75.1869 19.2285 75.445 19.4336C75.703 19.6321 76.0802 19.5858 76.2787 19.3277C76.4838 19.0697 76.4309 18.6991 76.1728 18.494C76.1398 18.4675 76.1067 18.4543 76.0802 18.4345V17.5478C76.1265 17.5147 76.1795 17.4684 76.2192 17.4155C76.4243 17.1574 76.378 16.7869 76.1199 16.5817C76.014 16.4957 75.8817 16.456 75.756 16.456C75.5839 16.4494 75.4053 16.5288 75.2862 16.6744ZM71.7991 16.3634C71.7925 16.3766 71.7859 16.3899 71.7793 16.4031H68.6892C68.6429 16.4031 68.59 16.4097 68.537 16.4296C68.4312 16.4626 68.3385 16.5354 68.279 16.6347C68.2459 16.6876 68.226 16.7406 68.2194 16.7935C68.2128 16.82 68.2062 16.853 68.2062 16.8795V17.7132C68.2062 17.7132 68.2062 17.7463 68.2062 17.7662C68.2062 17.7926 68.1797 17.8257 68.1599 17.8456C68.1334 17.8588 68.1069 17.872 68.0672 17.872H66.863C66.81 17.6074 66.5652 17.4022 66.2873 17.4022C65.9565 17.4022 65.6852 17.6603 65.6852 17.9911C65.6852 18.3154 65.9565 18.5866 66.2873 18.5866C66.5321 18.5866 66.7439 18.4345 66.8365 18.2161H68.0738C68.1797 18.2161 68.2922 18.1698 68.3782 18.1102C68.4642 18.0375 68.5238 17.9316 68.537 17.8323C68.5503 17.786 68.5503 17.7463 68.5503 17.7463V16.8729L68.5569 16.8597C68.5635 16.8332 68.5635 16.8266 68.5767 16.8067C68.59 16.7869 68.623 16.767 68.6495 16.7538C68.6627 16.7472 68.6826 16.7472 68.6958 16.7472H71.6734C71.6734 16.9126 71.7528 17.0912 71.8984 17.2037C72.1564 17.4022 72.5336 17.3559 72.7321 17.0979C72.9372 16.8398 72.8843 16.4626 72.6262 16.2641C72.5204 16.1781 72.3946 16.1384 72.2623 16.1384C72.0969 16.1318 71.9182 16.2112 71.7991 16.3634ZM62.6282 15.7811C62.6282 16.0392 62.787 16.2575 63.0186 16.3435V16.8795C63.0186 16.8795 63.012 16.8927 63.0054 16.906C62.9987 16.9258 62.9855 16.9391 62.9657 16.9523C62.9458 16.9655 62.9326 16.9788 62.9061 16.9655H60.3785H60.352C60.3388 16.9655 60.3322 16.9589 60.3189 16.9589C60.2991 16.9457 60.2925 16.9324 60.2792 16.9126C60.2726 16.906 60.2726 16.8927 60.2726 16.8927V16.7869C60.5505 16.7339 60.7623 16.4891 60.7623 16.198C60.7623 15.8737 60.4976 15.6025 60.1667 15.6025C59.8359 15.6025 59.5712 15.8671 59.5712 16.198C59.5712 16.4759 59.7565 16.7009 60.0146 16.7736V16.8597V16.906C60.0212 16.9391 60.0344 16.9721 60.0476 17.0118C60.0741 17.078 60.127 17.1376 60.18 17.1706C60.2197 17.1905 60.2461 17.2037 60.2858 17.217C60.2991 17.2236 60.3189 17.2236 60.3322 17.2236C60.3454 17.2236 60.3586 17.2236 60.3719 17.2236H62.8995C62.9723 17.2236 63.0384 17.1971 63.0914 17.164C63.1509 17.1243 63.2039 17.0648 63.2303 16.9986C63.2369 16.9655 63.2502 16.9324 63.2502 16.8861V16.3766C63.5612 16.3502 63.806 16.0987 63.806 15.7877C63.806 15.4635 63.5347 15.1988 63.2105 15.1988C62.8929 15.1922 62.6282 15.4569 62.6282 15.7811ZM79.2894 14.5438C79.0909 14.7952 79.1306 15.1724 79.3952 15.3775C79.4283 15.4106 79.468 15.4238 79.5011 15.4437V15.5231C79.5011 15.5628 79.4812 15.6091 79.4548 15.6422C79.4217 15.6752 79.382 15.7017 79.3423 15.7017H79.3092H78.0917C77.9263 15.7017 77.7609 15.7679 77.6352 15.8737C77.5094 15.9862 77.4234 16.145 77.3969 16.3105C77.3969 16.3568 77.3969 16.3965 77.3969 16.4296V18.0176C77.2977 18.0573 77.2051 18.1235 77.1389 18.2029C76.9338 18.4675 76.9801 18.8381 77.2448 19.0366C77.5028 19.2417 77.88 19.1954 78.0785 18.9373C78.277 18.6727 78.2307 18.3021 77.9726 18.1036C77.9594 18.0904 77.9395 18.0838 77.9197 18.0705V16.4229C77.9197 16.4229 77.9197 16.3965 77.9263 16.3766C77.9263 16.3435 77.9528 16.3038 77.9858 16.2708C78.0189 16.2443 78.0586 16.2311 78.0983 16.2311H79.3224H79.3952C79.5606 16.2112 79.7261 16.1318 79.8319 16.0127C79.951 15.887 80.0238 15.7149 80.0238 15.5429V15.4437C80.0966 15.404 80.176 15.3444 80.2289 15.2716C80.4274 15.0202 80.3811 14.643 80.1231 14.4379C80.0172 14.3519 79.8849 14.3122 79.7591 14.3122C79.5871 14.3122 79.4085 14.3916 79.2894 14.5438ZM70.3169 14.074C70.3169 14.3783 70.5552 14.6232 70.8529 14.6629V14.6827C70.8529 14.7092 70.8463 14.729 70.8397 14.7489C70.8264 14.7687 70.8132 14.782 70.7934 14.7952C70.7735 14.8084 70.747 14.8151 70.7338 14.8151H65.5925H65.5595C65.5396 14.8151 65.5198 14.8217 65.4933 14.8217C65.4536 14.8283 65.4139 14.8349 65.3742 14.8548C65.3014 14.8878 65.2352 14.9408 65.1889 15.0069C65.1426 15.0731 65.1095 15.1459 65.0897 15.2253V15.3113V15.9267C64.8515 16.0061 64.6794 16.2244 64.6794 16.4891C64.6794 16.82 64.9507 17.0912 65.2749 17.0912C65.6058 17.0912 65.8638 16.82 65.8638 16.4891C65.8638 16.2178 65.6786 15.9929 65.4271 15.9135V15.3113C65.4271 15.3113 65.4205 15.2849 65.4271 15.2716C65.4271 15.2452 65.4337 15.2319 65.4536 15.2055C65.4668 15.1922 65.4867 15.179 65.5065 15.1658C65.5198 15.1658 65.5264 15.1591 65.5396 15.1525H70.6279H70.7338C70.8132 15.1525 70.8992 15.126 70.9654 15.0797C71.0382 15.0466 71.0977 14.9805 71.1308 14.9143C71.1771 14.8415 71.197 14.7621 71.197 14.6761V14.5901C71.3823 14.4842 71.508 14.2923 71.508 14.0674C71.508 13.7365 71.2433 13.4718 70.9125 13.4718C70.5882 13.4785 70.3169 13.7431 70.3169 14.074ZM76.9536 13.2469C76.9338 13.28 76.9139 13.3197 76.8941 13.3527H75.9479H75.9214C75.8883 13.3527 75.8618 13.3594 75.8288 13.366C75.7692 13.3792 75.7097 13.4057 75.6633 13.452C75.5575 13.5182 75.4847 13.6373 75.4648 13.7564C75.4582 13.7895 75.4582 13.8159 75.4582 13.8556V13.8953C75.3722 13.935 75.2994 13.988 75.2332 14.0674C75.0347 14.332 75.0811 14.696 75.3391 14.9011C75.5972 15.1062 75.9743 15.0599 76.1662 14.7952C76.3713 14.5372 76.325 14.1666 76.067 13.9615C75.9876 13.9086 75.9082 13.8755 75.8221 13.8556V13.849V13.8159C75.8221 13.7895 75.842 13.763 75.8751 13.7431C75.8817 13.7299 75.9015 13.7233 75.9082 13.7233C75.9148 13.7167 75.928 13.7167 75.9346 13.7167H76.8477C76.8676 13.8556 76.9404 13.988 77.0595 14.0806C77.3175 14.2857 77.6881 14.2328 77.8932 13.9747C78.0917 13.7167 78.052 13.3395 77.794 13.1476C77.6815 13.0616 77.5558 13.0219 77.4234 13.0219C77.2448 13.0219 77.0727 13.0947 76.9536 13.2469ZM55.2306 13.3064C55.2306 13.6306 55.4953 13.9019 55.8195 13.9019C56.0643 13.9019 56.2761 13.7498 56.3687 13.5314H56.4746C56.4746 13.5314 56.4878 13.5314 56.5076 13.538C56.5209 13.538 56.5407 13.5446 56.554 13.5512C56.587 13.5579 56.6201 13.5777 56.64 13.6108C56.6598 13.6306 56.6731 13.6637 56.6797 13.7034C56.6863 13.7167 56.6863 13.7431 56.6863 13.7564V14.5967C56.6797 14.729 56.7128 14.8415 56.7723 14.9408C56.8319 15.0466 56.9245 15.1393 57.0238 15.2055C57.1296 15.2584 57.2421 15.2915 57.3546 15.2915H57.9038C58.003 15.49 58.2015 15.6223 58.4398 15.6223C58.764 15.6223 59.0353 15.3576 59.0353 15.0268C59.0353 14.696 58.764 14.4313 58.4398 14.4313C58.1949 14.4313 57.9766 14.5769 57.8906 14.7952H57.3546C57.3215 14.7952 57.2884 14.782 57.262 14.7687C57.2355 14.7555 57.209 14.729 57.1892 14.696C57.1693 14.6629 57.1627 14.6364 57.1627 14.5967V13.7498C57.1627 13.7101 57.1627 13.6637 57.1561 13.6306C57.1429 13.5049 57.0899 13.3858 57.0105 13.2932C56.9377 13.1939 56.8319 13.1278 56.7128 13.0881C56.6532 13.0682 56.6003 13.055 56.5407 13.0484H56.4746H56.3488C56.2496 12.8565 56.0445 12.7175 55.8129 12.7175C55.4953 12.7109 55.2306 12.9756 55.2306 13.3064ZM64.8779 13.227C64.8779 13.4851 65.0367 13.6968 65.2551 13.7895C65.2551 13.7895 65.2551 13.7961 65.2485 13.7961C65.2352 13.8225 65.2021 13.8424 65.1823 13.8556C65.1691 13.8556 65.1624 13.8556 65.1492 13.8556H65.1294H59.6903C59.6903 13.8556 59.6705 13.8556 59.6573 13.8556V13.849C59.8028 13.7431 59.9087 13.5645 59.9087 13.366C59.9087 13.0351 59.6374 12.7638 59.3132 12.7638C58.9823 12.7638 58.7177 13.0351 58.7177 13.366C58.7177 13.677 58.9625 13.935 59.2735 13.9549C59.3132 14.0277 59.3595 14.0806 59.4257 14.1203C59.4786 14.1534 59.5315 14.1798 59.5911 14.1931C59.6175 14.1931 59.6506 14.2063 59.6771 14.2063H65.1227H65.1691C65.1955 14.2063 65.222 14.1931 65.2485 14.1865C65.3676 14.16 65.4668 14.0806 65.533 13.9813C65.5661 13.9218 65.5859 13.8755 65.5992 13.8159V13.8093C65.8572 13.7431 66.0491 13.5115 66.0491 13.227C66.0491 12.8962 65.7844 12.6381 65.4602 12.6381C65.1426 12.6381 64.8779 12.9028 64.8779 13.227ZM67.3195 11.7846C67.2864 11.7846 67.2467 11.7912 67.2137 11.7912C67.1409 11.811 67.0747 11.8375 67.0152 11.8904C66.9556 11.9434 66.9093 11.9963 66.8828 12.0625C66.8497 12.1286 66.8365 12.2014 66.8365 12.2742V12.8168C66.6181 12.9028 66.4593 13.1145 66.4593 13.3726C66.4593 13.7034 66.724 13.9681 67.0482 13.9681C67.3791 13.9681 67.6438 13.7034 67.6438 13.3726C67.6438 13.0881 67.4519 12.8565 67.1872 12.7969V12.2742C67.1872 12.2543 67.1872 12.2279 67.1938 12.2146C67.207 12.1882 67.2137 12.1749 67.2269 12.1617C67.2467 12.1485 67.2666 12.1419 67.2864 12.1352C67.2931 12.1352 67.2997 12.1352 67.3195 12.1352H68.676C68.7024 12.1352 68.7223 12.1352 68.7355 12.1551C68.7554 12.1617 68.7752 12.1816 68.7885 12.1948C68.8017 12.208 68.8083 12.2345 68.8083 12.2345V12.5984C68.8083 12.6249 68.8083 12.6514 68.8083 12.6778C68.8149 12.7506 68.8414 12.8234 68.8877 12.8829C68.9208 12.9491 68.9803 12.9954 69.0465 13.0351C69.1127 13.0682 69.1855 13.0947 69.2649 13.0947H73.0431C73.0232 13.1145 73.0034 13.1344 72.9835 13.1609C72.785 13.4189 72.8247 13.7961 73.0894 13.988C73.3475 14.1865 73.7246 14.1468 73.9231 13.8887C74.1282 13.6306 74.0819 13.2469 73.8172 13.055C73.7312 12.9888 73.6452 12.9557 73.5393 12.9359C73.5327 12.9226 73.5261 12.9226 73.5195 12.9028C73.4732 12.8499 73.407 12.8035 73.3342 12.7771C73.3011 12.7705 73.2614 12.7572 73.2283 12.7572C73.2019 12.7506 73.1754 12.7506 73.1423 12.7506H69.2715C69.245 12.7506 69.2318 12.7506 69.2119 12.7374C69.1855 12.7241 69.1722 12.7175 69.1656 12.6977C69.1524 12.6778 69.1392 12.658 69.1392 12.6381V12.2874V12.2676C69.1392 12.2676 69.1392 12.2213 69.1325 12.208C69.1259 12.1286 69.0928 12.0625 69.0531 12.0029C69.0068 11.9434 68.9473 11.8904 68.8877 11.8573C68.8215 11.8176 68.7421 11.8044 68.6627 11.8044H67.3195V11.7846ZM78.4292 11.8904C78.2307 12.1551 78.277 12.519 78.535 12.7308C78.7931 12.9293 79.1702 12.8829 79.3754 12.6183C79.4217 12.5521 79.4614 12.4727 79.4812 12.3933H79.6996C79.7261 12.3933 79.7459 12.3999 79.7724 12.4132C79.7922 12.433 79.8055 12.4462 79.8121 12.4661C79.8121 12.4859 79.8187 12.4926 79.8187 12.4926V12.5389V12.9226C79.7261 12.9623 79.6334 13.0153 79.5673 13.1079C79.3621 13.366 79.4018 13.7431 79.6665 13.9416C79.9312 14.1468 80.3083 14.0938 80.5069 13.8358C80.7054 13.5777 80.659 13.2006 80.401 13.0021C80.3348 12.9557 80.262 12.9226 80.1959 12.8962V12.4859C80.1892 12.4396 80.176 12.3867 80.1562 12.347C80.1297 12.2543 80.0635 12.1749 79.9841 12.1154C79.8981 12.0558 79.7989 12.0228 79.7062 12.0228H79.4548C79.4217 11.9367 79.3555 11.8507 79.2761 11.7912C79.1636 11.7052 79.0379 11.6655 78.9056 11.6655C78.7203 11.6655 78.5417 11.7382 78.4292 11.8904ZM63.0054 11.103H59.4124H59.3396C59.2801 11.1096 59.2272 11.1295 59.1676 11.1626C59.0617 11.2155 58.9691 11.3081 58.9294 11.4206C58.9095 11.4802 58.8963 11.5397 58.8963 11.6059V12.1419C58.8897 12.1749 58.8765 12.1948 58.85 12.2146C58.8434 12.2146 58.8301 12.2279 58.8169 12.2345C58.8037 12.2345 58.8037 12.2411 58.764 12.2411H57.7582C57.6854 11.9897 57.4671 11.8044 57.1892 11.8044C56.8583 11.8044 56.587 12.0691 56.587 12.3999C56.587 12.7308 56.8517 12.9888 57.1892 12.9888C57.434 12.9888 57.6457 12.8366 57.7384 12.6183H58.7838C58.8368 12.6183 58.8897 12.6117 58.9426 12.5918C59.0022 12.572 59.0551 12.5389 59.1014 12.4992C59.1941 12.4198 59.2602 12.3073 59.2735 12.1948C59.2867 12.1551 59.2867 12.1286 59.2867 12.1022V11.5993V11.5728C59.2999 11.5331 59.3264 11.5066 59.3529 11.4868C59.3595 11.4868 59.3727 11.4802 59.386 11.4802H59.419H63.0318C63.1178 11.6985 63.3296 11.8507 63.5876 11.8507C63.9119 11.8507 64.1765 11.5927 64.1765 11.2618C64.1765 10.9376 63.9119 10.6729 63.5876 10.6729C63.3097 10.6795 63.0848 10.8582 63.0054 11.103ZM75.0083 9.49514C74.8031 9.75981 74.8495 10.1304 75.1075 10.3289C75.3656 10.534 75.7427 10.4877 75.9412 10.223C75.9876 10.1701 76.0206 10.1105 76.0405 10.0443H77.4896C77.5094 10.0443 77.5293 10.0576 77.5491 10.0708C77.569 10.0774 77.5888 10.1039 77.5954 10.1237C77.6021 10.1304 77.6021 10.1436 77.6021 10.1436V10.9178C77.6021 10.9376 77.6021 10.9508 77.6087 10.9707C77.6219 11.0699 77.655 11.1626 77.7146 11.242C77.7741 11.3148 77.8667 11.3809 77.9594 11.4074C77.9991 11.4206 78.052 11.4272 78.1049 11.4272H79.382C79.4283 11.4272 79.4812 11.4272 79.5143 11.414C79.607 11.3942 79.6996 11.3412 79.7591 11.2618C79.8187 11.189 79.865 11.0964 79.8849 11.0038V10.931V10.8979C79.9974 10.8648 80.1032 10.7986 80.1892 10.6928C80.3877 10.4347 80.3414 10.0576 80.0834 9.85906C79.8253 9.66056 79.4482 9.70687 79.2496 9.96493C79.0511 10.2296 79.0975 10.5935 79.3555 10.7986C79.4018 10.8317 79.4548 10.8648 79.5077 10.8847V10.9508C79.5011 10.9707 79.4945 10.9905 79.4812 11.017C79.468 11.0302 79.4415 11.0435 79.4217 11.0501C79.4018 11.0501 79.4018 11.0567 79.382 11.0501H78.1049C78.0917 11.0501 78.0851 11.0501 78.0719 11.0501C78.052 11.0435 78.0322 11.0302 78.0123 11.0104C77.9991 10.9905 77.9925 10.9707 77.9925 10.9244V10.1833V10.1237C77.9858 10.0708 77.9792 10.0245 77.9528 9.97155C77.9131 9.87891 77.8535 9.79951 77.7741 9.74657C77.6947 9.69364 77.6021 9.66056 77.4896 9.66056H76.0405C76.0008 9.55469 75.9412 9.45544 75.8486 9.38265C75.7427 9.29663 75.6104 9.25693 75.4847 9.25693C75.2994 9.26355 75.1208 9.34295 75.0083 9.49514ZM68.2194 9.18415C68.2194 9.46205 68.4047 9.68702 68.6627 9.75319V10.5538V10.5869C68.6561 10.6134 68.6561 10.6398 68.6363 10.6531C68.623 10.6795 68.6098 10.6994 68.59 10.706C68.5701 10.7192 68.5436 10.7391 68.5238 10.7391C68.5172 10.7457 68.5039 10.7457 68.5039 10.7457H64.825C64.7985 10.7457 64.7721 10.7391 64.7522 10.7259C64.7059 10.6994 64.6728 10.6663 64.6596 10.62C64.6596 10.62 64.6463 10.6068 64.6463 10.5869C64.6463 10.5869 64.6463 10.5604 64.6463 10.5472V9.66717C64.6463 9.64732 64.6463 9.64071 64.6463 9.62747C64.6463 9.60101 64.6596 9.57454 64.6728 9.55469C64.6993 9.51499 64.7456 9.4819 64.7853 9.47529H64.8382H66.241C66.3336 9.67379 66.5387 9.81274 66.7769 9.81274C67.1012 9.81274 67.3725 9.54807 67.3725 9.21723C67.3725 8.88639 67.1012 8.62172 66.7769 8.62172C66.5057 8.62172 66.2741 8.8136 66.2079 9.06504H64.9044H64.8448C64.8051 9.06504 64.7588 9.06504 64.7125 9.07828C64.5603 9.11136 64.4147 9.21061 64.3287 9.34957C64.2824 9.41573 64.2559 9.49514 64.2493 9.57454C64.2427 9.60762 64.2427 9.64732 64.2427 9.67379V10.5538C64.2427 10.5869 64.2427 10.6134 64.2493 10.6398C64.2493 10.6795 64.2626 10.7126 64.2758 10.7523C64.3221 10.9045 64.4412 11.0369 64.5934 11.103C64.6662 11.1361 64.7456 11.156 64.825 11.156H68.4245H68.5039C68.5436 11.156 68.59 11.156 68.623 11.1427C68.7091 11.1163 68.7818 11.0898 68.8414 11.0369C68.9076 10.9905 68.9671 10.9244 69.0002 10.8582C69.0333 10.7854 69.0597 10.706 69.073 10.6332C69.0796 10.6001 69.0796 10.5737 69.0796 10.5472V9.70687C69.2781 9.61424 69.4171 9.40912 69.4171 9.17753C69.4171 8.84669 69.159 8.58202 68.8282 8.58202C68.4841 8.58202 68.2194 8.84669 68.2194 9.18415ZM51.0223 8.68788C51.0223 9.01211 51.287 9.2834 51.6178 9.2834C51.6509 9.2834 51.6774 9.2834 51.7038 9.27678V10.6068V10.6597C51.7104 10.6994 51.7104 10.7325 51.7171 10.7589C51.7303 10.8317 51.7568 10.9045 51.7898 10.9707C51.8626 11.103 51.9751 11.2089 52.1141 11.2684C52.1472 11.2883 52.1869 11.2949 52.2266 11.3081C52.3258 11.4934 52.5243 11.6258 52.7493 11.6258C53.0801 11.6258 53.3448 11.3611 53.3448 11.0369C53.3448 10.706 53.0735 10.4413 52.7493 10.4413C52.5508 10.4413 52.3721 10.5472 52.2596 10.6994C52.253 10.6862 52.2464 10.6729 52.2464 10.6597C52.2398 10.6597 52.2398 10.6465 52.2398 10.6465L52.2332 10.6068L52.2398 9.26355C52.2398 9.23708 52.2332 9.21723 52.2332 9.21723C52.2266 9.10474 52.2001 9.00549 52.1538 8.92609C52.1935 8.8533 52.2067 8.7739 52.2067 8.68788C52.2067 8.36366 51.942 8.09899 51.6112 8.09899C51.287 8.09899 51.0223 8.36366 51.0223 8.68788ZM54.9858 8.63495C54.9858 8.96579 55.2571 9.23046 55.5879 9.23046C55.846 9.23046 56.0577 9.07166 56.1437 8.84669H57.4935C57.5068 8.84669 57.5266 8.85992 57.5465 8.87315C57.5597 8.88639 57.5729 8.89962 57.5796 8.92609C57.5796 8.93271 57.5796 8.93932 57.5796 8.93932V10.6398C57.5796 10.6398 57.5796 10.6597 57.5796 10.6663C57.5729 10.6928 57.5597 10.6994 57.5465 10.7126C57.5333 10.7259 57.5134 10.7391 57.4935 10.7391C57.4869 10.7391 57.4737 10.7391 57.4538 10.7391H57.1164C57.0304 10.5141 56.812 10.3421 56.5606 10.3421C56.2297 10.3421 55.9651 10.6134 55.9651 10.9376C55.9651 11.2684 56.2297 11.5397 56.5606 11.5397C56.8451 11.5397 57.0767 11.3412 57.1362 11.0766H57.4671C57.4869 11.0766 57.5134 11.0766 57.5399 11.0633C57.6193 11.0567 57.6987 11.017 57.7648 10.9641C57.831 10.9111 57.8773 10.8384 57.8972 10.7589C57.9104 10.7126 57.917 10.6729 57.917 10.6332V8.93271C57.917 8.88639 57.9104 8.8533 57.8972 8.8136C57.8707 8.7342 57.8244 8.66142 57.7582 8.60848C57.6921 8.55555 57.6193 8.52246 57.5266 8.50923C57.5134 8.50923 57.4935 8.50923 57.4671 8.50923H56.1636C56.104 8.24456 55.8658 8.04605 55.5879 8.04605C55.2571 8.04605 54.9858 8.31073 54.9858 8.63495ZM59.3727 7.16602C59.3727 7.49686 59.6374 7.76153 59.9682 7.76153C60.2263 7.76153 60.4447 7.59611 60.5307 7.36452H61.4967C61.51 7.36452 61.5232 7.37114 61.5298 7.37114C61.5563 7.37775 61.5695 7.39099 61.596 7.41084C61.6092 7.43069 61.6291 7.45054 61.6357 7.47039C61.6357 7.47701 61.6357 7.49024 61.6357 7.49024V8.8136C61.4107 8.89962 61.2651 9.11798 61.2651 9.3628C61.2651 9.69364 61.5298 9.95831 61.854 9.95831C62.1915 9.95831 62.4495 9.69364 62.4495 9.3628C62.4495 9.13783 62.3172 8.93271 62.1319 8.83345V7.51009C62.1319 7.45054 62.1253 7.40422 62.1121 7.34467C62.079 7.2388 62.0261 7.14617 61.9533 7.06676C61.8739 6.98736 61.7746 6.92119 61.6754 6.89473C61.6357 6.88149 61.5761 6.86826 61.51 6.86826H60.4844C60.3785 6.6896 60.1866 6.56389 59.9682 6.56389C59.6374 6.5705 59.3727 6.83517 59.3727 7.16602ZM73.8371 6.76901C73.7974 6.81532 73.7775 6.86164 73.7511 6.91458H72.6725C72.5865 6.92119 72.5005 6.95428 72.4343 7.00721C72.3615 7.05353 72.302 7.11308 72.2689 7.1991C72.2557 7.23218 72.2424 7.2785 72.2292 7.32482C72.2292 7.33805 72.2226 7.3579 72.2226 7.37775V9.91861C72.2226 10.0112 72.2424 10.0906 72.2888 10.1634C72.3218 10.2428 72.388 10.3024 72.4674 10.3421C72.5402 10.3884 72.6262 10.4083 72.7122 10.4083H72.871C72.9174 10.4877 72.9703 10.5604 73.0431 10.62C73.3011 10.8251 73.6783 10.7788 73.8768 10.5207C74.0753 10.2561 74.029 9.87891 73.7709 9.68702C73.5129 9.4819 73.1357 9.52822 72.9372 9.78628C72.8644 9.87229 72.838 9.95831 72.8181 10.0576H72.6924C72.6725 10.0576 72.6461 10.0509 72.6262 10.0377C72.6064 10.0245 72.5931 10.0112 72.5733 9.9914C72.5667 9.97155 72.5601 9.9517 72.5601 9.92523V7.37775C72.5601 7.36452 72.5667 7.35129 72.5667 7.33805C72.5799 7.32482 72.5931 7.29835 72.6196 7.28512C72.6395 7.27188 72.6593 7.26527 72.6725 7.26527L73.7114 7.25865C73.7445 7.39099 73.8106 7.51671 73.9231 7.60273C74.1812 7.80123 74.5583 7.75491 74.7635 7.49686C74.962 7.2388 74.9156 6.86164 74.6576 6.66314C74.5451 6.57712 74.4194 6.53742 74.2937 6.53742C74.1282 6.54403 73.9562 6.62344 73.8371 6.76901ZM76.2655 4.45974C76.0603 4.71779 76.1067 5.08833 76.3713 5.29346C76.6095 5.47873 76.9404 5.45226 77.1521 5.24052V7.09985C77.1521 7.12631 77.1521 7.1594 77.1587 7.17925C77.172 7.2785 77.2249 7.3579 77.2911 7.43069C77.3572 7.49686 77.4499 7.54317 77.5425 7.56302C77.5624 7.56964 77.5888 7.56964 77.6219 7.56964H78.7799H78.8262C78.846 7.57626 78.8725 7.58949 78.8923 7.60273C78.9056 7.61596 78.9254 7.64243 78.9254 7.66228V7.68874V8.15192C78.7931 8.17839 78.6674 8.25117 78.5747 8.37028C78.3762 8.62833 78.4226 8.99887 78.6872 9.204C78.9453 9.4025 79.3224 9.35618 79.5209 9.09151C79.7261 8.84007 79.6731 8.46291 79.4151 8.25779C79.3754 8.22471 79.3357 8.21147 79.296 8.19162V7.71521V7.66889C79.2894 7.64243 79.2894 7.61596 79.2827 7.59611C79.2629 7.50347 79.2166 7.41084 79.1438 7.34467C79.0776 7.2785 78.985 7.23218 78.8923 7.22557C78.8593 7.21895 78.8328 7.21895 78.7931 7.21895H77.6682H77.6285C77.6087 7.21895 77.5822 7.1991 77.5624 7.18587C77.5491 7.17263 77.5293 7.14616 77.5293 7.10646V5.2339C77.5293 5.18097 77.5227 5.14127 77.5028 5.08833C77.4763 5.00232 77.4168 4.92953 77.344 4.86998C77.3572 4.67147 77.2778 4.47959 77.1124 4.35387C77.0066 4.26785 76.8742 4.22815 76.7485 4.22815C76.5632 4.22815 76.3846 4.30755 76.2655 4.45974ZM57.7384 4.4465C57.7384 4.71118 57.9104 4.92953 58.1486 5.00893V7.25203C58.1486 7.27188 58.1486 7.2785 58.142 7.28512C58.1354 7.31159 58.1221 7.32482 58.1089 7.33805C58.0957 7.35129 58.0692 7.3579 58.0427 7.36452H58.0163H55.0784C55.0652 7.36452 55.0586 7.36452 55.0453 7.3579C55.0321 7.35129 55.0189 7.33805 54.999 7.32482C54.9858 7.30497 54.9792 7.28512 54.9725 7.27188V7.24542V5.26037C54.9725 5.26037 54.9792 5.24052 54.9792 5.22729C54.9858 5.20744 54.999 5.1942 55.0122 5.18097C55.0321 5.16774 55.0453 5.16112 55.0652 5.1545H55.1049H55.6011C55.6739 5.39271 55.8989 5.57136 56.1636 5.57136C56.4944 5.57136 56.7591 5.30007 56.7591 4.97585C56.7591 4.65162 56.4944 4.38695 56.1636 4.38695C55.9055 4.38695 55.6872 4.55237 55.6078 4.78396H55.085C55.0586 4.78396 55.0321 4.79058 55.0056 4.79058C54.9196 4.80381 54.8336 4.84351 54.7674 4.89645C54.7012 4.94938 54.6417 5.02878 54.6152 5.10818C54.602 5.14789 54.5954 5.1942 54.5888 5.24052V7.25203C54.5888 7.28512 54.5888 7.29835 54.5954 7.32482C54.6086 7.41745 54.6417 7.49686 54.6946 7.57626C54.7542 7.64243 54.827 7.70198 54.9064 7.72845C54.9461 7.7483 54.9924 7.76153 55.0387 7.76153C55.0586 7.76815 55.0784 7.76815 55.0983 7.76815H58.0163H58.0626C58.0824 7.76153 58.1089 7.76153 58.1288 7.75491C58.2148 7.74168 58.3008 7.70198 58.3604 7.64243C58.4331 7.58288 58.4795 7.50347 58.5059 7.41745C58.5192 7.37114 58.5192 7.32482 58.5192 7.2785V5.02878C58.7574 4.94276 58.9228 4.72441 58.9228 4.46635C58.9228 4.13551 58.6581 3.87084 58.3273 3.87084C58.003 3.85761 57.7384 4.11566 57.7384 4.4465ZM52.1538 4.18845H51.9884C51.9619 4.18845 51.9288 4.19506 51.909 4.20168C51.856 4.2083 51.8097 4.23476 51.7568 4.25461C51.6641 4.31417 51.5913 4.40018 51.545 4.49282C51.5252 4.54575 51.5119 4.59869 51.5119 4.65162V4.71779V6.15364C51.5119 6.18673 51.5053 6.20658 51.4921 6.22643C51.4722 6.24628 51.4524 6.25951 51.4259 6.27274H51.3862H51.3068C51.234 6.02792 51.0091 5.84265 50.7378 5.84265C50.4069 5.84265 50.1489 6.10732 50.1489 6.43817C50.1489 6.76901 50.4136 7.03368 50.7378 7.03368C50.9892 7.03368 51.201 6.87488 51.287 6.65652H51.3928C51.4458 6.65652 51.4921 6.6499 51.5318 6.63667C51.6377 6.60359 51.7303 6.53742 51.7898 6.4514C51.856 6.36538 51.8891 6.25951 51.8891 6.15364V4.67147C51.8891 4.65824 51.8891 4.64501 51.9023 4.63839C51.909 4.61854 51.9288 4.59207 51.9487 4.58546C51.9619 4.57884 51.9751 4.57222 52.0082 4.57222H52.2398C52.3457 4.74426 52.5309 4.86336 52.7493 4.86336C53.0801 4.86336 53.3448 4.59869 53.3448 4.27447C53.3448 3.95024 53.0735 3.68557 52.7493 3.68557C52.4449 3.67895 52.2001 3.90392 52.1538 4.18845ZM63.7134 4.25461C63.7134 4.5259 63.8986 4.75088 64.1368 4.82366V5.79633C64.1368 5.79633 64.1435 5.84265 64.1435 5.86912C64.1501 5.91544 64.1699 5.96175 64.1964 6.00807C64.2427 6.09409 64.3155 6.16688 64.4081 6.20658C64.4478 6.23304 64.4941 6.24628 64.5471 6.25289C64.5735 6.25951 64.6 6.25951 64.6463 6.25951H67.0681C67.121 6.25951 67.1673 6.25289 67.2137 6.23966C67.3063 6.20658 67.3923 6.15364 67.4519 6.06762C67.5114 5.98822 67.5379 5.88897 67.5379 5.79633V5.2339C67.8158 5.18097 68.0275 4.94276 68.0275 4.65162C68.0275 4.32078 67.7629 4.05611 67.4386 4.05611C67.1078 4.05611 66.8365 4.32078 66.8365 4.65162C66.8365 4.89645 66.9953 5.1148 67.207 5.20082V5.79633C67.207 5.79633 67.1938 5.84927 67.1806 5.87574C67.1607 5.9022 67.1409 5.92205 67.1078 5.92867C67.0946 5.93529 67.0747 5.93529 67.0615 5.93529H64.6728H64.6265H64.6C64.5868 5.93529 64.5735 5.92867 64.5603 5.92205C64.5338 5.91544 64.514 5.88235 64.5008 5.8625C64.4875 5.84927 64.4809 5.84265 64.4809 5.80957V4.82366C64.7257 4.75088 64.9176 4.5259 64.9176 4.25461C64.9176 3.92377 64.6529 3.6591 64.3221 3.6591C63.978 3.6591 63.7134 3.92377 63.7134 4.25461ZM68.4444 4.09581C68.4444 4.33402 68.5833 4.53252 68.7885 4.63177V7.45716V7.51009C68.8017 7.58288 68.8215 7.65566 68.8612 7.72183C68.9009 7.78138 68.9605 7.83431 69.0201 7.88063C69.0862 7.91372 69.159 7.93357 69.2384 7.94018H71.3293C71.3558 7.94018 71.3823 7.9468 71.3955 7.95342C71.422 7.97327 71.4352 7.9865 71.4418 8.00635C71.4617 8.0262 71.4683 8.04605 71.4683 8.04605V10.2031C71.4683 10.2031 71.4683 10.2428 71.4617 10.2627C71.4617 10.2892 71.4484 10.3156 71.4286 10.3289C71.4153 10.3421 71.3955 10.3553 71.369 10.3686C71.3558 10.3686 71.3426 10.3818 71.3293 10.3818H70.886C70.8728 10.223 70.8 10.0708 70.661 9.96493C70.3964 9.76643 70.0258 9.80613 69.8273 10.0708C69.6222 10.3355 69.6751 10.706 69.9266 10.9045C70.1846 11.1096 70.5618 11.0633 70.7669 10.7986C70.7867 10.7656 70.8066 10.7325 70.8264 10.6928H71.2962C71.3161 10.6928 71.3359 10.6928 71.3492 10.6928C71.3823 10.6928 71.422 10.6862 71.4617 10.6663C71.5344 10.6398 71.594 10.5935 71.6469 10.5406C71.6932 10.4877 71.7329 10.4149 71.7528 10.3421C71.766 10.2892 71.766 10.2362 71.766 10.1899V8.1056V8.05267C71.7594 7.97988 71.7396 7.90048 71.6932 7.83431C71.6469 7.76815 71.594 7.72183 71.5278 7.68213C71.4617 7.64243 71.3889 7.62258 71.3095 7.62258H69.2119C69.1921 7.62258 69.1722 7.61596 69.1524 7.60273C69.1259 7.59611 69.1127 7.57626 69.1061 7.55641C69.0862 7.53656 69.0796 7.51671 69.0796 7.51671L69.073 4.68471C69.3707 4.65162 69.6089 4.40018 69.6089 4.10243C69.6089 3.77159 69.3377 3.50691 69.0134 3.50691C68.7091 3.50691 68.4444 3.76497 68.4444 4.09581ZM53.6823 3.24224C53.6823 3.4209 53.7617 3.5797 53.8808 3.69219V5.42579V5.45888C53.8741 5.49858 53.8543 5.51181 53.8344 5.53166C53.8146 5.54489 53.7947 5.55151 53.755 5.55151H52.8419C52.7956 5.55151 52.7427 5.56475 52.6897 5.57798C52.5905 5.61106 52.4912 5.68385 52.4317 5.76987C52.4052 5.81618 52.3787 5.86912 52.3655 5.92205C52.3457 5.96175 52.339 6.02131 52.3457 6.06762V8.01959V8.09899C52.3589 8.20486 52.4118 8.30411 52.4846 8.38351C52.564 8.46291 52.6633 8.50923 52.7758 8.52908C52.7956 8.52908 52.8287 8.5357 52.8485 8.5357H53.6624C53.6756 8.5357 53.6889 8.54231 53.7021 8.54893C53.722 8.56216 53.7352 8.58202 53.7418 8.60848C53.7484 8.6151 53.755 8.62833 53.755 8.62833V11.95C53.755 12.0558 53.7881 12.1683 53.8543 12.2543C53.9205 12.3404 54.0131 12.4065 54.1124 12.433C54.1587 12.4529 54.205 12.4595 54.2579 12.4595H54.4697C54.5623 12.658 54.7674 12.8035 55.0056 12.8035C55.3365 12.8035 55.6011 12.5389 55.6011 12.2146C55.6011 11.8904 55.3365 11.6191 55.0056 11.6191C54.7277 11.6191 54.4961 11.811 54.43 12.0823H54.2513C54.2315 12.0823 54.2182 12.0757 54.2116 12.0691C54.1851 12.0625 54.1653 12.0492 54.1454 12.0228C54.1322 12.0029 54.1256 11.9831 54.1256 11.95V8.70112V8.62833C54.1256 8.58201 54.1124 8.52246 54.0859 8.46953C54.0528 8.37028 53.98 8.28426 53.8808 8.22471C53.8278 8.19824 53.7815 8.17177 53.7286 8.16516C53.7087 8.15854 53.6756 8.15854 53.6426 8.15192H53.5896H52.8287H52.8088C52.7824 8.15192 52.7625 8.13207 52.7427 8.11884C52.7228 8.09899 52.7162 8.07252 52.7162 8.04605V8.0262V6.06101V6.02131C52.7162 6.00807 52.7228 5.99484 52.7294 5.98822C52.7427 5.97499 52.7625 5.95514 52.7956 5.9419C52.8022 5.9419 52.8155 5.93529 52.8287 5.93529H53.7418C53.8477 5.93529 53.9536 5.9022 54.033 5.84265C54.1256 5.7831 54.1851 5.69046 54.2182 5.5846C54.2381 5.53828 54.2447 5.47873 54.2381 5.42579V3.83776H54.2447C54.5689 3.83776 54.8402 3.57308 54.8402 3.24224C54.8402 2.9114 54.5689 2.65334 54.2447 2.65334C53.9536 2.65334 53.6823 2.91802 53.6823 3.24224ZM73.3408 2.03136H72.8181H72.7519C72.7321 2.03136 72.699 2.03798 72.6791 2.03798C72.5733 2.06445 72.474 2.13723 72.4079 2.21663C72.3417 2.30265 72.302 2.41514 72.3086 2.52101V2.62688C72.1101 2.72613 71.9712 2.92463 71.9712 3.15622C71.9712 3.48706 72.2424 3.75174 72.5667 3.75174C72.8975 3.75174 73.1622 3.48706 73.1622 3.15622C73.1622 2.8717 72.9637 2.62688 72.6924 2.58056V2.52763C72.6924 2.50116 72.699 2.47469 72.7122 2.45484C72.7255 2.42837 72.7519 2.41514 72.7652 2.41514C72.7784 2.40852 72.785 2.40852 72.785 2.40852H72.8181H73.3475C73.3673 2.40852 73.3739 2.41514 73.3872 2.41514C73.3938 2.41514 73.4136 2.42176 73.4202 2.42837C73.4401 2.44161 73.4599 2.46146 73.4666 2.49454C73.4666 2.49454 73.4732 2.51439 73.4666 2.54086V5.28684C73.4666 5.33977 73.4732 5.39932 73.493 5.44564C73.5063 5.49858 73.5261 5.54489 73.5658 5.59121C73.632 5.68385 73.718 5.75002 73.8239 5.77648C73.8702 5.78972 73.9165 5.79633 73.9827 5.79633H74.5054C74.5385 5.86912 74.5914 5.93529 74.6642 5.98822C74.9222 6.18673 75.2928 6.14041 75.4913 5.88235C75.6964 5.6243 75.6501 5.25375 75.3921 5.05525C75.134 4.85013 74.7568 4.89645 74.5517 5.1545C74.4922 5.2339 74.4591 5.32654 74.4392 5.41917H73.9628C73.9496 5.41917 73.9363 5.41917 73.9297 5.41917C73.9033 5.41256 73.8768 5.39932 73.8636 5.37286C73.8569 5.35962 73.8503 5.35301 73.8503 5.33977C73.8437 5.33316 73.8371 5.31331 73.8371 5.29346V2.54086C73.8437 2.48792 73.8371 2.43499 73.8172 2.38206C73.7842 2.27619 73.718 2.18355 73.6254 2.11738C73.5857 2.0843 73.5393 2.06445 73.4864 2.05121C73.4533 2.03798 73.407 2.03136 73.3673 2.03136C73.3607 2.03136 73.3541 2.03136 73.3408 2.03136ZM55.9981 2.35559C55.9981 2.68643 56.2628 2.9511 56.587 2.9511C56.8054 2.9511 56.9907 2.832 57.0965 2.65334H59.6573H59.7234C59.7433 2.65996 59.7499 2.66658 59.7631 2.67981C59.7697 2.69305 59.7764 2.70628 59.783 2.71951V2.74598V3.59293C59.5249 3.6591 59.3264 3.89069 59.3264 4.1686C59.3264 4.49944 59.5977 4.76411 59.9219 4.76411C60.2528 4.76411 60.5108 4.49944 60.5108 4.1686C60.5108 3.92377 60.3586 3.70542 60.1403 3.6194V2.7526C60.1403 2.72613 60.1337 2.70628 60.1337 2.67981V2.6732C60.127 2.59379 60.094 2.51439 60.041 2.44822C59.9815 2.38206 59.9153 2.33574 59.8293 2.30927C59.7962 2.28942 59.7499 2.2828 59.7036 2.2828H57.1627C57.1296 1.99166 56.8782 1.75346 56.5738 1.75346C56.2628 1.76007 55.9981 2.02475 55.9981 2.35559ZM63.4288 1.50202C63.4288 1.82624 63.6935 2.09753 64.0244 2.09753C64.2758 2.09753 64.4875 1.93873 64.5735 1.72037H65.4933H65.5131H65.5198C65.5264 1.72037 65.533 1.72037 65.5462 1.72699C65.5528 1.73361 65.5595 1.73361 65.5661 1.74022C65.3609 1.82624 65.2088 2.03798 65.2088 2.2828C65.2088 2.61364 65.4801 2.87832 65.7977 2.87832C66.1285 2.87832 66.3932 2.61364 66.3932 2.2828C66.3932 2.0049 66.2013 1.77331 65.9432 1.70714L65.9366 1.70052C65.9168 1.63435 65.8771 1.56819 65.8241 1.52849C65.7778 1.47555 65.705 1.42923 65.6389 1.40938C65.5992 1.40277 65.5727 1.39615 65.5396 1.39615C65.5264 1.39615 65.5065 1.38953 65.4867 1.38953H64.6066C64.5537 1.11824 64.3089 0.906504 64.0177 0.906504C63.7001 0.899887 63.4288 1.16456 63.4288 1.50202ZM60.2263 0.919738C60.2263 1.00576 60.2461 1.07192 60.2726 1.14471H58.8235C58.7772 0.866803 58.539 0.661682 58.2346 0.661682C57.9104 0.661682 57.6457 0.926355 57.6457 1.25058C57.6457 1.58142 57.9104 1.84609 58.2346 1.84609C58.4728 1.84609 58.6647 1.71376 58.764 1.52187H60.491C60.5571 1.52187 60.6167 1.50863 60.6696 1.48878C60.7159 1.4954 60.7689 1.50863 60.8152 1.50863C61.146 1.50863 61.4173 1.24396 61.4173 0.913121C61.4173 0.588897 61.1527 0.324224 60.8152 0.324224C60.4976 0.324224 60.2263 0.588897 60.2263 0.919738ZM66.5057 0.754317C66.5057 1.08516 66.7703 1.34983 67.0946 1.34983C67.3857 1.34983 67.6239 1.15133 67.6835 0.886654H68.5172H68.5436C68.5767 0.893271 68.6032 0.913121 68.6164 0.939588C68.6297 0.952822 68.6363 0.972672 68.6363 0.985906V1.01899V1.13809C68.6363 1.17118 68.6363 1.21088 68.6429 1.24396C68.6561 1.31013 68.6826 1.3763 68.7223 1.42923C68.7554 1.48878 68.8083 1.54172 68.8679 1.5748C68.9274 1.6145 68.9936 1.64097 69.0531 1.64759C69.0862 1.6542 69.1127 1.6542 69.1458 1.6542H70.0854C70.1648 1.90564 70.3831 2.0843 70.6544 2.0843C70.9852 2.0843 71.2499 1.81963 71.2499 1.48878C71.2499 1.16456 70.9852 0.893271 70.6544 0.893271C70.403 0.893271 70.1912 1.05207 70.1052 1.27705H69.1325C69.1259 1.27705 69.1127 1.27705 69.1061 1.27043C69.0862 1.27043 69.0796 1.26381 69.0598 1.2572C69.0465 1.25058 69.0399 1.24396 69.0333 1.22411C69.0201 1.21088 69.0201 1.19764 69.0134 1.17779V1.14471V1.01899C69.0134 0.992523 69.0134 0.959439 69.0068 0.926355C69.0002 0.860187 68.9804 0.787401 68.9407 0.734467C68.8745 0.615364 68.7421 0.529346 68.6098 0.502878C68.5833 0.496261 68.5436 0.496261 68.5172 0.496261H68.5106H67.6371C67.5379 0.297757 67.3394 0.158804 67.0946 0.158804C66.7703 0.16542 66.5057 0.43671 66.5057 0.754317ZM61.8011 0.595514C61.8011 0.860187 61.9798 1.07854 62.2113 1.15794V1.83286V1.85933C62.2113 1.85933 62.1981 1.91226 62.1849 1.92549C62.1584 1.94535 62.1386 1.95858 62.0989 1.9652L62.0658 1.95858L61.7812 1.9652L61.7614 1.95858C61.7283 1.95858 61.6952 1.9652 61.6555 1.97181C61.5364 1.99166 61.4372 2.05783 61.3644 2.14385C61.2916 2.2431 61.2519 2.35559 61.2519 2.47469L61.2585 3.34149C61.2585 3.4606 61.3115 3.5797 61.3909 3.6591C61.4703 3.74512 61.5827 3.79805 61.6952 3.8179C61.7151 3.8179 61.7482 3.8179 61.7746 3.8179H62.5951H62.6414C62.6547 3.82452 62.6613 3.82452 62.6745 3.83776C62.6944 3.85099 62.7142 3.87746 62.7208 3.92377V5.09495C62.5223 5.18759 62.39 5.39271 62.39 5.6243C62.39 5.95514 62.6547 6.21319 62.9789 6.21319C63.3097 6.21319 63.5744 5.94852 63.5744 5.6243C63.5744 5.33316 63.3693 5.10157 63.098 5.04202V3.94362V3.88407C63.098 3.85099 63.0914 3.83114 63.0848 3.79805C63.0583 3.69219 62.9855 3.58632 62.8929 3.52015C62.8399 3.48706 62.7936 3.4606 62.7275 3.44736C62.701 3.44736 62.6745 3.44075 62.6414 3.42751H62.5885H61.7614H61.7349C61.7151 3.4209 61.682 3.41428 61.6621 3.39443C61.6489 3.36796 61.6357 3.34811 61.6357 3.32826V3.18931V2.46146C61.6357 2.44161 61.6489 2.41514 61.6621 2.38867C61.6754 2.36882 61.7018 2.34897 61.7349 2.34897C61.7349 2.34235 61.7614 2.34235 61.7746 2.34235H62.0856H62.1386C62.2577 2.33574 62.3635 2.2828 62.4495 2.2034C62.5289 2.11738 62.5819 2.0049 62.5951 1.89241C62.5951 1.87256 62.5951 1.85271 62.5951 1.85271V1.15794C62.8267 1.07192 62.9921 0.860187 62.9921 0.595514C62.9921 0.27129 62.7275 0 62.4032 0C62.0724 0 61.8011 0.264673 61.8011 0.595514Z" fill="#0000A2"/>
</svg>
