<svg width="362" height="140" viewBox="0 0 362 140" fill="none" xmlns="http://www.w3.org/2000/svg">
<g clip-path="url(#clip0)">
<path d="M41.9099 23.8028L47.0197 12.77H49.0824V26.9484H47.4885V15.1174L42.7068 25.6338H41.066L36.2844 15.1174V26.9014H34.6905V12.77H36.8L41.9099 23.8028Z" fill="white"/>
<path d="M52.8327 12.5822C53.4421 12.5822 53.9578 13.0516 53.9578 13.662C53.9578 14.2723 53.489 14.7887 52.8327 14.7887C52.2232 14.7887 51.7545 14.3193 51.7545 13.662C51.7545 13.0986 52.2232 12.5822 52.8327 12.5822ZM52.0357 16.4319H53.6296V26.9484H52.0357V16.4319Z" fill="white"/>
<path d="M60.8021 16.1502C63.8961 16.1502 65.8182 18.3568 65.8182 21.5493C65.8182 21.5962 65.8182 21.831 65.8182 22.0188H57.3799C57.3799 24.3662 58.9738 25.7746 61.1771 25.7746C62.9585 25.7746 63.943 24.8357 64.4587 24.1315L65.49 24.8826C64.8806 25.8685 63.5211 27.1831 61.1303 27.1831C57.9425 27.1831 55.7392 24.9296 55.7392 21.6901C55.6923 18.3568 57.9894 16.1502 60.8021 16.1502ZM64.1774 20.8451C64.0836 18.6385 62.5366 17.5587 60.8021 17.5587C59.0676 17.5587 57.5675 18.8732 57.4268 20.8451H64.1774ZM61.224 12.2535H63.0054L61.224 15.1174H59.8176L61.224 12.2535Z" fill="white"/>
<path d="M72.5219 17.7465C70.1311 17.7465 69.4279 19.6714 69.4279 21.8779V26.9014H67.834V16.4319H69.4279V18.216C69.8029 17.1831 70.9749 16.1972 72.5688 16.1972V17.7465H72.5219Z" fill="white"/>
<path d="M82.1321 18.9671C81.7102 18.5446 80.6319 17.6526 79.0381 17.6526C76.8347 17.6526 75.2877 19.4366 75.2877 21.6901C75.2877 23.9437 76.9285 25.7746 79.0849 25.7746C80.7257 25.7746 81.8039 24.7887 82.2258 24.3662L82.6946 25.7277C82.2727 26.1502 80.9601 27.23 79.0381 27.23C75.8972 27.23 73.647 24.8357 73.647 21.6901C73.647 18.5446 75.9909 16.1502 79.0381 16.1502C80.9601 16.1502 82.1789 17.0423 82.7415 17.6056L82.1321 18.9671Z" fill="white"/>
<path d="M89.4452 16.1502C92.633 16.1502 94.9301 18.4977 94.9301 21.6901C94.9301 24.8357 92.5861 27.23 89.4452 27.23C86.3043 27.23 83.9604 24.8826 83.9604 21.6901C83.9604 18.4977 86.3043 16.1502 89.4452 16.1502ZM89.4452 25.7277C91.6954 25.7277 93.3362 23.9906 93.3362 21.6432C93.3362 19.2958 91.6954 17.5587 89.4452 17.5587C87.195 17.5587 85.6012 19.3427 85.6012 21.6432C85.6012 24.0376 87.195 25.7277 89.4452 25.7277Z" fill="white"/>
<path d="M96.9459 12.3005H98.5397V26.9484H96.9459V12.3005Z" fill="white"/>
<path d="M105.712 16.1502C108.806 16.1502 110.728 18.3568 110.728 21.5493C110.728 21.5962 110.728 21.831 110.728 22.0188H102.29C102.29 24.3662 103.884 25.7746 106.087 25.7746C107.869 25.7746 108.853 24.8357 109.369 24.1315L110.4 24.8826C109.791 25.8685 108.431 27.1831 106.04 27.1831C102.853 27.1831 100.649 24.9296 100.649 21.6901C100.602 18.3568 102.946 16.1502 105.712 16.1502ZM109.088 20.8451C108.994 18.6385 107.447 17.5587 105.712 17.5587C103.978 17.5587 102.478 18.8732 102.337 20.8451H109.088Z" fill="white"/>
<path d="M113.072 24.2254C113.494 25.0704 114.244 25.8685 115.697 25.8685C116.729 25.8685 117.62 25.2582 117.62 24.1784C117.62 21.7371 112.322 22.5822 112.322 19.0141C112.322 17.23 113.775 16.1502 115.697 16.1502C117.666 16.1502 118.651 17.3709 118.932 18.169L117.76 18.8263C117.479 18.2629 116.916 17.4648 115.557 17.4648C114.572 17.4648 113.822 18.0282 113.822 18.9202C113.822 21.2676 119.12 20.3756 119.12 24.0845C119.12 25.9624 117.573 27.1831 115.557 27.1831C113.354 27.1831 112.369 25.9155 111.9 24.9296L113.072 24.2254Z" fill="white"/>
<path d="M43.41 40.7981L54.9422 36.5258H63.1461V100.282H53.1608V46.5258L46.1758 49.1549L43.41 40.7981Z" fill="white"/>
<path d="M113.26 36.5258V43.8967L91.6016 100.282H80.7726L102.196 45.5399H72.7094V36.5258H113.26Z" fill="white"/>
<path d="M43.7381 125.728H42.2849V124.178C42.0505 124.554 41.0192 126.009 38.8627 126.009C36.0031 126.009 34.0342 123.85 34.0342 120.798C34.0342 117.746 35.9562 115.54 38.769 115.54C40.8316 115.54 41.9567 116.854 42.238 117.371V111.878H43.785V125.728H43.7381ZM38.8627 116.948C36.8938 116.948 35.4874 118.545 35.4874 120.845C35.4874 123.146 36.9407 124.648 38.8627 124.648C40.9254 124.648 42.238 122.911 42.238 120.845C42.238 118.357 40.7379 116.948 38.8627 116.948Z" fill="white"/>
<path d="M50.4887 115.54C53.3952 115.54 55.2235 117.653 55.2235 120.61C55.2235 120.657 55.2235 120.892 55.2235 121.08H47.2541C47.2541 123.286 48.7542 124.648 50.8169 124.648C52.5045 124.648 53.4421 123.756 53.9109 123.099L54.8953 123.803C54.3328 124.742 53.0671 125.962 50.77 125.962C47.7697 125.962 45.6602 123.85 45.6602 120.798C45.6602 117.653 47.8166 115.54 50.4887 115.54ZM53.6296 119.953C53.5359 117.887 52.0826 116.854 50.4418 116.854C48.8011 116.854 47.3478 118.075 47.2541 119.953H53.6296Z" fill="white"/>
<path d="M62.1616 112.347H68.4903V113.756H63.7086V118.357H67.9277V119.765H63.7086V125.728H62.1616V112.347Z" fill="white"/>
<path d="M74.6314 115.54C77.5379 115.54 79.3662 117.653 79.3662 120.61C79.3662 120.657 79.3662 120.892 79.3662 121.08H71.3968C71.3968 123.286 72.8969 124.648 74.9596 124.648C76.6472 124.648 77.5848 123.756 78.0536 123.099L79.0381 123.803C78.4755 124.742 77.2098 125.962 74.9127 125.962C71.9124 125.962 69.8029 123.85 69.8029 120.798C69.8029 117.653 72.0062 115.54 74.6314 115.54ZM77.7723 119.953C77.6786 117.887 76.2253 116.854 74.5846 116.854C72.9438 116.854 71.4905 118.075 71.3968 119.953H77.7723Z" fill="white"/>
<path d="M81.2414 111.925H82.7415V117.418C83.0696 116.901 84.1947 115.587 86.2574 115.587C89.0702 115.587 90.9922 117.746 90.9922 120.845C90.9922 123.897 88.9764 126.056 86.1637 126.056C84.0072 126.056 82.9759 124.601 82.6946 124.225V125.775H81.2414V111.925ZM86.0699 124.648C87.992 124.648 89.4452 123.146 89.4452 120.845C89.4452 118.592 88.0388 116.948 86.0699 116.948C84.1947 116.948 82.6946 118.357 82.6946 120.845C82.6946 122.911 84.0072 124.648 86.0699 124.648Z" fill="white"/>
<path d="M97.3678 117.089C95.1176 117.089 94.4144 118.873 94.4144 120.986V125.728H92.9142V115.775H94.4144V117.418C94.7425 116.432 95.8676 115.493 97.3678 115.493V117.089Z" fill="white"/>
<path d="M102.806 115.54C105.712 115.54 107.541 117.653 107.541 120.61C107.541 120.657 107.541 120.892 107.541 121.08H99.5711C99.5711 123.286 101.071 124.648 103.134 124.648C104.822 124.648 105.759 123.756 106.228 123.099L107.212 123.803C106.65 124.742 105.384 125.962 103.087 125.962C100.087 125.962 97.9772 123.85 97.9772 120.798C98.0241 117.653 100.181 115.54 102.806 115.54ZM105.994 119.953C105.9 117.887 104.447 116.854 102.806 116.854C101.165 116.854 99.7117 118.075 99.618 119.953H105.994Z" fill="white"/>
<path d="M113.916 117.089C111.666 117.089 110.963 118.873 110.963 120.986V125.728H109.463V115.775H110.963V117.418C111.291 116.432 112.416 115.493 113.916 115.493V117.089Z" fill="white"/>
<path d="M119.917 115.54C122.917 115.54 125.073 117.793 125.073 120.751C125.073 123.709 122.87 125.962 119.87 125.962C116.916 125.962 114.713 123.756 114.713 120.751C114.713 117.793 116.963 115.54 119.917 115.54ZM119.87 124.601C122.026 124.601 123.526 122.958 123.526 120.751C123.526 118.545 121.979 116.901 119.87 116.901C117.713 116.901 116.26 118.545 116.26 120.751C116.26 123.005 117.76 124.601 119.87 124.601Z" fill="white"/>
<path d="M319.949 67.277C319.949 55.1643 328.903 45.3521 341.701 45.3521V32.1127H155.873V105.446H341.748V89.2019C328.95 89.2488 319.949 79.4366 319.949 67.277Z" fill="#FD24FF"/>
<path d="M342.639 47.7465C331.951 47.7465 323.278 56.4319 323.278 67.1361C323.278 77.8404 331.951 86.5258 342.639 86.5258C353.327 86.5258 362 77.8404 362 67.1361C362 56.4319 353.327 47.7465 342.639 47.7465ZM342.639 85.2113C332.654 85.2113 324.591 77.0892 324.591 67.1361C324.591 57.1831 332.701 49.061 342.639 49.061C352.624 49.061 360.687 57.1831 360.687 67.1361C360.734 77.0892 352.624 85.2113 342.639 85.2113Z" fill="white"/>
<path d="M342.639 51.5962C334.107 51.5962 327.169 58.5446 327.169 67.0892C327.169 75.6338 334.107 82.5822 342.639 82.5822C351.171 82.5822 358.109 75.6338 358.109 67.0892C358.156 58.5446 351.218 51.5962 342.639 51.5962ZM343.295 81.3146V79.3897C343.295 79.0141 343.014 78.7324 342.639 78.7324C342.264 78.7324 341.983 79.0141 341.983 79.3897V81.3146C334.669 80.9859 328.763 75.1174 328.435 67.7465H330.357C330.732 67.7465 331.013 67.4648 331.013 67.0892C331.013 66.7136 330.732 66.4319 330.357 66.4319H328.435C328.763 59.108 334.623 53.1925 341.983 52.8638V54.7887C341.983 55.1643 342.264 55.446 342.639 55.446C343.014 55.446 343.295 55.1643 343.295 54.7887V52.8638C350.608 53.1925 356.515 59.061 356.843 66.4319H354.921C354.546 66.4319 354.265 66.7136 354.265 67.0892C354.265 67.4648 354.546 67.7465 354.921 67.7465H356.843C356.515 75.1174 350.655 80.9859 343.295 81.3146Z" fill="white"/>
<path d="M351.03 66.4789H344.467C344.186 65.6807 343.483 65.1643 342.639 65.1643C342.358 65.1643 342.076 65.2113 341.795 65.3521L334.716 58.2629C334.482 58.0282 334.06 58.0282 333.826 58.2629C333.591 58.4977 333.591 58.9202 333.826 59.1549L340.904 66.2441C340.764 66.5258 340.717 66.8075 340.717 67.0892C340.717 68.0282 341.373 68.8263 342.311 69.0141C343.248 69.1549 344.139 68.6385 344.467 67.7465H351.03C351.405 67.7465 351.687 67.4648 351.687 67.0892C351.687 66.7606 351.405 66.4789 351.03 66.4789ZM342.639 67.7465C342.264 67.7465 341.983 67.4648 341.983 67.0892C341.983 66.7136 342.264 66.4319 342.639 66.4319C343.014 66.4319 343.295 66.7136 343.295 67.0892C343.295 67.4648 343.014 67.7465 342.639 67.7465Z" fill="white"/>
<path d="M0.937592 109.296V139.061H156.201V0.938965H0.937592V27.6526V109.296Z" stroke="#00FFFF" stroke-width="4" stroke-miterlimit="10"/>
<path d="M169.655 51.8779L171.718 51.1268H173.218V62.6291H171.39V52.9108L170.124 53.3803L169.655 51.8779Z" fill="white"/>
<path d="M175.328 51.8779L177.39 51.1268H178.89V62.6291H177.062V52.9108L175.796 53.3803L175.328 51.8779Z" fill="white"/>
<path d="M182.031 54.4131C182.688 54.4131 183.203 54.9296 183.203 55.5868C183.203 56.2441 182.688 56.7606 182.031 56.7606C181.375 56.7606 180.859 56.2441 180.859 55.5868C180.859 54.9296 181.422 54.4131 182.031 54.4131ZM182.031 60.5164C182.688 60.5164 183.203 61.0329 183.203 61.6901C183.203 62.3005 182.688 62.8638 182.031 62.8638C181.375 62.8638 180.859 62.3474 180.859 61.6901C180.906 61.0329 181.422 60.5164 182.031 60.5164Z" fill="white"/>
<path d="M188.548 62.8169C185.688 62.8169 184.703 60.7042 184.703 56.8544C184.703 53.0047 185.641 50.892 188.548 50.892C191.454 50.892 192.392 53.0047 192.392 56.8544C192.392 60.7042 191.454 62.8169 188.548 62.8169ZM188.548 61.1267C190.329 61.1267 190.516 59.4366 190.516 56.8544C190.516 54.2723 190.329 52.5821 188.548 52.5821C186.766 52.5821 186.579 54.2723 186.579 56.8544C186.579 59.4366 186.766 61.1267 188.548 61.1267Z" fill="white"/>
<path d="M197.83 62.8169C194.97 62.8169 193.985 60.7042 193.985 56.8544C193.985 53.0047 194.923 50.892 197.83 50.892C200.736 50.892 201.674 53.0047 201.674 56.8544C201.674 60.7042 200.689 62.8169 197.83 62.8169ZM197.83 61.1267C199.611 61.1267 199.799 59.4366 199.799 56.8544C199.799 54.2723 199.611 52.5821 197.83 52.5821C196.048 52.5821 195.861 54.2723 195.861 56.8544C195.814 59.4366 196.048 61.1267 197.83 61.1267Z" fill="white"/>
<path d="M214.753 57.4648V62.6291H212.972V57.3239C212.972 56.1502 212.221 55.446 211.237 55.446C210.112 55.446 209.362 56.2911 209.362 57.4648V62.6291H207.58V50.7512H209.362V55.1643C209.737 54.507 210.628 53.8498 211.753 53.8498C214.003 53.8498 214.753 55.5868 214.753 57.4648Z" fill="white"/>
<path d="M220.894 55.6338C219.019 55.6338 218.503 57.0422 218.503 58.9202V62.6291H216.722V54.0375H218.456V55.3991C218.784 54.554 219.675 53.8498 220.894 53.8498V55.6338Z" fill="white"/>
<path d="M222.722 60.2347C223.097 60.7981 223.707 61.3615 224.785 61.3615C225.535 61.3615 226.098 60.9859 226.098 60.2817C226.098 58.6385 221.925 59.2488 221.925 56.2441C221.925 54.7418 223.191 53.8028 224.879 53.8028C226.473 53.8028 227.363 54.7418 227.692 55.3991L226.473 56.2441C226.238 55.8685 225.769 55.3052 224.832 55.3052C224.176 55.3052 223.66 55.6338 223.66 56.2441C223.66 57.8873 227.832 57.1831 227.832 60.2347C227.832 61.831 226.473 62.8638 224.738 62.8638C223.004 62.8638 222.066 61.9249 221.644 61.1737L222.722 60.2347Z" fill="white"/>
<path d="M234.301 59.5305C234.63 60.3756 235.286 61.1737 236.552 61.1737C237.583 61.1737 238.286 60.6103 238.286 59.6244C238.286 57.1831 233.13 57.7465 233.13 54.0376C233.13 52.2535 234.442 50.939 236.599 50.939C238.802 50.939 239.739 52.4883 239.974 53.2864L238.474 53.9437C238.192 53.3803 237.677 52.5822 236.552 52.5822C235.52 52.5822 234.958 53.1925 234.958 53.9906C234.958 56.2441 240.161 55.8685 240.161 59.4836C240.161 61.4084 238.755 62.8638 236.505 62.8638C234.161 62.8638 233.13 61.2676 232.801 60.2817L234.301 59.5305Z" fill="white"/>
<path d="M250.85 61.6432C250.287 62.0657 249.022 62.8638 247.24 62.8638C243.771 62.8638 241.333 60.2817 241.333 56.9014C241.333 53.5211 243.865 50.939 247.24 50.939C248.881 50.939 250.053 51.5493 250.709 52.0657L250.147 53.662C249.678 53.2864 248.6 52.6291 247.24 52.6291C244.849 52.6291 243.208 54.507 243.208 56.9014C243.208 59.2958 244.802 61.1737 247.287 61.1737C248.787 61.1737 249.865 60.4225 250.287 60.0939L250.85 61.6432Z" fill="white"/>
<path d="M252.584 51.1268H254.413V60.9859H258.444V62.6291H252.584V51.1268Z" fill="white"/>
<path d="M173.782 85.3521C170.923 85.3521 169.938 83.2394 169.938 79.3897C169.938 75.5399 170.876 73.4272 173.782 73.4272C176.689 73.4272 177.626 75.5399 177.626 79.3897C177.626 83.2394 176.689 85.3521 173.782 85.3521ZM173.782 83.662C175.564 83.662 175.751 81.9718 175.751 79.3897C175.751 76.8075 175.564 75.1174 173.782 75.1174C172.001 75.1174 171.813 76.8075 171.813 79.3897C171.813 81.9718 172.001 83.662 173.782 83.662Z" fill="white"/>
<path d="M179.687 84.6009L180.437 83.1455C180.812 83.3803 181.375 83.662 182.219 83.662C184.375 83.662 184.844 81.6901 184.844 80.1878C184.469 80.6573 183.766 81.2207 182.547 81.2207C180.484 81.2207 179.172 79.7653 179.172 77.4648C179.172 75.0235 180.625 73.4742 182.922 73.4742C185.969 73.4742 186.813 75.7277 186.813 78.6385C186.813 82.4883 185.735 85.446 182.359 85.446C181.047 85.3521 180.156 84.9296 179.687 84.6009ZM180.953 77.4178C180.953 78.6385 181.609 79.5775 182.875 79.5775C183.766 79.5775 184.469 79.061 184.891 78.3099C184.891 76.6667 184.657 75.1174 182.828 75.1174C181.703 75.1643 180.953 75.9624 180.953 77.4178Z" fill="white"/>
<path d="M189.391 76.9483C190.048 76.9483 190.563 77.4648 190.563 78.1221C190.563 78.7793 190.048 79.2958 189.391 79.2958C188.735 79.2958 188.219 78.7793 188.219 78.1221C188.219 77.4648 188.735 76.9483 189.391 76.9483ZM189.391 83.0516C190.048 83.0516 190.563 83.5681 190.563 84.2253C190.563 84.8357 190.048 85.3991 189.391 85.3991C188.735 85.3991 188.219 84.8826 188.219 84.2253C188.219 83.5681 188.735 83.0516 189.391 83.0516Z" fill="white"/>
<path d="M195.861 85.3521C193.001 85.3521 192.017 83.2394 192.017 79.3897C192.017 75.5399 192.954 73.4272 195.861 73.4272C198.767 73.4272 199.705 75.5399 199.705 79.3897C199.705 83.2394 198.767 85.3521 195.861 85.3521ZM195.861 83.662C197.642 83.662 197.83 81.9718 197.83 79.3897C197.83 76.8075 197.642 75.1174 195.861 75.1174C194.079 75.1174 193.892 76.8075 193.892 79.3897C193.892 81.9718 194.126 83.662 195.861 83.662Z" fill="white"/>
<path d="M205.143 85.3521C202.283 85.3521 201.299 83.2394 201.299 79.3897C201.299 75.5399 202.236 73.4272 205.143 73.4272C208.049 73.4272 208.987 75.5399 208.987 79.3897C208.987 83.2394 208.049 85.3521 205.143 85.3521ZM205.143 83.662C206.924 83.662 207.112 81.9718 207.112 79.3897C207.112 76.8075 206.924 75.1174 205.143 75.1174C203.361 75.1174 203.174 76.8075 203.174 79.3897C203.174 81.9718 203.361 83.662 205.143 83.662Z" fill="white"/>
<path d="M222.066 80V85.1643H220.332V79.8592C220.332 78.6854 219.581 77.9812 218.597 77.9812C217.472 77.9812 216.722 78.8263 216.722 80V85.1643H214.94V73.2864H216.722V77.6995C217.097 77.0423 217.988 76.385 219.113 76.385C221.316 76.385 222.066 78.1221 222.066 80Z" fill="white"/>
<path d="M228.207 78.169C226.332 78.169 225.816 79.5774 225.816 81.4554V85.1643H224.035V76.5728H225.769V77.9343C226.098 77.0892 226.988 76.385 228.207 76.385V78.169Z" fill="white"/>
<path d="M230.036 82.77C230.411 83.3333 231.02 83.8967 232.098 83.8967C232.848 83.8967 233.411 83.5211 233.411 82.8169C233.411 81.1737 229.239 81.784 229.239 78.7793C229.239 77.277 230.504 76.338 232.192 76.338C233.786 76.338 234.676 77.277 235.005 77.9343L233.786 78.7793C233.551 78.4038 233.083 77.8404 232.145 77.8404C231.489 77.8404 230.973 78.169 230.973 78.7793C230.973 80.4225 235.145 79.7183 235.145 82.77C235.145 84.3662 233.786 85.3991 232.051 85.3991C230.317 85.3991 229.379 84.4601 228.957 83.7089L230.036 82.77Z" fill="white"/>
<path d="M249.725 84.1784C249.162 84.6009 247.896 85.3991 246.115 85.3991C242.646 85.3991 240.208 82.8169 240.208 79.4366C240.208 76.0563 242.74 73.4742 246.115 73.4742C247.756 73.4742 248.928 74.0845 249.584 74.6009L249.022 76.1972C248.553 75.8216 247.474 75.1643 246.115 75.1643C243.724 75.1643 242.083 77.0423 242.083 79.4366C242.083 81.831 243.677 83.7089 246.162 83.7089C247.662 83.7089 248.74 82.9577 249.162 82.6291L249.725 84.1784Z" fill="white"/>
<path d="M256.757 73.4272C260.179 73.4272 262.663 76.0563 262.663 79.3897C262.663 82.77 260.179 85.3521 256.757 85.3521C253.334 85.3521 250.85 82.77 250.85 79.3897C250.85 76.0563 253.334 73.4272 256.757 73.4272ZM256.757 83.662C259.054 83.662 260.788 81.8779 260.788 79.3897C260.788 76.9484 259.054 75.1174 256.757 75.1174C254.459 75.1174 252.725 76.9484 252.725 79.3897C252.725 81.8779 254.459 83.662 256.757 83.662Z" fill="white"/>
<path d="M264.445 73.662H266.273V83.5211H270.305V85.1643H264.445V73.662Z" fill="white"/>
<path d="M280.055 72.8169H281.649L276.68 86.9014H275.086L280.055 72.8169Z" fill="white"/>
<path d="M287.275 73.662H290.603C292.76 73.662 294.26 75.0235 294.26 77.1361C294.26 79.1549 292.666 80.6573 290.603 80.6573H289.056V85.2113H287.228V73.662H287.275ZM290.416 79.0141C291.635 79.0141 292.431 78.2629 292.431 77.0892C292.431 75.9624 291.588 75.2113 290.416 75.2113H289.103V78.9671H290.416V79.0141Z" fill="white"/>
<path d="M295.901 73.662H301.573V75.3052H297.729V78.4976H301.057V80.1408H297.729V83.5211H301.76V85.1643H295.901V73.662Z" fill="white"/>
<path d="M303.729 73.662H306.823C309.308 73.662 310.667 75.1174 310.667 77.0423C310.667 78.3568 309.964 79.5305 308.792 80L311.605 85.1643H309.589L307.198 80.4225H305.605V85.1643H303.776V73.662H303.729ZM306.776 78.8263C307.948 78.8263 308.745 78.169 308.745 76.9953C308.745 75.9155 308.089 75.2113 306.776 75.2113H305.558V78.8263H306.776Z" fill="white"/>
</g>
<defs>
<clipPath id="clip0">
<rect width="362" height="140" fill="white"/>
</clipPath>
</defs>
</svg>
