<svg xmlns="http://www.w3.org/2000/svg" xmlns:xlink="http://www.w3.org/1999/xlink" width="110" height="48.163" viewBox="0 0 110 48.163">
  <defs>
    <clipPath id="clip-path">
      <path id="Trazado_30" data-name="Trazado 30" d="M777.43,70.182h3.635V56.927H777.43Zm14.663,0h3.642V56.927h-3.642Zm14.231-13.255-2.8,9.05h-.052l-2.791-9.05h-3.823l4.54,13.255h4.052l4.485-13.255Zm-70.84,6.633c0-2.12.741-4.249,3.205-4.249,2.485,0,3.233,2.128,3.233,4.249s-.748,4.236-3.233,4.236c-2.464,0-3.205-2.13-3.205-4.236m-3.644,0c0,4.21,2.689,6.979,6.849,6.979,4.179,0,6.865-2.769,6.865-6.979,0-4.227-2.687-7-6.865-7-4.159,0-6.849,2.773-6.849,7m18.824-.485c0-1.97.892-3.763,2.948-3.763,2.357,0,3.1,1.921,3.1,4.074,0,1.895-1.027,3.666-3.1,3.666-2.234,0-2.948-2.072-2.948-3.977m-3.645.048c0,3.646,1.694,6.669,5.666,6.669a4.484,4.484,0,0,0,3.978-2.045h.045v1.739c.032,1.9-.9,3.283-2.922,3.283a2.463,2.463,0,0,1-2.717-1.822h-3.612c.177,3.028,3.23,4.26,5.845,4.26,6.105,0,6.871-3.695,6.871-5.873V56.927h-3.465v1.767h-.045a4.137,4.137,0,0,0-3.956-2.134c-3.713,0-5.688,3.134-5.688,6.563m19.128-4.356h-.074v-1.84h-3.461V70.182h3.635V63.227c0-2.685.847-3.785,2.823-3.785,1.693,0,2.331,1.074,2.331,3.255v7.486h3.641V62.027c0-3.282-.972-5.467-4.844-5.467a4.724,4.724,0,0,0-4.051,2.207m47.9,7.644c0-1.331,1.024-1.717,2.153-1.947,1.13-.208,2.41-.234,3.024-.769v1.354a2.707,2.707,0,0,1-2.948,3.054c-1.174,0-2.229-.333-2.229-1.693M810.814,61h3.642c.127-1.434,1.027-2,2.408-2,1.283,0,2.357.231,2.357,1.794,0,1.488-2.078,1.411-4.309,1.748-2.254.307-4.513,1.019-4.513,4.019,0,2.721,2,3.979,4.513,3.979a6.106,6.106,0,0,0,4.466-1.639,5.441,5.441,0,0,0,.26,1.282h3.691a6.76,6.76,0,0,1-.463-2.955v-6.9c0-3.178-3.178-3.772-5.826-3.772-2.973,0-6.018,1.033-6.225,4.439m-26.378-8.049v3.978H782.22v2.432h2.217v7.818c0,2.644,1.947,3.153,4.172,3.153a13.8,13.8,0,0,0,2.131-.127V67.362a5.8,5.8,0,0,1-1.129.1c-1.229,0-1.541-.311-1.541-1.536V59.359h2.67V56.927h-2.67V52.949Zm-6.9,1.026a1.715,1.715,0,1,0,1.716-1.716,1.716,1.716,0,0,0-1.716,1.716m-64.207,6.964v.324c.067,5.207,3.395,9.35,9,9.35,4.487,0,7.642-2.921,8.052-7.491h-3.9c-.3,2.416-1.687,4.1-4.153,4.1-3.612,0-4.972-3.076-4.972-6.123,0-3.205,1.36-6.28,4.972-6.28a3.951,3.951,0,0,1,4,3.2h3.9c-.487-4.227-3.877-6.586-7.9-6.586-5.6,0-8.931,4.143-9,9.5m78.836-10.466a.668.668,0,0,0,.118.923.649.649,0,0,0,.916-.114.585.585,0,0,0,.078-.121h.067a.47.47,0,0,1,.082.014.44.44,0,0,1,.131.091.269.269,0,0,1,.081.131.459.459,0,0,1,.018.058v.829a1.7,1.7,0,1,0,.417-.016v-.807a.555.555,0,0,0-.032-.177.63.63,0,0,0-.18-.314.746.746,0,0,0-.311-.2.769.769,0,0,0-.176-.032h-.054a.65.65,0,0,0-.231-.377.683.683,0,0,0-.41-.137.646.646,0,0,0-.516.248m5.6-1.645c-.027.041-.047.085-.074.121h-1.532a.471.471,0,0,0-.153.018.646.646,0,0,0-.242.095.666.666,0,0,0-.275.439.72.72,0,0,0-.008.125v.034a.653.653,0,0,0-.271.2.656.656,0,1,0,.92-.113.77.77,0,0,0-.187-.1v-.028a.166.166,0,0,1,0-.047.184.184,0,0,1,.084-.133.385.385,0,0,1,.071-.032.2.2,0,0,1,.07-.007h1.478a.66.66,0,0,0,.234.34.651.651,0,1,0,.4-1.169.651.651,0,0,0-.516.25m-11.062-.74a.653.653,0,0,0,1.3.016h1.753a.134.134,0,0,1,.094.041.16.16,0,0,1,.062.094V48.6a.4.4,0,0,0,.051.18.526.526,0,0,0,.272.25.512.512,0,0,0,.184.033l3.471,0a.708.708,0,0,0,.246.406.654.654,0,1,0-.115-.923.574.574,0,0,0-.078.149h-3.517a.1.1,0,0,1-.055-.012.152.152,0,0,1-.083-.073.087.087,0,0,1-.007-.033l-.007-.04v-.345a.5.5,0,0,0-.175-.323.513.513,0,0,0-.345-.131h-1.852a.652.652,0,0,0-1.2.348m7.737-2.112a.649.649,0,0,0,.117.916.552.552,0,0,0,.184.092v.056a.068.068,0,0,1-.01.038.194.194,0,0,1-.071.109.374.374,0,0,1-.065.025l-.033.008h-2.909a.7.7,0,0,0-.242-.4.657.657,0,0,0-.806,1.038.668.668,0,0,0,.921-.116c.014-.023.029-.045.041-.066h2.975a.117.117,0,0,0,.062-.01.351.351,0,0,0,.111-.012.476.476,0,0,0,.2-.1.613.613,0,0,0,.257-.358.478.478,0,0,1,.018-.073c0-.056,0-.085,0-.085v-.062a.7.7,0,0,0,.283-.206.654.654,0,0,0-.113-.912.638.638,0,0,0-.4-.142.658.658,0,0,0-.521.257m1.7-.589a.656.656,0,0,0,.117.92.71.71,0,0,0,.213.109V47.3a.629.629,0,0,0-.268.2.654.654,0,1,0,1.035.8.651.651,0,0,0-.118-.916c-.037-.029-.071-.047-.1-.07v-.978a.679.679,0,0,0,.154-.149.649.649,0,0,0-.509-1.055.667.667,0,0,0-.521.252m-3.836-.346a.137.137,0,0,0-.019.041h-3.4a.575.575,0,0,0-.162.025.506.506,0,0,0-.285.224.449.449,0,0,0-.062.173.34.34,0,0,0-.015.1v.92s0,.037,0,.058a.178.178,0,0,1-.051.087.2.2,0,0,1-.1.029h-1.323a.655.655,0,0,0-1.3.133.659.659,0,0,0,1.268.25h1.357a.569.569,0,0,0,.333-.12.534.534,0,0,0,.18-.308.441.441,0,0,0,.012-.092V45.6l.007-.015a.22.22,0,0,1,.018-.062.2.2,0,0,1,.078-.056.126.126,0,0,1,.055-.01h3.279a.629.629,0,0,0,.246.5.653.653,0,1,0,.8-1.031.642.642,0,0,0-.4-.14.659.659,0,0,0-.518.254M782.22,44.4a.651.651,0,0,0,.426.616v.589a.09.09,0,0,0-.01.032.119.119,0,0,1-.044.049.06.06,0,0,1-.067.012h-2.809a.106.106,0,0,1-.037-.01.186.186,0,0,1-.043-.052.053.053,0,0,1-.007-.021V45.5a.653.653,0,0,0-.115-1.3.651.651,0,0,0-.166,1.282v.15a.368.368,0,0,0,.037.114.336.336,0,0,0,.147.175.435.435,0,0,0,.12.048.151.151,0,0,0,.054.008.11.11,0,0,0,.041.006h2.786a.384.384,0,0,0,.213-.066.439.439,0,0,0,.153-.186.386.386,0,0,0,.023-.12v-.564a.651.651,0,0,0-.047-1.3.648.648,0,0,0-.654.649m18.327-1.359a.659.659,0,0,0,.115.916.69.69,0,0,0,.117.074v.091a.23.23,0,0,1-.047.129.191.191,0,0,1-.128.063h-1.376a.8.8,0,0,0-.5.187.852.852,0,0,0-.261.481c0,.05,0,.1,0,.129v1.746a.672.672,0,0,0-.283.208.655.655,0,1,0,.914-.111.308.308,0,0,0-.054-.037V45.107s0-.025,0-.052a.171.171,0,0,1,.069-.113.2.2,0,0,1,.125-.047h1.426a.78.78,0,0,0,.694-.76v-.107a.713.713,0,0,0,.224-.187.651.651,0,0,0-.117-.914.635.635,0,0,0-.4-.139.666.666,0,0,0-.521.257m-9.866-.521a.664.664,0,0,0,.586.649v.022a.217.217,0,0,1-.016.071.167.167,0,0,1-.051.052.154.154,0,0,1-.067.022h-5.688c-.022,0-.047.005-.072.007a.39.39,0,0,0-.128.037.486.486,0,0,0-.2.169.592.592,0,0,0-.107.238v.774a.648.648,0,1,0,.381-.012v-.664a.1.1,0,0,1,0-.043.147.147,0,0,1,.027-.073c.018-.014.041-.029.058-.043a.053.053,0,0,0,.033-.011h5.709a.444.444,0,0,0,.253-.078.4.4,0,0,0,.183-.18.5.5,0,0,0,.071-.265v-.1a.654.654,0,1,0-.967-.573m7.3-.906c-.023.038-.047.08-.065.114h-1.071a.4.4,0,0,0-.1.014.483.483,0,0,0-.186.093.508.508,0,0,0-.216.337.53.53,0,0,0-.007.106v.048a.643.643,0,0,0-.125,1.105.654.654,0,0,0,.8-1.035.714.714,0,0,0-.265-.118V42.24a.11.11,0,0,1,.054-.077c.012-.015.033-.019.039-.025a.069.069,0,0,1,.025,0h1.005a.636.636,0,0,0,.236.4.653.653,0,0,0,.8-1.028.668.668,0,0,0-.407-.142.651.651,0,0,0-.517.254m-23.9.06a.65.65,0,0,0,1.254.242h.12a.078.078,0,0,1,.037.008.173.173,0,0,1,.049.012.148.148,0,0,1,.091.066.172.172,0,0,1,.042.1.175.175,0,0,1,.006.055v.921a.687.687,0,0,0,.1.379.778.778,0,0,0,.28.29.8.8,0,0,0,.362.092h.605a.652.652,0,1,0-.015-.535h-.59a.292.292,0,0,1-.1-.025.2.2,0,0,1-.078-.082.236.236,0,0,1-.025-.113v-.928a.593.593,0,0,0-.01-.133.7.7,0,0,0-.159-.367.736.736,0,0,0-.324-.228,1.047,1.047,0,0,0-.19-.043h-.21a.669.669,0,0,0-.59-.367.654.654,0,0,0-.649.653m10.614-.084a.659.659,0,0,0,.414.616l0,.008a.172.172,0,0,1-.076.063h-6.075v0a.658.658,0,0,0-.377-1.194.654.654,0,0,0-.043,1.306.478.478,0,0,0,.17.187.465.465,0,0,0,.182.076c.032,0,.067.012.1.012h6.047a.361.361,0,0,0,.091-.021.505.505,0,0,0,.309-.223.537.537,0,0,0,.07-.183v-.007a.653.653,0,0,0-.151-1.288.646.646,0,0,0-.653.649M787.383,40a1.019,1.019,0,0,0-.117.011.549.549,0,0,0-.22.107.5.5,0,0,0-.146.192.55.55,0,0,0-.052.231v.6a.652.652,0,1,0,.388-.025v-.575a.231.231,0,0,1,.005-.065.27.27,0,0,1,.04-.06.432.432,0,0,1,.063-.03l.039,0h1.493a.1.1,0,0,1,.067.019.134.134,0,0,1,.055.043.2.2,0,0,1,.022.048l0,.4c0,.026,0,.056,0,.083a.468.468,0,0,0,.083.228.485.485,0,0,0,.175.168.582.582,0,0,0,.242.069h4.157c-.019.021-.045.043-.066.069a.654.654,0,1,0,.919-.117.655.655,0,0,0-.3-.129c-.007-.012-.015-.016-.019-.034a.661.661,0,0,0-.2-.139.639.639,0,0,0-.114-.022.422.422,0,0,0-.094-.007h-4.261a.087.087,0,0,1-.063-.019c-.025-.014-.041-.021-.049-.047a.1.1,0,0,1-.025-.063v-.389l0-.022s0-.054,0-.069a.5.5,0,0,0-.092-.227.593.593,0,0,0-.182-.161.468.468,0,0,0-.242-.063Zm12.218.118a.656.656,0,1,0,1.039.8.7.7,0,0,0,.114-.25h.238a.158.158,0,0,1,.076.023.211.211,0,0,1,.047.06l.005.025v.473a.594.594,0,0,0-.274.208.648.648,0,0,0,.107.916.656.656,0,1,0,.8-1.037.716.716,0,0,0-.228-.116v-.452a.763.763,0,0,0-.041-.155.494.494,0,0,0-.19-.252.549.549,0,0,0-.3-.1h-.279a.615.615,0,0,0-.2-.257.669.669,0,0,0-.4-.139.654.654,0,0,0-.514.25m-16.963-.863H778.6a.5.5,0,0,0-.187.065.539.539,0,0,0-.263.283.693.693,0,0,0-.034.2V40.4a.135.135,0,0,1-.049.081.386.386,0,0,1-.037.023c-.018,0-.018,0-.056,0h-1.11a.645.645,0,0,0-.623-.48.655.655,0,1,0,0,1.309.645.645,0,0,0,.6-.41h1.149a.516.516,0,0,0,.347-.125.521.521,0,0,0,.187-.335.43.43,0,0,0,.01-.1v-.586a.173.173,0,0,1,.076-.091.108.108,0,0,1,.037,0h4.011a.651.651,0,1,0,.607-.891.656.656,0,0,0-.628.467m13.2-1.767a.65.65,0,1,0,1.026.8.549.549,0,0,0,.106-.2h1.594a.12.12,0,0,1,.066.026.1.1,0,0,1,.052.061l0,.019v.851a.221.221,0,0,0,.005.059.562.562,0,0,0,.118.3.551.551,0,0,0,.268.181.614.614,0,0,0,.157.018h1.405a.445.445,0,0,0,.147-.015.527.527,0,0,0,.271-.164.6.6,0,0,0,.137-.289v-.113a.653.653,0,1,0-.586-.111.558.558,0,0,0,.168.093v.074a.223.223,0,0,1-.029.069.3.3,0,0,1-.065.038.124.124,0,0,1-.045,0H799.2a.164.164,0,0,1-.065-.044.189.189,0,0,1-.025-.095v-.87a.638.638,0,0,0-.041-.166.612.612,0,0,0-.2-.246.553.553,0,0,0-.311-.092h-1.589a.669.669,0,0,0-.216-.3.65.65,0,0,0-.4-.139.64.64,0,0,0-.514.257m-7.469-.349a.644.644,0,0,0,.485.626v.917a.249.249,0,0,1-.026.074.1.1,0,0,1-.054.058.22.22,0,0,1-.073.038.062.062,0,0,1-.03.006h-4.041a.184.184,0,0,1-.08-.016.209.209,0,0,1-.1-.117.075.075,0,0,1-.011-.037s0-.026,0-.043v-.964a.25.25,0,0,1,0-.047.167.167,0,0,1,.028-.083.224.224,0,0,1,.125-.085h1.6a.648.648,0,0,0,.589.37.656.656,0,0,0,0-1.312.651.651,0,0,0-.628.487h-1.5a.614.614,0,0,0-.147.012.648.648,0,0,0-.422.3.523.523,0,0,0-.089.252.6.6,0,0,0-.007.109v.968a.645.645,0,0,0,0,.092.519.519,0,0,0,.028.126.617.617,0,0,0,.352.382.544.544,0,0,0,.25.058h4.052a.57.57,0,0,0,.131-.012.642.642,0,0,0,.241-.115.663.663,0,0,0,.177-.2.924.924,0,0,0,.077-.246.568.568,0,0,0,.006-.093v-.92a.654.654,0,0,0-.282-1.242.652.652,0,0,0-.653.656M769.453,36.6a.651.651,0,0,0,.652.652.415.415,0,0,0,.094-.007v1.525c0,.044.01.082.014.113a.91.91,0,0,0,.083.231.755.755,0,0,0,.353.325,1.03,1.03,0,0,0,.125.047.655.655,0,1,0,.579-.954.664.664,0,0,0-.539.283.106.106,0,0,1-.015-.044l0-.018,0-.044,0-1.477a.329.329,0,0,0,0-.049.68.68,0,0,0-.087-.322.554.554,0,0,0,.059-.26.655.655,0,0,0-1.309,0m4.359-.059a.656.656,0,0,0,1.269.231h1.485a.1.1,0,0,1,.056.026.105.105,0,0,1,.036.056l0,.014v1.87a.13.13,0,0,1,0,.032.081.081,0,0,1-.036.049.119.119,0,0,1-.056.028.087.087,0,0,1-.041.005h-.368a.655.655,0,1,0-.612.879.656.656,0,0,0,.635-.507h.363a.207.207,0,0,0,.08-.011.439.439,0,0,0,.243-.111.475.475,0,0,0,.146-.223.447.447,0,0,0,.022-.14v-1.87a.513.513,0,0,0-.022-.135.488.488,0,0,0-.406-.333c-.015,0-.04,0-.063,0h-1.434a.657.657,0,0,0-1.3.142m4.832-1.62a.654.654,0,0,0,1.271.217h1.061c.015,0,.026.01.037.011a.147.147,0,0,1,.069.045.231.231,0,0,1,.045.069v1.475a.653.653,0,1,0,.9.606.675.675,0,0,0-.351-.583V35.308a.8.8,0,0,0-.022-.18.753.753,0,0,0-.176-.305.723.723,0,0,0-.3-.188.689.689,0,0,0-.179-.028h-1.128a.665.665,0,0,0-.568-.335.653.653,0,0,0-.653.654m15.907-.432a.609.609,0,0,0-.091.158h-1.185a.552.552,0,0,0-.267.1.46.46,0,0,0-.181.21,1,1,0,0,0-.044.14.375.375,0,0,0-.005.062v2.794a.464.464,0,0,0,.07.27.421.421,0,0,0,.194.2.507.507,0,0,0,.271.074h.176a.709.709,0,0,0,.191.232.651.651,0,1,0-.113-.917.58.58,0,0,0-.128.3H793.3a.146.146,0,0,1-.07-.019.165.165,0,0,1-.055-.056.215.215,0,0,1-.017-.074V35.158a.181.181,0,0,1,.011-.041.135.135,0,0,1,.056-.055.109.109,0,0,1,.059-.022l1.145-.006a.712.712,0,0,0,.232.382.67.67,0,0,0,.921-.118.656.656,0,0,0-1.035-.8m2.676-2.546a.646.646,0,0,0,.118.917.64.64,0,0,0,.855-.059v2.047a.3.3,0,0,0,.008.087.519.519,0,0,0,.147.275.58.58,0,0,0,.275.149.483.483,0,0,0,.084.008h1.324a.189.189,0,0,1,.07.036.2.2,0,0,1,.04.063v.536a.635.635,0,0,0-.388.236.654.654,0,1,0,1.037.8.648.648,0,0,0-.117-.916.683.683,0,0,0-.135-.077V35.47a.231.231,0,0,0-.015-.08.509.509,0,0,0-.153-.274.533.533,0,0,0-.278-.135.478.478,0,0,0-.113-.008H798.7a.224.224,0,0,1-.072-.04.127.127,0,0,1-.036-.089V32.8a.538.538,0,0,0-.026-.16.551.551,0,0,0-.175-.239.672.672,0,0,0-.254-.571.642.642,0,0,0-.4-.139.657.657,0,0,0-.517.256m-20.386-.008a.652.652,0,0,0,.448.619v2.468a.076.076,0,0,1-.007.038.143.143,0,0,1-.036.058.218.218,0,0,1-.071.032h-3.26a.058.058,0,0,1-.037-.011.231.231,0,0,1-.049-.036.173.173,0,0,1-.029-.061V32.83l.01-.036a.115.115,0,0,1,.039-.056.193.193,0,0,1,.059-.025h.59a.648.648,0,0,0,.622.454.654.654,0,0,0,0-1.308.641.641,0,0,0-.609.434h-.576c-.028,0-.059,0-.085,0a.52.52,0,0,0-.267.121.527.527,0,0,0-.166.231.9.9,0,0,0-.03.15l0,2.212a.317.317,0,0,0,.006.077.61.61,0,0,0,.109.278.578.578,0,0,0,.231.166.462.462,0,0,0,.144.034.175.175,0,0,0,.062.008H777.2a.425.425,0,0,1,.073-.015.5.5,0,0,0,.253-.126.531.531,0,0,0,.159-.246.517.517,0,0,0,.017-.154V32.558a.658.658,0,0,0,.447-.619.655.655,0,0,0-1.309,0m-6.138-.29h-.184a.3.3,0,0,0-.087.014.5.5,0,0,0-.4.32.608.608,0,0,0-.038.173V33.81a.122.122,0,0,1-.025.078.142.142,0,0,1-.071.047h-.128a.664.664,0,1,0-.025.421h.118a.567.567,0,0,0,.155-.018.514.514,0,0,0,.283-.2.546.546,0,0,0,.11-.325V32.185a.045.045,0,0,1,.011-.037.118.118,0,0,1,.049-.062.487.487,0,0,1,.063-.016h.252a.648.648,0,1,0-.087-.421m12.715.073a.65.65,0,0,0,.466.624v1.071a.544.544,0,0,1,.01.081.582.582,0,0,0,.055.151.51.51,0,0,0,.23.221.378.378,0,0,0,.154.051.735.735,0,0,0,.1,0H787.1a.666.666,0,0,0,.159-.023.523.523,0,0,0,.263-.191.5.5,0,0,0,.095-.3V32.8a.666.666,0,1,0-.36-.041v.653a.589.589,0,0,1-.027.087.138.138,0,0,1-.129.065h-2.713a.1.1,0,0,1-.048-.016.152.152,0,0,1-.067-.067.089.089,0,0,1-.019-.062V32.346a.652.652,0,1,0-.833-.624m5.206-.172a.651.651,0,0,0,.375.59v3.168a.512.512,0,0,0,.081.231.667.667,0,0,0,.177.173.607.607,0,0,0,.241.063h2.3a.389.389,0,0,1,.076.014.113.113,0,0,1,.052.062.126.126,0,0,1,.028.044v2.372a.4.4,0,0,1,0,.062.2.2,0,0,1-.033.074.314.314,0,0,1-.063.041c-.018,0-.03.011-.041.011h-.485a.619.619,0,0,0-.242-.454.654.654,0,0,0-.807,1.028.658.658,0,0,0,.924-.114.563.563,0,0,0,.067-.114h.517a.415.415,0,0,0,.059,0,.309.309,0,0,0,.122-.025.565.565,0,0,0,.206-.142.537.537,0,0,0,.117-.217.606.606,0,0,0,.016-.168V35.895a.515.515,0,0,0-.08-.239.545.545,0,0,0-.182-.165.492.492,0,0,0-.241-.067H789.5a.128.128,0,0,1-.069-.023.1.1,0,0,1-.052-.051.133.133,0,0,1-.027-.041l0-3.114a.649.649,0,0,0-.072-1.3.647.647,0,0,0-.65.652m-16.24-.935a.667.667,0,0,0,.22.5v1.943a.127.127,0,0,1-.05.08.141.141,0,0,1-.087.022h-1a.674.674,0,0,0-.164.025.564.564,0,0,0-.285.21.549.549,0,0,0-.069.166.322.322,0,0,0-.022.164v2.237a.615.615,0,0,0,.151.315.584.584,0,0,0,.319.159c.022,0,.056.007.078.007l.9,0a.085.085,0,0,1,.043.015.092.092,0,0,1,.045.063.128.128,0,0,1,.017.018v3.652a.538.538,0,0,0,.107.333.524.524,0,0,0,.286.2.429.429,0,0,0,.158.028h.235a.654.654,0,0,0,1.247-.271.653.653,0,0,0-1.29-.144h-.193a.1.1,0,0,1-.043-.012.114.114,0,0,1-.069-.048.116.116,0,0,1-.025-.078V36.538a.489.489,0,0,0-.041-.177.537.537,0,0,0-.391-.331.889.889,0,0,0-.092-.012h-.914a.142.142,0,0,1-.074-.037.115.115,0,0,1-.029-.078l0-.025V33.711l0-.044a.083.083,0,0,1,.015-.04.16.16,0,0,1,.069-.048.089.089,0,0,1,.041-.007h1a.523.523,0,0,0,.322-.106.491.491,0,0,0,.2-.283.457.457,0,0,0,.025-.172V31.271h.008a.655.655,0,1,0-.652-.656M794,29.281h-.645a.771.771,0,0,0-.081.01.588.588,0,0,0-.3.2.518.518,0,0,0-.11.331v.121a.651.651,0,1,0,.932.583.642.642,0,0,0-.516-.637v-.067a.131.131,0,0,1,.025-.08.079.079,0,0,1,.062-.045c.015,0,.019-.008.027-.008h.615c.018,0,.029.008.043.008a.139.139,0,0,1,.037.014.123.123,0,0,1,.051.073.073.073,0,0,1,0,.049v3.024a.65.65,0,0,0,.025.176.407.407,0,0,0,.08.162.552.552,0,0,0,.285.206.526.526,0,0,0,.173.025h.575a.559.559,0,0,0,.177.213.652.652,0,0,0,.8-1.029.661.661,0,0,0-.924.1.753.753,0,0,0-.122.3H794.7a.17.17,0,0,1-.04,0,.1.1,0,0,1-.069-.051.056.056,0,0,1-.015-.041.09.09,0,0,1-.012-.052V29.839a.449.449,0,0,0-.019-.176.5.5,0,0,0-.213-.289.4.4,0,0,0-.155-.074.376.376,0,0,0-.127-.021H794m-19.077.351a.649.649,0,0,0,1.211.333h2.889a.134.134,0,0,1,.04.032.136.136,0,0,1,.025.047V31a.652.652,0,0,0,.154,1.286.653.653,0,0,0,.246-1.258v-.96a.453.453,0,0,0-.008-.077v-.007a.484.484,0,0,0-.1-.247.465.465,0,0,0-.232-.15.315.315,0,0,0-.138-.027l-2.79,0a.65.65,0,0,0-1.3.074m8.177-.939a.652.652,0,0,0,1.258.241H785.4a.035.035,0,0,1,.028.008l.018.012a.657.657,0,1,0,.421-.033l0-.01a.382.382,0,0,0-.121-.191.424.424,0,0,0-.2-.128.48.48,0,0,0-.111-.015c-.017,0-.034-.008-.059-.008H784.4a.655.655,0,0,0-1.3.124m-3.527-.639a.727.727,0,0,0,.051.25h-1.592a.646.646,0,0,0-.646-.529.652.652,0,1,0,.583.95h1.9a.632.632,0,0,0,.2-.034.949.949,0,0,0,.164.019.653.653,0,1,0-.654-.656m6.907-.179a.656.656,0,0,0,1.3.146h.942a.126.126,0,0,1,.082.056.084.084,0,0,1,.021.049V28.3a.518.518,0,0,0,.008.114.458.458,0,0,0,.085.2.4.4,0,0,0,.159.158.558.558,0,0,0,.2.084.875.875,0,0,0,.1,0h1.037a.653.653,0,1,0,.624-.839.64.64,0,0,0-.6.419h-1.068c-.011,0-.023,0-.026-.005a.139.139,0,0,1-.052-.015.05.05,0,0,1-.03-.036c-.014-.011-.014-.029-.023-.047v-.169a.353.353,0,0,0-.01-.1.437.437,0,0,0-.073-.212.544.544,0,0,0-.364-.252.506.506,0,0,0-.1-.01h-.967a.655.655,0,0,0-1.246.279m-5.171-.176a.66.66,0,0,0,.45.619v.773a.281.281,0,0,1-.032.074.173.173,0,0,1-.1.043l-.03-.007-.314.007-.025-.007a.65.65,0,0,0-.118.015.546.546,0,0,0-.32.186.608.608,0,0,0-.124.36l0,.951a.55.55,0,0,0,.143.353.557.557,0,0,0,.337.171.544.544,0,0,0,.083,0h.957a.323.323,0,0,1,.037.019.143.143,0,0,1,.055.092v1.3a.658.658,0,0,0-.367.587.654.654,0,1,0,.785-.638v-1.28a.283.283,0,0,0-.016-.1.544.544,0,0,0-.213-.307.536.536,0,0,0-.179-.08c-.027-.005-.06-.011-.094-.019h-1a.134.134,0,0,1-.078-.04.156.156,0,0,1-.03-.07v-.956a.141.141,0,0,1,.03-.08.109.109,0,0,1,.078-.044c0-.008.026-.008.045-.008h.4a.553.553,0,0,0,.344-.153.565.565,0,0,0,.158-.342.242.242,0,0,0,0-.041v-.769a.654.654,0,1,0-.872-.616" transform="translate(-713.328 -27.044)" fill="#fff"/>
    </clipPath>
  </defs>
  <g id="Grupo_136" data-name="Grupo 136" transform="translate(-713.328 -27.044)">
    <path id="Trazado_29" data-name="Trazado 29" d="M777.43,70.182h3.635V56.927H777.43Zm14.663,0h3.642V56.927h-3.642Zm14.231-13.255-2.8,9.05h-.052l-2.791-9.05h-3.823l4.54,13.255h4.052l4.485-13.255Zm-70.84,6.633c0-2.12.741-4.249,3.205-4.249,2.485,0,3.233,2.128,3.233,4.249s-.748,4.236-3.233,4.236c-2.464,0-3.205-2.13-3.205-4.236m-3.644,0c0,4.21,2.689,6.979,6.849,6.979,4.179,0,6.865-2.769,6.865-6.979,0-4.227-2.687-7-6.865-7-4.159,0-6.849,2.773-6.849,7m18.824-.485c0-1.97.892-3.763,2.948-3.763,2.357,0,3.1,1.921,3.1,4.074,0,1.895-1.027,3.666-3.1,3.666-2.234,0-2.948-2.072-2.948-3.977m-3.645.048c0,3.646,1.694,6.669,5.666,6.669a4.484,4.484,0,0,0,3.978-2.045h.045v1.739c.032,1.9-.9,3.283-2.922,3.283a2.463,2.463,0,0,1-2.717-1.822h-3.612c.177,3.028,3.23,4.26,5.845,4.26,6.105,0,6.871-3.695,6.871-5.873V56.927h-3.465v1.767h-.045a4.137,4.137,0,0,0-3.956-2.134c-3.713,0-5.688,3.134-5.688,6.563m19.128-4.356h-.074v-1.84h-3.461V70.182h3.635V63.227c0-2.685.847-3.785,2.823-3.785,1.693,0,2.331,1.074,2.331,3.255v7.486h3.641V62.027c0-3.282-.972-5.467-4.844-5.467a4.724,4.724,0,0,0-4.051,2.207m47.9,7.644c0-1.331,1.024-1.717,2.153-1.947,1.13-.208,2.41-.234,3.024-.769v1.354a2.707,2.707,0,0,1-2.948,3.054c-1.174,0-2.229-.333-2.229-1.693M810.814,61h3.642c.127-1.434,1.027-2,2.408-2,1.283,0,2.357.231,2.357,1.794,0,1.488-2.078,1.411-4.309,1.748-2.254.307-4.513,1.019-4.513,4.019,0,2.721,2,3.979,4.513,3.979a6.106,6.106,0,0,0,4.466-1.639,5.441,5.441,0,0,0,.26,1.282h3.691a6.76,6.76,0,0,1-.463-2.955v-6.9c0-3.178-3.178-3.772-5.826-3.772-2.973,0-6.018,1.033-6.225,4.439m-26.378-8.049v3.978H782.22v2.432h2.217v7.818c0,2.644,1.947,3.153,4.172,3.153a13.8,13.8,0,0,0,2.131-.127V67.362a5.8,5.8,0,0,1-1.129.1c-1.229,0-1.541-.311-1.541-1.536V59.359h2.67V56.927h-2.67V52.949Zm-6.9,1.026a1.715,1.715,0,1,0,1.716-1.716,1.716,1.716,0,0,0-1.716,1.716m-64.207,6.964v.324c.067,5.207,3.395,9.35,9,9.35,4.487,0,7.642-2.921,8.052-7.491h-3.9c-.3,2.416-1.687,4.1-4.153,4.1-3.612,0-4.972-3.076-4.972-6.123,0-3.205,1.36-6.28,4.972-6.28a3.951,3.951,0,0,1,4,3.2h3.9c-.487-4.227-3.877-6.586-7.9-6.586-5.6,0-8.931,4.143-9,9.5m78.836-10.466a.668.668,0,0,0,.118.923.649.649,0,0,0,.916-.114.585.585,0,0,0,.078-.121h.067a.47.47,0,0,1,.082.014.44.44,0,0,1,.131.091.269.269,0,0,1,.081.131.459.459,0,0,1,.018.058v.829a1.7,1.7,0,1,0,.417-.016v-.807a.555.555,0,0,0-.032-.177.63.63,0,0,0-.18-.314.746.746,0,0,0-.311-.2.769.769,0,0,0-.176-.032h-.054a.65.65,0,0,0-.231-.377.683.683,0,0,0-.41-.137.646.646,0,0,0-.516.248m5.6-1.645c-.027.041-.047.085-.074.121h-1.532a.471.471,0,0,0-.153.018.646.646,0,0,0-.242.095.666.666,0,0,0-.275.439.72.72,0,0,0-.008.125v.034a.653.653,0,0,0-.271.2.656.656,0,1,0,.92-.113.77.77,0,0,0-.187-.1v-.028a.166.166,0,0,1,0-.047.184.184,0,0,1,.084-.133.385.385,0,0,1,.071-.032.2.2,0,0,1,.07-.007h1.478a.66.66,0,0,0,.234.34.651.651,0,1,0,.4-1.169.651.651,0,0,0-.516.25m-11.062-.74a.653.653,0,0,0,1.3.016h1.753a.134.134,0,0,1,.094.041.16.16,0,0,1,.062.094V48.6a.4.4,0,0,0,.051.18.526.526,0,0,0,.272.25.512.512,0,0,0,.184.033l3.471,0a.708.708,0,0,0,.246.406.654.654,0,1,0-.115-.923.574.574,0,0,0-.078.149h-3.517a.1.1,0,0,1-.055-.012.152.152,0,0,1-.083-.073.087.087,0,0,1-.007-.033l-.007-.04v-.345a.5.5,0,0,0-.175-.323.513.513,0,0,0-.345-.131h-1.852a.652.652,0,0,0-1.2.348m7.737-2.112a.649.649,0,0,0,.117.916.552.552,0,0,0,.184.092v.056a.068.068,0,0,1-.01.038.194.194,0,0,1-.071.109.374.374,0,0,1-.065.025l-.033.008h-2.909a.7.7,0,0,0-.242-.4.657.657,0,0,0-.806,1.038.668.668,0,0,0,.921-.116c.014-.023.029-.045.041-.066h2.975a.117.117,0,0,0,.062-.01.351.351,0,0,0,.111-.012.476.476,0,0,0,.2-.1.613.613,0,0,0,.257-.358.478.478,0,0,1,.018-.073c0-.056,0-.085,0-.085v-.062a.7.7,0,0,0,.283-.206.654.654,0,0,0-.113-.912.638.638,0,0,0-.4-.142.658.658,0,0,0-.521.257m1.7-.589a.656.656,0,0,0,.117.92.71.71,0,0,0,.213.109V47.3a.629.629,0,0,0-.268.2.654.654,0,1,0,1.035.8.651.651,0,0,0-.118-.916c-.037-.029-.071-.047-.1-.07v-.978a.679.679,0,0,0,.154-.149.649.649,0,0,0-.509-1.055.667.667,0,0,0-.521.252m-3.836-.346a.137.137,0,0,0-.019.041h-3.4a.575.575,0,0,0-.162.025.506.506,0,0,0-.285.224.449.449,0,0,0-.062.173.34.34,0,0,0-.015.1v.92s0,.037,0,.058a.178.178,0,0,1-.051.087.2.2,0,0,1-.1.029h-1.323a.655.655,0,0,0-1.3.133.659.659,0,0,0,1.268.25h1.357a.569.569,0,0,0,.333-.12.534.534,0,0,0,.18-.308.441.441,0,0,0,.012-.092V45.6l.007-.015a.22.22,0,0,1,.018-.062.2.2,0,0,1,.078-.056.126.126,0,0,1,.055-.01h3.279a.629.629,0,0,0,.246.5.653.653,0,1,0,.8-1.031.642.642,0,0,0-.4-.14.659.659,0,0,0-.518.254M782.22,44.4a.651.651,0,0,0,.426.616v.589a.09.09,0,0,0-.01.032.119.119,0,0,1-.044.049.06.06,0,0,1-.067.012h-2.809a.106.106,0,0,1-.037-.01.186.186,0,0,1-.043-.052.053.053,0,0,1-.007-.021V45.5a.653.653,0,0,0-.115-1.3.651.651,0,0,0-.166,1.282v.15a.368.368,0,0,0,.037.114.336.336,0,0,0,.147.175.435.435,0,0,0,.12.048.151.151,0,0,0,.054.008.11.11,0,0,0,.041.006h2.786a.384.384,0,0,0,.213-.066.439.439,0,0,0,.153-.186.386.386,0,0,0,.023-.12v-.564a.651.651,0,0,0-.047-1.3.648.648,0,0,0-.654.649m18.327-1.359a.659.659,0,0,0,.115.916.69.69,0,0,0,.117.074v.091a.23.23,0,0,1-.047.129.191.191,0,0,1-.128.063h-1.376a.8.8,0,0,0-.5.187.852.852,0,0,0-.261.481c0,.05,0,.1,0,.129v1.746a.672.672,0,0,0-.283.208.655.655,0,1,0,.914-.111.308.308,0,0,0-.054-.037V45.107s0-.025,0-.052a.171.171,0,0,1,.069-.113.2.2,0,0,1,.125-.047h1.426a.78.78,0,0,0,.694-.76v-.107a.713.713,0,0,0,.224-.187.651.651,0,0,0-.117-.914.635.635,0,0,0-.4-.139.666.666,0,0,0-.521.257m-9.866-.521a.664.664,0,0,0,.586.649v.022a.217.217,0,0,1-.016.071.167.167,0,0,1-.051.052.154.154,0,0,1-.067.022h-5.688c-.022,0-.047.005-.072.007a.39.39,0,0,0-.128.037.486.486,0,0,0-.2.169.592.592,0,0,0-.107.238v.774a.648.648,0,1,0,.381-.012v-.664a.1.1,0,0,1,0-.043.147.147,0,0,1,.027-.073c.018-.014.041-.029.058-.043a.053.053,0,0,0,.033-.011h5.709a.444.444,0,0,0,.253-.078.4.4,0,0,0,.183-.18.5.5,0,0,0,.071-.265v-.1a.654.654,0,1,0-.967-.573m7.3-.906c-.023.038-.047.08-.065.114h-1.071a.4.4,0,0,0-.1.014.483.483,0,0,0-.186.093.508.508,0,0,0-.216.337.53.53,0,0,0-.007.106v.048a.643.643,0,0,0-.125,1.105.654.654,0,0,0,.8-1.035.714.714,0,0,0-.265-.118V42.24a.11.11,0,0,1,.054-.077c.012-.015.033-.019.039-.025a.069.069,0,0,1,.025,0h1.005a.636.636,0,0,0,.236.4.653.653,0,0,0,.8-1.028.668.668,0,0,0-.407-.142.651.651,0,0,0-.517.254m-23.9.06a.65.65,0,0,0,1.254.242h.12a.078.078,0,0,1,.037.008.173.173,0,0,1,.049.012.148.148,0,0,1,.091.066.172.172,0,0,1,.042.1.175.175,0,0,1,.006.055v.921a.687.687,0,0,0,.1.379.778.778,0,0,0,.28.29.8.8,0,0,0,.362.092h.605a.652.652,0,1,0-.015-.535h-.59a.292.292,0,0,1-.1-.025.2.2,0,0,1-.078-.082.236.236,0,0,1-.025-.113v-.928a.593.593,0,0,0-.01-.133.7.7,0,0,0-.159-.367.736.736,0,0,0-.324-.228,1.047,1.047,0,0,0-.19-.043h-.21a.669.669,0,0,0-.59-.367.654.654,0,0,0-.649.653m10.614-.084a.659.659,0,0,0,.414.616l0,.008a.172.172,0,0,1-.076.063h-6.075v0a.658.658,0,0,0-.377-1.194.654.654,0,0,0-.043,1.306.478.478,0,0,0,.17.187.465.465,0,0,0,.182.076c.032,0,.067.012.1.012h6.047a.361.361,0,0,0,.091-.021.505.505,0,0,0,.309-.223.537.537,0,0,0,.07-.183v-.007a.653.653,0,0,0-.151-1.288.646.646,0,0,0-.653.649M787.383,40a1.019,1.019,0,0,0-.117.011.549.549,0,0,0-.22.107.5.5,0,0,0-.146.192.55.55,0,0,0-.052.231v.6a.652.652,0,1,0,.388-.025v-.575a.231.231,0,0,1,.005-.065.27.27,0,0,1,.04-.06.432.432,0,0,1,.063-.03l.039,0h1.493a.1.1,0,0,1,.067.019.134.134,0,0,1,.055.043.2.2,0,0,1,.022.048l0,.4c0,.026,0,.056,0,.083a.468.468,0,0,0,.083.228.485.485,0,0,0,.175.168.582.582,0,0,0,.242.069h4.157c-.019.021-.045.043-.066.069a.654.654,0,1,0,.919-.117.655.655,0,0,0-.3-.129c-.007-.012-.015-.016-.019-.034a.661.661,0,0,0-.2-.139.639.639,0,0,0-.114-.022.422.422,0,0,0-.094-.007h-4.261a.087.087,0,0,1-.063-.019c-.025-.014-.041-.021-.049-.047a.1.1,0,0,1-.025-.063v-.389l0-.022s0-.054,0-.069a.5.5,0,0,0-.092-.227.593.593,0,0,0-.182-.161.468.468,0,0,0-.242-.063Zm12.218.118a.656.656,0,1,0,1.039.8.7.7,0,0,0,.114-.25h.238a.158.158,0,0,1,.076.023.211.211,0,0,1,.047.06l.005.025v.473a.594.594,0,0,0-.274.208.648.648,0,0,0,.107.916.656.656,0,1,0,.8-1.037.716.716,0,0,0-.228-.116v-.452a.763.763,0,0,0-.041-.155.494.494,0,0,0-.19-.252.549.549,0,0,0-.3-.1h-.279a.615.615,0,0,0-.2-.257.669.669,0,0,0-.4-.139.654.654,0,0,0-.514.25m-16.963-.863H778.6a.5.5,0,0,0-.187.065.539.539,0,0,0-.263.283.693.693,0,0,0-.034.2V40.4a.135.135,0,0,1-.049.081.386.386,0,0,1-.037.023c-.018,0-.018,0-.056,0h-1.11a.645.645,0,0,0-.623-.48.655.655,0,1,0,0,1.309.645.645,0,0,0,.6-.41h1.149a.516.516,0,0,0,.347-.125.521.521,0,0,0,.187-.335.43.43,0,0,0,.01-.1v-.586a.173.173,0,0,1,.076-.091.108.108,0,0,1,.037,0h4.011a.651.651,0,1,0,.607-.891.656.656,0,0,0-.628.467m13.2-1.767a.65.65,0,1,0,1.026.8.549.549,0,0,0,.106-.2h1.594a.12.12,0,0,1,.066.026.1.1,0,0,1,.052.061l0,.019v.851a.221.221,0,0,0,.005.059.562.562,0,0,0,.118.3.551.551,0,0,0,.268.181.614.614,0,0,0,.157.018h1.405a.445.445,0,0,0,.147-.015.527.527,0,0,0,.271-.164.6.6,0,0,0,.137-.289v-.113a.653.653,0,1,0-.586-.111.558.558,0,0,0,.168.093v.074a.223.223,0,0,1-.029.069.3.3,0,0,1-.065.038.124.124,0,0,1-.045,0H799.2a.164.164,0,0,1-.065-.044.189.189,0,0,1-.025-.095v-.87a.638.638,0,0,0-.041-.166.612.612,0,0,0-.2-.246.553.553,0,0,0-.311-.092h-1.589a.669.669,0,0,0-.216-.3.65.65,0,0,0-.4-.139.64.64,0,0,0-.514.257m-7.469-.349a.644.644,0,0,0,.485.626v.917a.249.249,0,0,1-.026.074.1.1,0,0,1-.054.058.22.22,0,0,1-.073.038.062.062,0,0,1-.03.006h-4.041a.184.184,0,0,1-.08-.016.209.209,0,0,1-.1-.117.075.075,0,0,1-.011-.037s0-.026,0-.043v-.964a.25.25,0,0,1,0-.047.167.167,0,0,1,.028-.083.224.224,0,0,1,.125-.085h1.6a.648.648,0,0,0,.589.37.656.656,0,0,0,0-1.312.651.651,0,0,0-.628.487h-1.5a.614.614,0,0,0-.147.012.648.648,0,0,0-.422.3.523.523,0,0,0-.089.252.6.6,0,0,0-.007.109v.968a.645.645,0,0,0,0,.092.519.519,0,0,0,.028.126.617.617,0,0,0,.352.382.544.544,0,0,0,.25.058h4.052a.57.57,0,0,0,.131-.012.642.642,0,0,0,.241-.115.663.663,0,0,0,.177-.2.924.924,0,0,0,.077-.246.568.568,0,0,0,.006-.093v-.92a.654.654,0,0,0-.282-1.242.652.652,0,0,0-.653.656M769.453,36.6a.651.651,0,0,0,.652.652.415.415,0,0,0,.094-.007v1.525c0,.044.01.082.014.113a.91.91,0,0,0,.083.231.755.755,0,0,0,.353.325,1.03,1.03,0,0,0,.125.047.655.655,0,1,0,.579-.954.664.664,0,0,0-.539.283.106.106,0,0,1-.015-.044l0-.018,0-.044,0-1.477a.329.329,0,0,0,0-.049.68.68,0,0,0-.087-.322.554.554,0,0,0,.059-.26.655.655,0,0,0-1.309,0m4.359-.059a.656.656,0,0,0,1.269.231h1.485a.1.1,0,0,1,.056.026.105.105,0,0,1,.036.056l0,.014v1.87a.13.13,0,0,1,0,.032.081.081,0,0,1-.036.049.119.119,0,0,1-.056.028.087.087,0,0,1-.041.005h-.368a.655.655,0,1,0-.612.879.656.656,0,0,0,.635-.507h.363a.207.207,0,0,0,.08-.011.439.439,0,0,0,.243-.111.475.475,0,0,0,.146-.223.447.447,0,0,0,.022-.14v-1.87a.513.513,0,0,0-.022-.135.488.488,0,0,0-.406-.333c-.015,0-.04,0-.063,0h-1.434a.657.657,0,0,0-1.3.142m4.832-1.62a.654.654,0,0,0,1.271.217h1.061c.015,0,.026.01.037.011a.147.147,0,0,1,.069.045.231.231,0,0,1,.045.069v1.475a.653.653,0,1,0,.9.606.675.675,0,0,0-.351-.583V35.308a.8.8,0,0,0-.022-.18.753.753,0,0,0-.176-.305.723.723,0,0,0-.3-.188.689.689,0,0,0-.179-.028h-1.128a.665.665,0,0,0-.568-.335.653.653,0,0,0-.653.654m15.907-.432a.609.609,0,0,0-.091.158h-1.185a.552.552,0,0,0-.267.1.46.46,0,0,0-.181.21,1,1,0,0,0-.044.14.375.375,0,0,0-.005.062v2.794a.464.464,0,0,0,.07.27.421.421,0,0,0,.194.2.507.507,0,0,0,.271.074h.176a.709.709,0,0,0,.191.232.651.651,0,1,0-.113-.917.58.58,0,0,0-.128.3H793.3a.146.146,0,0,1-.07-.019.165.165,0,0,1-.055-.056.215.215,0,0,1-.017-.074V35.158a.181.181,0,0,1,.011-.041.135.135,0,0,1,.056-.055.109.109,0,0,1,.059-.022l1.145-.006a.712.712,0,0,0,.232.382.67.67,0,0,0,.921-.118.656.656,0,0,0-1.035-.8m2.676-2.546a.646.646,0,0,0,.118.917.64.64,0,0,0,.855-.059v2.047a.3.3,0,0,0,.008.087.519.519,0,0,0,.147.275.58.58,0,0,0,.275.149.483.483,0,0,0,.084.008h1.324a.189.189,0,0,1,.07.036.2.2,0,0,1,.04.063v.536a.635.635,0,0,0-.388.236.654.654,0,1,0,1.037.8.648.648,0,0,0-.117-.916.683.683,0,0,0-.135-.077V35.47a.231.231,0,0,0-.015-.08.509.509,0,0,0-.153-.274.533.533,0,0,0-.278-.135.478.478,0,0,0-.113-.008H798.7a.224.224,0,0,1-.072-.04.127.127,0,0,1-.036-.089V32.8a.538.538,0,0,0-.026-.16.551.551,0,0,0-.175-.239.672.672,0,0,0-.254-.571.642.642,0,0,0-.4-.139.657.657,0,0,0-.517.256m-20.386-.008a.652.652,0,0,0,.448.619v2.468a.076.076,0,0,1-.007.038.143.143,0,0,1-.036.058.218.218,0,0,1-.071.032h-3.26a.058.058,0,0,1-.037-.011.231.231,0,0,1-.049-.036.173.173,0,0,1-.029-.061V32.83l.01-.036a.115.115,0,0,1,.039-.056.193.193,0,0,1,.059-.025h.59a.648.648,0,0,0,.622.454.654.654,0,0,0,0-1.308.641.641,0,0,0-.609.434h-.576c-.028,0-.059,0-.085,0a.52.52,0,0,0-.267.121.527.527,0,0,0-.166.231.9.9,0,0,0-.03.15l0,2.212a.317.317,0,0,0,.006.077.61.61,0,0,0,.109.278.578.578,0,0,0,.231.166.462.462,0,0,0,.144.034.175.175,0,0,0,.062.008H777.2a.425.425,0,0,1,.073-.015.5.5,0,0,0,.253-.126.531.531,0,0,0,.159-.246.517.517,0,0,0,.017-.154V32.558a.658.658,0,0,0,.447-.619.655.655,0,0,0-1.309,0m-6.138-.29h-.184a.3.3,0,0,0-.087.014.5.5,0,0,0-.4.32.608.608,0,0,0-.038.173V33.81a.122.122,0,0,1-.025.078.142.142,0,0,1-.071.047h-.128a.664.664,0,1,0-.025.421h.118a.567.567,0,0,0,.155-.018.514.514,0,0,0,.283-.2.546.546,0,0,0,.11-.325V32.185a.045.045,0,0,1,.011-.037.118.118,0,0,1,.049-.062.487.487,0,0,1,.063-.016h.252a.648.648,0,1,0-.087-.421m12.715.073a.65.65,0,0,0,.466.624v1.071a.544.544,0,0,1,.01.081.582.582,0,0,0,.055.151.51.51,0,0,0,.23.221.378.378,0,0,0,.154.051.735.735,0,0,0,.1,0H787.1a.666.666,0,0,0,.159-.023.523.523,0,0,0,.263-.191.5.5,0,0,0,.095-.3V32.8a.666.666,0,1,0-.36-.041v.653a.589.589,0,0,1-.027.087.138.138,0,0,1-.129.065h-2.713a.1.1,0,0,1-.048-.016.152.152,0,0,1-.067-.067.089.089,0,0,1-.019-.062V32.346a.652.652,0,1,0-.833-.624m5.206-.172a.651.651,0,0,0,.375.59v3.168a.512.512,0,0,0,.081.231.667.667,0,0,0,.177.173.607.607,0,0,0,.241.063h2.3a.389.389,0,0,1,.076.014.113.113,0,0,1,.052.062.126.126,0,0,1,.028.044v2.372a.4.4,0,0,1,0,.062.2.2,0,0,1-.033.074.314.314,0,0,1-.063.041c-.018,0-.03.011-.041.011h-.485a.619.619,0,0,0-.242-.454.654.654,0,0,0-.807,1.028.658.658,0,0,0,.924-.114.563.563,0,0,0,.067-.114h.517a.415.415,0,0,0,.059,0,.309.309,0,0,0,.122-.025.565.565,0,0,0,.206-.142.537.537,0,0,0,.117-.217.606.606,0,0,0,.016-.168V35.895a.515.515,0,0,0-.08-.239.545.545,0,0,0-.182-.165.492.492,0,0,0-.241-.067H789.5a.128.128,0,0,1-.069-.023.1.1,0,0,1-.052-.051.133.133,0,0,1-.027-.041l0-3.114a.649.649,0,0,0-.072-1.3.647.647,0,0,0-.65.652m-16.24-.935a.667.667,0,0,0,.22.5v1.943a.127.127,0,0,1-.05.08.141.141,0,0,1-.087.022h-1a.674.674,0,0,0-.164.025.564.564,0,0,0-.285.21.549.549,0,0,0-.069.166.322.322,0,0,0-.022.164v2.237a.615.615,0,0,0,.151.315.584.584,0,0,0,.319.159c.022,0,.056.007.078.007l.9,0a.085.085,0,0,1,.043.015.092.092,0,0,1,.045.063.128.128,0,0,1,.017.018v3.652a.538.538,0,0,0,.107.333.524.524,0,0,0,.286.2.429.429,0,0,0,.158.028h.235a.654.654,0,0,0,1.247-.271.653.653,0,0,0-1.29-.144h-.193a.1.1,0,0,1-.043-.012.114.114,0,0,1-.069-.048.116.116,0,0,1-.025-.078V36.538a.489.489,0,0,0-.041-.177.537.537,0,0,0-.391-.331.889.889,0,0,0-.092-.012h-.914a.142.142,0,0,1-.074-.037.115.115,0,0,1-.029-.078l0-.025V33.711l0-.044a.083.083,0,0,1,.015-.04.16.16,0,0,1,.069-.048.089.089,0,0,1,.041-.007h1a.523.523,0,0,0,.322-.106.491.491,0,0,0,.2-.283.457.457,0,0,0,.025-.172V31.271h.008a.655.655,0,1,0-.652-.656M794,29.281h-.645a.771.771,0,0,0-.081.01.588.588,0,0,0-.3.2.518.518,0,0,0-.11.331v.121a.651.651,0,1,0,.932.583.642.642,0,0,0-.516-.637v-.067a.131.131,0,0,1,.025-.08.079.079,0,0,1,.062-.045c.015,0,.019-.008.027-.008h.615c.018,0,.029.008.043.008a.139.139,0,0,1,.037.014.123.123,0,0,1,.051.073.073.073,0,0,1,0,.049v3.024a.65.65,0,0,0,.025.176.407.407,0,0,0,.08.162.552.552,0,0,0,.285.206.526.526,0,0,0,.173.025h.575a.559.559,0,0,0,.177.213.652.652,0,0,0,.8-1.029.661.661,0,0,0-.924.1.753.753,0,0,0-.122.3H794.7a.17.17,0,0,1-.04,0,.1.1,0,0,1-.069-.051.056.056,0,0,1-.015-.041.09.09,0,0,1-.012-.052V29.839a.449.449,0,0,0-.019-.176.5.5,0,0,0-.213-.289.4.4,0,0,0-.155-.074.376.376,0,0,0-.127-.021H794m-19.077.351a.649.649,0,0,0,1.211.333h2.889a.134.134,0,0,1,.04.032.136.136,0,0,1,.025.047V31a.652.652,0,0,0,.154,1.286.653.653,0,0,0,.246-1.258v-.96a.453.453,0,0,0-.008-.077v-.007a.484.484,0,0,0-.1-.247.465.465,0,0,0-.232-.15.315.315,0,0,0-.138-.027l-2.79,0a.65.65,0,0,0-1.3.074m8.177-.939a.652.652,0,0,0,1.258.241H785.4a.035.035,0,0,1,.028.008l.018.012a.657.657,0,1,0,.421-.033l0-.01a.382.382,0,0,0-.121-.191.424.424,0,0,0-.2-.128.48.48,0,0,0-.111-.015c-.017,0-.034-.008-.059-.008H784.4a.655.655,0,0,0-1.3.124m-3.527-.639a.727.727,0,0,0,.051.25h-1.592a.646.646,0,0,0-.646-.529.652.652,0,1,0,.583.95h1.9a.632.632,0,0,0,.2-.034.949.949,0,0,0,.164.019.653.653,0,1,0-.654-.656m6.907-.179a.656.656,0,0,0,1.3.146h.942a.126.126,0,0,1,.082.056.084.084,0,0,1,.021.049V28.3a.518.518,0,0,0,.008.114.458.458,0,0,0,.085.2.4.4,0,0,0,.159.158.558.558,0,0,0,.2.084.875.875,0,0,0,.1,0h1.037a.653.653,0,1,0,.624-.839.64.64,0,0,0-.6.419h-1.068c-.011,0-.023,0-.026-.005a.139.139,0,0,1-.052-.015.05.05,0,0,1-.03-.036c-.014-.011-.014-.029-.023-.047v-.169a.353.353,0,0,0-.01-.1.437.437,0,0,0-.073-.212.544.544,0,0,0-.364-.252.506.506,0,0,0-.1-.01h-.967a.655.655,0,0,0-1.246.279m-5.171-.176a.66.66,0,0,0,.45.619v.773a.281.281,0,0,1-.032.074.173.173,0,0,1-.1.043l-.03-.007-.314.007-.025-.007a.65.65,0,0,0-.118.015.546.546,0,0,0-.32.186.608.608,0,0,0-.124.36l0,.951a.55.55,0,0,0,.143.353.557.557,0,0,0,.337.171.544.544,0,0,0,.083,0h.957a.323.323,0,0,1,.037.019.143.143,0,0,1,.055.092v1.3a.658.658,0,0,0-.367.587.654.654,0,1,0,.785-.638v-1.28a.283.283,0,0,0-.016-.1.544.544,0,0,0-.213-.307.536.536,0,0,0-.179-.08c-.027-.005-.06-.011-.094-.019h-1a.134.134,0,0,1-.078-.04.156.156,0,0,1-.03-.07v-.956a.141.141,0,0,1,.03-.08.109.109,0,0,1,.078-.044c0-.008.026-.008.045-.008h.4a.553.553,0,0,0,.344-.153.565.565,0,0,0,.158-.342.242.242,0,0,0,0-.041v-.769a.654.654,0,1,0-.872-.616" transform="translate(0 0)" fill="#fff"/>
    <g id="Grupo_133" data-name="Grupo 133" transform="translate(713.328 27.044)" clip-path="url(#clip-path)">
      <rect id="Rectángulo_64" data-name="Rectángulo 64" width="117.121" height="56.284" transform="translate(-3.454 -3.455)" fill="#fff"/>
    </g>
  </g>
</svg>
