<svg width="218" height="51" viewBox="0 0 218 51" fill="none" xmlns="http://www.w3.org/2000/svg">
<path d="M63.8784 28.7825H67.1412C67.262 29.6205 67.6245 30.4585 68.3496 31.0571C69.0747 31.536 69.9206 31.7754 70.7665 31.7754C71.6124 31.8951 72.4583 31.6557 73.1833 31.1768C73.6667 30.8177 74.0292 30.3388 74.0292 29.7402C74.0292 29.381 73.9084 29.0219 73.6667 28.7825C73.3041 28.4233 72.9416 28.1839 72.4583 28.0641C72.0957 27.9444 71.129 27.705 69.7997 27.3458C68.4704 27.1064 67.1412 26.6275 66.0536 25.7895C65.0869 25.0712 64.4826 23.874 64.4826 22.6768C64.4826 21.8388 64.7243 21.1205 65.2077 20.5219C65.6911 19.8036 66.4161 19.205 67.262 18.9655C68.3496 18.6064 69.4372 18.367 70.5248 18.367C72.2166 18.2472 73.9084 18.7261 75.2376 19.6839C76.3252 20.5219 76.9294 21.7191 76.9294 23.036L73.5458 23.1557C73.425 22.4374 73.1833 21.8388 72.5791 21.4796C71.9749 21.1205 71.2498 20.881 70.4039 21.0008C69.558 21.0008 68.833 21.1205 68.1079 21.5994C67.7454 21.8388 67.6245 22.1979 67.6245 22.5571C67.6245 22.9163 67.8662 23.2754 68.1079 23.5148C69.0747 23.9937 70.1622 24.3529 71.2498 24.5923C72.4583 24.8317 73.6667 25.1909 74.8751 25.6698C75.6002 26.0289 76.2044 26.5078 76.6877 27.2261C77.6545 28.7825 77.5336 30.6979 76.5669 32.1346C75.9627 32.9726 75.2376 33.5712 74.2709 33.8106C73.0625 34.1698 71.854 34.4092 70.6456 34.4092C68.9538 34.5289 67.262 34.0501 65.8119 33.0923C64.6035 31.8951 63.7576 30.4585 63.8784 28.7825Z" fill="white"/>
<path d="M80.1923 26.388C80.1923 25.0711 80.434 23.6345 80.9174 22.4373C81.2799 21.5993 81.8841 20.881 82.4883 20.2824C83.0925 19.6838 83.8176 19.2049 84.6635 18.8457C85.7511 18.3669 87.0803 18.2472 88.2887 18.2472C90.4639 18.1274 92.5182 18.9655 94.21 20.4021C95.781 21.9584 96.506 24.1133 96.3852 26.2683C96.506 28.4232 95.6601 30.5781 94.21 32.1345C92.6391 33.5711 90.4639 34.4091 88.4096 34.2894C86.2344 34.4091 84.0593 33.6908 82.4883 32.1345C80.9174 30.6979 80.0715 28.5429 80.1923 26.388ZM83.6967 26.2683C83.5759 27.7049 84.0593 29.1415 85.026 30.219C86.8386 32.0148 89.8597 32.0148 91.6723 30.219C92.6391 29.1415 93.1224 27.5852 93.0016 26.1486C93.1224 24.7119 92.6391 23.2753 91.7932 22.1979C89.8597 20.4021 86.9595 20.4021 85.1468 22.1979C83.9384 23.395 83.5759 24.8317 83.6967 26.2683Z" fill="white"/>
<path d="M109.557 28.4234L112.82 28.5431C112.82 30.3389 111.853 32.1347 110.282 33.2122C108.953 34.0502 107.382 34.5291 105.811 34.4093C103.878 34.4093 101.702 33.691 100.131 32.2544C98.6814 30.6981 97.8355 28.6629 97.9563 26.5079C97.8355 24.353 98.5605 22.0784 100.131 20.522C101.702 19.0854 103.878 18.2474 106.053 18.3671C107.865 18.2474 109.678 18.846 111.007 20.0431C112.095 21.1206 112.82 22.4375 113.062 23.8741H109.557C109.316 23.0361 108.832 22.3178 108.107 21.8389C107.503 21.36 106.657 21.1206 105.811 21.1206C104.723 21.1206 103.636 21.4798 102.79 22.3178C101.944 23.515 101.461 24.9516 101.582 26.2685C101.702 27.7051 102.065 29.1417 103.032 30.4586C103.757 31.2967 104.844 31.6558 105.932 31.6558C106.778 31.6558 107.624 31.4164 108.228 30.8178C108.953 30.2192 109.436 29.3812 109.557 28.4234Z" fill="white"/>
<path d="M114.874 26.3882C114.874 24.9516 115.116 23.5149 115.599 22.198C115.962 21.36 116.566 20.6417 117.17 19.9234C117.774 19.3248 118.499 18.7262 119.345 18.4868C120.554 18.0079 121.762 17.7685 123.091 17.8882C125.387 17.7685 127.563 18.6065 129.134 20.1628C130.705 21.8389 131.55 24.1135 131.43 26.3882C131.55 28.6628 130.705 30.9375 129.134 32.6135C127.563 34.1699 125.387 35.0079 123.091 34.8882C121.037 34.8882 118.862 34.0502 117.17 32.4938C115.599 30.8178 114.753 28.6628 114.874 26.3882ZM118.499 26.2685C118.379 27.8248 118.862 29.2614 119.829 30.4586C121.641 32.3741 124.662 32.3741 126.475 30.5783L126.596 30.4586C127.563 29.2614 128.046 27.7051 127.925 26.1487C128.046 24.5924 127.563 23.1558 126.596 21.9586C124.662 20.0431 121.641 20.0431 119.708 21.9586C118.862 23.1558 118.379 24.7121 118.499 26.2685Z" fill="white"/>
<path d="M133.363 33.8108V18.4868H146.051V21.1206H137.351V24.7122H145.205V27.5854H137.351V33.691L133.363 33.8108Z" fill="white"/>
<path d="M147.864 33.8107V18.6064H151.248V33.8107H147.864Z" fill="white"/>
<path d="M153.543 33.8107V18.6064H157.652L164.54 29.0219V18.6064H168.165V33.8107H163.815L157.169 23.7543V33.8107H153.543Z" fill="white"/>
<path d="M175.174 28.9023L178.679 28.6629C178.8 29.5009 179.283 30.3389 180.008 30.8178C180.733 31.2967 181.7 31.5361 182.546 31.5361C183.512 31.6558 184.358 31.4164 185.204 30.9375C185.688 30.5784 186.05 30.0995 186.05 29.5009C186.05 29.1417 185.929 28.7826 185.688 28.5431C185.325 28.184 184.842 27.9445 184.358 27.9445C183.996 27.8248 183.029 27.5854 181.458 27.2262C180.008 26.9868 178.679 26.5079 177.47 25.6699C176.504 24.9516 175.899 23.8741 175.779 22.5572C175.779 21.7192 176.02 21.0009 176.504 20.4023C177.108 19.684 177.833 19.2051 178.679 18.846C179.766 18.4868 180.975 18.2474 182.183 18.3671C183.996 18.2474 185.688 18.7262 187.259 19.5643C188.346 20.2826 188.95 21.5995 189.071 22.9164L185.446 23.0361C185.325 22.3178 184.963 21.7192 184.479 21.36C183.754 21.0009 183.029 20.7614 182.183 20.8812C181.337 20.8812 180.491 21.0009 179.766 21.4798C179.404 21.7192 179.162 22.0783 179.162 22.4375C179.162 22.7967 179.404 23.1558 179.645 23.3953C180.733 23.8741 181.821 24.2333 182.908 24.353C184.237 24.5924 185.567 24.9516 186.775 25.4305C187.5 25.7896 188.225 26.2685 188.709 26.9868C189.675 28.4234 189.675 30.4586 188.588 31.8953C187.984 32.7333 187.138 33.3319 186.171 33.5713C184.963 33.9305 183.633 34.1699 182.304 34.1699C180.491 34.2896 178.679 33.8107 177.108 32.853C176.02 31.7755 175.295 30.4586 175.174 28.9023Z" fill="white"/>
<path d="M191.972 33.5714V30.4587H195.114V33.5714H191.972Z" fill="white"/>
<path d="M213.481 33.8107H209.856L208.406 30.8177H201.759L200.43 33.8107H196.926L202.847 18.6064H207.439L213.481 33.8107ZM207.318 27.9445L205.022 21.8388L202.726 27.9445H207.318Z" fill="white"/>
<path d="M214.811 33.5714V30.4587H217.953V33.5714H214.811Z" fill="white"/>
<path d="M42.1741 5.8662L44.7118 3.35211C44.8326 3.23239 44.8326 2.99296 44.8326 2.87324C44.7117 2.6338 44.4701 2.51408 44.2284 2.6338L40.1197 4.30986C36.0111 1.55634 31.0565 0 25.7395 0C11.48 0 0 11.3732 0 25.5C0 33.0423 3.26275 39.7465 8.45898 44.4155L4.8337 47.7676C4.71286 47.8873 4.71286 48.007 4.71286 48.007C4.71286 48.2465 4.95455 48.4859 5.07539 48.4859H5.19623L10.755 46.331C14.9845 49.3239 20.0599 51 25.6186 51C39.878 51 51.3581 39.6268 51.3581 25.5C51.4789 17.5986 47.8537 10.5352 42.1741 5.8662ZM16.5554 29.6901L11.9634 16.2817L42.6574 4.30986L16.5554 29.6901ZM6.88803 46.9296L32.99 21.4296L37.582 34.838L6.88803 46.9296Z" fill="white"/>
</svg>
