<svg width="118" height="107" viewBox="0 0 118 107" fill="none" xmlns="http://www.w3.org/2000/svg">
<g clip-path="url(#clip0)">
<path d="M57.6496 100.462C56.9224 100.773 56.4031 100.877 55.7798 100.877C54.3256 100.877 53.4946 99.8388 53.4946 98.1783C53.4946 96.6216 54.2217 95.5837 55.7798 95.5837C56.5069 95.5837 57.0263 95.7913 57.4418 95.9989L57.1302 96.8291C56.8186 96.6216 56.4031 96.5178 55.8837 96.5178C54.9489 96.5178 54.5334 97.2443 54.5334 98.1783C54.5334 99.4237 54.9489 100.046 55.8837 100.046C56.1953 100.046 56.5069 100.046 56.7147 99.8388V98.9048H55.9876L55.8837 98.1783H57.5457V100.462H57.6496Z" fill="white"/>
<path d="M61.7006 98.905C61.7006 100.15 61.0774 100.877 59.9348 100.877C58.7922 100.877 58.1689 100.15 58.1689 98.905C58.1689 97.7634 58.7922 96.9331 59.9348 96.9331C61.0774 97.0369 61.7006 97.8672 61.7006 98.905ZM60.6619 98.905C60.6619 97.9709 60.3503 97.6596 59.9348 97.6596C59.5193 97.6596 59.2077 97.9709 59.2077 98.905C59.2077 99.7352 59.4154 100.15 59.9348 100.15C60.4542 100.15 60.6619 99.839 60.6619 98.905Z" fill="white"/>
<path d="M63.3626 97.4518C63.5703 97.2443 63.882 97.0367 64.2975 97.0367C65.1285 97.0367 65.7517 97.6594 65.7517 99.0086C65.7517 100.254 65.0246 100.98 64.1936 100.98C63.6742 100.98 63.3626 100.773 63.1549 100.462L62.9471 100.877H62.4277V95.5837H63.3626V96.9329V97.4518ZM63.3626 99.8388C63.4665 100.046 63.7781 100.254 63.9858 100.254C64.4013 100.254 64.713 99.9426 64.713 99.0086C64.713 98.0745 64.4013 97.7632 63.9858 97.7632C63.7781 97.7632 63.4665 97.867 63.2587 98.0745V99.8388H63.3626Z" fill="white"/>
<path d="M66.7905 100.877V97.867L66.375 97.7632V97.1405H67.7253V100.877H66.7905ZM66.7905 95.5837H67.7253V96.5178H66.7905V95.5837Z" fill="white"/>
<path d="M69.491 99.2163C69.491 99.839 69.8026 100.15 70.4259 100.15C70.8414 100.15 71.153 100.047 71.4646 99.839L71.6724 100.565C71.3607 100.773 70.8414 100.981 70.322 100.981C69.1794 100.981 68.5562 100.254 68.5562 99.0087C68.5562 97.8671 69.0755 97.0369 70.322 97.0369C71.4646 97.0369 71.8801 97.8671 71.8801 98.8012V99.2163H69.491ZM70.2181 97.7633C69.6988 97.7633 69.491 98.1785 69.491 98.6974H70.8414C70.8414 98.1785 70.7375 97.7633 70.2181 97.7633Z" fill="white"/>
<path d="M74.581 97.8672C74.4771 97.8672 74.2694 97.7634 74.1655 97.7634C73.8539 97.7634 73.6462 97.8672 73.5423 97.9709V100.669H72.6074V96.9331H73.3345L73.4384 97.452C73.5423 97.1407 73.8539 96.8293 74.2694 96.8293C74.4771 96.8293 74.581 96.8293 74.6849 96.9331L74.581 97.8672Z" fill="white"/>
<path d="M77.4894 100.877V98.5936C77.4894 98.0747 77.2817 97.7634 76.8662 97.7634C76.6584 97.7634 76.3468 97.8671 76.243 97.9709V100.773H75.3081V97.0369H75.8275L75.9313 97.452C76.1391 97.2445 76.5546 96.9331 77.0739 96.9331C78.0088 96.9331 78.3204 97.452 78.3204 98.4898V100.773H77.4894V100.877Z" fill="white"/>
<path d="M82.4755 98.905C82.4755 100.15 81.8523 100.877 80.7097 100.877C79.5671 100.877 78.9438 100.15 78.9438 98.905C78.9438 97.7634 79.5671 96.9331 80.7097 96.9331C81.8523 97.0369 82.4755 97.8672 82.4755 98.905ZM81.5407 98.905C81.5407 97.9709 81.2291 97.6596 80.8136 97.6596C80.3981 97.6596 80.0864 97.9709 80.0864 98.905C80.0864 99.7352 80.2942 100.15 80.8136 100.15C81.2291 100.15 81.5407 99.839 81.5407 98.905Z" fill="white"/>
<path d="M87.2538 97.3483C87.15 97.1408 87.15 96.9332 87.15 96.6218V95.4802H88.0848V100.773H87.2538V100.462C87.15 100.669 86.7345 100.981 86.319 100.981C85.488 100.981 84.8647 100.358 84.8647 99.0088C84.8647 97.7634 85.5919 97.037 86.4228 97.037C86.7345 97.037 87.0461 97.1408 87.2538 97.3483ZM87.15 97.971C87.0461 97.8672 86.7345 97.7634 86.5267 97.7634C86.1112 97.7634 85.7996 98.0748 85.7996 99.0088C85.7996 99.9429 86.1112 100.254 86.5267 100.254C86.7345 100.254 87.0461 100.15 87.2538 99.9429V97.971H87.15Z" fill="white"/>
<path d="M89.8504 99.2163C89.8504 99.839 90.162 100.15 90.7853 100.15C91.2008 100.15 91.5124 100.047 91.824 99.839L92.0317 100.565C91.7201 100.773 91.2008 100.981 90.6814 100.981C89.5388 100.981 88.9155 100.254 88.9155 99.0087C88.9155 97.8671 89.4349 97.0369 90.6814 97.0369C91.824 97.0369 92.2395 97.8671 92.2395 98.8012V99.2163H89.8504ZM90.5775 97.7633C90.0581 97.7633 89.8504 98.1785 89.8504 98.6974H91.2008C91.2008 98.1785 90.993 97.7633 90.5775 97.7633Z" fill="white"/>
<path d="M96.6022 100.877C95.148 100.877 94.4209 99.9426 94.4209 98.1783C94.4209 96.5178 95.148 95.5837 96.6022 95.5837C97.3293 95.5837 97.9526 95.6875 98.3681 95.9989L97.9526 96.8291C97.641 96.6216 97.2255 96.5178 96.7061 96.5178C95.8751 96.5178 95.4596 97.1405 95.4596 98.2821C95.4596 99.5275 95.8751 100.046 96.7061 100.046C97.2255 100.046 97.641 99.8388 98.0565 99.5275L98.3681 100.358C97.8487 100.669 97.2255 100.877 96.6022 100.877Z" fill="white"/>
<path d="M98.9912 100.877V95.5837H99.9261V96.9329C99.9261 97.1405 99.9261 97.4518 99.8222 97.5556C100.03 97.348 100.342 97.0367 100.861 97.0367C101.9 97.0367 102.211 97.5556 102.211 98.5934V100.877H101.173V98.5934C101.173 98.0745 100.965 97.7632 100.549 97.7632C100.342 97.7632 100.03 97.867 99.9261 97.9707V100.773H98.9912V100.877Z" fill="white"/>
<path d="M103.354 100.877V97.867L102.938 97.7632V97.1405H104.289V100.877H103.354ZM103.25 95.5837H104.289V96.5178H103.25V95.5837Z" fill="white"/>
<path d="M105.224 99.8388V95.5837H106.158V99.8388C106.158 100.15 106.366 100.15 106.782 100.15V100.877C106.782 100.877 106.47 100.98 106.262 100.98C105.431 100.877 105.224 100.462 105.224 99.8388Z" fill="white"/>
<path d="M108.236 99.2163C108.236 99.839 108.547 100.15 109.17 100.15C109.586 100.15 109.898 100.047 110.209 99.839L110.417 100.565C110.105 100.773 109.586 100.981 109.067 100.981C107.924 100.981 107.301 100.254 107.301 99.0087C107.301 97.8671 107.82 97.0369 109.067 97.0369C110.209 97.0369 110.625 97.8671 110.625 98.8012V99.2163H108.236ZM108.859 97.7633C108.34 97.7633 108.132 98.1785 108.132 98.6974H109.482C109.586 98.1785 109.378 97.7633 108.859 97.7633Z" fill="white"/>
<path d="M116.234 0H1.86972H0V1.86809V105.236V107.104H1.86972H116.234H118.104V105.236V1.86809V0H116.234ZM1.86972 1.86809H47.5739V105.236H1.86972V1.86809ZM116.234 105.236H49.3398V1.86809H116.234V105.236Z" fill="white"/>
<path d="M25.6567 16.1899C25.7606 16.0862 25.9683 15.8786 25.7606 15.5672C25.6567 15.3597 25.449 15.3597 25.5528 15.3597C26.6954 15.0483 27.3187 13.3878 27.3187 12.7651C27.9419 13.284 29.2923 13.4916 30.2271 12.6613C30.8504 12.0386 31.162 10.4819 30.1233 9.65163C29.6039 9.2365 28.5652 9.2365 27.9419 9.65163C27.7342 9.34028 27.4226 9.13272 27.0071 9.13272C27.0071 9.02894 27.0071 8.19867 26.5916 7.78354C25.9683 7.16085 24.4102 7.05706 23.787 7.78354C22.6444 7.47219 21.0863 7.99111 21.1902 9.8592C20.3592 9.54785 19.8398 9.54785 19.4243 9.54785C19.0088 9.54785 18.4895 9.96298 18.2817 10.1705C18.1778 10.2743 18.074 10.4819 18.074 10.5857C17.9701 10.897 17.8662 11.2084 17.8662 11.6235C17.9701 12.2462 18.2817 12.8689 18.6972 13.0765C19.3204 13.3878 20.1514 13.3878 20.463 13.3878C20.6708 13.3878 20.9824 13.284 21.1902 12.9727C21.294 12.8689 21.294 12.7651 21.3979 12.7651C21.3979 12.9727 21.294 13.8029 22.3328 14.2181V14.3219C22.6444 15.5672 23.4754 15.3597 23.4754 15.4635C23.1637 15.671 23.2676 15.9824 23.3715 16.1899C23.8909 15.9824 24.3064 15.9824 24.5141 15.9824C24.7218 15.9824 25.1373 15.9824 25.6567 16.1899Z" fill="white"/>
<path d="M28.4613 19.8223C28.4613 18.5769 29.2923 17.6429 29.2923 17.6429C29.3962 17.5391 29.3962 17.4353 29.3962 17.3315C29.3962 17.2277 29.2923 17.124 29.2923 17.124C29.0846 16.9164 28.5652 16.605 28.5652 16.605C28.4613 16.605 28.4613 16.605 28.3574 16.7088C28.2536 16.8126 27.9419 17.0202 27.4226 17.0202C27.3187 17.0202 27.2148 17.0202 27.111 17.0202C26.9032 17.0202 26.4877 16.8126 26.4877 16.8126C26.3839 16.7088 26.1761 16.7088 26.0722 16.605C25.3451 16.2937 24.8258 16.2937 24.618 16.2937C24.4103 16.2937 23.8909 16.2937 23.1638 16.605C23.1638 16.605 23.0599 16.605 22.956 16.7088L22.5405 16.9164C22.4367 17.0202 22.2289 17.0202 22.1251 17.0202C22.0212 17.0202 21.9173 17.0202 21.8134 17.0202C21.2941 17.0202 21.0863 16.8126 20.8786 16.7088C20.7747 16.605 20.7747 16.605 20.6708 16.605C20.6708 16.605 20.1515 16.9164 19.9437 17.124C19.9437 17.124 19.8398 17.2277 19.8398 17.3315C19.8398 17.4353 19.8398 17.5391 19.9437 17.6429C19.9437 17.6429 20.7747 18.5769 20.7747 19.8223C20.7747 19.9261 20.8786 20.6526 20.2553 21.7942C20.2553 21.898 19.5282 23.1434 20.2553 24.1812C20.2553 24.1812 20.7747 25.219 22.4367 25.219C22.5405 25.219 23.787 25.219 24.2025 26.0493C24.2025 26.0493 24.4103 26.3606 24.5141 26.5682L24.618 26.7758L24.7219 26.5682C24.8258 26.4644 25.0335 26.1531 25.0335 26.0493C25.449 25.3228 26.6955 25.219 26.7993 25.219C28.4613 25.219 28.9807 24.1812 28.9807 24.1812C29.7078 23.0396 28.9807 21.7942 28.9807 21.7942C28.3574 20.7564 28.4613 20.0299 28.4613 19.8223ZM27.8381 19.8223L25.6567 21.3791L26.4877 23.7661L24.4103 22.2093L22.3328 23.7661L23.1638 21.3791L20.9824 19.8223H23.5793L24.3064 17.4353L25.0335 19.8223H27.8381Z" fill="white"/>
<path d="M42.692 29.9929C42.3803 29.6816 41.7571 29.7854 41.7571 29.7854C42.1726 28.6437 41.1339 28.3324 41.1339 28.3324C40.7184 28.2286 40.5106 28.3324 40.3029 28.4362C40.3029 28.4362 40.3029 28.4362 40.199 28.54C40.0951 28.6437 40.0951 28.7475 40.0951 28.9551C40.0951 29.2664 40.3029 29.474 40.6145 29.474C40.7184 29.474 40.8222 29.474 40.9261 29.3702C41.03 29.2664 41.1339 29.1627 41.1339 29.0589C41.2377 29.1627 41.3416 29.2664 41.3416 29.2664C41.6532 30.2005 40.5106 30.6156 40.5106 30.6156C38.1215 31.3421 36.6673 30.0967 36.6673 30.0967L37.0828 29.8891C37.1867 29.7854 37.3944 29.7854 37.4983 29.7854C37.4983 29.7854 37.4983 29.7854 37.4983 29.8891C37.4983 30.0967 37.706 30.408 38.0177 30.408C38.3293 30.408 38.537 30.2005 38.537 29.8891C38.537 29.6816 38.4332 29.5778 38.4332 29.5778C38.1215 29.1627 37.1867 29.474 37.1867 29.474C37.4983 28.6437 37.1867 28.1248 37.1867 28.1248C36.7712 27.1908 35.7325 27.5021 35.7325 27.5021C35.317 27.6059 35.317 27.9173 35.317 27.9173C35.2131 28.6437 35.7325 28.7475 35.7325 28.7475C36.148 28.7475 36.1479 28.4362 36.1479 28.4362C36.2518 28.1248 35.7325 28.1248 35.7325 28.1248C36.148 27.3984 37.3944 28.54 36.5634 29.5778C36.4596 29.6816 36.3557 29.5778 36.3557 29.5778C34.9015 28.8513 34.0705 28.3324 33.7589 28.1248C33.7589 27.7097 33.3434 27.5021 33.4472 27.3984C33.5511 27.3984 33.7589 27.5021 33.8627 27.2946C33.8627 27.1908 33.9666 26.5681 34.0705 26.153C35.4208 26.7757 36.5634 26.5681 36.7712 26.4643C36.8751 26.4643 36.9789 26.3605 36.9789 26.153C36.9789 25.634 35.7325 22.7281 35.6286 21.6903C36.2518 22.0017 36.6673 21.0676 36.7712 20.7563C37.6022 21.1714 37.9138 28.8513 38.537 29.0589C38.8487 29.1627 38.9525 28.6437 39.0564 28.54C40.0951 25.1151 40.0951 21.7941 40.0951 20.6525C39.9913 18.8882 39.8874 17.3314 39.4719 15.8785C39.2641 14.9444 38.7448 13.1801 37.4983 12.9726C36.9789 12.8688 36.5634 13.3877 36.5634 13.8028C36.5634 14.2179 36.8751 14.4255 36.7712 14.7369C36.6673 14.9444 36.4596 15.2558 36.3557 15.5671C36.2518 15.8785 36.5634 15.9823 36.4596 16.2936C36.0441 16.1898 35.9402 16.605 35.317 16.3974C35.7325 16.1898 35.7325 15.152 35.2131 14.9444C35.1092 14.9444 35.1092 14.9444 35.0053 14.8406C35.0053 14.8406 35.1092 14.6331 35.2131 14.5293C35.5247 14.0104 35.5247 13.4915 35.317 13.1801C35.5247 13.1801 35.7325 12.8688 35.7325 12.5574C35.7325 12.4536 35.7325 12.2461 35.8363 12.0385C35.8363 11.9347 35.8363 11.8309 35.7325 11.8309C35.6286 11.8309 35.6286 11.8309 35.5247 11.9347C35.4208 12.1423 35.1092 12.0385 35.2131 11.8309C35.2131 11.7272 35.2131 11.6234 35.1092 11.6234C35.0053 11.6234 35.0053 11.6234 34.9015 11.7272C34.7976 11.9347 34.486 11.8309 34.5899 11.6234C34.5899 11.5196 34.5899 11.4158 34.486 11.4158C34.3821 11.4158 34.3821 11.4158 34.2782 11.5196C34.1744 11.7272 33.8627 11.6234 33.9666 11.4158C33.9666 11.312 33.9666 11.2083 33.8627 11.2083C33.7589 11.2083 33.7589 11.2083 33.655 11.312C33.5511 11.5196 33.4472 11.6234 33.3434 11.7272C33.1356 11.7272 33.1356 12.0385 33.1356 12.2461C32.6163 12.1423 32.3046 12.5574 32.3046 12.8688H32.2008C31.7853 12.8688 31.3698 13.0763 31.4737 13.4915C31.4737 13.699 31.7853 14.0104 31.7853 14.0104C31.7853 14.0104 31.7853 13.8028 31.993 13.8028C32.2008 13.8028 32.5124 13.9066 32.5124 14.1142C32.5124 14.3217 32.4085 14.8406 33.0318 14.8406C33.0318 14.8406 33.0318 14.9444 33.0318 15.0482C32.824 15.0482 32.7201 15.0482 32.5124 15.0482C32.0969 15.152 31.5775 15.3596 31.3698 15.7747C31.3698 15.8785 31.3698 15.9823 31.3698 16.086C31.3698 16.1898 31.4737 16.2936 31.4737 16.3974C31.4737 16.3974 31.3698 16.5012 31.3698 16.605C31.162 16.8125 30.8504 16.9163 30.6427 17.0201C30.331 17.0201 30.0194 16.8125 29.9156 16.7087C29.5001 16.1898 30.0194 15.152 30.0194 14.8406C30.0194 13.9066 28.773 14.4255 28.2536 14.7369C27.6303 15.0482 27.2149 15.5671 26.7994 15.9823C26.5916 16.2936 26.3839 16.605 26.28 16.8125L26.1761 16.9163C26.3839 17.0201 26.9032 17.2276 27.2149 17.2276C27.2149 17.2276 27.8381 17.3314 28.3575 16.9163C28.3575 16.9163 28.4613 16.8125 28.5652 16.8125C28.6691 16.8125 28.6691 16.8125 28.773 16.9163L28.8768 17.0201L28.9807 17.1239C28.9807 17.1239 29.0846 17.1239 29.0846 17.2276C29.1884 17.3314 29.2923 17.3314 29.2923 17.4352C29.3962 17.539 29.5001 17.539 29.6039 17.6428C29.7078 17.7466 29.8117 17.7466 29.8117 17.8503C29.8117 17.8503 29.8117 17.8503 29.8117 17.9541V18.0579L29.7078 18.1617C29.5001 18.3693 29.2923 18.7844 29.0846 19.3033C29.2923 19.7184 29.7078 20.1336 30.2272 20.1336C30.6427 20.1336 30.8504 19.926 30.9543 19.6146C31.0582 19.6146 31.2659 20.86 31.5775 21.1714C31.2659 21.2752 30.8504 21.7941 31.0582 23.0395C30.8504 22.8319 30.331 22.5206 30.1233 22.313C30.0194 22.0017 29.7078 21.379 28.9807 21.379C29.0846 21.6903 29.1884 22.1054 29.5001 22.4168C29.5001 22.4168 29.9156 23.247 29.8117 24.1811C30.1233 23.8697 30.0194 23.0395 30.0194 23.0395H30.1233C30.2272 23.0395 30.5388 23.6622 31.0582 23.766C31.7853 24.9076 32.5124 25.634 33.2395 26.153C33.2395 26.4643 33.2395 27.087 33.0318 27.087C32.4085 27.1908 31.8891 26.7757 31.3698 26.8794H31.2659C29.0846 25.8416 26.0722 28.1248 25.6568 28.54C25.449 28.7475 25.1374 28.4362 25.1374 28.4362C24.9296 28.2286 24.7219 28.1248 24.5141 28.1248C24.3064 28.1248 24.0987 28.2286 23.8909 28.4362C23.8909 28.4362 23.5793 28.7475 23.3715 28.54C22.956 28.1248 20.2553 26.0492 18.074 26.7757C18.074 26.6719 17.7624 26.5681 17.6585 26.5681C17.4508 26.5681 17.3469 26.3605 17.243 26.3605C17.0353 26.2567 16.6198 26.3605 16.3082 26.2567C16.2043 26.2567 16.1004 26.153 15.9965 26.153C15.6849 25.9454 15.2694 25.634 15.0617 25.3227L14.9578 25.1151C14.8539 25.0114 14.7501 24.9076 14.7501 24.7C14.6462 24.2849 14.8539 23.766 14.8539 23.3508C14.8539 23.0395 14.8539 23.0395 14.9578 22.6243C16.3082 22.1054 16.9314 21.1714 17.243 20.5487L17.3469 20.3411C17.4508 20.3411 17.4508 20.3411 17.5546 20.3411C18.074 20.3411 18.4895 20.0298 19.1127 20.1336C19.1127 20.1336 19.2166 20.4449 19.6321 20.5487C19.6321 20.9638 19.6321 21.2752 19.8399 21.5865C19.8399 21.6903 19.9437 21.6903 19.9437 21.6903C20.1515 21.0676 20.2553 20.5487 20.2553 20.2373V20.1336C20.1515 19.5109 19.8399 19.3033 19.5282 19.0957C19.4244 18.992 19.2166 18.992 19.1127 18.8882C18.905 18.7844 18.6972 18.5768 18.4895 18.2655C18.4895 18.2655 18.5934 18.1617 18.5934 18.0579C19.0089 17.6428 19.2166 17.0201 19.3205 16.3974C19.6321 15.9823 20.4631 16.1898 20.7747 16.1898C20.8786 16.1898 20.9825 16.1898 21.0863 16.2936C21.1902 16.3974 21.1902 16.5012 21.2941 16.5012C21.398 16.605 21.6057 16.5012 21.7096 16.5012C21.8134 16.605 21.8134 16.7087 21.8134 16.7087C21.8134 16.7087 21.8134 16.8125 21.9173 16.9163C22.3328 16.9163 22.8522 16.7087 23.0599 16.605C23.0599 16.605 23.0599 16.605 22.956 16.605C22.7483 16.3974 22.5406 16.1898 22.3328 16.086C22.0212 16.086 21.9173 15.7747 21.7096 15.6709C21.6057 15.6709 21.398 15.5671 21.2941 15.6709C20.6708 15.7747 20.1515 15.4633 19.6321 15.4633C19.0089 15.4633 19.0089 15.7747 18.8011 16.086C18.6972 16.1898 18.5934 16.3974 18.4895 16.3974C18.2818 16.5012 18.1779 16.605 17.9701 16.7087L17.8663 16.5012C17.7624 16.2936 17.7624 16.086 17.6585 15.8785C17.3469 15.3596 17.0353 15.0482 16.3082 14.8406C16.2043 14.7369 16.2043 14.7369 16.1004 14.7369C15.9965 14.6331 16.1004 14.5293 16.1004 14.5293C16.3082 14.4255 16.6198 14.4255 16.8275 14.3217C17.3469 14.1142 17.1391 13.5953 16.9314 13.5953C16.6198 13.5953 16.1004 13.3877 16.1004 13.3877C15.9965 13.2839 15.6849 12.8688 15.4772 12.765C15.2694 12.6612 15.2694 12.3499 15.0617 12.2461C14.9578 12.2461 14.8539 12.2461 14.6462 12.3499C14.6462 12.2461 14.5423 11.8309 14.3346 11.6234C14.1268 11.5196 14.1268 11.7272 14.1268 11.8309C14.1268 11.9347 14.4384 12.0385 14.4384 12.4536L14.3346 12.5574C14.3346 12.3499 14.2307 12.1423 14.0229 12.0385C13.8152 11.9347 13.8152 12.1423 13.8152 12.2461C13.8152 12.3499 14.0229 12.4536 14.1268 12.765C14.0229 12.765 14.0229 12.8688 13.9191 12.8688C13.5036 12.765 13.3997 12.5574 13.3997 12.4536C13.2958 12.4536 13.0881 12.4536 13.192 12.6612C13.2958 12.8688 13.6075 12.9726 13.7113 12.9726L13.6075 13.0763C13.192 12.9726 13.0881 12.6612 12.9842 12.6612C12.8803 12.6612 12.6726 12.6612 12.7765 12.8688C12.8803 13.1801 13.3997 13.2839 13.3997 13.2839C13.2958 13.3877 13.2958 13.4915 13.2958 13.5953C12.9842 13.5953 12.361 13.699 12.4649 14.1142C12.5687 14.218 12.9842 13.9066 13.2958 14.0104C13.5036 14.4255 13.9191 14.4255 14.0229 14.4255C14.1268 14.5293 14.1268 14.7369 14.2307 14.9444C14.3346 15.2558 14.5423 15.5671 14.7501 15.7747C14.9578 16.086 15.1656 16.3974 15.3733 16.7087C15.3733 16.8125 15.3733 16.8125 15.3733 17.0201C15.1656 17.4352 14.4384 17.8503 14.1268 18.1617C13.8152 18.473 10.9068 20.6525 10.5951 21.5865C10.4913 21.7941 10.4913 22.1054 10.4913 22.313C10.2835 22.4168 9.97189 22.5206 9.76415 22.4168C9.5564 22.1054 9.97189 21.8979 9.86802 21.5865C9.86802 21.4827 9.66027 21.379 9.5564 21.4827C8.82929 22.0017 9.24478 22.9357 9.66027 23.1433C10.1796 23.3508 10.1796 22.8319 10.5951 23.0395C10.699 23.1433 11.6339 23.8697 11.4261 24.5962C11.4261 24.5962 11.4261 24.7 11.3222 24.7C11.1145 24.9076 10.8029 25.1151 10.5951 25.3227C10.0758 25.634 11.0106 27.5021 11.0106 28.4362C10.9068 28.8513 11.3222 28.7475 11.53 29.3702C11.3222 29.3702 11.1145 29.474 11.0106 29.5778C11.0106 29.5778 10.9068 29.6816 10.9068 29.8891C10.9068 30.0967 11.1145 30.408 11.4261 30.408C11.7377 30.408 11.9455 30.2005 11.9455 29.8891C11.9455 29.8891 11.9455 29.8891 11.9455 29.7854C12.0494 29.7854 12.1532 29.7854 12.361 29.8891L12.7765 30.0967C12.7765 30.0967 11.3222 31.3421 8.93316 30.6156C8.93316 30.6156 7.89443 30.3043 8.10217 29.2664C8.10217 29.2664 8.20605 29.0589 8.30992 29.0589C8.30992 29.1627 8.41379 29.2664 8.51767 29.3702C8.62154 29.474 8.72541 29.474 8.82929 29.474C9.14091 29.474 9.34865 29.2664 9.34865 28.9551C9.34865 28.8513 9.24478 28.6437 9.24478 28.54C9.24478 28.54 9.24478 28.54 9.14091 28.4362C8.93316 28.3324 8.72541 28.2286 8.30992 28.3324C8.30992 28.3324 7.27119 28.6437 7.68668 29.7854C7.68668 29.7854 6.95957 29.5778 6.75182 29.9929C6.75182 29.9929 6.64795 30.0967 6.64795 30.3043C6.64795 30.4081 6.64795 30.408 6.75182 30.5118C6.8557 30.6156 6.95957 30.7194 7.06344 30.7194C7.16732 30.7194 7.27119 30.6156 7.37506 30.6156C7.37506 30.6156 7.47894 30.5118 7.58281 30.6156C9.14091 32.2761 11.7377 31.5497 13.192 30.5118C13.192 30.5118 14.0229 29.6816 14.8539 29.2664C15.1656 29.3702 15.581 29.474 15.8927 29.6816C15.8927 30.2005 15.9965 30.927 16.5159 31.7572C16.5159 31.7572 16.1004 32.4837 15.4772 32.0686C15.4772 32.0686 14.9578 31.6534 15.3733 31.2383C15.3733 31.2383 15.6849 31.0307 15.7888 31.3421C15.6849 31.3421 15.4772 31.4459 15.4772 31.6534C15.4772 31.7572 15.581 31.9648 15.7888 31.9648C15.8927 31.9648 16.1004 31.861 16.1004 31.6534C16.1004 31.5497 16.1004 31.2383 15.8927 31.0307C15.8927 31.0307 15.6849 30.8232 15.2694 30.8232C14.6462 30.927 14.3346 32.1724 15.4772 32.6913C15.4772 32.6913 16.412 33.1064 16.9314 32.3799C16.9314 32.3799 16.9314 32.2761 17.1391 32.4837C18.1779 33.4177 20.3592 33.2102 21.1902 32.4837C21.1902 32.4837 21.3979 32.3799 21.6057 32.2761C21.6057 32.6913 21.9173 32.8988 22.3328 32.8988C22.7483 32.8988 23.0599 32.5875 23.0599 32.1724C23.0599 31.861 22.8522 31.5497 22.5406 31.4459C22.5406 31.4459 22.1251 31.3421 21.398 31.6534C21.398 31.6534 20.6708 32.0686 20.7747 31.9648C20.9825 31.6534 21.1902 31.1345 21.2941 30.6156C22.2289 30.7194 23.2677 30.8232 24.3064 30.8232C24.3064 31.1345 24.2025 31.4459 24.0987 31.7572C24.0987 31.7572 23.787 31.861 23.6832 32.1724C23.6832 32.1724 23.6832 32.3799 23.9948 32.5875C23.9948 32.5875 24.2025 32.8988 24.3064 33.0026C24.3064 33.0026 24.3064 33.314 24.7219 33.314C24.7219 33.314 24.7219 33.314 24.8258 33.314C24.8258 33.314 24.8258 33.314 24.9296 33.314C25.3451 33.314 25.3451 33.0026 25.3451 33.0026C25.449 32.7951 25.6568 32.5875 25.6568 32.5875C25.9684 32.3799 25.9684 32.1724 25.9684 32.1724C25.9684 31.9648 25.5529 31.7572 25.5529 31.7572C25.449 31.4459 25.449 31.1345 25.3451 30.8232C26.3839 30.8232 27.3187 30.7194 28.3575 30.6156C28.4613 31.1345 28.5652 31.6534 28.8768 31.9648C28.8768 32.0686 28.2536 31.6534 28.2536 31.6534C27.6303 31.2383 27.2149 31.3421 27.111 31.4459C26.7994 31.5497 26.5916 31.7572 26.5916 32.1724C26.5916 32.5875 26.9032 32.8988 27.3187 32.8988C27.7342 32.8988 28.0458 32.5875 28.0458 32.2761C28.2536 32.3799 28.5652 32.4837 28.5652 32.4837C29.3962 33.1064 31.6814 33.4177 32.6163 32.4837C32.824 32.2761 32.824 32.3799 32.824 32.3799C33.3434 33.1064 34.2782 32.6913 34.2782 32.6913C35.4208 32.1724 35.1092 30.927 34.486 30.8232C34.0705 30.7194 33.8627 31.0307 33.8627 31.0307C33.2395 31.0307 33.2395 31.3421 33.2395 31.4459C33.2395 31.5497 33.3434 31.7572 33.5511 31.7572C33.655 31.7572 33.8627 31.6534 33.8627 31.4459C33.8627 31.3421 33.7589 31.1345 33.5511 31.1345C33.655 30.8232 33.9666 31.0307 33.9666 31.0307C34.3821 31.5497 33.8627 31.861 33.8627 31.861C33.1356 32.2761 32.824 31.5497 32.824 31.5497C33.4472 30.7194 33.5511 29.9929 33.4472 29.474C33.7589 29.3702 34.1744 29.2664 34.486 29.0589C35.4208 29.5778 36.1479 30.3043 36.1479 30.3043C37.6022 31.4459 40.199 32.0686 41.7571 30.408C41.861 30.3043 41.9649 30.3043 41.9649 30.408C42.0687 30.5118 42.1726 30.5118 42.2765 30.5118C42.3803 30.5118 42.5881 30.4081 42.5881 30.3043C42.5881 30.2005 42.692 30.0967 42.692 30.0967C42.7958 30.0967 42.692 29.9929 42.692 29.9929ZM12.9842 29.474C12.9842 29.474 12.8803 29.5778 12.7765 29.474C11.9455 28.4362 13.192 27.2946 13.6075 28.021C13.6075 28.021 13.0881 28.021 13.192 28.3324C13.192 28.3324 13.192 28.6437 13.6075 28.6437C13.6075 28.6437 14.2307 28.54 14.0229 27.8135C14.0229 27.8135 13.9191 27.5021 13.6075 27.3984C13.6075 27.3984 12.5687 27.087 12.1532 28.021C12.1532 28.021 12.0494 28.2286 12.0494 28.54C11.9455 28.4362 11.7377 28.3324 11.6339 28.3324C11.4261 28.1248 11.1145 26.4643 11.3222 25.5303C12.9842 25.2189 13.3997 23.8697 13.5036 23.4546C13.8152 23.5584 14.0229 23.9735 14.0229 24.0773C14.0229 24.2849 13.9191 24.4924 14.1268 24.7C14.3346 25.0113 14.7501 25.2189 14.9578 25.3227C15.0617 25.4265 16.2043 26.2567 16.412 26.3605C16.6198 26.3605 16.7237 26.2567 16.8275 26.2567C16.9314 26.2567 16.9314 26.2567 16.9314 26.3605C16.9314 26.3605 17.0353 26.4643 17.1391 26.5681C16.8275 26.7757 16.412 27.087 15.8927 27.5021C15.9965 27.7097 15.581 28.2286 12.9842 29.474ZM17.0353 30.6156C17.0353 30.6156 16.9314 31.0307 16.8275 31.1345C16.8275 31.1345 16.5159 30.5118 16.412 29.6816C16.7237 29.7854 16.9314 29.8891 17.243 29.8891C17.1391 30.2005 17.0353 30.4081 17.0353 30.6156ZM20.1515 32.1724C20.1515 32.1724 18.4895 32.7951 17.3469 31.6534C17.3469 31.6534 17.4508 30.927 17.7624 30.0967C18.6972 30.3043 19.6321 30.5118 20.6708 30.6156C20.567 31.2383 20.4631 32.0686 20.1515 32.1724ZM18.4895 28.8513C18.8011 28.54 19.2166 28.3324 19.8399 28.3324C19.8399 28.3324 20.567 28.3324 20.7747 29.2664C19.8399 29.1627 19.1127 29.0589 18.4895 28.8513ZM20.1515 27.8135C20.0476 27.8135 18.905 27.9173 18.074 28.7475C17.5546 28.6437 17.1391 28.54 16.7237 28.3324C16.8275 28.2286 16.8275 28.021 16.9314 27.9173C16.9314 27.9173 18.3856 26.153 20.8786 27.1908C21.0863 27.1908 20.8786 27.6059 20.1515 27.8135ZM21.2941 29.3702C21.398 28.3324 21.5018 27.5021 21.8134 27.5021C21.8134 27.5021 22.1251 27.5021 22.2289 27.7097C22.5406 28.1248 23.3715 28.6437 23.787 29.474C22.956 29.474 22.1251 29.474 21.2941 29.3702ZM25.449 29.474C25.8645 28.6437 26.6955 28.1248 27.0071 27.7097C27.2149 27.5021 27.4226 27.5021 27.4226 27.5021C27.8381 27.5021 27.8381 28.3324 27.942 29.3702C27.2149 29.474 26.28 29.474 25.449 29.474ZM28.3575 27.1908C30.9543 26.2567 32.3046 27.9173 32.3046 27.9173C32.4085 28.021 32.5124 28.2286 32.6163 28.3324C32.3046 28.4362 31.7853 28.54 31.2659 28.7475C30.331 27.9173 29.2923 27.8135 29.1884 27.8135C28.4613 27.6059 28.2536 27.1908 28.3575 27.1908ZM29.5001 28.3324C30.0194 28.3324 30.4349 28.54 30.8504 28.8513C30.2272 28.9551 29.5001 29.1627 28.6691 29.2664C28.773 28.3324 29.5001 28.3324 29.5001 28.3324ZM29.1884 32.1724C28.8768 32.1724 28.773 31.3421 28.6691 30.7194C29.7078 30.6156 30.6427 30.408 31.5775 30.2005C31.8891 30.927 31.993 31.7572 31.993 31.7572C30.8504 32.795 29.1884 32.1724 29.1884 32.1724ZM32.5124 31.1345C32.4085 31.0307 32.3046 30.6156 32.3046 30.6156C32.2008 30.4081 32.2008 30.2005 32.0969 29.9929C32.4085 29.8891 32.6163 29.7854 32.9279 29.7854C32.824 30.5118 32.5124 31.1345 32.5124 31.1345Z" fill="white"/>
<path d="M55.1566 6.84961H53.9102V13.2841H55.1566V6.84961Z" fill="white"/>
<path d="M59.2078 13.1805V10.3783C59.2078 9.65186 59 9.34052 58.3768 9.34052C58.0652 9.34052 57.7535 9.4443 57.5458 9.65186V13.1805H56.2993V8.61404H57.1303L57.338 9.13295C57.5458 8.8216 58.0652 8.51025 58.7923 8.51025C59.9349 8.51025 60.3504 9.23673 60.3504 10.3783V13.2843H59.2078V13.1805Z" fill="white"/>
<path d="M62.3241 9.75567C62.3241 10.4821 64.2977 10.2746 64.2977 11.7275C64.2977 12.5578 63.6745 13.1805 62.5319 13.1805C62.0125 13.1805 61.4931 12.9729 61.1815 12.8692L61.3893 12.0389C61.597 12.1427 62.0125 12.3502 62.428 12.3502C62.8435 12.3502 63.0512 12.1427 63.0512 11.8313C63.0512 11.0011 61.0776 11.3124 61.0776 9.65189C61.0776 8.92541 61.597 8.40649 62.8435 8.40649C63.3628 8.40649 63.7783 8.51028 64.09 8.61406L63.8822 9.5481C63.7783 9.44432 63.3628 9.34054 62.9473 9.34054C62.5319 9.34054 62.3241 9.5481 62.3241 9.75567Z" fill="white"/>
<path d="M66.7905 13.2843C65.9595 13.2843 65.4401 12.8691 65.4401 11.7275V9.44431H64.8169V8.61405H65.4401V7.78378L66.5827 7.36865V8.61405H67.8292V9.44431H66.5827V11.7275C66.5827 12.0389 66.7905 12.2464 67.1021 12.2464C67.3099 12.2464 67.6215 12.1427 67.8292 12.0389L68.037 12.9729C67.8292 13.1805 67.3099 13.2843 66.7905 13.2843Z" fill="white"/>
<path d="M69.0755 13.1804V9.44422L68.5562 9.34044V8.61396H70.322V13.2842H69.0755V13.1804ZM69.0755 6.64209H70.322V7.7837H69.0755V6.64209Z" fill="white"/>
<path d="M73.0229 13.2843C72.1919 13.2843 71.6726 12.8691 71.6726 11.7275V9.44431H71.0493V8.61405H71.6726V7.78378L72.8152 7.36865V8.61405H74.0616V9.44431H72.8152V11.7275C72.8152 12.0389 73.0229 12.2464 73.3345 12.2464C73.5423 12.2464 73.8539 12.1427 74.0616 12.0389L74.2694 12.9729C73.9578 13.1805 73.4384 13.2843 73.0229 13.2843Z" fill="white"/>
<path d="M78.1125 13.1802L77.9048 12.6613C77.697 12.9726 77.1777 13.284 76.4505 13.284C75.3079 13.284 74.7886 12.6613 74.7886 11.3121V8.61377H76.0351V11.4159C76.0351 12.1424 76.2428 12.3499 76.866 12.3499C77.1777 12.3499 77.4893 12.2462 77.697 12.0386V8.61377H78.9435V13.284H78.1125V13.1802Z" fill="white"/>
<path d="M81.4365 13.2843C80.6055 13.2843 80.0861 12.8691 80.0861 11.7275V9.44431H79.4629V8.61405H80.0861V7.78378L81.2287 7.36865V8.61405H82.4752V9.44431H81.2287V11.7275C81.2287 12.0389 81.4365 12.2464 81.7481 12.2464C81.9558 12.2464 82.2675 12.1427 82.4752 12.0389L82.683 12.9729C82.3713 13.1805 81.9559 13.2843 81.4365 13.2843Z" fill="white"/>
<path d="M87.2536 10.8973C87.2536 12.454 86.5265 13.2843 85.1761 13.2843C83.8257 13.2843 83.0986 12.454 83.0986 10.8973C83.0986 9.54808 83.8257 8.51025 85.1761 8.51025C86.4226 8.51025 87.2536 9.54808 87.2536 10.8973ZM86.0071 10.8973C86.0071 9.75565 85.6955 9.4443 85.0722 9.4443C84.5529 9.4443 84.2412 9.85943 84.2412 10.8973C84.2412 11.9351 84.5529 12.454 85.0722 12.454C85.6955 12.3502 86.0071 11.9351 86.0071 10.8973Z" fill="white"/>
<path d="M92.8624 8.92531C92.7585 8.61396 92.7585 8.4064 92.7585 8.09505V6.64209H94.005V13.1804H93.0702L92.9663 12.6615C92.7585 12.9728 92.3431 13.2842 91.7198 13.2842C90.6811 13.2842 89.8501 12.5577 89.8501 10.8972C89.8501 9.34044 90.6811 8.51018 91.8237 8.51018C92.2392 8.51018 92.6547 8.61396 92.8624 8.92531ZM92.7585 9.65179C92.5508 9.54801 92.2392 9.44422 91.9276 9.44422C91.4082 9.44422 90.9927 9.85935 90.9927 10.8972C90.9927 12.0388 91.3043 12.4539 91.9276 12.4539C92.2392 12.4539 92.5508 12.3501 92.7585 12.0388V9.65179Z" fill="white"/>
<path d="M96.083 11.2086C96.083 11.9351 96.4985 12.3502 97.2256 12.3502C97.6411 12.3502 98.1605 12.1427 98.576 11.9351L98.7837 12.7654C98.3682 12.9729 97.745 13.1805 97.1218 13.1805C95.7714 13.1805 94.9404 12.2465 94.9404 10.7935C94.9404 9.34054 95.5637 8.40649 97.0179 8.40649C98.3682 8.40649 98.8876 9.44432 98.8876 10.5859V11.1048H96.083V11.2086ZM96.914 9.34054C96.2908 9.34054 96.083 9.85945 96.083 10.4821H97.6411C97.6411 9.85945 97.5373 9.34054 96.914 9.34054Z" fill="white"/>
<path d="M55.5722 22.7282C54.7412 22.7282 54.0141 22.4169 53.5986 22.0018L54.0141 21.0677C54.3257 21.3791 55.0529 21.6904 55.5722 21.6904C56.0916 21.6904 56.5071 21.3791 56.5071 20.8602C56.5071 19.511 53.5986 20.1337 53.5986 17.9542C53.5986 17.0202 54.3257 16.1899 55.78 16.1899C56.5071 16.1899 57.1303 16.3975 57.6497 16.6051L57.2342 17.6429C56.9226 17.4353 56.2993 17.3316 55.78 17.3316C55.2606 17.3316 54.8451 17.5391 54.8451 17.9542C54.8451 19.0959 57.7536 18.6807 57.7536 20.8602C57.8574 21.7942 57.0264 22.7282 55.5722 22.7282Z" fill="white"/>
<path d="M59.7271 20.6527C59.7271 21.3792 60.1426 21.7943 60.8697 21.7943C61.2852 21.7943 61.8045 21.5868 62.22 21.3792L62.4278 22.2095C62.0123 22.417 61.3891 22.6246 60.7658 22.6246C59.4155 22.6246 58.5845 21.6905 58.5845 20.2376C58.5845 18.7846 59.2077 17.8506 60.6619 17.8506C62.0123 17.8506 62.5317 18.8884 62.5317 20.03V20.5489H59.7271V20.6527ZM60.5581 18.8884C59.9348 18.8884 59.7271 19.4073 59.7271 20.03H61.3891C61.3891 19.4073 61.1813 18.8884 60.5581 18.8884Z" fill="white"/>
<path d="M67.4136 18.0582V18.9922C67.2058 18.9922 66.8942 18.8884 66.5826 18.7847C66.7904 18.9922 66.9981 19.1998 66.9981 19.5111C66.9981 20.6527 65.8555 21.0679 65.1284 21.0679C64.9206 21.0679 64.7129 21.0679 64.5051 20.9641C64.4013 20.9641 64.2974 21.0679 64.2974 21.1717C64.2974 21.6906 67.2058 21.0679 67.2058 22.8322C67.2058 23.87 66.1671 24.4927 65.0245 24.4927C64.0896 24.4927 63.1548 24.0776 63.1548 23.2473C63.1548 22.6246 63.5703 22.3133 64.4013 22.2095C63.8819 22.1057 63.2587 22.0019 63.2587 21.3792C63.2587 20.9641 63.5703 20.7565 64.0896 20.6527C63.6742 20.4452 63.2587 20.03 63.2587 19.3036C63.2587 18.0582 64.4013 17.7468 65.1284 17.7468C65.6477 17.9544 66.6865 18.0582 67.4136 18.0582ZM65.0245 22.417C64.609 22.417 64.2974 22.7284 64.2974 23.1435C64.2974 23.5587 64.609 23.87 65.1284 23.87C65.6477 23.87 66.0632 23.5587 66.0632 23.1435C66.0632 22.6246 65.6477 22.417 65.0245 22.417ZM65.9594 19.5111C65.9594 18.9922 65.5439 18.7847 65.1284 18.7847C64.8168 18.7847 64.2974 18.8884 64.2974 19.5111C64.2974 20.1338 64.7129 20.2376 65.1284 20.2376C65.5439 20.2376 65.9594 20.1338 65.9594 19.5111Z" fill="white"/>
<path d="M71.2571 22.6246L71.0493 22.1057C70.8416 22.417 70.3222 22.7284 69.5951 22.7284C68.4525 22.7284 67.9331 22.1057 67.9331 20.7565V17.9544H69.1796V20.7565C69.1796 21.483 69.3873 21.6905 70.0106 21.6905C70.3222 21.6905 70.6338 21.5868 70.8416 21.3792V17.8506H72.088V22.5208H71.2571V22.6246Z" fill="white"/>
<path d="M75.6198 19.096C75.5159 19.096 75.3082 18.9922 75.1004 18.9922C74.7888 18.9922 74.4772 19.096 74.2694 19.3035V22.6246H73.0229V17.9544H73.8539L73.9578 18.5771C74.0617 18.2657 74.4772 17.8506 74.9965 17.8506C75.2043 17.8506 75.412 17.8506 75.5159 17.9544L75.6198 19.096Z" fill="white"/>
<path d="M76.6585 22.6245V18.8883L76.1392 18.7845V18.058H77.905V22.7282H76.6585V22.6245ZM76.5546 16.1899H77.8011V17.3316H76.5546V16.1899Z" fill="white"/>
<path d="M81.7482 18.3694C81.6443 18.058 81.6443 17.8505 81.6443 17.5391V16.1899H82.8908V22.7282H81.9559L81.852 22.2093C81.6443 22.5207 81.2288 22.832 80.6056 22.832C79.5668 22.832 78.7358 22.1056 78.7358 20.445C78.7358 18.8883 79.5668 18.058 80.7094 18.058C81.1249 17.9542 81.5404 18.058 81.7482 18.3694ZM81.6443 19.0959C81.4365 18.9921 81.1249 18.8883 80.8133 18.8883C80.2939 18.8883 79.8784 19.3034 79.8784 20.3412C79.8784 21.4829 80.1901 21.898 80.8133 21.898C81.1249 21.898 81.4365 21.7942 81.6443 21.4829V19.0959Z" fill="white"/>
<path d="M86.6304 22.6246L86.4226 22.1057C86.2149 22.417 85.6955 22.7284 85.0723 22.7284C84.1374 22.7284 83.5142 22.1057 83.5142 21.2754C83.5142 20.4452 84.1374 19.9262 85.1761 19.9262H86.111V19.7187C86.111 19.096 85.7994 18.8884 85.28 18.8884C84.7606 18.8884 84.3452 18.9922 83.9297 19.1998L83.618 18.2657C84.0335 18.0582 84.6568 17.8506 85.3839 17.8506C86.6304 17.8506 87.2536 18.4733 87.2536 19.6149V22.5208H86.6304V22.6246ZM86.3187 20.6527H85.5916C85.0723 20.6527 84.8645 20.8603 84.8645 21.2754C84.8645 21.6905 85.0723 22.0019 85.4878 22.0019C85.7994 22.0019 86.111 21.8981 86.3187 21.6905V20.6527Z" fill="white"/>
<path d="M91.3048 18.3694C91.2009 18.058 91.2009 17.8505 91.2009 17.5391V16.1899H92.4474V22.7282H91.5125L91.4087 22.2093C91.2009 22.5207 90.7854 22.832 90.1622 22.832C89.1235 22.832 88.2925 22.1056 88.2925 20.445C88.2925 18.8883 89.1235 18.058 90.2661 18.058C90.6816 17.9542 91.0971 18.058 91.3048 18.3694ZM91.2009 19.0959C90.9932 18.9921 90.6816 18.8883 90.3699 18.8883C89.7467 18.8883 89.4351 19.3034 89.4351 20.3412C89.4351 21.4829 89.7467 21.898 90.3699 21.898C90.6816 21.898 90.9932 21.7942 91.2009 21.4829V19.0959Z" fill="white"/>
<path d="M53.8066 32.1726V25.738H55.0531V31.1347H57.65V32.1726H53.8066Z" fill="white"/>
<path d="M60.8696 32.1727L60.6619 31.6538C60.4541 31.9651 59.9348 32.2765 59.3115 32.2765C58.3767 32.2765 57.7534 31.6538 57.7534 30.8235C57.7534 29.9933 58.3767 29.4743 59.4154 29.4743H60.3502V29.2668C60.3502 28.6441 60.0386 28.4365 59.5193 28.4365C58.9999 28.4365 58.5844 28.5403 58.1689 28.7479V27.8138C58.5844 27.6062 59.2076 27.3987 59.9348 27.3987C61.1812 27.3987 61.8045 28.0214 61.8045 29.163V32.1727H60.8696ZM60.558 30.097H59.8309C59.3115 30.097 59.1038 30.3046 59.1038 30.7197C59.1038 31.1349 59.3115 31.4462 59.727 31.4462C60.0386 31.4462 60.3502 31.3424 60.558 31.1349V30.097Z" fill="white"/>
<path d="M63.778 28.021C63.9857 27.7097 64.5051 27.5021 65.0245 27.5021C66.0632 27.5021 66.8942 28.2286 66.8942 29.8891C66.8942 31.4459 65.9593 32.2761 64.9206 32.2761C64.2974 32.2761 63.8819 32.0686 63.5702 31.6534L63.3625 32.1723H62.7393V25.634H63.9857V27.2946L63.778 28.021ZM63.8819 30.8232C64.0896 31.0307 64.4012 31.3421 64.7129 31.3421C65.2322 31.3421 65.6477 30.927 65.6477 29.7853C65.6477 28.6437 65.3361 28.3324 64.7129 28.3324C64.4012 28.3324 64.0896 28.5399 63.8819 28.7475V30.8232Z" fill="white"/>
<path d="M71.7765 29.7857C71.7765 31.3424 71.0494 32.1727 69.6991 32.1727C68.3487 32.1727 67.6216 31.3424 67.6216 29.7857C67.6216 28.4365 68.3487 27.3987 69.6991 27.3987C70.9455 27.3987 71.7765 28.4365 71.7765 29.7857ZM70.53 29.7857C70.53 28.6441 70.2184 28.3327 69.5952 28.3327C69.0758 28.3327 68.7642 28.7479 68.7642 29.7857C68.7642 30.8235 69.0758 31.3424 69.5952 31.3424C70.2184 31.3424 70.53 30.9273 70.53 29.7857Z" fill="white"/>
<path d="M75.1003 28.5403C74.9964 28.5403 74.7886 28.4365 74.5809 28.4365C74.2693 28.4365 73.9576 28.5403 73.7499 28.7479V32.1727H72.5034V27.5025H73.3344L73.4383 28.1252C73.5421 27.8138 73.9576 27.3987 74.477 27.3987C74.6848 27.3987 74.8925 27.3987 74.9964 27.5025L75.1003 28.5403Z" fill="white"/>
<path d="M78.5283 32.1727L78.3206 31.6538C78.1128 31.9651 77.5935 32.2764 76.9702 32.2764C76.0353 32.2764 75.4121 31.6538 75.4121 30.8235C75.4121 29.9932 76.0353 29.4743 77.0741 29.4743H78.0089V29.2667C78.0089 28.6441 77.6973 28.4365 77.178 28.4365C76.6586 28.4365 76.2431 28.5403 75.8276 28.7478L75.516 27.9176C75.9315 27.71 76.5547 27.5024 77.2818 27.5024C78.5283 27.5024 79.1516 28.1251 79.1516 29.2667V32.1727H78.5283ZM78.1128 30.097H77.3857C76.8663 30.097 76.6586 30.3046 76.6586 30.7197C76.6586 31.1348 76.8663 31.4462 77.2818 31.4462C77.5935 31.4462 77.9051 31.3424 78.1128 31.1348V30.097Z" fill="white"/>
<path d="M80.2939 30.927V25.634H81.4366V30.8232C81.4366 31.2383 81.6443 31.2383 82.1637 31.2383V32.1723C82.1637 32.1723 81.852 32.2761 81.5404 32.2761C80.6056 32.2761 80.2939 31.7572 80.2939 30.927Z" fill="white"/>
<path d="M57.338 41.3056L57.2341 37.8808C57.1302 38.2959 57.1302 38.6072 57.0264 38.8148L56.507 41.3056H55.3644L54.845 38.8148C54.7411 38.6072 54.7411 38.2959 54.6373 37.8808V41.3056H53.9102L54.014 37.2581H55.3644C55.3644 37.2581 55.7799 39.3337 55.9876 40.5791C56.2992 39.2299 56.7147 37.2581 56.7147 37.2581H57.9612L58.0651 41.3056H57.338Z" fill="white"/>
<path d="M59.1036 41.3056V38.9186L58.792 38.8148V38.2959H59.9346V41.2018H59.1036V41.3056ZM59.1036 37.1543H59.8307V37.8808H59.1036V37.1543Z" fill="white"/>
<path d="M62.3239 41.3056V39.5413C62.3239 39.1262 62.1162 38.9186 61.8046 38.9186C61.5968 38.9186 61.3891 39.0224 61.2852 39.1262V41.3056H60.5581V38.3997H61.0775L61.1813 38.711C61.3891 38.5035 61.7007 38.2959 62.1162 38.2959C62.8433 38.2959 63.1549 38.711 63.1549 39.4375V41.3056H62.3239Z" fill="white"/>
<path d="M63.9859 41.3056V38.9186L63.6743 38.8148V38.2959H64.8169V41.2018H63.9859V41.3056ZM63.9859 37.1543H64.713V37.8808H63.9859V37.1543Z" fill="white"/>
<path d="M66.0635 39.1262C66.0635 39.5413 67.31 39.4375 67.31 40.3716C67.31 40.8905 66.8945 41.3056 66.1674 41.3056C65.8558 41.3056 65.5442 41.2018 65.3364 41.098L65.5442 40.5791C65.648 40.6829 65.9597 40.7867 66.2713 40.7867C66.479 40.7867 66.6868 40.6829 66.6868 40.4753C66.6868 39.9564 65.4403 40.164 65.4403 39.1262C65.4403 38.711 65.7519 38.2959 66.5829 38.2959C66.8945 38.2959 67.2062 38.3997 67.4139 38.3997L67.31 38.9186C67.1023 38.8148 66.8945 38.8148 66.5829 38.8148C66.1674 38.8148 66.0635 38.9186 66.0635 39.1262Z" fill="white"/>
<path d="M68.9721 41.3055C68.4527 41.3055 68.1411 41.0979 68.1411 40.3715V38.9185H67.7256V38.3996H68.1411V37.8807L68.8682 37.6731V38.3996H69.5953V38.9185H68.8682V40.3715C68.8682 40.579 68.9721 40.6828 69.1798 40.6828C69.3876 40.6828 69.4914 40.6828 69.5953 40.579L69.6992 41.2017C69.5953 41.2017 69.2837 41.3055 68.9721 41.3055Z" fill="white"/>
<path d="M70.9452 39.9562C70.9452 40.4751 71.153 40.6827 71.6724 40.6827C71.984 40.6827 72.2956 40.5789 72.5033 40.4751L72.6072 40.994C72.3995 41.0978 71.984 41.3054 71.5685 41.3054C70.7375 41.3054 70.1143 40.7865 70.1143 39.7486C70.1143 38.8146 70.5298 38.1919 71.4646 38.1919C72.2956 38.1919 72.7111 38.8146 72.7111 39.5411V39.8524H70.9452V39.9562ZM71.4646 38.8146C71.0491 38.8146 70.9452 39.1259 70.9452 39.5411H71.984C71.984 39.1259 71.8801 38.8146 71.4646 38.8146Z" fill="white"/>
<path d="M74.8926 39.0223C74.7887 39.0223 74.6848 39.0223 74.581 39.0223C74.3732 39.0223 74.1655 39.1261 74.0616 39.2299V41.4093H73.3345V38.5034H73.75L73.8538 38.9186C73.9577 38.711 74.1655 38.5034 74.581 38.5034C74.6848 38.5034 74.8926 38.5034 74.8926 38.5034V39.0223Z" fill="white"/>
<path d="M75.6197 41.3056V38.9186L75.3081 38.8148V38.2959H76.4507V41.2018H75.6197V41.3056ZM75.5158 37.1543H76.243V37.8808H75.5158V37.1543Z" fill="white"/>
<path d="M79.5669 39.7486C79.5669 40.7865 79.0475 41.3054 78.2166 41.3054C77.3856 41.3054 76.8662 40.7865 76.8662 39.7486C76.8662 38.9184 77.2817 38.1919 78.2166 38.1919C79.1514 38.2957 79.5669 38.9184 79.5669 39.7486ZM78.8398 39.7486C78.8398 39.0222 78.6321 38.8146 78.3204 38.8146C78.0088 38.8146 77.8011 39.0222 77.8011 39.7486C77.8011 40.4751 78.0088 40.6827 78.3204 40.6827C78.6321 40.7865 78.8398 40.4751 78.8398 39.7486Z" fill="white"/>
<path d="M83.3066 38.5032C83.3066 38.2957 83.2027 38.1919 83.2027 37.9843V37.0503H83.9298V41.2016H83.3066L83.2027 40.8903C83.0988 41.0978 82.7872 41.3054 82.4756 41.3054C81.8524 41.3054 81.333 40.7865 81.333 39.7486C81.333 38.8146 81.8524 38.1919 82.5795 38.1919C82.8911 38.2957 83.2027 38.3995 83.3066 38.5032ZM83.2027 39.0222C83.0988 38.9184 82.8911 38.9184 82.6833 38.9184C82.3717 38.9184 82.0601 39.1259 82.0601 39.8524C82.0601 40.5789 82.2679 40.7865 82.6833 40.7865C82.8911 40.7865 83.0988 40.6827 83.2027 40.5789V39.0222Z" fill="white"/>
<path d="M85.3837 39.9562C85.3837 40.4751 85.5915 40.6827 86.1108 40.6827C86.4225 40.6827 86.7341 40.5789 86.9418 40.4751L87.0457 40.994C86.838 41.0978 86.4225 41.3054 86.007 41.3054C85.176 41.3054 84.5527 40.7865 84.5527 39.7486C84.5527 38.8146 84.9682 38.1919 85.9031 38.1919C86.7341 38.1919 87.1496 38.8146 87.1496 39.5411V39.8524H85.3837V39.9562ZM85.9031 38.8146C85.4876 38.8146 85.3837 39.1259 85.3837 39.5411H86.4225C86.4225 39.1259 86.3186 38.8146 85.9031 38.8146Z" fill="white"/>
<path d="M87.6689 40.4754V37.1543H88.3961V40.4754C88.3961 40.6829 88.4999 40.7867 88.8115 40.7867V41.3056C88.8115 41.3056 88.6038 41.3056 88.3961 41.3056C87.8767 41.3056 87.6689 40.9943 87.6689 40.4754Z" fill="white"/>
<path d="M92.2395 37.8808V41.3056H91.4085V37.8808H90.4736V37.2581H93.1743V37.8808H92.2395Z" fill="white"/>
<path d="M95.2519 39.0223C95.1481 39.0223 95.0442 39.0223 94.9403 39.0223C94.7326 39.0223 94.5248 39.1261 94.421 39.2299V41.4093H93.6938V38.5034H94.2132L94.3171 38.9186C94.421 38.711 94.6287 38.5034 95.0442 38.5034C95.1481 38.5034 95.3558 38.5034 95.3558 38.5034L95.2519 39.0223Z" fill="white"/>
<path d="M97.4332 41.3056L97.3293 40.9942C97.2254 41.2018 96.9138 41.4093 96.4983 41.4093C95.979 41.4093 95.5635 40.9942 95.5635 40.4753C95.5635 39.9564 95.979 39.645 96.6022 39.645H97.2254V39.5412C97.2254 39.1261 97.0177 39.0223 96.7061 39.0223C96.3945 39.0223 96.0828 39.1261 95.8751 39.2299L95.6673 38.711C95.979 38.6072 96.3945 38.5034 96.8099 38.5034C97.6409 38.5034 97.9526 38.9186 97.9526 39.645V41.5131H97.4332V41.3056ZM97.2254 39.9564H96.7061C96.3945 39.9564 96.2906 40.1639 96.2906 40.3715C96.2906 40.6829 96.3945 40.7866 96.7061 40.7866C96.9138 40.7866 97.1216 40.6829 97.2254 40.5791V39.9564Z" fill="white"/>
<path d="M99.3029 38.6073C99.4068 38.3997 99.7184 38.2959 100.03 38.2959C100.653 38.2959 101.173 38.8148 101.173 39.8526C101.173 40.8905 100.549 41.4094 99.9262 41.4094C99.5107 41.4094 99.3029 41.2018 99.0952 40.9943L98.9913 41.3056H98.6797V37.1543H99.4068V38.1921L99.3029 38.6073ZM99.4068 40.4753C99.5107 40.6829 99.7184 40.7867 99.9262 40.7867C100.238 40.7867 100.549 40.5791 100.549 39.8526C100.549 39.1262 100.342 38.9186 100.03 38.9186C99.8223 38.9186 99.6145 39.0224 99.5107 39.1262V40.4753H99.4068Z" fill="white"/>
<path d="M103.562 41.3056L103.458 40.9943C103.354 41.2018 103.042 41.4094 102.627 41.4094C102.004 41.4094 101.692 40.9943 101.692 40.4753C101.692 39.9564 102.107 39.6451 102.731 39.6451H103.354V39.5413C103.354 39.1262 103.146 39.0224 102.835 39.0224C102.523 39.0224 102.211 39.1262 102.004 39.2299L101.796 38.5035C102.107 38.3997 102.523 38.2959 102.938 38.2959C103.769 38.2959 104.081 38.711 104.081 39.4375V41.3056H103.562ZM103.354 39.9564H102.835C102.523 39.9564 102.419 40.164 102.419 40.3716C102.419 40.6829 102.523 40.7867 102.835 40.7867C103.042 40.7867 103.25 40.6829 103.354 40.5791V39.9564Z" fill="white"/>
<path d="M105.743 41.3056C105.743 42.1359 105.431 42.3434 104.912 42.3434C104.704 42.3434 104.496 42.3434 104.393 42.2396L104.496 41.6169C104.6 41.6169 104.704 41.6169 104.704 41.6169C104.912 41.6169 105.016 41.5132 105.016 41.3056V38.8148L104.704 38.711V38.1921H105.743V41.3056ZM105.016 37.1543H105.743V37.8808H105.016V37.1543Z" fill="white"/>
<path d="M109.067 39.7486C109.067 40.7865 108.548 41.3054 107.717 41.3054C106.886 41.3054 106.366 40.7865 106.366 39.7486C106.366 38.9184 106.886 38.1919 107.717 38.1919C108.651 38.2957 109.067 38.9184 109.067 39.7486ZM108.34 39.7486C108.34 39.0222 108.132 38.8146 107.82 38.8146C107.509 38.8146 107.301 39.0222 107.301 39.7486C107.301 40.4751 107.509 40.6827 107.82 40.6827C108.132 40.7865 108.34 40.4751 108.34 39.7486Z" fill="white"/>
<path d="M54.9489 48.3627L54.4295 48.4665L53.5985 45.4568H54.4295L55.0527 47.9476L55.676 45.4568H56.4031L55.5721 48.4665C55.3643 49.2968 54.9488 49.6081 54.3256 49.6081C54.014 49.6081 53.5985 49.4005 53.4946 49.2968L53.7024 48.7778H53.8062C53.8062 48.7778 54.1179 48.9854 54.3256 48.9854C54.6372 49.0892 54.845 48.8816 54.9489 48.3627Z" fill="white"/>
<path d="M59.3115 47.0138H58.8961V48.4667H58.1689V44.4192H59.4154C60.2464 44.4192 60.8696 44.8343 60.8696 45.6646C60.8696 46.4948 60.2464 47.0138 59.3115 47.0138ZM59.3115 45.0419H58.8961V46.3911H59.3115C59.727 46.3911 60.0387 46.0797 60.0387 45.6646C60.0387 45.2495 59.727 45.0419 59.3115 45.0419Z" fill="white"/>
<path d="M62.9471 46.1832C62.8433 46.1832 62.7394 46.1832 62.6355 46.1832C62.4278 46.1832 62.22 46.287 62.1161 46.3908V48.5702H61.2852V45.6643H61.8045L61.9084 46.0794C62.0123 45.8719 62.22 45.6643 62.6355 45.6643C62.7394 45.6643 62.9471 45.6643 62.9471 45.6643V46.1832Z" fill="white"/>
<path d="M64.0898 47.2211C64.0898 47.74 64.2975 47.9476 64.8169 47.9476C65.1285 47.9476 65.4401 47.8438 65.6479 47.74L65.7517 48.2589C65.544 48.3627 65.1285 48.5703 64.713 48.5703C63.7782 48.5703 63.2588 48.0514 63.2588 47.0135C63.2588 46.0795 63.6743 45.4568 64.6091 45.4568C65.4401 45.4568 65.8556 46.0795 65.8556 46.806V47.1173H64.0898V47.2211ZM64.6091 46.0795C64.1936 46.0795 64.0898 46.3908 64.0898 46.806H65.1285C65.1285 46.3908 65.0246 46.0795 64.6091 46.0795Z" fill="white"/>
<path d="M68.0371 48.4667H66.9983L66.0635 45.5608H66.9983L67.5177 47.9478H67.6216L68.1409 45.5608H68.9719L68.0371 48.4667Z" fill="white"/>
<path d="M69.5948 48.4665V46.0795L69.2832 45.9757V45.4568H70.4258V48.3627H69.5948V48.4665ZM69.5948 44.3152H70.3219V45.0417H69.5948V44.3152Z" fill="white"/>
<path d="M71.6724 46.287C71.6724 46.7022 72.9189 46.5984 72.9189 47.5324C72.9189 48.0514 72.5034 48.4665 71.7763 48.4665C71.4647 48.4665 71.1531 48.3627 70.9453 48.2589L71.1531 47.74C71.2569 47.8438 71.5685 47.9476 71.8802 47.9476C72.0879 47.9476 72.2957 47.8438 72.2957 47.6362C72.2957 47.1173 71.0492 47.3249 71.0492 46.287C71.0492 45.8719 71.3608 45.4568 72.1918 45.4568C72.5034 45.4568 72.815 45.5606 73.0228 45.5606L72.9189 46.0795C72.7112 45.9757 72.5034 45.9757 72.1918 45.9757C71.7763 45.9757 71.6724 46.0795 71.6724 46.287Z" fill="white"/>
<path d="M73.7501 48.4665V46.0795L73.4385 45.9757V45.4568H74.5811V48.3627H73.7501V48.4665ZM73.7501 44.3152H74.4772V45.0417H73.7501V44.3152Z" fill="white"/>
<path d="M77.8008 47.0138C77.8008 48.0516 77.2814 48.5706 76.4504 48.5706C75.6195 48.5706 75.1001 48.0516 75.1001 47.0138C75.1001 46.1835 75.5156 45.4571 76.4504 45.4571C77.2814 45.4571 77.8008 46.0798 77.8008 47.0138ZM75.7233 45.0419L75.6195 44.6268L77.0737 44.2117L77.1776 44.8344L75.7233 45.0419ZM76.9698 47.0138C76.9698 46.2873 76.7621 46.0798 76.4504 46.0798C76.1388 46.0798 75.9311 46.2873 75.9311 47.0138C75.9311 47.7403 76.1388 47.9479 76.4504 47.9479C76.8659 47.9479 76.9698 47.7403 76.9698 47.0138Z" fill="white"/>
<path d="M80.0862 48.4665V46.7022C80.0862 46.2871 79.8784 46.0795 79.5668 46.0795C79.359 46.0795 79.1513 46.1833 79.0474 46.287V48.4665H78.3203V45.5606H78.8397L78.9436 45.8719C79.1513 45.6644 79.4629 45.4568 79.8784 45.4568C80.6055 45.4568 80.9171 45.8719 80.9171 46.5984V48.4665H80.0862Z" fill="white"/>
<path d="M84.0336 48.5705C83.5142 48.5705 83.0987 48.3629 82.7871 48.1554L83.0987 47.5327C83.3065 47.7402 83.722 47.9478 84.1375 47.9478C84.4491 47.9478 84.7607 47.7402 84.7607 47.4289C84.7607 46.5986 82.891 47.0138 82.891 45.5608C82.891 44.9381 83.4103 44.4192 84.2413 44.4192C84.6568 44.4192 85.0723 44.523 85.3839 44.7305L85.1762 45.3532C84.9684 45.2495 84.6568 45.1457 84.2413 45.1457C83.9297 45.1457 83.6181 45.2495 83.6181 45.5608C83.6181 46.2873 85.4878 45.9759 85.4878 47.4289C85.3839 47.9478 84.8646 48.5705 84.0336 48.5705Z" fill="white"/>
<path d="M88.604 47.0135C88.604 48.0514 88.0847 48.5703 87.2537 48.5703C86.4227 48.5703 85.9033 48.0514 85.9033 47.0135C85.9033 46.1833 86.4227 45.4568 87.2537 45.4568C88.0847 45.4568 88.604 46.0795 88.604 47.0135ZM87.773 47.0135C87.773 46.287 87.5653 46.0795 87.2537 46.0795C86.9421 46.0795 86.7343 46.287 86.7343 47.0135C86.7343 47.74 86.9421 47.9476 87.2537 47.9476C87.5653 47.9476 87.773 47.74 87.773 47.0135Z" fill="white"/>
<path d="M91.4083 48.2592C91.2005 48.363 90.8889 48.4667 90.4734 48.4667C89.6424 48.4667 89.123 47.9478 89.123 46.91C89.123 45.976 89.6424 45.3533 90.4734 45.3533C90.8889 45.3533 91.2005 45.4571 91.4083 45.5608L91.2005 46.0797C90.9928 45.976 90.6811 45.8722 90.4734 45.8722C90.0579 45.8722 89.8502 46.1835 89.8502 46.8062C89.8502 47.4289 90.0579 47.7403 90.4734 47.7403C90.785 47.7403 91.0966 47.6365 91.2005 47.5327L91.4083 48.2592Z" fill="white"/>
<path d="M92.1358 48.4665V46.0795L91.8242 45.9757V45.4568H92.9668V48.3627H92.1358V48.4665ZM92.1358 44.3152H92.863V45.0417H92.1358V44.3152Z" fill="white"/>
<path d="M95.3556 48.4665L95.2517 48.1551C95.1478 48.3627 94.8362 48.5703 94.4207 48.5703C93.7975 48.5703 93.4858 48.1551 93.4858 47.6362C93.4858 47.1173 93.9013 46.806 94.5246 46.806H95.1478V46.7022C95.1478 46.287 94.9401 46.1833 94.6284 46.1833C94.3168 46.1833 94.0052 46.287 93.7975 46.3908L93.5897 45.6644C93.9013 45.5606 94.3168 45.4568 94.7323 45.4568C95.5633 45.4568 95.8749 45.8719 95.8749 46.5984V48.4665H95.3556ZM95.1478 47.2211H94.6284C94.3168 47.2211 94.2129 47.4287 94.2129 47.6362C94.2129 47.9476 94.3168 48.0514 94.6284 48.0514C94.8362 48.0514 95.0439 47.9476 95.1478 47.8438V47.2211Z" fill="white"/>
<path d="M96.6021 47.6362V44.3152H97.3292V47.6362C97.3292 47.8438 97.433 47.9476 97.7447 47.9476V48.4665C97.7447 48.4665 97.5369 48.4665 97.3292 48.4665C96.8098 48.5703 96.6021 48.1551 96.6021 47.6362Z" fill="white"/>
</g>
<defs>
<clipPath id="clip0">
<rect width="118" height="107" fill="white"/>
</clipPath>
</defs>
</svg>
