<svg width="293" height="88" viewBox="0 0 293 88" fill="none" xmlns="http://www.w3.org/2000/svg">
<g clip-path="url(#clip0)">
<path d="M0.931488 76.5168H2.35525V85.529H0.931488V76.5168Z" fill="white"/>
<path d="M9.70128 81.4815V85.5215H8.31539V81.3602C8.31539 80.4355 7.73982 79.8898 6.96735 79.8898C6.08129 79.8898 5.49815 80.5492 5.49815 81.4588V85.5139H4.09711V78.7907H5.47543V79.67C5.77079 79.1394 6.46752 78.624 7.36873 78.624C9.09543 78.6391 9.70128 80.0186 9.70128 81.4815Z" fill="white"/>
<path d="M11.3371 77.4036H12.723V78.8059H14.0862V79.9656H12.723V83.096C12.723 84.142 13.1244 84.3693 13.8665 84.3693C13.9801 84.3693 14.1392 84.3542 14.1392 84.3542V85.5669C14.1392 85.5669 13.8968 85.62 13.4576 85.62C11.8218 85.62 11.3371 84.5285 11.3371 82.8761V79.9656H10.5949V78.8059H11.3371V77.4036V77.4036Z" fill="white"/>
<path d="M18.1303 78.6391C20.1599 78.6391 21.3565 80.0414 21.3565 82.1561C21.3565 82.2698 21.3565 82.3911 21.3413 82.5047H16.29C16.3127 83.7023 17.176 84.4755 18.3726 84.4755C19.3874 84.4755 19.9706 83.907 20.228 83.5356L21.152 84.2329C20.8339 84.7862 19.9403 85.7034 18.3499 85.7034C16.2521 85.7034 14.8662 84.2329 14.8662 82.2016C14.8662 80.1096 16.29 78.6391 18.1303 78.6391ZM19.9327 81.5345C19.8797 80.4279 19.1072 79.8064 18.1454 79.8064C17.1836 79.8064 16.4339 80.4734 16.343 81.5345H19.9327Z" fill="white"/>
<path d="M22.4924 76.2212H23.8935V85.529H22.4924V76.2212Z" fill="white"/>
<path d="M26.1579 76.2667C26.6501 76.2667 27.0288 76.6532 27.0288 77.1459C27.0288 77.6386 26.6425 78.0176 26.1579 78.0176C25.6732 78.0176 25.2794 77.631 25.2794 77.1459C25.2794 76.6608 25.6732 76.2667 26.1579 76.2667ZM25.4611 78.8059H26.8622V85.529H25.4611V78.8059Z" fill="white"/>
<path d="M29.3083 86.2718C29.5507 86.4159 30.3383 86.7873 31.2774 86.7873C32.3982 86.7873 33.3903 86.378 33.3903 85.1046V84.6574C33.2388 84.8772 32.5648 85.7034 31.2395 85.7034C29.3083 85.7034 28.0209 84.2481 28.0209 82.1864C28.0209 80.1172 29.3613 78.6467 31.2622 78.6467C32.5194 78.6467 33.2464 79.4047 33.4509 79.7154V78.8135H34.7762V84.6422C34.7762 87.1662 33.2464 88 31.2925 88C30.3913 88 29.4522 87.7044 28.8615 87.3557L29.3083 86.2718ZM31.4212 79.8898C30.2625 79.8898 29.4295 80.8145 29.4295 82.1712C29.4295 83.5507 30.2928 84.4527 31.4364 84.4527C32.6481 84.4527 33.4281 83.4977 33.4281 82.1712C33.4281 80.7917 32.5799 79.8898 31.4212 79.8898Z" fill="white"/>
<path d="M39.1686 78.6391C41.1982 78.6391 42.3948 80.0414 42.3948 82.1561C42.3948 82.2698 42.3948 82.3911 42.3797 82.5047H37.3283C37.3511 83.7023 38.2144 84.4755 39.411 84.4755C40.4258 84.4755 41.0089 83.907 41.2664 83.5356L42.1903 84.2329C41.8723 84.7862 40.9786 85.7034 39.3882 85.7034C37.2905 85.7034 35.9046 84.2329 35.9046 82.2016C35.897 80.1096 37.3283 78.6391 39.1686 78.6391ZM40.971 81.5345C40.918 80.4279 40.1456 79.8064 39.1838 79.8064C38.222 79.8064 37.4722 80.4734 37.3813 81.5345H40.971Z" fill="white"/>
<path d="M49.135 81.4815V85.5215H47.7491V81.3602C47.7491 80.4355 47.1735 79.8898 46.401 79.8898C45.515 79.8898 44.9318 80.5492 44.9318 81.4588V85.5139H43.5308V78.7907H44.9091V79.67C45.2045 79.1394 45.9012 78.624 46.8024 78.624C48.5291 78.6391 49.135 80.0186 49.135 81.4815Z" fill="white"/>
<path d="M55.5571 80.6477C55.2465 80.3521 54.6331 79.9125 53.7849 79.9125C52.5126 79.9125 51.6644 80.8903 51.6644 82.1637C51.6644 83.4522 52.5883 84.4452 53.8379 84.4452C54.7013 84.4452 55.3071 83.9525 55.5873 83.7023L55.9887 84.862C55.6555 85.1576 54.883 85.6958 53.7622 85.6958C51.7174 85.6958 50.2482 84.1874 50.2482 82.1712C50.2482 80.1626 51.7553 78.6467 53.7471 78.6467C54.8527 78.6467 55.6025 79.1394 55.9887 79.4729L55.5571 80.6477Z" fill="white"/>
<path d="M57.7987 76.2667C58.291 76.2667 58.6696 76.6532 58.6696 77.1459C58.6696 77.6386 58.2834 78.0176 57.7987 78.0176C57.314 78.0176 56.9202 77.631 56.9202 77.1459C56.9202 76.6608 57.3065 76.2667 57.7987 76.2667ZM57.102 78.8059H58.503V85.529H57.102V78.8059Z" fill="white"/>
<path d="M62.2594 81.2389C63.0318 81.2389 63.6074 81.4967 63.8649 81.7316V81.1025C63.8649 80.3294 63.3272 79.867 62.4411 79.867C61.6914 79.867 61.0552 80.1247 60.563 80.3976L60.0253 79.4198C60.563 79.0712 61.4642 78.6467 62.585 78.6467C64.5768 78.6467 65.2583 79.7306 65.2583 81.1935V85.529H64.0391L63.9255 85.0288C63.5771 85.4153 63.0394 85.6958 62.1988 85.6958C60.7826 85.6958 59.6617 84.809 59.6617 83.4522C59.6617 82.1561 60.722 81.2389 62.2594 81.2389ZM62.4941 84.574C63.3196 84.574 63.9103 84.1116 63.9103 83.4143C63.9103 82.7094 63.3348 82.2546 62.4866 82.2546C61.6384 82.2546 61.0704 82.7473 61.0704 83.4143C61.0704 84.0813 61.6459 84.574 62.4941 84.574Z" fill="white"/>
<path d="M71.6956 82.8989L70.7565 85.5215H69.3176L72.5968 76.5092H74.0736L77.3528 85.5215H75.9139L74.9899 82.8989H71.6956ZM73.339 78.0631L72.0894 81.7089H74.581L73.339 78.0631Z" fill="white"/>
<path d="M81.5786 80.0565C80.1094 80.0565 79.6853 81.1783 79.6853 82.6336V85.529H78.2843V78.8059H79.6626V79.8594C79.9201 79.1924 80.6244 78.6391 81.5786 78.6391V80.0565Z" fill="white"/>
<path d="M83.1236 77.4036H84.5094V78.8059H85.8726V79.9656H84.5094V83.096C84.5094 84.142 84.9108 84.3693 85.653 84.3693C85.7666 84.3693 85.9256 84.3542 85.9256 84.3542V85.5669C85.9256 85.5669 85.6833 85.62 85.244 85.62C83.6082 85.62 83.1236 84.5285 83.1236 82.8761V79.9656H82.3814V78.8059H83.1236V77.4036Z" fill="white"/>
<path d="M87.7432 76.2667C88.2355 76.2667 88.6141 76.6532 88.6141 77.1459C88.6141 77.6386 88.2279 78.0176 87.7432 78.0176C87.2585 78.0176 86.8647 77.631 86.8647 77.1459C86.8647 76.6608 87.251 76.2667 87.7432 76.2667ZM87.0465 78.8059H88.4475V85.529H87.0465V78.8059Z" fill="white"/>
<path d="M90.2727 79.9656H89.5381V78.8059H90.2727V78.5103C90.2727 76.7973 91.3632 76.2288 92.5598 76.2288C92.8324 76.2288 93.0596 76.2515 93.0596 76.2515V77.4491C93.0596 77.4491 92.8778 77.4264 92.7264 77.4264C92.0448 77.4264 91.6737 77.775 91.6737 78.533V78.8059H92.9763V79.9656H91.6737V85.529H90.2727V79.9656Z" fill="white"/>
<path d="M94.703 76.2667C95.1953 76.2667 95.5739 76.6532 95.5739 77.1459C95.5739 77.6386 95.1877 78.0176 94.703 78.0176C94.2183 78.0176 93.8245 77.631 93.8245 77.1459C93.8245 76.6608 94.2107 76.2667 94.703 76.2667ZM94.0063 78.8059H95.4073V85.529H94.0063V78.8059Z" fill="white"/>
<path d="M101.882 80.6477C101.572 80.3521 100.958 79.9125 100.11 79.9125C98.838 79.9125 97.9898 80.8903 97.9898 82.1637C97.9898 83.4522 98.9137 84.4452 100.163 84.4452C101.027 84.4452 101.632 83.9525 101.913 83.7023L102.314 84.862C101.981 85.1576 101.208 85.6958 100.088 85.6958C98.0428 85.6958 96.5736 84.1874 96.5736 82.1712C96.5736 80.1626 98.0806 78.6467 100.072 78.6467C101.178 78.6467 101.928 79.1394 102.314 79.4729L101.882 80.6477Z" fill="white"/>
<path d="M104.117 76.2667C104.609 76.2667 104.987 76.6532 104.987 77.1459C104.987 77.6386 104.601 78.0176 104.117 78.0176C103.632 78.0176 103.238 77.631 103.238 77.1459C103.238 76.6608 103.632 76.2667 104.117 76.2667ZM103.427 78.8059H104.828V85.529H103.427V78.8059Z" fill="white"/>
<path d="M108.585 81.2389C109.357 81.2389 109.933 81.4967 110.19 81.7316V81.1025C110.19 80.3294 109.653 79.867 108.766 79.867C108.017 79.867 107.381 80.1247 106.888 80.3976L106.351 79.4198C106.888 79.0712 107.79 78.6467 108.91 78.6467C110.902 78.6467 111.584 79.7306 111.584 81.1935V85.529H110.364L110.251 85.0288C109.902 85.4153 109.365 85.6958 108.524 85.6958C107.108 85.6958 105.987 84.809 105.987 83.4522C105.987 82.1561 107.04 81.2389 108.585 81.2389ZM108.812 84.574C109.637 84.574 110.228 84.1116 110.228 83.4143C110.228 82.7094 109.653 82.2546 108.804 82.2546C107.956 82.2546 107.388 82.7473 107.388 83.4143C107.388 84.0813 107.964 84.574 108.812 84.574Z" fill="white"/>
<path d="M113.06 76.2212H114.462V85.529H113.06V76.2212Z" fill="white"/>
<path d="M119.263 78.8059H120.588V79.6927C120.77 79.4501 121.452 78.6391 122.747 78.6391C124.663 78.6391 126.026 80.1096 126.026 82.1561C126.026 84.2405 124.754 85.6958 122.837 85.6958C121.565 85.6958 120.846 84.9227 120.664 84.6422V87.9394H119.263V78.8059ZM122.618 84.4451C123.784 84.4451 124.61 83.5053 124.61 82.1561C124.61 80.7766 123.746 79.8898 122.603 79.8898C121.368 79.8898 120.611 80.9206 120.611 82.1561C120.611 83.6114 121.505 84.4451 122.618 84.4451Z" fill="white"/>
<path d="M129.388 81.2389C130.161 81.2389 130.736 81.4967 130.994 81.7316V81.1025C130.994 80.3294 130.456 79.867 129.57 79.867C128.82 79.867 128.184 80.1247 127.692 80.3976L127.154 79.4198C127.692 79.0712 128.593 78.6467 129.714 78.6467C131.706 78.6467 132.387 79.7306 132.387 81.1935V85.529H131.168L131.054 85.0288C130.706 85.4153 130.168 85.6958 129.328 85.6958C127.912 85.6958 126.791 84.809 126.791 83.4522C126.791 82.1561 127.843 81.2389 129.388 81.2389ZM129.623 84.574C130.449 84.574 131.039 84.1116 131.039 83.4143C131.039 82.7094 130.464 82.2546 129.616 82.2546C128.767 82.2546 128.199 82.7473 128.199 83.4143C128.199 84.0813 128.775 84.574 129.623 84.574Z" fill="white"/>
<path d="M137.158 80.0565C135.689 80.0565 135.265 81.1783 135.265 82.6336V85.529H133.864V78.8059H135.242V79.8594C135.5 79.1924 136.204 78.6391 137.158 78.6391V80.0565Z" fill="white"/>
<path d="M140.392 81.2389C141.165 81.2389 141.74 81.4967 141.998 81.7316V81.1025C141.998 80.3294 141.46 79.867 140.574 79.867C139.824 79.867 139.188 80.1247 138.696 80.3976L138.158 79.4198C138.696 79.0712 139.597 78.6467 140.718 78.6467C142.71 78.6467 143.391 79.7306 143.391 81.1935V85.529H142.172L142.058 85.0288C141.71 85.4153 141.172 85.6958 140.332 85.6958C138.915 85.6958 137.795 84.809 137.795 83.4522C137.795 82.1561 138.847 81.2389 140.392 81.2389ZM140.619 84.574C141.445 84.574 142.036 84.1116 142.036 83.4143C142.036 82.7094 141.46 82.2546 140.612 82.2546C139.764 82.2546 139.196 82.7473 139.196 83.4143C139.196 84.0813 139.771 84.574 140.619 84.574Z" fill="white"/>
<path d="M155.221 84.7559C154.774 85.1046 153.782 85.6958 152.388 85.6958C149.662 85.6958 147.761 83.672 147.761 81.0191C147.761 78.3662 149.745 76.3425 152.381 76.3425C153.653 76.3425 154.577 76.82 155.107 77.2217L154.683 78.4799C154.297 78.1843 153.471 77.6841 152.418 77.6841C150.54 77.6841 149.245 79.1545 149.245 81.0191C149.245 82.8837 150.502 84.3542 152.434 84.3542C153.607 84.3542 154.44 83.7781 154.796 83.5053L155.221 84.7559Z" fill="white"/>
<path d="M159.56 78.6391C161.627 78.6391 163.119 80.1475 163.119 82.1637C163.119 84.1799 161.605 85.6882 159.56 85.6882C157.5 85.6882 156.008 84.2102 156.008 82.1712C156.008 80.1475 157.545 78.6391 159.56 78.6391ZM159.56 84.4451C160.81 84.4451 161.718 83.4825 161.718 82.1637C161.718 80.8448 160.802 79.8822 159.56 79.8822C158.303 79.8822 157.424 80.86 157.424 82.1712C157.424 83.5053 158.31 84.4451 159.56 84.4451Z" fill="white"/>
<path d="M169.89 81.4815V85.5215H168.504V81.3602C168.504 80.4355 167.928 79.8898 167.156 79.8898C166.27 79.8898 165.687 80.5492 165.687 81.4588V85.5139H164.286V78.7907H165.664V79.67C165.959 79.1394 166.656 78.624 167.557 78.624C169.292 78.6391 169.89 80.0186 169.89 81.4815Z" fill="white"/>
<path d="M174.282 78.6391C176.312 78.6391 177.508 80.0414 177.508 82.1561C177.508 82.2698 177.508 82.3911 177.493 82.5047H172.442C172.465 83.7023 173.328 84.4755 174.525 84.4755C175.539 84.4755 176.123 83.907 176.38 83.5356L177.304 84.2329C176.986 84.7862 176.092 85.7034 174.502 85.7034C172.404 85.7034 171.018 84.2329 171.018 82.2016C171.011 80.1096 172.442 78.6391 174.282 78.6391ZM176.085 81.5345C176.032 80.4279 175.259 79.8064 174.297 79.8064C173.336 79.8064 172.586 80.4734 172.495 81.5345H176.085Z" fill="white"/>
<path d="M183.544 80.6477C183.234 80.3521 182.62 79.9125 181.772 79.9125C180.5 79.9125 179.652 80.8903 179.652 82.1637C179.652 83.4522 180.576 84.4452 181.825 84.4452C182.689 84.4452 183.294 83.9525 183.575 83.7023L183.976 84.862C183.643 85.1576 182.87 85.6958 181.749 85.6958C179.705 85.6958 178.236 84.1874 178.236 82.1712C178.236 80.1626 179.743 78.6467 181.734 78.6467C182.84 78.6467 183.59 79.1394 183.976 79.4729L183.544 80.6477Z" fill="white"/>
<path d="M185.203 77.4036H186.589V78.8059H187.952V79.9656H186.589V83.096C186.589 84.142 186.99 84.3693 187.732 84.3693C187.846 84.3693 188.005 84.3542 188.005 84.3542V85.5669C188.005 85.5669 187.763 85.62 187.323 85.62C185.688 85.62 185.203 84.5285 185.203 82.8761V79.9656H184.461V78.8059H185.203V77.4036Z" fill="white"/>
<path d="M191.314 81.2389C192.087 81.2389 192.662 81.4967 192.92 81.7316V81.1025C192.92 80.3294 192.382 79.867 191.496 79.867C190.746 79.867 190.11 80.1247 189.618 80.3976L189.08 79.4198C189.618 79.0712 190.519 78.6467 191.64 78.6467C193.632 78.6467 194.313 79.7306 194.313 81.1935V85.529H193.094L192.981 85.0288C192.632 85.4153 192.094 85.6958 191.254 85.6958C189.838 85.6958 188.717 84.809 188.717 83.4522C188.717 82.1561 189.77 81.2389 191.314 81.2389ZM191.549 84.574C192.375 84.574 192.965 84.1116 192.965 83.4143C192.965 82.7094 192.39 82.2546 191.542 82.2546C190.693 82.2546 190.125 82.7473 190.125 83.4143C190.125 84.0813 190.701 84.574 191.549 84.574Z" fill="white"/>
<path d="M199.085 80.0565C197.615 80.0565 197.191 81.1783 197.191 82.6336V85.529H195.79V78.8059H197.169V79.8594C197.426 79.1924 198.13 78.6391 199.085 78.6391V80.0565V80.0565Z" fill="white"/>
<path d="M208.263 80.6477C207.953 80.3521 207.339 79.9125 206.491 79.9125C205.219 79.9125 204.371 80.8903 204.371 82.1637C204.371 83.4522 205.295 84.4452 206.544 84.4452C207.408 84.4452 208.013 83.9525 208.294 83.7023L208.695 84.862C208.362 85.1576 207.589 85.6958 206.468 85.6958C204.424 85.6958 202.954 84.1874 202.954 82.1712C202.954 80.1626 204.462 78.6467 206.453 78.6467C207.559 78.6467 208.309 79.1394 208.695 79.4729L208.263 80.6477Z" fill="white"/>
<path d="M212.944 78.6391C215.011 78.6391 216.503 80.1475 216.503 82.1637C216.503 84.1799 214.988 85.6882 212.944 85.6882C210.884 85.6882 209.392 84.2102 209.392 82.1712C209.392 80.1475 210.929 78.6391 212.944 78.6391ZM212.944 84.4451C214.193 84.4451 215.102 83.4825 215.102 82.1637C215.102 80.8448 214.186 79.8822 212.944 79.8822C211.686 79.8822 210.808 80.86 210.808 82.1712C210.808 83.5053 211.694 84.4451 212.944 84.4451Z" fill="white"/>
<path d="M223.273 81.4815V85.5215H221.887V81.3602C221.887 80.4355 221.312 79.8898 220.539 79.8898C219.653 79.8898 219.07 80.5492 219.07 81.4588V85.5139H217.669V78.7907H219.048V79.67C219.343 79.1394 220.04 78.624 220.941 78.624C222.675 78.6391 223.273 80.0186 223.273 81.4815Z" fill="white"/>
<path d="M228.143 77.4036H229.529V78.8059H230.892V79.9656H229.529V83.096C229.529 84.142 229.93 84.3693 230.672 84.3693C230.786 84.3693 230.945 84.3542 230.945 84.3542V85.5669C230.945 85.5669 230.703 85.62 230.263 85.62C228.628 85.62 228.143 84.5285 228.143 82.8761V79.9656H227.401V78.8059H228.143V77.4036Z" fill="white"/>
<path d="M232.013 82.8458V78.8059H233.399V82.9671C233.399 83.8918 233.974 84.4376 234.747 84.4376C235.633 84.4376 236.216 83.7933 236.216 82.8686V78.8134H237.617V85.5366H236.239V84.6574C235.943 85.1955 235.247 85.7034 234.345 85.7034C232.619 85.6958 232.013 84.3163 232.013 82.8458Z" fill="white"/>
<path d="M239.541 83.6569C239.851 84.1041 240.313 84.5361 241.146 84.5361C241.737 84.5361 242.176 84.2405 242.176 83.7023C242.176 82.4138 238.912 82.8762 238.912 80.5492C238.912 79.3668 239.912 78.6467 241.214 78.6467C242.472 78.6467 243.146 79.3819 243.403 79.8973L242.441 80.5416C242.252 80.2309 241.888 79.7988 241.139 79.7988C240.624 79.7988 240.237 80.0717 240.237 80.534C240.237 81.8226 243.517 81.2844 243.517 83.6493C243.517 84.8999 242.464 85.711 241.086 85.711C239.722 85.711 239.003 84.9757 238.67 84.3694L239.541 83.6569Z" fill="white"/>
<path d="M254.975 84.7559C254.528 85.1046 253.536 85.6958 252.142 85.6958C249.416 85.6958 247.515 83.672 247.515 81.0191C247.515 78.3662 249.499 76.3425 252.135 76.3425C253.407 76.3425 254.331 76.82 254.861 77.2217L254.437 78.4799C254.051 78.1843 253.225 77.6841 252.173 77.6841C250.295 77.6841 249 79.1545 249 81.0191C249 82.8837 250.257 84.3542 252.188 84.3542C253.362 84.3542 254.195 83.7781 254.551 83.5053L254.975 84.7559Z" fill="white"/>
<path d="M256.179 76.2212H257.58V85.529H256.179V76.2212Z" fill="white"/>
<path d="M259.844 76.2667C260.337 76.2667 260.715 76.6532 260.715 77.1459C260.715 77.6386 260.329 78.0176 259.844 78.0176C259.36 78.0176 258.966 77.631 258.966 77.1459C258.966 76.6608 259.352 76.2667 259.844 76.2667ZM259.148 78.8059H260.549V85.529H259.148V78.8059Z" fill="white"/>
<path d="M264.994 78.6391C267.024 78.6391 268.22 80.0414 268.22 82.1561C268.22 82.2698 268.22 82.3911 268.205 82.5047H263.154C263.177 83.7023 264.04 84.4755 265.237 84.4755C266.251 84.4755 266.835 83.907 267.092 83.5356L268.016 84.2329C267.698 84.7862 266.804 85.7034 265.214 85.7034C263.116 85.7034 261.73 84.2329 261.73 82.2016C261.723 80.1096 263.154 78.6391 264.994 78.6391ZM266.789 81.5345C266.736 80.4279 265.964 79.8064 265.002 79.8064C264.04 79.8064 263.29 80.4734 263.199 81.5345H266.789Z" fill="white"/>
<path d="M274.961 81.4815V85.5215H273.575V81.3602C273.575 80.4355 272.999 79.8898 272.227 79.8898C271.341 79.8898 270.757 80.5492 270.757 81.4588V85.5139H269.356V78.7907H270.735V79.67C271.03 79.1394 271.727 78.624 272.628 78.624C274.355 78.6391 274.961 80.0186 274.961 81.4815Z" fill="white"/>
<path d="M276.596 77.4036H277.982V78.8059H279.345V79.9656H277.982V83.096C277.982 84.142 278.384 84.3693 279.126 84.3693C279.239 84.3693 279.398 84.3542 279.398 84.3542V85.5669C279.398 85.5669 279.156 85.62 278.717 85.62C277.081 85.62 276.596 84.5285 276.596 82.8761V79.9656H275.854V78.8059H276.596V77.4036Z" fill="white"/>
<path d="M283.39 78.6391C285.419 78.6391 286.616 80.0414 286.616 82.1561C286.616 82.2698 286.616 82.3911 286.601 82.5047H281.549C281.572 83.7023 282.435 84.4755 283.632 84.4755C284.647 84.4755 285.23 83.907 285.487 83.5356L286.411 84.2329C286.093 84.7862 285.2 85.7034 283.609 85.7034C281.511 85.7034 280.126 84.2329 280.126 82.2016C280.126 80.1096 281.549 78.6391 283.39 78.6391ZM285.192 81.5345C285.139 80.4279 284.367 79.8064 283.405 79.8064C282.443 79.8064 281.693 80.4734 281.602 81.5345H285.192Z" fill="white"/>
<path d="M288.153 83.6569C288.464 84.1041 288.926 84.5361 289.759 84.5361C290.349 84.5361 290.789 84.2405 290.789 83.7023C290.789 82.4138 287.525 82.8762 287.525 80.5492C287.525 79.3668 288.524 78.6467 289.827 78.6467C291.084 78.6467 291.758 79.3819 292.015 79.8973L291.054 80.5416C290.864 80.2309 290.501 79.7988 289.751 79.7988C289.236 79.7988 288.85 80.0717 288.85 80.534C288.85 81.8226 292.129 81.2844 292.129 83.6493C292.129 84.8999 291.076 85.711 289.698 85.711C288.335 85.711 287.615 84.9757 287.282 84.3694L288.153 83.6569Z" fill="white"/>
<path d="M0 14.3483C0 6.5261 5.83895 0.568481 13.8438 0.568481C17.3729 0.568481 20.0236 1.74333 21.7351 3.00156L20.2205 7.70853C18.933 6.79897 16.5399 5.58622 13.8514 5.58622C9.03484 5.58622 5.58146 9.34574 5.58146 14.3559C5.58146 19.4419 9.03484 23.1256 13.8514 23.1256C16.7368 23.1256 19.1981 21.837 20.4477 20.9654L21.9623 25.6345C20.3719 26.8093 17.7137 28.1433 13.8438 28.1433C5.53602 28.1282 0 22.1705 0 14.3483Z" fill="white"/>
<path d="M34.6702 7.29164C40.7363 7.29164 45.3635 11.7712 45.3635 17.7668C45.3635 23.7623 40.8878 28.1282 34.6702 28.1282C28.4904 28.1282 24.0147 23.7623 24.0147 17.7668C24.0071 11.7258 28.6343 7.29164 34.6702 7.29164ZM34.6702 23.497C37.8206 23.497 40.1305 21.1473 40.1305 17.7668C40.1305 14.3862 37.813 11.9228 34.6702 11.9228C31.5273 11.9228 29.2477 14.3559 29.2477 17.7668C29.2402 21.1397 31.5576 23.497 34.6702 23.497Z" fill="white"/>
<path d="M51.3918 29.0756C52.0355 29.4167 54.3151 30.44 57.0414 30.44C59.8889 30.44 62.5017 29.5683 62.5017 26.491V25.5814C62.0852 26.1499 60.154 28.1282 56.7006 28.1282C50.9753 28.1282 47.219 23.8381 47.219 17.7288C47.219 11.6196 51.2403 7.29164 56.89 7.29164C60.2297 7.29164 62.2366 9.11076 62.8046 9.87631V7.7919H67.7348V25.1418C67.7348 32.5471 62.9182 34.9347 57.0793 34.9347C54.3454 34.9347 51.5811 34.1009 49.7939 33.1156L51.3918 29.0756ZM57.5413 11.9228C54.5801 11.9228 52.4975 14.1967 52.4975 17.691C52.4975 21.1852 54.618 23.497 57.5791 23.497C60.616 23.497 62.6607 21.2231 62.6607 17.691C62.6607 14.3104 60.6084 11.9228 57.5413 11.9228Z" fill="white"/>
<path d="M88.9777 16.1674V27.6279H83.7446V15.5611C83.7446 13.3554 82.2299 11.991 80.4427 11.991C78.2843 11.991 76.9135 13.5828 76.9135 15.7127V27.6279H71.6805V7.78432H76.7999V10.0961C77.633 8.73178 79.5339 7.28406 82.1088 7.28406C87.7659 7.29164 88.9777 11.9607 88.9777 16.1674Z" fill="white"/>
<path d="M95.5058 0C97.2476 0 98.5805 1.28854 98.5805 3.00155C98.5805 4.70698 97.2552 6.0031 95.5058 6.0031C93.8018 6.0031 92.4689 4.71456 92.4689 3.00155C92.4689 1.28854 93.8018 0 95.5058 0ZM92.9233 7.78432H98.1564V27.6355H92.9233V7.78432V7.78432Z" fill="white"/>
<path d="M102.791 3.60793H107.949V7.78433H111.667V12.0365H107.949V19.7072C107.949 22.6708 108.857 23.2772 110.872 23.2772C111.213 23.2772 111.402 23.2772 111.818 23.2393V27.7189C111.818 27.7189 111.023 27.9084 109.577 27.9084C104.836 27.9084 102.753 25.2479 102.753 19.8587V12.0365H100.671V7.78433H102.791V3.60793V3.60793Z" fill="white"/>
<path d="M117.506 0C119.248 0 120.581 1.28854 120.581 3.00155C120.581 4.70698 119.255 6.0031 117.506 6.0031C115.802 6.0031 114.469 4.71456 114.469 3.00155C114.469 1.28854 115.794 0 117.506 0ZM114.923 7.78432H120.157V27.6355H114.923V7.78432Z" fill="white"/>
<path d="M129.487 27.6355L122.391 7.78432H127.965L132.516 22.0568L137.075 7.78432H142.649L135.56 27.6355H129.487Z" fill="white"/>
<path d="M153.501 7.29164C159.643 7.29164 163.135 11.3922 163.135 17.8804C163.135 18.2594 163.135 18.6384 163.097 19.0174H149.139C149.253 21.6779 151.381 23.5728 154.297 23.5728C156.993 23.5728 158.545 21.9811 159.113 21.1397L162.567 23.7623C161.809 25.1645 159.151 28.1282 154.221 28.1282C147.852 28.1282 143.793 23.7244 143.793 17.7668C143.793 11.7636 147.844 7.29164 153.501 7.29164ZM157.818 15.599C157.705 13.1659 155.963 11.5742 153.57 11.5742C151.108 11.5742 149.51 13.3175 149.283 15.599H157.818Z" fill="white"/>
<path d="M187.52 25.0887C186.498 25.9983 183.423 28.1282 178.947 28.1282C171.17 28.1282 165.482 22.2084 165.482 14.3483C165.482 6.5261 171.359 0.568481 178.872 0.568481C182.855 0.568481 185.695 2.19811 187.104 3.34264L186.119 6.0789C185.097 5.24514 182.477 3.45634 178.955 3.45634C173.078 3.45634 168.678 8.16331 168.678 14.3483C168.678 20.5333 172.889 25.2403 179.031 25.2403C183.052 25.2403 185.665 23.1559 186.581 22.3904L187.52 25.0887Z" fill="white"/>
<path d="M200.455 7.40533C206.408 7.40533 210.732 11.847 210.732 17.7667C210.732 23.6865 206.332 28.1282 200.417 28.1282C194.503 28.1282 190.141 23.7623 190.141 17.7667C190.141 11.8091 194.579 7.40533 200.455 7.40533ZM200.417 25.3919C204.666 25.3919 207.703 22.163 207.703 17.7592C207.703 13.3933 204.666 10.1264 200.417 10.1264C196.169 10.1264 193.208 13.4312 193.208 17.7592C193.208 22.2084 196.207 25.3919 200.417 25.3919Z" fill="white"/>
<path d="M230.339 15.2958V27.6355H227.34V15.1821C227.34 12.0289 225.371 10.134 222.675 10.134C219.638 10.134 217.556 12.3776 217.556 15.6369V27.6355H214.557V7.89801H217.518V10.748C218.464 8.96675 220.668 7.40533 223.395 7.40533C227.992 7.40533 230.339 10.8162 230.339 15.2958Z" fill="white"/>
<path d="M235.58 3.75952H238.579V7.89802H242.903V10.4448H238.579V20.6167C238.579 24.3004 239.639 25.1721 242.222 25.1721C242.6 25.1721 243.055 25.1342 243.055 25.1342V27.7947C243.055 27.7947 242.259 27.9084 241.237 27.9084C237.291 27.9084 235.587 25.3237 235.587 20.8896V10.4372H233.278V7.89044H235.587V3.75952H235.58Z" fill="white"/>
<path d="M252.832 15.0684C255.331 15.0684 257.232 16.0159 258.027 16.8496V14.4165C258.027 11.6424 256.171 10.0507 253.248 10.0507C250.817 10.0507 248.848 10.9223 247.447 11.7561L246.235 9.55797C247.561 8.72421 250.181 7.39777 253.521 7.39777C258.905 7.39777 261.033 10.3993 261.033 14.6136V27.6355H258.451L258.11 25.968C257.088 27.1428 255.414 28.1282 252.764 28.1282C248.439 28.1282 245.251 25.3919 245.251 21.5642C245.251 17.8047 248.394 15.0684 252.832 15.0684ZM253.248 25.6193C256.134 25.6193 258.14 23.9139 258.14 21.5187C258.14 19.0477 256.171 17.456 253.21 17.456C250.211 17.456 248.28 19.1993 248.28 21.5187C248.28 23.8002 250.219 25.6193 253.248 25.6193Z" fill="white"/>
<path d="M280.557 12.6808C279.762 11.847 277.71 10.1795 274.718 10.1795C270.583 10.1795 267.66 13.4842 267.66 17.7743C267.66 22.0265 270.735 25.4071 274.794 25.4071C277.907 25.4071 279.876 23.5879 280.671 22.7845L281.58 25.3313C280.784 26.165 278.353 28.1433 274.673 28.1433C268.796 28.1433 264.547 23.6258 264.547 17.7819C264.547 11.938 268.91 7.4205 274.635 7.4205C278.24 7.4205 280.55 9.12593 281.58 10.1189L280.557 12.6808Z" fill="white"/>
<path d="M285.533 3.75952H288.532V7.89802H292.856V10.4448H288.532V20.6167C288.532 24.3004 289.592 25.1721 292.175 25.1721C292.553 25.1721 293.008 25.1342 293.008 25.1342V27.7947C293.008 27.7947 292.212 27.9084 291.19 27.9084C287.244 27.9084 285.54 25.3237 285.54 20.8896V10.4372H283.231V7.89044H285.54V3.75952H285.533Z" fill="white"/>
<path d="M2.22653 39.528H14.8662V41.3926H4.24858V52.1785H13.5561V54.0431H4.24858V65.4202H15.2979V67.2848H2.22653V39.528Z" fill="white"/>
<path d="M38.275 52.8152L29.4825 39.528H31.9362L39.5852 51.2613L47.272 39.528H49.65L40.8575 52.7697L50.5663 67.2772H48.2262L39.5095 54.3159L30.9517 67.2772H28.6116L38.275 52.8152Z" fill="white"/>
<path d="M65.0236 39.528H71.9985C76.8302 39.528 79.9201 43.1738 79.9201 47.1835C79.9201 51.6631 76.5122 54.9905 71.9985 54.9905H67.0456V67.2772H65.0236V39.528V39.528ZM71.9531 53.1714C75.3232 53.1714 77.8148 50.5943 77.8148 47.2214C77.8148 44.0076 75.2777 41.3926 71.9531 41.3926H67.0381V53.1714H71.9531Z" fill="white"/>
<path d="M94.9302 39.528H107.57V41.3926H96.9523V52.1785H106.26V54.0431H96.9523V65.4202H108.002V67.2848H94.9302V39.528V39.528Z" fill="white"/>
<path d="M124.049 39.528H130.426C135.81 39.528 138.703 43.0146 138.703 47.0622C138.703 50.473 136.643 53.1714 133.554 54.2022L140.604 67.2848H138.347L131.653 54.5964H126.064V67.2848H124.042V39.528H124.049ZM130.502 52.7697C134.228 52.7697 136.56 50.5867 136.56 47.0622C136.56 43.7726 134.341 41.3926 130.38 41.3926H126.064V52.7697H130.502Z" fill="white"/>
<path d="M155.425 39.528H157.447V67.2848H155.425V39.528Z" fill="white"/>
<path d="M174.638 39.528H187.278V41.3926H176.66V52.1785H185.968V54.0431H176.66V65.4202H187.71V67.2848H174.638V39.528Z" fill="white"/>
<path d="M203.75 39.528H205.734L222.728 63.9876V39.528H224.75V67.2848H222.728L205.772 42.7797V67.2848H203.75V39.528Z" fill="white"/>
<path d="M263.374 64.3514C262.624 65.1473 259.254 67.8002 254.187 67.8002C246.304 67.8002 240.283 61.6152 240.283 53.4064C240.283 45.1976 246.463 39.0126 254.066 39.0126C258.466 39.0126 261.511 40.953 262.821 42.0672L262.109 43.8939C261.162 43.0601 258.224 40.9227 254.066 40.9227C247.606 40.9227 242.381 46.236 242.381 53.414C242.381 60.5919 247.334 65.9052 254.187 65.9052C258.981 65.9052 261.912 63.2903 262.707 62.5778L263.374 64.3514Z" fill="white"/>
<path d="M278.747 39.528H291.387V41.3926H280.769V52.1785H290.077V54.0431H280.769V65.4202H291.819V67.2848H278.747V39.528Z" fill="white"/>
</g>
<defs>
<clipPath id="clip0">
<rect width="293" height="88" fill="white"/>
</clipPath>
</defs>
</svg>
