<svg width="25" height="38" viewBox="0 0 25 38" fill="none" xmlns="http://www.w3.org/2000/svg">
<g clip-path="url(#clip0)">
<path d="M14.2829 25.5225C14.2829 27.4882 12.7678 29.2059 10.8085 29.2581C8.79049 29.3103 7.14472 27.6907 7.14472 25.6857V3.58542C7.14472 1.60658 5.53814 0 3.55277 0H0V26.8025C0 32.726 4.80669 37.5327 10.7301 37.5327H11.2983C16.8887 37.5327 21.4276 33.0003 21.4276 27.4033V21.8979C21.4276 21.8913 21.4211 21.8783 21.408 21.8783H14.3025C14.296 21.8783 14.2829 21.8848 14.2829 21.8979V25.5225Z" fill="white"/>
<path d="M21.4274 9.3457C21.4144 9.3457 21.4078 9.3457 21.3948 9.3457H14.2827V16.5492H21.3948C21.4078 16.5492 21.4144 16.5492 21.4274 16.5492C23.3997 16.5296 24.9998 14.9296 24.9998 12.9507C24.9998 10.9653 23.3997 9.35876 21.4274 9.3457Z" fill="white"/>
</g>
<defs>
<clipPath id="clip0">
<rect width="25" height="37.5327" fill="white"/>
</clipPath>
</defs>
</svg>
