<svg width="101" height="44" viewBox="0 0 101 44" fill="none" xmlns="http://www.w3.org/2000/svg">
<path d="M58.375 24.3813C58.375 25.2397 59.075 25.9238 59.9375 25.9238C60.8 25.9238 61.5 25.2272 61.5 24.3813C61.5 23.523 60.8 22.8264 59.9375 22.8264C59.075 22.8264 58.375 23.523 58.375 24.3813ZM8.175 36.3605C4.8875 36.3605 3.65 33.5741 3.65 30.825C3.65 27.9266 4.8875 25.1401 8.175 25.1401C10 25.1401 11.5875 26.3841 11.8125 28.0385H15.3625C14.925 24.2196 11.8375 22.08 8.175 22.08C3.0375 22.08 0 25.9114 0 30.825C0 35.6017 3.0375 39.4331 8.175 39.4331C12.25 39.4331 15.125 36.7959 15.5 32.6536H11.95C11.6875 34.8429 10.425 36.3605 8.175 36.3605ZM29.3 33.0516C29.3 36.8581 26.8625 39.3584 23.0625 39.3584C19.2875 39.3584 16.8375 36.8581 16.8375 33.0516C16.8375 29.2327 19.2875 26.72 23.0625 26.72C26.85 26.72 29.3 29.2203 29.3 33.0516ZM26 33.0516C26 31.136 25.325 29.2078 23.0625 29.2078C20.825 29.2078 20.15 31.136 20.15 33.0516C20.15 34.9549 20.825 36.883 23.0625 36.883C25.3125 36.883 26 34.9549 26 33.0516ZM39.4375 27.0434H42.5875V38.2638C42.5875 40.2292 41.8875 43.5754 36.3375 43.5754C33.9625 43.5754 31.1875 42.4559 31.025 39.7192H34.3125C34.6125 40.9507 35.6125 41.3736 36.7875 41.3736C38.625 41.3736 39.475 40.1173 39.4375 38.4006V36.8332H39.4C38.675 38.0772 37.2375 38.6867 35.7875 38.6867C32.175 38.6867 30.6375 35.95 30.6375 32.6536C30.6375 29.5562 32.4375 26.72 35.8125 26.72C37.4 26.72 38.6125 27.2549 39.4125 28.6481H39.45V27.0434H39.4375ZM39.4375 32.8899C39.4375 30.9369 38.7625 29.2078 36.625 29.2078C34.7625 29.2078 33.95 30.825 33.95 32.6163C33.95 34.3329 34.6 36.2113 36.625 36.2113C38.5 36.2113 39.4375 34.6066 39.4375 32.8899ZM56.1 39.035V31.6584C56.1 28.6854 55.2125 26.7075 51.7 26.7075C50.3 26.7075 48.85 27.3544 48.0125 28.6978H47.95V27.0309H44.8V39.0226H48.1V32.7282C48.1 30.3025 48.875 29.3074 50.6625 29.3074C52.2 29.3074 52.775 30.2776 52.775 32.2555V39.0226H56.1V39.035ZM61.575 27.0434H58.275V39.035H61.575V27.0434ZM70.375 36.4849C70.025 36.5471 69.7 36.572 69.35 36.572C68.2375 36.572 67.95 36.2859 67.95 35.1788V29.2452H70.375V27.0434H67.95V23.4484H64.65V27.0434H62.625V29.2452H64.6375V36.3232C64.6375 38.7116 66.4125 39.1719 68.425 39.1719C69.075 39.1719 69.8 39.147 70.3625 39.0599V36.4849H70.375ZM74.9125 27.0434H71.6V39.035H74.9125V27.0434ZM75.9375 27.0434L80.0625 39.035H83.75L87.825 27.0434H84.5375L82 35.241H81.95L79.4125 27.0558H75.9375V27.0434ZM96.2625 30.5513C96.2625 29.1332 95.2875 28.9217 94.125 28.9217C92.875 28.9217 92.05 29.4318 91.9375 30.7255H88.625C88.8125 27.6405 91.575 26.7075 94.2875 26.7075C96.7 26.7075 99.5875 27.2424 99.5875 30.1159V36.3605C99.5875 37.4552 99.7 38.5374 100.012 39.035H96.6625C96.5375 38.6618 96.45 38.2638 96.425 37.8782C95.375 38.9604 93.8375 39.3584 92.3625 39.3584C90.0875 39.3584 88.2625 38.2265 88.2625 35.7634C88.2625 33.0516 90.3125 32.4048 92.3625 32.1311C94.375 31.8201 96.2625 31.8948 96.2625 30.5513ZM96.2625 33.176C95.7125 33.6612 94.5375 33.6861 93.5125 33.8726C92.4875 34.0841 91.55 34.4324 91.55 35.639C91.55 36.8706 92.5125 37.1691 93.575 37.1691C96.1625 37.1691 96.25 35.129 96.25 34.4075V33.176H96.2625ZM80.1875 12.4395C80.175 12.3897 80.1625 12.3399 80.15 12.3026C80.125 12.2155 80.0625 12.1285 79.975 12.0787C79.8875 12.0165 79.8 11.9916 79.7 11.9916H79.45C79.4125 11.9046 79.35 11.8175 79.275 11.7553C79.0125 11.5563 78.6375 11.606 78.4375 11.8548C78.2375 12.116 78.2875 12.4768 78.5375 12.6882C78.8 12.8873 79.175 12.8375 79.375 12.5763C79.425 12.5141 79.4625 12.427 79.475 12.3524H79.6875C79.7125 12.3524 79.7375 12.3648 79.75 12.3773C79.775 12.3897 79.7875 12.4146 79.7875 12.427C79.7875 12.4395 79.7875 12.4519 79.7875 12.4519V12.5017V12.8873C79.7 12.9246 79.6 12.9744 79.5375 13.0739C79.3375 13.3351 79.375 13.7083 79.6375 13.9073C79.9 14.1063 80.275 14.0566 80.475 13.8078C80.675 13.5466 80.625 13.1734 80.3625 12.9744C80.3 12.9246 80.225 12.8873 80.15 12.8748V12.4395H80.1875ZM80.125 14.38C79.8625 14.181 79.5 14.2307 79.2875 14.492C79.0875 14.7408 79.1375 15.1139 79.3875 15.3254C79.425 15.3503 79.4625 15.3752 79.5 15.3876V15.4747C79.5 15.512 79.475 15.5618 79.45 15.5866C79.4125 15.624 79.375 15.6364 79.3375 15.6488H79.3H78.0875C77.925 15.6488 77.75 15.711 77.625 15.823C77.5 15.9349 77.4125 16.0967 77.3875 16.2584C77.3875 16.3081 77.3875 16.3454 77.3875 16.3703V17.9501C77.2875 17.9875 77.2 18.0497 77.125 18.1367C76.925 18.398 76.975 18.7711 77.225 18.9702C77.475 19.1692 77.8625 19.1319 78.0625 18.8707C78.2625 18.6094 78.2125 18.2362 77.95 18.0372C77.9375 18.0248 77.9125 18.0123 77.9 17.9999V16.3579C77.9 16.3579 77.9 16.333 77.9 16.3081C77.9 16.2708 77.925 16.2335 77.9625 16.2086C77.9875 16.1837 78.0375 16.1713 78.075 16.1713H79.3H79.375C79.5375 16.1464 79.7125 16.0718 79.8125 15.9474C79.9375 15.823 80 15.6488 80 15.4747V15.3752C80.075 15.3379 80.15 15.2757 80.2 15.201C80.425 14.9522 80.3875 14.579 80.125 14.38ZM73.4625 20.3012C73.725 20.5002 74.0875 20.4629 74.3 20.1892C74.5 19.928 74.45 19.5548 74.1875 19.3558C73.9375 19.1568 73.5625 19.2065 73.3625 19.4553C73.325 19.5051 73.3125 19.5424 73.2875 19.5921H70.0875C70.075 19.5921 70.05 19.5921 70.0375 19.5797C70.0125 19.5673 69.975 19.5424 69.9625 19.5175C69.95 19.5051 69.95 19.4926 69.95 19.4926C69.95 19.4678 69.95 19.4553 69.95 19.4553V19.2314V19.1443C69.9375 19.0324 69.875 18.9204 69.7875 18.8458C69.7 18.7711 69.5875 18.7214 69.475 18.7214H67.7875C67.675 18.5597 67.5 18.4477 67.2875 18.4477C66.9625 18.4477 66.7 18.7214 66.7 19.0324C66.7 19.3682 66.9625 19.6295 67.2875 19.6295C67.6125 19.6295 67.875 19.3807 67.8875 19.0573H69.4875C69.525 19.0573 69.55 19.0697 69.575 19.0946C69.6 19.1194 69.625 19.1443 69.625 19.1816V19.219V19.4553V19.5175C69.625 19.5797 69.6375 19.6295 69.675 19.6792C69.725 19.7787 69.8125 19.8658 69.925 19.9031C69.9875 19.928 70.0375 19.928 70.0875 19.928H73.2375C73.275 20.0773 73.35 20.2017 73.4625 20.3012ZM70.9875 17.9004C70.725 17.7013 70.35 17.7511 70.15 18.0123C69.95 18.2736 69.9875 18.6467 70.25 18.8458C70.5125 19.0448 70.8875 18.9951 71.0875 18.7463C71.1 18.7214 71.1125 18.7089 71.125 18.6841H73.825C73.85 18.6841 73.8625 18.6841 73.8875 18.6716C73.925 18.6716 73.95 18.6716 73.9875 18.6592C74.05 18.6467 74.1125 18.6219 74.1625 18.5721C74.275 18.4975 74.3625 18.3855 74.4 18.2487C74.4 18.2238 74.4125 18.1865 74.4125 18.1865C74.4125 18.1367 74.4125 18.1119 74.4125 18.1119V18.0497C74.5125 18.0123 74.6 17.9501 74.6625 17.8631C74.8625 17.6018 74.8125 17.2411 74.5625 17.0421C74.3 16.8306 73.925 16.8928 73.725 17.1416C73.525 17.4028 73.575 17.776 73.825 17.975C73.875 18.0123 73.9375 18.0497 73.9875 18.0621V18.1119C73.9875 18.1243 73.9875 18.1243 73.975 18.1492C73.9625 18.1865 73.9375 18.2238 73.9125 18.2487C73.9 18.2611 73.875 18.2611 73.85 18.2736C73.85 18.2736 73.825 18.2736 73.825 18.286H73.8H71.175C71.175 18.1243 71.1 17.9999 70.9875 17.9004ZM77.6 19.617C77.3375 19.418 76.9625 19.4553 76.7625 19.7165C76.7375 19.7539 76.725 19.7912 76.7 19.8285H75.3625H75.325H75.3C75.2625 19.8285 75.2125 19.8285 75.1625 19.8409C75.0875 19.8534 75.0125 19.8783 74.9375 19.928C74.8 20.0275 74.7125 20.1644 74.6875 20.3261C74.675 20.3758 74.675 20.4132 74.675 20.438V20.4629C74.575 20.5002 74.4875 20.5624 74.425 20.6495C74.225 20.9107 74.275 21.2839 74.525 21.4829C74.7875 21.682 75.1625 21.6322 75.3625 21.3834C75.5625 21.1222 75.5125 20.749 75.2625 20.55C75.2 20.5127 75.15 20.4753 75.0875 20.4629V20.438C75.0875 20.4256 75.0875 20.4132 75.0875 20.3883C75.1 20.3385 75.125 20.2888 75.1625 20.2639C75.175 20.2514 75.2 20.239 75.225 20.239C75.2375 20.239 75.2625 20.239 75.2875 20.239H76.6375C76.675 20.3634 76.75 20.4629 76.85 20.55C77.1125 20.749 77.4875 20.7117 77.675 20.4505C77.9 20.1892 77.85 19.8161 77.6 19.617ZM61.25 2.47545V3.33377C61.25 3.45817 61.3 3.57012 61.375 3.6572C61.45 3.74428 61.5625 3.79403 61.675 3.80647C61.7 3.80647 61.725 3.80647 61.75 3.80647H62.575H62.625C62.6375 3.81891 62.65 3.81891 62.6625 3.81891C62.6875 3.83135 62.7 3.85623 62.7125 3.90599V5.08774C62.5125 5.18725 62.375 5.38628 62.375 5.62263C62.375 5.94606 62.6375 6.20729 62.9625 6.20729C63.2875 6.20729 63.5625 5.94606 63.5625 5.62263C63.5625 5.33653 63.3625 5.10018 63.0875 5.05042V3.94331V3.88111C63.0875 3.85623 63.0875 3.83135 63.075 3.79403C63.05 3.68208 62.975 3.58256 62.8875 3.52037C62.8375 3.48305 62.7875 3.45817 62.725 3.44573C62.7 3.44573 62.675 3.43329 62.6375 3.43329H62.5875H61.7625H61.7375C61.7125 3.43329 61.6875 3.42085 61.6625 3.39597C61.65 3.37109 61.6375 3.34621 61.6375 3.33377V3.19694V2.47545C61.6375 2.45057 61.65 2.42569 61.6625 2.40082C61.675 2.38838 61.7 2.3635 61.7375 2.3635C61.7375 2.35106 61.7625 2.35106 61.775 2.35106H62.0875H62.1375C62.25 2.33862 62.3625 2.28886 62.45 2.21422C62.5375 2.12715 62.5875 2.01519 62.6 1.90324C62.6 1.87836 62.6 1.86592 62.6 1.86592V1.15687C62.825 1.06979 63 0.858323 63 0.597094C63 0.273668 62.7375 0 62.4125 0C62.0875 0 61.8125 0.261229 61.8125 0.597094C61.8125 0.858323 61.9875 1.08223 62.225 1.15687V1.8286V1.85348C62.225 1.85348 62.2125 1.90324 62.2 1.91568C62.175 1.94056 62.15 1.953 62.1125 1.953H62.0875H61.8H61.775C61.7375 1.953 61.7125 1.95299 61.6625 1.96543C61.55 1.97787 61.45 2.05251 61.375 2.13959C61.2875 2.2391 61.25 2.35106 61.25 2.47545ZM54.625 5.08774C54.6125 5.12506 54.6 5.17481 54.6 5.22457V7.22732C54.6 7.2522 54.6 7.27708 54.6 7.30196C54.6125 7.38904 54.65 7.47611 54.7 7.55075C54.7625 7.61295 54.8375 7.67515 54.9125 7.70002C54.95 7.71246 55 7.7249 55.05 7.73734C55.075 7.74978 55.0875 7.74978 55.1125 7.74978H58.0375H58.0875C58.1125 7.73734 58.1375 7.73734 58.15 7.73734C58.2375 7.7249 58.3125 7.68758 58.375 7.62539C58.45 7.56319 58.4875 7.48855 58.525 7.40148C58.5375 7.35172 58.5375 7.3144 58.5375 7.26464V5.02554C58.775 4.93846 58.9375 4.72699 58.9375 4.46576C58.9375 4.14234 58.675 3.88111 58.3375 3.88111C58.0125 3.88111 57.75 4.14234 57.75 4.46576C57.75 4.72699 57.925 4.9509 58.1625 5.02554V7.26464C58.1625 7.27708 58.1625 7.28952 58.1625 7.30196C58.15 7.32684 58.1375 7.33928 58.125 7.35172C58.1125 7.36416 58.0875 7.36416 58.0625 7.3766H58.0375H55.1C55.0875 7.3766 55.0875 7.3766 55.0625 7.36416C55.05 7.36416 55.0375 7.35172 55.0125 7.32684C55 7.3144 54.9875 7.28952 54.9875 7.27708V7.22732V5.24945C54.9875 5.24945 55 5.22457 55 5.21213C55 5.19969 55.0125 5.17481 55.0375 5.16237C55.0625 5.14994 55.075 5.1375 55.0875 5.1375H55.125H55.625C55.7 5.37385 55.925 5.548 56.1875 5.548C56.5125 5.548 56.775 5.28677 56.775 4.9509C56.775 4.62748 56.5125 4.36625 56.1875 4.36625C55.925 4.36625 55.7125 4.52796 55.6375 4.76431H55.1125C55.0875 4.76431 55.0625 4.76431 55.0375 4.76431C54.95 4.77675 54.8625 4.81407 54.8 4.87627C54.7125 4.92602 54.65 5.00066 54.625 5.08774ZM62.1125 7.32684C62.0875 7.22732 62.025 7.12781 61.95 7.05317C61.875 6.97854 61.775 6.91634 61.675 6.87902C61.6375 6.86658 61.575 6.85414 61.5125 6.85414H60.4875C60.375 6.67999 60.1875 6.55559 59.975 6.55559C59.65 6.55559 59.3875 6.81682 59.3875 7.15269C59.3875 7.47611 59.65 7.74978 59.975 7.74978C60.2375 7.74978 60.45 7.58807 60.5375 7.35172H61.5C61.5125 7.35172 61.525 7.36416 61.5375 7.36416C61.5625 7.3766 61.575 7.38904 61.6 7.40148C61.6125 7.41392 61.625 7.4388 61.6375 7.46368V7.47611V8.7947C61.4125 8.88177 61.2625 9.09324 61.2625 9.34203C61.2625 9.66546 61.525 9.92669 61.85 9.92669C62.1875 9.92669 62.45 9.66546 62.45 9.34203C62.45 9.11812 62.3125 8.91909 62.1375 8.81958V7.48855C62.1375 7.42636 62.125 7.3766 62.1125 7.32684ZM57.575 10.6233C57.575 10.6482 57.55 10.6606 57.5375 10.6731C57.525 10.6855 57.5 10.6979 57.4875 10.6979C57.475 10.6979 57.4625 10.6979 57.45 10.6979H57.1125C57.025 10.474 56.8125 10.2999 56.55 10.2999C56.225 10.2999 55.95 10.5735 55.95 10.8845C55.95 11.208 56.2125 11.4816 56.55 11.4816C56.8375 11.4816 57.0625 11.2826 57.125 11.0214H57.45C57.475 11.0214 57.5 11.0214 57.525 11.0089C57.6 10.9965 57.6875 10.9592 57.75 10.9094C57.8125 10.8596 57.8625 10.785 57.8875 10.7104C57.9 10.6606 57.9125 10.6233 57.9125 10.586V8.90665C57.9125 8.85689 57.9125 8.83202 57.8875 8.78226C57.8625 8.70762 57.8125 8.63298 57.75 8.58323C57.6875 8.53347 57.6125 8.49615 57.525 8.48371C57.5125 8.48371 57.4875 8.48371 57.4625 8.48371H56.1625C56.1 8.22248 55.8625 8.02345 55.5875 8.02345C55.2625 8.02345 54.9875 8.28468 54.9875 8.6081C54.9875 8.94397 55.2625 9.19276 55.5875 9.19276C55.8375 9.19276 56.05 9.03105 56.1375 8.80714H57.4875C57.5 8.80714 57.525 8.81958 57.5375 8.83202C57.55 8.84445 57.5625 8.85689 57.575 8.88177V8.89421V10.586C57.575 10.5984 57.575 10.6109 57.575 10.6233ZM57.2 12.937C57.45 12.937 57.6625 12.7878 57.75 12.5639H58.7875C58.8375 12.5639 58.9 12.5514 58.95 12.539C59.0125 12.5141 59.0625 12.4892 59.1125 12.4519C59.2 12.3773 59.275 12.2653 59.275 12.1533C59.2875 12.116 59.2875 12.0912 59.2875 12.0663V11.5687V11.5438C59.3 11.5065 59.325 11.4816 59.35 11.4567C59.35 11.4567 59.375 11.4567 59.3875 11.4567H59.4125H63.025C63.1125 11.6807 63.325 11.8299 63.575 11.8299C63.9 11.8299 64.1625 11.5687 64.1625 11.2453C64.1625 10.9218 63.9 10.6606 63.575 10.6606C63.3 10.6606 63.075 10.8348 63 11.0836H59.4H59.325C59.2625 11.096 59.2125 11.1084 59.15 11.1458C59.0375 11.1955 58.95 11.295 58.9125 11.407C58.8875 11.4692 58.8875 11.5189 58.8875 11.5936V12.1285C58.8875 12.1658 58.8625 12.1782 58.8375 12.2031C58.825 12.2031 58.8125 12.2155 58.8 12.228C58.7875 12.228 58.7875 12.228 58.75 12.228H57.7375C57.6625 11.9792 57.45 11.7926 57.175 11.7926C56.8375 11.7926 56.575 12.0538 56.575 12.3897C56.6 12.6758 56.8625 12.937 57.2 12.937ZM69.1875 7.57563C69.1625 7.56319 69.15 7.55075 69.1375 7.52587C69.125 7.50099 69.1125 7.48855 69.1125 7.48855V4.67724C69.4125 4.63992 69.65 4.39113 69.65 4.09258C69.65 3.75672 69.375 3.50793 69.05 3.50793C68.725 3.50793 68.4625 3.76916 68.4625 4.09258C68.4625 4.32893 68.6 4.52796 68.8 4.62748V7.4388V7.48855C68.8125 7.56319 68.825 7.63783 68.875 7.70002C68.9125 7.76222 68.975 7.81198 69.0375 7.86174C69.1 7.89906 69.175 7.9115 69.2625 7.9115H71.35C71.375 7.9115 71.4 7.92393 71.4125 7.92393C71.4375 7.93637 71.45 7.94881 71.4625 7.97369C71.475 7.98613 71.4875 8.01101 71.4875 8.01101V10.1506C71.4875 10.1506 71.4875 10.1879 71.4875 10.2128C71.4875 10.2377 71.475 10.2626 71.4625 10.275C71.45 10.2874 71.425 10.2999 71.4 10.3123C71.3875 10.3123 71.375 10.3247 71.3625 10.3247H70.925C70.9125 10.163 70.8375 10.0138 70.7 9.91425C70.4375 9.71522 70.0625 9.75253 69.8625 10.0138C69.6625 10.275 69.7125 10.6482 69.9625 10.8472C70.225 11.0462 70.6 10.9965 70.8 10.7477C70.825 10.7228 70.8375 10.6855 70.8625 10.6482H71.3375C71.35 10.6482 71.375 10.6482 71.3875 10.6482C71.425 10.6482 71.4625 10.6357 71.5 10.6233C71.575 10.5984 71.6375 10.5487 71.6875 10.4989C71.7375 10.4491 71.775 10.3745 71.7875 10.2999C71.8 10.2501 71.8 10.1879 71.8 10.1506V8.07321V8.02345C71.7875 7.94881 71.775 7.87418 71.725 7.81198C71.675 7.74978 71.625 7.70002 71.5625 7.66271C71.5 7.62539 71.425 7.60051 71.35 7.60051H69.25C69.225 7.58807 69.2 7.58807 69.1875 7.57563ZM64.2625 10.7104C64.3125 10.8596 64.425 10.9965 64.575 11.0587C64.65 11.096 64.725 11.1084 64.8 11.1084H68.4H68.4875C68.525 11.1084 68.575 11.1084 68.6125 11.096C68.7 11.0711 68.775 11.0462 68.825 10.9965C68.8875 10.9467 68.95 10.8845 68.9875 10.8223C69.025 10.7477 69.05 10.6731 69.0625 10.5984C69.0625 10.5611 69.0625 10.5362 69.0625 10.5113V9.6779C69.2625 9.57838 69.4 9.37935 69.4 9.143C69.4 8.80714 69.1375 8.54591 68.8125 8.54591C68.4875 8.54591 68.2125 8.80714 68.2125 9.143C68.2125 9.41667 68.4 9.64058 68.65 9.71522V10.5113V10.5362C68.6375 10.5611 68.6375 10.586 68.625 10.5984C68.6125 10.6233 68.6 10.6482 68.575 10.6482C68.55 10.6606 68.525 10.6731 68.5125 10.6855H68.4875H64.8125C64.7875 10.6855 64.7625 10.6855 64.7375 10.6731C64.6875 10.6482 64.6625 10.6109 64.65 10.5735C64.65 10.5735 64.6375 10.5611 64.6375 10.5362C64.6375 10.5362 64.6375 10.5113 64.6375 10.4989V9.62814C64.6375 9.6157 64.6375 9.60326 64.6375 9.59082C64.6375 9.56594 64.65 9.54106 64.6625 9.51619C64.6875 9.47887 64.7375 9.44155 64.775 9.44155H64.825H66.225C66.3125 9.64058 66.525 9.77741 66.7625 9.77741C67.0875 9.77741 67.3625 9.51618 67.3625 9.18032C67.3625 8.85689 67.0875 8.58323 66.7625 8.58323C66.4875 8.58323 66.2625 8.76982 66.1875 9.01861H64.8875H64.825C64.7875 9.01861 64.7375 9.01861 64.6875 9.03105C64.5375 9.05593 64.3875 9.15544 64.3 9.30471C64.25 9.36691 64.225 9.45399 64.225 9.52862C64.2125 9.56594 64.2125 9.60326 64.2125 9.62814V10.5113C64.2125 10.5362 64.2125 10.5735 64.2125 10.5984C64.25 10.6357 64.25 10.6731 64.2625 10.7104ZM58.4375 14.3676C58.1875 14.3676 57.975 14.5168 57.8875 14.7283H57.35C57.3125 14.7283 57.2875 14.7159 57.2625 14.7034C57.2375 14.691 57.2125 14.6661 57.1875 14.6288C57.175 14.6039 57.1625 14.5666 57.1625 14.5293V13.6958C57.1625 13.6585 57.1625 13.6088 57.15 13.5714C57.1375 13.4471 57.075 13.3351 57 13.2356C56.925 13.1361 56.825 13.0739 56.7 13.0241C56.6375 13.0117 56.5875 12.9868 56.525 12.9868H56.4625H56.3375C56.2375 12.8002 56.0375 12.6509 55.8 12.6509C55.475 12.6509 55.2125 12.9246 55.2125 13.248C55.2125 13.5714 55.475 13.8327 55.8 13.8327C56.05 13.8327 56.2625 13.6834 56.35 13.4595H56.4625C56.475 13.4595 56.475 13.4595 56.5 13.4719C56.5125 13.4719 56.525 13.4719 56.55 13.4844C56.5875 13.4968 56.6125 13.5093 56.6375 13.5466C56.6625 13.5714 56.675 13.5963 56.675 13.6336C56.675 13.6461 56.675 13.671 56.675 13.6834V14.5168C56.675 14.6412 56.7 14.7656 56.7625 14.8652C56.825 14.9771 56.9125 15.0642 57.0125 15.1264C57.1125 15.1761 57.225 15.2135 57.3375 15.2135H57.8875C57.9875 15.4125 58.1875 15.5493 58.425 15.5493C58.75 15.5493 59.025 15.2881 59.025 14.9647C59.0375 14.6288 58.7625 14.3676 58.4375 14.3676ZM63.225 15.1264C62.8875 15.1264 62.625 15.3876 62.625 15.711C62.625 15.9723 62.7875 16.1837 63.0125 16.2708V16.8057C63.0125 16.8057 63 16.8181 63 16.8306C62.9875 16.8555 62.975 16.8679 62.9625 16.8803C62.95 16.8928 62.925 16.9052 62.9 16.8928H60.375H60.35C60.3375 16.8928 60.325 16.8928 60.3125 16.8803C60.3 16.8679 60.2875 16.8555 60.275 16.8306C60.275 16.8181 60.2625 16.8181 60.2625 16.8181V16.7186C60.55 16.6689 60.75 16.4201 60.75 16.134C60.75 15.8106 60.4875 15.5493 60.15 15.5493C59.825 15.5493 59.55 15.8106 59.55 16.134C59.55 16.4076 59.7375 16.6316 60 16.7062V16.7933V16.843C60 16.8803 60.0125 16.9177 60.0375 16.9425C60.0625 17.0047 60.1125 17.0669 60.175 17.1043C60.2125 17.1291 60.2375 17.1416 60.2875 17.154C60.3 17.154 60.3125 17.1665 60.3375 17.1665C60.35 17.1665 60.3625 17.1665 60.375 17.1665H62.9C62.975 17.1665 63.0375 17.1416 63.1 17.1043C63.1625 17.0669 63.2125 17.0047 63.2375 16.9425C63.25 16.9052 63.2625 16.8803 63.2625 16.8306V16.3081C63.575 16.2833 63.8125 16.0345 63.8125 15.7235C63.8125 15.3876 63.55 15.1264 63.225 15.1264ZM73.1 13.9322C73.3625 14.1312 73.7375 14.0939 73.9375 13.8327C74.1375 13.5714 74.1 13.1983 73.8375 12.9992C73.75 12.937 73.6625 12.8997 73.5625 12.8873C73.55 12.8748 73.55 12.8748 73.55 12.85C73.5 12.8002 73.4375 12.7504 73.3625 12.7256C73.325 12.7131 73.2875 12.7007 73.2625 12.7007C73.2375 12.6882 73.2125 12.6882 73.175 12.6882H69.3C69.275 12.6882 69.2625 12.6882 69.2375 12.6758C69.2125 12.6634 69.2 12.6509 69.1875 12.6385C69.175 12.626 69.1625 12.6012 69.1625 12.5763V12.228V12.2031C69.1625 12.2031 69.1625 12.1533 69.1625 12.1409C69.15 12.0663 69.125 11.9916 69.075 11.9419C69.025 11.8797 68.975 11.8299 68.9125 11.7926C68.85 11.7553 68.7625 11.7428 68.6875 11.7428H67.325C67.2875 11.7428 67.25 11.7428 67.2125 11.7553C67.1375 11.7677 67.075 11.805 67.0125 11.8548C66.95 11.9046 66.9125 11.9668 66.875 12.029C66.85 12.0912 66.825 12.1658 66.825 12.2404V12.7753C66.6 12.8624 66.45 13.0739 66.45 13.3227C66.45 13.6585 66.7125 13.9198 67.0375 13.9198C67.3625 13.9198 67.625 13.6585 67.625 13.3227C67.625 13.0366 67.4375 12.8126 67.175 12.7504V12.228C67.175 12.2031 67.175 12.1782 67.175 12.1658C67.1875 12.1409 67.2 12.1285 67.2125 12.116C67.2375 12.1036 67.25 12.0912 67.275 12.0912C67.2875 12.0912 67.2875 12.0912 67.3125 12.0912H68.675C68.7 12.0912 68.725 12.0912 68.7375 12.1036C68.7625 12.116 68.775 12.1285 68.7875 12.1409C68.8 12.1533 68.8125 12.1782 68.8125 12.1782V12.539C68.8125 12.5639 68.8125 12.5887 68.8125 12.6136C68.825 12.6882 68.85 12.7629 68.8875 12.8251C68.925 12.8873 68.9875 12.937 69.05 12.9744C69.1125 13.0117 69.1875 13.0366 69.275 13.0366H73.05C73.0375 13.0614 73.0125 13.0739 72.9875 13.0987C72.7875 13.36 72.8375 13.7332 73.1 13.9322ZM59.6875 14.1437H65.1375H65.1875C65.2125 14.1437 65.2375 14.1312 65.275 14.1188C65.3875 14.0939 65.4875 14.0193 65.55 13.9198C65.5875 13.8576 65.6 13.8078 65.6125 13.758C65.875 13.6958 66.0625 13.4595 66.0625 13.1858C66.0625 12.8624 65.8 12.6012 65.475 12.6012C65.1375 12.6012 64.875 12.8624 64.875 13.1858C64.875 13.4346 65.0375 13.6585 65.25 13.7456C65.2375 13.7705 65.2 13.7954 65.1875 13.8078C65.175 13.8078 65.175 13.8078 65.15 13.8078H65.125H59.6875C59.675 13.8078 59.675 13.8078 59.65 13.8078C59.8 13.7083 59.9 13.5217 59.9 13.3227C59.9 12.9868 59.625 12.7256 59.3125 12.7256C58.975 12.7256 58.7125 12.9992 58.7125 13.3227C58.7125 13.6336 58.9625 13.8949 59.275 13.9073C59.3125 13.982 59.3625 14.0317 59.425 14.0815C59.475 14.1188 59.5375 14.1437 59.5875 14.1561C59.625 14.1437 59.6625 14.1437 59.6875 14.1437ZM55.6125 12.1658C55.6125 11.8424 55.35 11.5811 55.0125 11.5811C54.7375 11.5811 54.5 11.7802 54.4375 12.0414H54.2625C54.25 12.0414 54.2375 12.029 54.225 12.029C54.2 12.029 54.175 12.0165 54.1625 11.9916C54.15 11.9792 54.1375 11.9543 54.1375 11.917V8.68274V8.59566C54.1375 8.54591 54.125 8.48371 54.1 8.43395C54.0625 8.33444 53.9875 8.24736 53.9 8.1976C53.85 8.17272 53.8 8.14785 53.75 8.13541C53.725 8.13541 53.7 8.12297 53.6625 8.12297H53.6125H52.85H52.825C52.8 8.12297 52.775 8.11053 52.7625 8.08565C52.75 8.06077 52.7375 8.03589 52.7375 8.01101V7.98613V6.04558V6.00826C52.7375 5.99582 52.7375 5.98338 52.75 5.97094C52.7625 5.9585 52.7875 5.93362 52.8125 5.92118C52.825 5.92118 52.8375 5.90874 52.85 5.90874H53.7625C53.875 5.90874 53.975 5.87142 54.05 5.80923C54.1375 5.74703 54.2 5.65995 54.2375 5.548C54.25 5.49824 54.2625 5.44848 54.2625 5.38629V3.83135H54.275C54.6 3.83135 54.875 3.57012 54.875 3.23426C54.875 2.91083 54.6 2.6496 54.275 2.6496C53.95 2.6496 53.6875 2.91083 53.6875 3.23426C53.6875 3.40841 53.7625 3.57012 53.8875 3.68208V5.41116V5.43604C53.875 5.47336 53.8625 5.4858 53.8375 5.51068C53.8125 5.52312 53.8 5.53556 53.7625 5.53556H52.85C52.8 5.53556 52.75 5.548 52.7 5.56044C52.6 5.59776 52.5 5.65995 52.4375 5.74703C52.4125 5.79679 52.3875 5.84655 52.375 5.8963C52.35 5.93362 52.35 5.99582 52.35 6.04558V7.98613V8.06077C52.3625 8.16028 52.4125 8.27224 52.4875 8.34688C52.5625 8.42151 52.6625 8.47127 52.775 8.49615C52.8 8.49615 52.825 8.49615 52.85 8.49615H53.6625C53.675 8.49615 53.6875 8.50859 53.7 8.50859C53.725 8.52103 53.7375 8.53347 53.7375 8.57079C53.75 8.58323 53.75 8.58323 53.75 8.58323V11.8797C53.75 11.9916 53.775 12.1036 53.85 12.1782C53.9125 12.2653 54.0125 12.3275 54.1125 12.3524C54.1625 12.3648 54.2 12.3773 54.25 12.3773H54.4625C54.55 12.5763 54.7625 12.7256 55 12.7256C55.35 12.7504 55.6125 12.4892 55.6125 12.1658ZM58.2375 1.85348C58.475 1.85348 58.675 1.71665 58.7625 1.53005H60.5C60.5625 1.53005 60.625 1.51761 60.675 1.50517C60.725 1.51761 60.775 1.51761 60.825 1.51761C61.1625 1.51761 61.425 1.25639 61.425 0.92052C61.425 0.597094 61.1625 0.335865 60.825 0.335865C60.5 0.335865 60.225 0.597094 60.225 0.92052C60.225 1.0076 60.25 1.06979 60.275 1.14443H58.825C58.775 0.870762 58.5375 0.671731 58.2375 0.671731C57.9125 0.671731 57.65 0.932959 57.65 1.25639C57.65 1.59225 57.9125 1.85348 58.2375 1.85348ZM64.025 2.08983C64.275 2.08983 64.4875 1.92812 64.575 1.71665H65.4875H65.5125H65.525C65.5375 1.71665 65.5375 1.71665 65.55 1.72908L65.5625 1.74152C65.35 1.8286 65.2125 2.04007 65.2125 2.28886C65.2125 2.61229 65.4875 2.87351 65.8 2.87351C66.1375 2.87351 66.4 2.61229 66.4 2.28886C66.4 2.01519 66.2125 1.77884 65.95 1.71665V1.70421C65.925 1.64201 65.8875 1.56737 65.8375 1.53005C65.7875 1.4803 65.725 1.43054 65.65 1.4181C65.6125 1.40566 65.575 1.40566 65.55 1.40566C65.5375 1.40566 65.5125 1.39322 65.5 1.39322H64.625C64.575 1.11955 64.325 0.90808 64.0375 0.90808C63.7125 0.90808 63.4375 1.16931 63.4375 1.50517C63.4375 1.8286 63.7 2.08983 64.025 2.08983ZM64.4125 6.19485C64.45 6.21973 64.5 6.23217 64.55 6.24461C64.575 6.24461 64.6 6.24461 64.65 6.24461H67.075C67.125 6.24461 67.175 6.23217 67.225 6.21973C67.3125 6.18241 67.4 6.13265 67.4625 6.04558C67.525 5.97094 67.55 5.87142 67.55 5.77191V5.22457C67.825 5.17481 68.0375 4.92603 68.0375 4.63992C68.0375 4.31649 67.775 4.05526 67.45 4.05526C67.1125 4.05526 66.85 4.31649 66.85 4.63992C66.85 4.88871 67.0125 5.10018 67.225 5.18725V5.77191C67.225 5.77191 67.2125 5.82167 67.2 5.84655C67.175 5.87142 67.1625 5.8963 67.125 5.8963C67.1125 5.8963 67.1 5.8963 67.075 5.8963H64.6875H64.625H64.6C64.5875 5.8963 64.575 5.8963 64.55 5.88386C64.525 5.87142 64.5 5.84655 64.4875 5.82167C64.475 5.80923 64.475 5.79679 64.4625 5.75947V4.78919C64.7125 4.71455 64.9 4.49064 64.9 4.22942C64.9 3.90599 64.6375 3.63232 64.3 3.63232C63.975 3.63232 63.7125 3.89355 63.7125 4.22942C63.7125 4.50308 63.9 4.72699 64.1375 4.78919V5.75947C64.1375 5.75947 64.15 5.80923 64.15 5.83411C64.1625 5.88386 64.175 5.93362 64.2 5.97094C64.25 6.07046 64.3125 6.14509 64.4125 6.19485ZM67.1 1.3559C67.3875 1.3559 67.625 1.15687 67.6875 0.895641H68.525H68.55C68.575 0.895641 68.6125 0.92052 68.625 0.945399C68.6375 0.957838 68.6375 0.982717 68.6375 0.995157V1.03247V1.15687C68.6375 1.19419 68.6375 1.23151 68.65 1.25639C68.6625 1.31858 68.6875 1.39322 68.725 1.44298C68.7625 1.50517 68.8125 1.55493 68.875 1.57981C68.9375 1.61713 69 1.64201 69.0625 1.65445C69.0875 1.65445 69.125 1.65445 69.1625 1.65445H70.1C70.175 1.90324 70.4 2.07739 70.6625 2.07739C70.9875 2.07739 71.25 1.81616 71.25 1.4803C71.25 1.15687 70.9875 0.895641 70.6625 0.895641C70.4125 0.895641 70.2 1.05735 70.1125 1.26882H69.1375C69.125 1.26882 69.1125 1.26882 69.1125 1.26882C69.1 1.26882 69.0875 1.25639 69.0625 1.25639C69.05 1.24395 69.0375 1.24395 69.0375 1.21907C69.025 1.20663 69.025 1.19419 69.0125 1.16931V1.15687V1.03247C69.0125 1.0076 69.0125 0.970278 69 0.945399C69 0.883202 68.975 0.808565 68.9375 0.758807C68.875 0.634412 68.75 0.547336 68.6125 0.522457C68.5875 0.522457 68.55 0.510018 68.525 0.510018H67.65C67.55 0.310986 67.35 0.174152 67.1125 0.174152C66.7875 0.174152 66.525 0.44782 66.525 0.758807C66.5125 1.09467 66.775 1.3559 67.1 1.3559ZM72.5625 3.75672C72.8875 3.75672 73.15 3.49549 73.15 3.15962C73.15 2.87351 72.95 2.63717 72.675 2.58741V2.52521C72.675 2.50033 72.6875 2.47545 72.7 2.45057C72.7125 2.42569 72.7375 2.41325 72.7625 2.41325C72.775 2.41325 72.775 2.40082 72.7875 2.40082H72.8125H73.35C73.3625 2.40082 73.375 2.41325 73.3875 2.41325C73.4 2.41325 73.4125 2.42569 73.425 2.42569C73.45 2.43813 73.4625 2.46301 73.475 2.48789C73.475 2.48789 73.4875 2.51277 73.475 2.53765V5.27433C73.475 5.32409 73.4875 5.38628 73.5 5.43604C73.5125 5.4858 73.5375 5.53556 73.575 5.58532C73.6375 5.67239 73.725 5.73459 73.8375 5.77191C73.8875 5.78435 73.925 5.79679 74 5.79679H74.525C74.5625 5.87142 74.6125 5.93362 74.6875 5.99582C74.95 6.19485 75.3125 6.14509 75.5125 5.88386C75.7125 5.62263 75.675 5.26189 75.4125 5.06286C75.15 4.86383 74.775 4.90115 74.575 5.16237C74.5125 5.23701 74.4875 5.33653 74.4625 5.4236H73.9875C73.975 5.4236 73.9625 5.4236 73.95 5.4236C73.925 5.41116 73.9 5.39872 73.8875 5.37385C73.875 5.36141 73.875 5.36141 73.875 5.33653C73.875 5.32409 73.8625 5.31165 73.8625 5.28677V2.55009C73.8625 2.50033 73.8625 2.43813 73.85 2.38838C73.825 2.27642 73.75 2.18934 73.65 2.12715C73.6125 2.08983 73.5625 2.07739 73.5125 2.06495C73.4625 2.05251 73.4125 2.04007 73.3625 2.05251H72.8375H72.775C72.75 2.05251 72.725 2.05251 72.7 2.06495C72.5875 2.08983 72.5 2.16447 72.425 2.25154C72.3625 2.33862 72.325 2.45057 72.325 2.55009V2.66204C72.125 2.76156 71.9875 2.96059 71.9875 3.1845C71.975 3.49549 72.2375 3.75672 72.5625 3.75672ZM56.5875 2.94815C56.8 2.94815 57 2.8362 57.1 2.6496H59.6625H59.725C59.7375 2.66204 59.75 2.66204 59.7625 2.67448C59.775 2.68692 59.775 2.69936 59.7875 2.7118V2.74912V3.595C59.525 3.6572 59.3375 3.89355 59.3375 4.16722C59.3375 4.50308 59.6 4.76431 59.925 4.76431C60.2625 4.76431 60.5125 4.50308 60.5125 4.16722C60.5125 3.91843 60.3625 3.70696 60.1375 3.61988V2.74912C60.1375 2.72424 60.1375 2.69936 60.125 2.67448C60.125 2.59985 60.0875 2.51277 60.0375 2.45057C59.975 2.38838 59.9125 2.33862 59.825 2.31374C59.7875 2.3013 59.75 2.28886 59.7 2.28886H57.1625C57.125 2.00275 56.875 1.7664 56.575 1.7664C56.25 1.7664 55.9875 2.02763 55.9875 2.35106C56 2.68692 56.2625 2.94815 56.5875 2.94815ZM65.875 16.4201C65.875 16.1589 65.6875 15.9225 65.4375 15.8479V15.2508C65.4375 15.2508 65.4375 15.2259 65.4375 15.2135C65.4375 15.1886 65.45 15.1761 65.4625 15.1513C65.475 15.1388 65.5 15.1264 65.5125 15.1139C65.525 15.1139 65.5375 15.1139 65.5375 15.1015H70.625H70.725C70.8125 15.1015 70.8875 15.0766 70.9625 15.0269C71.0375 14.9895 71.1 14.9274 71.125 14.8652C71.175 14.7905 71.1875 14.7159 71.1875 14.6288V14.5417C71.375 14.4422 71.5 14.2432 71.5 14.0193C71.5 13.6958 71.2375 13.4222 70.9 13.4222C70.575 13.4222 70.3 13.6834 70.3 14.0193C70.3 14.3303 70.5375 14.5666 70.8375 14.6039V14.6288C70.8375 14.6537 70.825 14.6786 70.825 14.691C70.8125 14.7159 70.8 14.7283 70.775 14.7408C70.7625 14.7532 70.725 14.7656 70.7125 14.7656H65.575H65.55C65.525 14.7656 65.5125 14.7656 65.4875 14.7656C65.45 14.7781 65.4125 14.7781 65.375 14.803C65.3 14.8403 65.2375 14.89 65.1875 14.9522C65.1375 15.0144 65.1125 15.0891 65.0875 15.1637V15.2508V15.8603C64.85 15.9349 64.675 16.1589 64.675 16.4201C64.675 16.756 64.95 17.0172 65.275 17.0172C65.6125 17.0172 65.875 16.756 65.875 16.4201ZM66.85 18.1367H68.0875C68.2 18.1367 68.3 18.087 68.3875 18.0248C68.475 17.9501 68.5375 17.8506 68.55 17.7511C68.5625 17.7014 68.5625 17.664 68.5625 17.664V16.7933V16.7808C68.5625 16.756 68.575 16.7435 68.575 16.7311C68.5875 16.7062 68.625 16.6938 68.65 16.6813C68.6625 16.6689 68.6875 16.6689 68.7 16.6689H71.675C71.675 16.8306 71.75 17.0047 71.9 17.1167C72.1625 17.3157 72.5375 17.266 72.7375 17.0172C72.9375 16.756 72.8875 16.3828 72.625 16.1837C72.375 15.9847 72 16.0345 71.7875 16.2833C71.775 16.2957 71.775 16.3081 71.775 16.3206H68.6875C68.6375 16.3206 68.5875 16.3206 68.5375 16.3454C68.425 16.3828 68.3375 16.445 68.275 16.5445C68.25 16.5942 68.225 16.644 68.225 16.7062C68.2125 16.7311 68.2125 16.7684 68.2125 16.7933V17.6267C68.2125 17.6267 68.2125 17.664 68.2125 17.6765C68.2125 17.7013 68.1875 17.7262 68.1625 17.7511C68.1375 17.7635 68.1125 17.776 68.075 17.776H66.875C66.825 17.5148 66.575 17.3157 66.3 17.3157C65.9625 17.3157 65.7 17.577 65.7 17.9004C65.7 18.2238 65.9625 18.4975 66.3 18.4975C66.55 18.5099 66.75 18.3482 66.85 18.1367ZM75.35 18.5224C75.15 18.7836 75.2 19.1568 75.4625 19.3558C75.725 19.5548 76.1 19.5051 76.3 19.2438C76.5 18.9826 76.45 18.6219 76.1875 18.4104C76.15 18.3855 76.125 18.3731 76.1 18.3482V17.465C76.15 17.4277 76.2 17.3904 76.2375 17.3282C76.4375 17.0669 76.4 16.7062 76.1375 16.4947C75.875 16.2957 75.5 16.3454 75.3 16.5942C75.1 16.8555 75.15 17.2287 75.4125 17.4277C75.4625 17.465 75.5375 17.5023 75.6 17.5272V18.3358C75.5 18.3731 75.4125 18.4353 75.35 18.5224ZM76.375 5.27433C76.6125 5.46092 76.9375 5.43604 77.15 5.22457V7.07805C77.15 7.10293 77.15 7.14025 77.1625 7.15269C77.175 7.2522 77.225 7.32684 77.3 7.40148C77.3625 7.46368 77.4625 7.51343 77.55 7.53831C77.575 7.53831 77.6 7.55075 77.625 7.55075H78.7875H78.8375C78.85 7.55075 78.8875 7.56319 78.9 7.58807C78.9125 7.60051 78.9375 7.62539 78.9375 7.65027V7.67515V8.13541C78.8 8.16028 78.675 8.23492 78.5875 8.34688C78.3875 8.6081 78.4375 8.96885 78.7 9.18032C78.9625 9.37935 79.3375 9.32959 79.5375 9.06837C79.7375 8.81958 79.6875 8.44639 79.425 8.23492C79.3875 8.1976 79.35 8.18516 79.3 8.16028V7.68758V7.63783C79.3 7.61295 79.3 7.58807 79.2875 7.56319C79.275 7.47611 79.225 7.3766 79.15 7.3144C79.075 7.2522 78.9875 7.20245 78.9 7.19001C78.8625 7.17757 78.8375 7.17757 78.8 7.17757H77.675H77.6375C77.6125 7.17757 77.5875 7.15269 77.575 7.14025C77.5625 7.12781 77.55 7.10293 77.5375 7.05317V5.22457C77.5375 5.17481 77.525 5.1375 77.5125 5.0753C77.4875 4.98822 77.425 4.91359 77.35 4.86383C77.3625 4.6648 77.2875 4.4782 77.125 4.34137C76.8625 4.1299 76.5 4.1921 76.2875 4.44089C76.0625 4.71455 76.1125 5.0753 76.375 5.27433ZM74.675 6.65511C74.4125 6.45608 74.0375 6.50584 73.8375 6.75463C73.8 6.80438 73.775 6.85414 73.75 6.9039H72.675C72.5875 6.91634 72.5 6.94122 72.4375 6.99097C72.3625 7.04073 72.3 7.10293 72.275 7.17757C72.2625 7.21489 72.25 7.2522 72.2375 7.30196C72.2375 7.3144 72.225 7.33928 72.225 7.35172V9.87693C72.225 9.96401 72.25 10.0511 72.2875 10.1257C72.325 10.2004 72.3875 10.2626 72.4625 10.2999C72.5375 10.3496 72.625 10.3621 72.7125 10.3621H72.875C72.925 10.4367 72.975 10.5113 73.05 10.5735C73.3125 10.7726 73.6875 10.7228 73.8875 10.474C74.0875 10.2128 74.0375 9.83961 73.7875 9.64058C73.525 9.44155 73.15 9.47887 72.95 9.7401C72.875 9.82717 72.85 9.91425 72.8375 10.0138H72.7125C72.6875 10.0138 72.6625 10.0013 72.65 10.0013C72.625 9.98888 72.6125 9.97645 72.6 9.95157C72.5875 9.92669 72.5875 9.91425 72.5875 9.88937V7.35172C72.5875 7.33928 72.6 7.32684 72.6 7.3144C72.6125 7.30196 72.625 7.27708 72.65 7.26464C72.6625 7.2522 72.6875 7.23976 72.7 7.23976H73.7375C73.7625 7.3766 73.8375 7.48855 73.95 7.58807C74.2125 7.7871 74.5875 7.73734 74.7875 7.47611C74.975 7.21489 74.9375 6.85414 74.675 6.65511ZM75.0125 9.46643C74.8125 9.72766 74.85 10.1008 75.1125 10.2999C75.375 10.4989 75.75 10.4491 75.95 10.1879C76 10.1382 76.025 10.076 76.05 10.0138H77.5C77.525 10.0138 77.5375 10.0262 77.5625 10.0386C77.5875 10.0511 77.6 10.0635 77.6125 10.0884V10.1008V10.8721C77.6125 10.8845 77.6125 10.9094 77.6125 10.9218C77.625 11.0214 77.6625 11.1084 77.725 11.1955C77.7875 11.2701 77.875 11.3323 77.975 11.3572C78.0125 11.3697 78.0625 11.3697 78.1125 11.3697H79.375C79.425 11.3697 79.475 11.3697 79.5125 11.3572C79.6125 11.3323 79.7 11.2826 79.7625 11.208C79.825 11.1333 79.875 11.0462 79.8875 10.9467V10.8721V10.8348C80 10.7974 80.1125 10.7353 80.1875 10.6357C80.3875 10.3745 80.3375 10.0013 80.0875 9.80229C79.825 9.60326 79.45 9.65302 79.25 9.91425C79.05 10.1755 79.1 10.5362 79.35 10.7477C79.4 10.785 79.45 10.8099 79.5 10.8348V10.897C79.5 10.9218 79.4875 10.9343 79.475 10.9592C79.4625 10.9716 79.4375 10.984 79.4125 10.9965C79.4 10.9965 79.3875 10.9965 79.375 10.9965H78.1C78.0875 10.9965 78.075 10.9965 78.0625 10.9965C78.0375 10.984 78.025 10.9716 78 10.9592C77.9875 10.9343 77.975 10.9218 77.975 10.8721V10.1382V10.0884C77.9625 10.0386 77.9625 9.98888 77.9375 9.93913C77.9 9.85205 77.8375 9.76497 77.7625 9.71522C77.6875 9.66546 77.5875 9.62814 77.475 9.62814H76.025C75.9875 9.52863 75.925 9.42911 75.825 9.35447C75.5875 9.15544 75.2 9.2052 75.0125 9.46643ZM73.4 22.8264V22.1796V22.1049C73.4 22.0427 73.3875 21.993 73.375 21.9432C73.35 21.8312 73.2875 21.7317 73.2125 21.6571C73.1375 21.57 73.0375 21.5203 72.9375 21.4829C72.875 21.4705 72.825 21.4581 72.775 21.4581H72.725C72.7 21.3337 72.625 21.2093 72.5125 21.1222C72.25 20.9232 71.875 20.9605 71.675 21.2217C71.475 21.4829 71.525 21.8561 71.7875 22.0552C72.05 22.2542 72.425 22.2169 72.625 21.9556C72.65 21.9183 72.675 21.881 72.7 21.8437H72.725H72.7625C72.7875 21.8437 72.8125 21.8561 72.8375 21.8561C72.875 21.8686 72.925 21.9059 72.9625 21.9432C73 21.9805 73.025 22.0178 73.0375 22.0676C73.05 22.0925 73.05 22.1174 73.05 22.1174V22.8637C72.3 22.9757 71.7375 23.6225 71.7375 24.3938C71.7375 25.2521 72.4375 25.9363 73.2875 25.9363C74.15 25.9363 74.85 25.2397 74.85 24.3938C74.825 23.5603 74.2 22.901 73.4 22.8264ZM77.0625 14.0193C77.325 14.2183 77.6875 14.1685 77.9 13.9198C78.1 13.6585 78.0625 13.2853 77.8 13.0987C77.5375 12.8997 77.1625 12.937 76.9625 13.1983C76.9375 13.2356 76.925 13.2729 76.9 13.2978H75.95H75.925C75.9 13.2978 75.8625 13.2978 75.825 13.3102C75.775 13.3227 75.7125 13.3475 75.6625 13.3973C75.5625 13.4719 75.4875 13.5839 75.4625 13.7083C75.45 13.7456 75.45 13.7705 75.45 13.8078V13.8576C75.3625 13.8949 75.2875 13.9446 75.225 14.0317C75.025 14.2929 75.075 14.6537 75.3375 14.8652C75.6 15.0642 75.975 15.0144 76.1625 14.7656C76.3625 14.5044 76.325 14.1437 76.0625 13.9322C75.9875 13.8824 75.9 13.8451 75.825 13.8202V13.7829C75.825 13.758 75.85 13.7332 75.875 13.7083C75.8875 13.6958 75.9 13.6958 75.9125 13.6834C75.925 13.6834 75.925 13.6834 75.9375 13.6834H76.85C76.875 13.7954 76.95 13.9322 77.0625 14.0193ZM51.2875 6.63023H51.4C51.45 6.63023 51.5 6.63023 51.5375 6.61779C51.65 6.58047 51.7375 6.51828 51.8 6.4312C51.8625 6.34412 51.9 6.23217 51.9 6.13265V4.6648C51.9 4.65236 51.9 4.63992 51.9125 4.62748C51.9125 4.6026 51.9375 4.57772 51.9625 4.57772C51.975 4.57772 51.9875 4.56528 52.0125 4.56528H52.2375C52.3375 4.73943 52.525 4.85139 52.75 4.85139C53.075 4.85139 53.35 4.59016 53.35 4.26673C53.35 3.94331 53.075 3.68208 52.75 3.68208C52.45 3.68208 52.2 3.90599 52.1625 4.1921H52C51.975 4.1921 51.95 4.1921 51.925 4.20454C51.875 4.21698 51.825 4.22942 51.775 4.25429C51.6875 4.31649 51.6125 4.40357 51.5625 4.49064C51.5375 4.5404 51.525 4.59016 51.525 4.65236V4.71455V6.14509C51.525 6.16997 51.5125 6.19485 51.5 6.21973C51.4875 6.24461 51.4625 6.25705 51.4375 6.26949H51.4H51.325C51.25 6.0207 51.025 5.84655 50.75 5.84655C50.425 5.84655 50.1625 6.10777 50.1625 6.44364C50.1625 6.76707 50.425 7.04073 50.75 7.04073C50.9875 7.00341 51.2 6.8417 51.2875 6.63023ZM52.75 10.4118C52.55 10.4118 52.375 10.5113 52.2625 10.6731C52.25 10.6606 52.25 10.6482 52.25 10.6357V10.6233V10.586V9.25496C52.25 9.23008 52.25 9.2052 52.25 9.2052C52.25 9.09324 52.225 8.99373 52.175 8.91909C52.2125 8.84445 52.225 8.76982 52.225 8.68274C52.225 8.35931 51.9625 8.09809 51.625 8.09809C51.3 8.09809 51.0375 8.35931 51.0375 8.68274C51.0375 9.00617 51.3 9.2674 51.625 9.2674C51.65 9.2674 51.6875 9.2674 51.7125 9.25496V10.5735V10.6233C51.7125 10.6606 51.725 10.6979 51.725 10.7228C51.7375 10.7974 51.7625 10.8721 51.8 10.9343C51.875 11.0587 51.9875 11.1706 52.125 11.2328C52.1625 11.2577 52.2 11.2577 52.2375 11.2826C52.3375 11.4692 52.5375 11.5936 52.7625 11.5936C53.0875 11.5936 53.3625 11.3323 53.3625 11.0089C53.35 10.6731 53.075 10.4118 52.75 10.4118Z" fill="white"/>
</svg>
