<svg width="237" height="82" viewBox="0 0 237 82" fill="none" xmlns="http://www.w3.org/2000/svg">
<path fill-rule="evenodd" clip-rule="evenodd" d="M204.914 69.2971C204.999 69.3194 205.048 69.3862 205.039 69.5467C204.157 70.7054 202.744 72.0157 200.863 73.3528C199.022 74.6675 196.87 75.9422 194.601 77.0385C192.212 78.1839 190.113 79.16 187.912 79.7438C185.434 80.3945 183.281 80.6307 181.498 80.4301C180.041 80.2742 178.864 79.8508 177.951 79.1243C177.911 79.0797 177.879 79.004 177.879 78.9282C177.906 78.8257 177.995 78.7544 178.102 78.7232C183.646 77.814 188.741 76.4101 193.474 74.77C198.144 73.1567 202.044 71.2625 204.914 69.2971Z" fill="#00AEC7"/>
<path fill-rule="evenodd" clip-rule="evenodd" d="M204.451 66.6141C201.442 68.4236 195.292 71.0709 189.926 72.6041C183.526 74.4536 178.396 75.3539 174.947 74.877C171.938 74.4358 170.432 73.0319 169.968 72.5105C169.893 72.4525 169.812 72.3812 169.853 72.2832C169.87 72.1807 169.946 72.1005 170.084 72.0737L171.243 71.9801C173.806 71.7974 178.383 71.6681 183.731 70.8659C189.913 69.9478 199.829 68.1384 204.366 66.3378C204.468 66.3601 204.531 66.4448 204.451 66.6141Z" fill="#00AEC7"/>
<path fill-rule="evenodd" clip-rule="evenodd" d="M203.956 74.5249C204.041 74.5293 204.134 74.5917 204.085 74.7521C202.971 77.4351 201.719 79.4496 199.241 80.7064C194.886 82.9036 192.591 81.6691 192.293 81.522C192.212 81.4819 192.15 81.3749 192.15 81.2813C192.168 81.1788 192.244 81.0942 192.346 81.0897C194.24 80.5059 199.954 78.3577 203.818 74.556C203.854 74.5293 203.92 74.5204 203.956 74.5249Z" fill="#00AEC7"/>
<path fill-rule="evenodd" clip-rule="evenodd" d="M232.627 33.2862C232.711 33.3219 232.747 33.3798 232.747 33.4466C232.725 33.5269 232.653 33.5804 232.52 33.5714C231.218 33.2015 228.446 32.4439 224.947 31.5035C216.939 29.3509 186.708 21.3866 186.2 21.2529L186.066 21.2083C184.257 20.6378 182.764 19.7509 181.619 18.5164C181.284 18.1688 180.968 17.79 180.678 17.3443C179.675 15.8111 179.412 13.5649 179.372 13.1415C179.368 13.1014 179.381 13.0078 179.43 12.9543C179.497 12.8875 179.582 12.8786 179.742 12.8964L184.68 14.8128C196.42 19.3008 227.568 31.2495 232.627 33.2862Z" fill="#00AEC7"/>
<path fill-rule="evenodd" clip-rule="evenodd" d="M227.55 28.5219C227.595 28.7225 227.515 28.776 227.336 28.7403C225.576 27.8534 221.542 25.9548 217.505 23.9715C214.095 22.278 190.746 11.4034 189.164 10.6012L186.378 9.18839C185.955 8.98337 185.581 8.75162 185.211 8.52432C184.105 7.85581 183.53 7.37002 182.929 6.62573C182.447 5.99287 182.055 5.20402 181.743 4.4731C181.066 2.80181 181.106 0.609071 181.137 0.20796C181.137 0.150022 181.159 0.0697994 181.253 0.0386019C181.315 -0.00596595 181.382 -0.0193363 181.552 0.0386019L184.449 1.79903L186.013 2.75724L194.57 7.92712C206.496 15.2942 223.2 25.8077 227.55 28.5219Z" fill="#00AEC7"/>
<path fill-rule="evenodd" clip-rule="evenodd" d="M236.152 36.4951C236.232 36.5084 236.29 36.5887 236.29 36.6644C236.29 36.7491 236.21 36.7937 236.098 36.7937C231.49 36.4728 190.126 33.7631 190.126 33.7631C189.757 33.7274 189.44 33.6873 189.057 33.567C185.772 32.5508 183.86 30.0283 183.071 27.5013C183.049 27.4077 183.018 27.3052 183.058 27.2116C183.138 27.1447 183.241 27.0913 183.325 27.1002C183.361 27.1091 232.136 35.7597 236.152 36.4951Z" fill="#00AEC7"/>
<path fill-rule="evenodd" clip-rule="evenodd" d="M234.115 39.2851C234.209 39.294 234.28 39.3787 234.28 39.4634C234.262 39.5257 234.209 39.5837 234.133 39.5971C232.43 39.8734 200.983 44.2945 200.787 44.3212C200.587 44.3524 200.404 44.3792 200.23 44.3792C200.047 44.3792 199.869 44.3792 199.7 44.3614C198.193 44.2009 196.754 43.4834 195.421 42.1018C194.762 41.3976 194.142 40.27 194.008 39.8244C193.95 39.753 193.951 39.6862 194 39.606C194.053 39.5347 194.133 39.499 194.205 39.4901C194.205 39.4901 204.763 39.4188 211.412 39.401C216.359 39.392 221.663 39.3742 225.959 39.3519C229.681 39.3386 232.662 39.3341 234.115 39.2851Z" fill="#00AEC7"/>
<path fill-rule="evenodd" clip-rule="evenodd" d="M231.771 42.5207C231.829 42.5207 231.953 42.5029 231.967 42.5697C231.976 42.6187 232.087 42.7034 231.913 42.8015C230.897 43.4789 208.324 52.9005 208.096 52.9808C206.853 53.4131 205.471 53.6315 204.455 51.9334C204.041 51.2203 203.666 50.6454 203.501 50.378C203.43 50.2755 203.185 50.0036 203.853 49.8387C203.853 49.8387 210.204 48.1006 215.869 46.6432C222.407 44.9853 229.823 43.0689 231.771 42.5207Z" fill="#00AEC7"/>
<path fill-rule="evenodd" clip-rule="evenodd" d="M221.854 58.1774C221.948 58.1907 222.01 58.271 221.966 58.4448C219.786 60.9896 211.746 69.872 208.119 73.7806C207.74 74.1683 207.553 74.0079 207.686 73.6068C207.686 73.6068 208.373 71.8597 208.671 70.5182C208.858 69.716 209.032 69.0475 209.478 68.6865C214.184 64.6798 218.73 60.7044 221.712 58.2309L221.854 58.1774Z" fill="#00AEC7"/>
<path fill-rule="evenodd" clip-rule="evenodd" d="M229.244 46.915C229.351 46.9418 229.404 47.0086 229.351 47.2003C227.149 49.0409 217.068 57.5311 211.639 62.0057L211.452 62.1572C209.87 63.365 208.809 63.6547 208.622 61.043C208.56 60.4191 208.488 59.8932 208.488 59.8932C208.39 59.3495 208.56 59.3539 208.76 59.2291C210.53 58.1283 213.926 56.2297 216.631 54.5896C221.44 51.6927 227.078 48.2431 229.244 46.915Z" fill="#00AEC7"/>
<path d="M23.9864 39.4544L14.0433 36.7269C11.3069 35.9692 8.81108 34.7837 8.81108 31.4456C8.81108 27.9648 10.9147 26.2623 15.3358 26.2623H24.1825C28.0911 26.2623 32.7485 24.9609 32.7618 18.5966L16.1157 18.6145C5.86959 18.6234 0 23.7977 0 31.2138C0 38.1218 4.38548 41.9992 12.2027 44.0806L20.8578 46.3713C24.4321 47.334 25.7157 49.5758 25.7157 51.8666C25.7157 55.3696 23.5096 57.4777 18.1347 57.5133L1.52423 57.6381V65.1567H18.4154C28.6571 65.1567 34.5312 59.657 34.5312 52.4148C34.5312 45.1234 31.661 41.5446 23.9864 39.4544ZM105.528 18.5966C95.4555 18.5966 88.5252 24.4128 88.5252 36.406V65.1567H96.6321V36.1297C96.6321 29.957 99.9613 26.2623 106.228 26.2623H108.639C115.752 26.2623 116.915 22.5766 116.915 18.5966H105.528ZM69.3922 18.5966L69.4234 50.8861C69.4234 55.5969 65.5237 57.959 60.385 57.959C54.9655 57.959 51.4224 55.6014 51.4224 50.8861L51.3511 26.7258C51.3422 19.8401 47.0369 18.5966 43.2487 18.5966V52.8649C43.2487 61.52 51.0302 65.7628 60.1176 65.7628C68.9331 65.7628 77.5659 61.52 77.5659 52.8649L77.557 27.7776C77.557 21.0078 75.0166 18.5966 69.3922 18.5966ZM140.3 18.5966H138.258C127.442 18.6145 117.28 26.5743 116.839 42.0795C116.442 56.1807 123.796 66.0614 136.217 66.0614C146.432 66.0614 150.02 58.935 150.02 58.935C150.599 63.7038 153.184 65.1567 158.31 65.1567V25.2283V18.5966H140.3ZM149.534 46.0326C149.534 52.4727 145.844 58.6097 137.813 58.6097C130.633 58.6097 125.49 53.7874 125.815 42.1731C126.136 31.0355 131.506 26.1331 138.584 26.1331C139.141 26.1331 139.658 26.1063 140.166 26.0662V26.0751H149.53V46.0326H149.534Z" fill="white"/>
</svg>
